ISO-10303-21;
HEADER;
FILE_DESCRIPTION(('FreeCAD Model'),'2;1');
FILE_NAME('Open CASCADE Shape Model','2026-03-30T12:17:50',(''),(''),
  'Open CASCADE STEP processor 7.8','FreeCAD','Unknown');
FILE_SCHEMA(('AUTOMOTIVE_DESIGN { 1 0 10303 214 1 1 1 1 }'));
ENDSEC;
DATA;
#1 = APPLICATION_PROTOCOL_DEFINITION('international standard',
  'automotive_design',2000,#2);
#2 = APPLICATION_CONTEXT(
  'core data for automotive mechanical design processes');
#3 = SHAPE_DEFINITION_REPRESENTATION(#4,#10);
#4 = PRODUCT_DEFINITION_SHAPE('','',#5);
#5 = PRODUCT_DEFINITION('design','',#6,#9);
#6 = PRODUCT_DEFINITION_FORMATION('','',#7);
#7 = PRODUCT('Body','Body','',(#8));
#8 = PRODUCT_CONTEXT('',#2,'mechanical');
#9 = PRODUCT_DEFINITION_CONTEXT('part definition',#2,'design');
#10 = ADVANCED_BREP_SHAPE_REPRESENTATION('',(#11,#15),#956);
#11 = AXIS2_PLACEMENT_3D('',#12,#13,#14);
#12 = CARTESIAN_POINT('',(0.,0.,0.));
#13 = DIRECTION('',(0.,0.,1.));
#14 = DIRECTION('',(1.,0.,-0.));
#15 = MANIFOLD_SOLID_BREP('',#16);
#16 = CLOSED_SHELL('',(#17,#226,#273,#298,#323,#347,#371,#396,#420,#460,
    #484,#509,#534,#558,#598,#622,#647,#671,#695,#720,#745,#778,#802,
    #826,#851,#873,#910,#922,#944));
#17 = ADVANCED_FACE('',(#18,#188,#199,#210),#221,.T.);
#18 = FACE_BOUND('',#19,.T.);
#19 = EDGE_LOOP('',(#20,#30,#39,#47,#56,#64,#73,#81,#89,#97,#106,#114,
    #123,#131,#140,#148,#157,#165,#173,#181));
#20 = ORIENTED_EDGE('',*,*,#21,.F.);
#21 = EDGE_CURVE('',#22,#24,#26,.T.);
#22 = VERTEX_POINT('',#23);
#23 = CARTESIAN_POINT('',(-12.5,1.955021301433E-15,-6.));
#24 = VERTEX_POINT('',#25);
#25 = CARTESIAN_POINT('',(-12.5,1.33226762955E-15,-2.));
#26 = LINE('',#27,#28);
#27 = CARTESIAN_POINT('',(-12.5,2.6645352591E-15,-8.));
#28 = VECTOR('',#29,1.);
#29 = DIRECTION('',(0.,-2.22044604925E-16,1.));
#30 = ORIENTED_EDGE('',*,*,#31,.T.);
#31 = EDGE_CURVE('',#22,#32,#34,.T.);
#32 = VERTEX_POINT('',#33);
#33 = CARTESIAN_POINT('',(-14.5,3.287288930983E-15,-8.));
#34 = CIRCLE('',#35,2.);
#35 = AXIS2_PLACEMENT_3D('',#36,#37,#38);
#36 = CARTESIAN_POINT('',(-14.5,2.819200811496E-15,-6.));
#37 = DIRECTION('',(-0.,1.,-2.22044604925E-16));
#38 = DIRECTION('',(0.,-2.22044604925E-16,-1.));
#39 = ORIENTED_EDGE('',*,*,#40,.F.);
#40 = EDGE_CURVE('',#41,#32,#43,.T.);
#41 = VERTEX_POINT('',#42);
#42 = CARTESIAN_POINT('',(-20.5,2.653561626116E-15,-8.));
#43 = LINE('',#44,#45);
#44 = CARTESIAN_POINT('',(-22.5,2.6645352591E-15,-8.));
#45 = VECTOR('',#46,1.);
#46 = DIRECTION('',(1.,0.,0.));
#47 = ORIENTED_EDGE('',*,*,#48,.T.);
#48 = EDGE_CURVE('',#41,#49,#51,.T.);
#49 = VERTEX_POINT('',#50);
#50 = CARTESIAN_POINT('',(-22.5,2.209472416266E-15,-6.));
#51 = CIRCLE('',#52,2.);
#52 = AXIS2_PLACEMENT_3D('',#53,#54,#55);
#53 = CARTESIAN_POINT('',(-20.5,2.819200811496E-15,-6.));
#54 = DIRECTION('',(-0.,1.,-2.22044604925E-16));
#55 = DIRECTION('',(0.,-2.22044604925E-16,-1.));
#56 = ORIENTED_EDGE('',*,*,#57,.F.);
#57 = EDGE_CURVE('',#58,#49,#60,.T.);
#58 = VERTEX_POINT('',#59);
#59 = CARTESIAN_POINT('',(-22.5,1.059589630048E-15,-2.));
#60 = LINE('',#61,#62);
#61 = CARTESIAN_POINT('',(-22.5,-4.662936703426E-15,25.));
#62 = VECTOR('',#63,1.);
#63 = DIRECTION('',(0.,2.22044604925E-16,-1.));
#64 = ORIENTED_EDGE('',*,*,#65,.F.);
#65 = EDGE_CURVE('',#66,#58,#68,.T.);
#66 = VERTEX_POINT('',#67);
#67 = CARTESIAN_POINT('',(-24.5,2.465190328816E-31,6.661338147751E-16));
#68 = CIRCLE('',#69,2.);
#69 = AXIS2_PLACEMENT_3D('',#70,#71,#72);
#70 = CARTESIAN_POINT('',(-24.5,1.931022391796E-15,-2.));
#71 = DIRECTION('',(0.,1.,-4.4E-16));
#72 = DIRECTION('',(0.,-4.4E-16,-1.));
#73 = ORIENTED_EDGE('',*,*,#74,.F.);
#74 = EDGE_CURVE('',#75,#66,#77,.T.);
#75 = VERTEX_POINT('',#76);
#76 = CARTESIAN_POINT('',(-39.5,0.,-0.));
#77 = LINE('',#78,#79);
#78 = CARTESIAN_POINT('',(-39.5,0.,0.));
#79 = VECTOR('',#80,1.);
#80 = DIRECTION('',(1.,0.,0.));
#81 = ORIENTED_EDGE('',*,*,#82,.F.);
#82 = EDGE_CURVE('',#83,#75,#85,.T.);
#83 = VERTEX_POINT('',#84);
#84 = CARTESIAN_POINT('',(-39.5,0.,16.5));
#85 = LINE('',#86,#87);
#86 = CARTESIAN_POINT('',(-39.5,0.,16.5));
#87 = VECTOR('',#88,1.);
#88 = DIRECTION('',(0.,0.,-1.));
#89 = ORIENTED_EDGE('',*,*,#90,.F.);
#90 = EDGE_CURVE('',#91,#83,#93,.T.);
#91 = VERTEX_POINT('',#92);
#92 = CARTESIAN_POINT('',(-24.5,-3.330669073875E-16,16.5));
#93 = LINE('',#94,#95);
#94 = CARTESIAN_POINT('',(0.,0.,16.5));
#95 = VECTOR('',#96,1.);
#96 = DIRECTION('',(-1.,0.,0.));
#97 = ORIENTED_EDGE('',*,*,#98,.T.);
#98 = EDGE_CURVE('',#91,#99,#101,.T.);
#99 = VERTEX_POINT('',#100);
#100 = CARTESIAN_POINT('',(-22.5,-2.997602166488E-15,18.5));
#101 = CIRCLE('',#102,2.);
#102 = AXIS2_PLACEMENT_3D('',#103,#104,#105);
#103 = CARTESIAN_POINT('',(-24.5,-2.553512956638E-15,18.5));
#104 = DIRECTION('',(0.,-1.,4.4E-16));
#105 = DIRECTION('',(0.,4.4E-16,1.));
#106 = ORIENTED_EDGE('',*,*,#107,.F.);
#107 = EDGE_CURVE('',#108,#99,#110,.T.);
#108 = VERTEX_POINT('',#109);
#109 = CARTESIAN_POINT('',(-22.5,-3.476957284179E-15,23.));
#110 = LINE('',#111,#112);
#111 = CARTESIAN_POINT('',(-22.5,-4.662936703426E-15,25.));
#112 = VECTOR('',#113,1.);
#113 = DIRECTION('',(0.,2.22044604925E-16,-1.));
#114 = ORIENTED_EDGE('',*,*,#115,.F.);
#115 = EDGE_CURVE('',#116,#108,#118,.T.);
#116 = VERTEX_POINT('',#117);
#117 = CARTESIAN_POINT('',(-20.5,-4.809224913729E-15,25.));
#118 = CIRCLE('',#119,2.);
#119 = AXIS2_PLACEMENT_3D('',#120,#121,#122);
#120 = CARTESIAN_POINT('',(-20.5,-3.620092731329E-15,23.));
#121 = DIRECTION('',(0.,-1.,2.22044604925E-16));
#122 = DIRECTION('',(0.,-2.22044604925E-16,-1.));
#123 = ORIENTED_EDGE('',*,*,#124,.F.);
#124 = EDGE_CURVE('',#125,#116,#127,.T.);
#125 = VERTEX_POINT('',#126);
#126 = CARTESIAN_POINT('',(-14.5,-3.774758283726E-15,25.));
#127 = LINE('',#128,#129);
#128 = CARTESIAN_POINT('',(-12.5,-4.662936703426E-15,25.));
#129 = VECTOR('',#130,1.);
#130 = DIRECTION('',(-1.,0.,0.));
#131 = ORIENTED_EDGE('',*,*,#132,.F.);
#132 = EDGE_CURVE('',#133,#125,#135,.T.);
#133 = VERTEX_POINT('',#134);
#134 = CARTESIAN_POINT('',(-12.5,-3.330669073875E-15,23.));
#135 = CIRCLE('',#136,2.);
#136 = AXIS2_PLACEMENT_3D('',#137,#138,#139);
#137 = CARTESIAN_POINT('',(-14.5,-3.330669073875E-15,23.));
#138 = DIRECTION('',(0.,-1.,0.));
#139 = DIRECTION('',(0.,0.,1.));
#140 = ORIENTED_EDGE('',*,*,#141,.F.);
#141 = EDGE_CURVE('',#142,#133,#144,.T.);
#142 = VERTEX_POINT('',#143);
#143 = CARTESIAN_POINT('',(-12.5,-3.201702296416E-15,18.5));
#144 = LINE('',#145,#146);
#145 = CARTESIAN_POINT('',(-12.5,2.6645352591E-15,-8.));
#146 = VECTOR('',#147,1.);
#147 = DIRECTION('',(0.,-2.22044604925E-16,1.));
#148 = ORIENTED_EDGE('',*,*,#149,.F.);
#149 = EDGE_CURVE('',#150,#142,#152,.T.);
#150 = VERTEX_POINT('',#151);
#151 = CARTESIAN_POINT('',(-10.5,0.,16.5));
#152 = CIRCLE('',#153,2.);
#153 = AXIS2_PLACEMENT_3D('',#154,#155,#156);
#154 = CARTESIAN_POINT('',(-10.5,-2.620892009167E-15,18.5));
#155 = DIRECTION('',(0.,1.,-4.4E-16));
#156 = DIRECTION('',(0.,-4.4E-16,-1.));
#157 = ORIENTED_EDGE('',*,*,#158,.F.);
#158 = EDGE_CURVE('',#159,#150,#161,.T.);
#159 = VERTEX_POINT('',#160);
#160 = CARTESIAN_POINT('',(0.,0.,16.5));
#161 = LINE('',#162,#163);
#162 = CARTESIAN_POINT('',(0.,0.,16.5));
#163 = VECTOR('',#164,1.);
#164 = DIRECTION('',(-1.,0.,0.));
#165 = ORIENTED_EDGE('',*,*,#166,.F.);
#166 = EDGE_CURVE('',#167,#159,#169,.T.);
#167 = VERTEX_POINT('',#168);
#168 = CARTESIAN_POINT('',(0.,0.,0.));
#169 = LINE('',#170,#171);
#170 = CARTESIAN_POINT('',(0.,0.,0.));
#171 = VECTOR('',#172,1.);
#172 = DIRECTION('',(0.,0.,1.));
#173 = ORIENTED_EDGE('',*,*,#174,.F.);
#174 = EDGE_CURVE('',#175,#167,#177,.T.);
#175 = VERTEX_POINT('',#176);
#176 = CARTESIAN_POINT('',(-10.5,-1.479114197289E-31,6.661338147751E-16)
  );
#177 = LINE('',#178,#179);
#178 = CARTESIAN_POINT('',(-39.5,0.,0.));
#179 = VECTOR('',#180,1.);
#180 = DIRECTION('',(1.,0.,0.));
#181 = ORIENTED_EDGE('',*,*,#182,.T.);
#182 = EDGE_CURVE('',#175,#24,#183,.T.);
#183 = CIRCLE('',#184,2.);
#184 = AXIS2_PLACEMENT_3D('',#185,#186,#187);
#185 = CARTESIAN_POINT('',(-10.5,1.7763568394E-15,-2.));
#186 = DIRECTION('',(0.,-1.,4.4E-16));
#187 = DIRECTION('',(0.,4.4E-16,1.));
#188 = FACE_BOUND('',#189,.T.);
#189 = EDGE_LOOP('',(#190));
#190 = ORIENTED_EDGE('',*,*,#191,.T.);
#191 = EDGE_CURVE('',#192,#192,#194,.T.);
#192 = VERTEX_POINT('',#193);
#193 = CARTESIAN_POINT('',(-15.25,1.7763568394E-15,-4.));
#194 = CIRCLE('',#195,2.25);
#195 = AXIS2_PLACEMENT_3D('',#196,#197,#198);
#196 = CARTESIAN_POINT('',(-17.5,1.7763568394E-15,-4.));
#197 = DIRECTION('',(0.,-1.,-2.22044604925E-16));
#198 = DIRECTION('',(1.,0.,0.));
#199 = FACE_BOUND('',#200,.T.);
#200 = EDGE_LOOP('',(#201));
#201 = ORIENTED_EDGE('',*,*,#202,.T.);
#202 = EDGE_CURVE('',#203,#203,#205,.T.);
#203 = VERTEX_POINT('',#204);
#204 = CARTESIAN_POINT('',(-15.25,-3.774758283726E-15,21.));
#205 = CIRCLE('',#206,2.25);
#206 = AXIS2_PLACEMENT_3D('',#207,#208,#209);
#207 = CARTESIAN_POINT('',(-17.5,-3.774758283726E-15,21.));
#208 = DIRECTION('',(0.,-1.,-2.22044604925E-16));
#209 = DIRECTION('',(1.,0.,0.));
#210 = FACE_BOUND('',#211,.T.);
#211 = EDGE_LOOP('',(#212));
#212 = ORIENTED_EDGE('',*,*,#213,.T.);
#213 = EDGE_CURVE('',#214,#214,#216,.T.);
#214 = VERTEX_POINT('',#215);
#215 = CARTESIAN_POINT('',(-34.9,0.,3.));
#216 = CIRCLE('',#217,1.6);
#217 = AXIS2_PLACEMENT_3D('',#218,#219,#220);
#218 = CARTESIAN_POINT('',(-36.5,0.,3.));
#219 = DIRECTION('',(0.,-1.,0.));
#220 = DIRECTION('',(1.,0.,0.));
#221 = PLANE('',#222);
#222 = AXIS2_PLACEMENT_3D('',#223,#224,#225);
#223 = CARTESIAN_POINT('',(-19.23793103448,-3.778586638983E-16,
    8.398275862069));
#224 = DIRECTION('',(0.,1.,2.22044604925E-16));
#225 = DIRECTION('',(-1.,0.,0.));
#226 = ADVANCED_FACE('',(#227),#268,.T.);
#227 = FACE_BOUND('',#228,.T.);
#228 = EDGE_LOOP('',(#229,#230,#238,#246,#254,#262));
#229 = ORIENTED_EDGE('',*,*,#21,.T.);
#230 = ORIENTED_EDGE('',*,*,#231,.F.);
#231 = EDGE_CURVE('',#232,#24,#234,.T.);
#232 = VERTEX_POINT('',#233);
#233 = CARTESIAN_POINT('',(-12.5,-2.,-2.));
#234 = LINE('',#235,#236);
#235 = CARTESIAN_POINT('',(-12.5,-2.,-2.));
#236 = VECTOR('',#237,1.);
#237 = DIRECTION('',(0.,1.,-4.4E-16));
#238 = ORIENTED_EDGE('',*,*,#239,.F.);
#239 = EDGE_CURVE('',#240,#232,#242,.T.);
#240 = VERTEX_POINT('',#241);
#241 = CARTESIAN_POINT('',(-12.5,-2.,3.774976079671E-16));
#242 = LINE('',#243,#244);
#243 = CARTESIAN_POINT('',(-12.5,-2.,2.199137931034));
#244 = VECTOR('',#245,1.);
#245 = DIRECTION('',(0.,2.22044604925E-16,-1.));
#246 = ORIENTED_EDGE('',*,*,#247,.T.);
#247 = EDGE_CURVE('',#240,#248,#250,.T.);
#248 = VERTEX_POINT('',#249);
#249 = CARTESIAN_POINT('',(-12.5,-10.,1.33226762955E-15));
#250 = LINE('',#251,#252);
#251 = CARTESIAN_POINT('',(-12.5,-2.,-4.440892098501E-16));
#252 = VECTOR('',#253,1.);
#253 = DIRECTION('',(0.,-1.,2.22044604925E-16));
#254 = ORIENTED_EDGE('',*,*,#255,.F.);
#255 = EDGE_CURVE('',#256,#248,#258,.T.);
#256 = VERTEX_POINT('',#257);
#257 = CARTESIAN_POINT('',(-12.5,-10.,-6.));
#258 = LINE('',#259,#260);
#259 = CARTESIAN_POINT('',(-12.5,-10.,-8.));
#260 = VECTOR('',#261,1.);
#261 = DIRECTION('',(0.,2.22044604925E-16,1.));
#262 = ORIENTED_EDGE('',*,*,#263,.F.);
#263 = EDGE_CURVE('',#22,#256,#264,.T.);
#264 = LINE('',#265,#266);
#265 = CARTESIAN_POINT('',(-12.5,1.955021301433E-15,-6.));
#266 = VECTOR('',#267,1.);
#267 = DIRECTION('',(0.,-1.,2.22044604925E-16));
#268 = PLANE('',#269);
#269 = AXIS2_PLACEMENT_3D('',#270,#271,#272);
#270 = CARTESIAN_POINT('',(-12.5,-5.,-4.));
#271 = DIRECTION('',(1.,6.529311625904E-16,1.449798420406E-31));
#272 = DIRECTION('',(6.529311625904E-16,-1.,-2.22044604925E-16));
#273 = ADVANCED_FACE('',(#274),#293,.T.);
#274 = FACE_BOUND('',#275,.F.);
#275 = EDGE_LOOP('',(#276,#277,#285,#292));
#276 = ORIENTED_EDGE('',*,*,#31,.T.);
#277 = ORIENTED_EDGE('',*,*,#278,.T.);
#278 = EDGE_CURVE('',#32,#279,#281,.T.);
#279 = VERTEX_POINT('',#280);
#280 = CARTESIAN_POINT('',(-14.5,-10.,-8.));
#281 = LINE('',#282,#283);
#282 = CARTESIAN_POINT('',(-14.5,1.510932091583E-15,-8.));
#283 = VECTOR('',#284,1.);
#284 = DIRECTION('',(0.,-1.,2.22044604925E-16));
#285 = ORIENTED_EDGE('',*,*,#286,.F.);
#286 = EDGE_CURVE('',#256,#279,#287,.T.);
#287 = CIRCLE('',#288,2.);
#288 = AXIS2_PLACEMENT_3D('',#289,#290,#291);
#289 = CARTESIAN_POINT('',(-14.5,-10.,-6.));
#290 = DIRECTION('',(-0.,1.,-2.22044604925E-16));
#291 = DIRECTION('',(0.,-2.22044604925E-16,-1.));
#292 = ORIENTED_EDGE('',*,*,#263,.F.);
#293 = CYLINDRICAL_SURFACE('',#294,2.);
#294 = AXIS2_PLACEMENT_3D('',#295,#296,#297);
#295 = CARTESIAN_POINT('',(-14.5,1.955021301433E-15,-6.));
#296 = DIRECTION('',(0.,-1.,2.22044604925E-16));
#297 = DIRECTION('',(1.,6.438398349601E-47,2.899596840812E-31));
#298 = ADVANCED_FACE('',(#299),#318,.F.);
#299 = FACE_BOUND('',#300,.T.);
#300 = EDGE_LOOP('',(#301,#310,#311,#312));
#301 = ORIENTED_EDGE('',*,*,#302,.T.);
#302 = EDGE_CURVE('',#303,#232,#305,.T.);
#303 = VERTEX_POINT('',#304);
#304 = CARTESIAN_POINT('',(-10.5,-2.,1.554312234475E-15));
#305 = CIRCLE('',#306,2.);
#306 = AXIS2_PLACEMENT_3D('',#307,#308,#309);
#307 = CARTESIAN_POINT('',(-10.5,-2.,-2.));
#308 = DIRECTION('',(0.,-1.,4.4E-16));
#309 = DIRECTION('',(0.,4.4E-16,1.));
#310 = ORIENTED_EDGE('',*,*,#231,.T.);
#311 = ORIENTED_EDGE('',*,*,#182,.F.);
#312 = ORIENTED_EDGE('',*,*,#313,.F.);
#313 = EDGE_CURVE('',#303,#175,#314,.T.);
#314 = LINE('',#315,#316);
#315 = CARTESIAN_POINT('',(-10.5,-2.,1.554312234475E-15));
#316 = VECTOR('',#317,1.);
#317 = DIRECTION('',(0.,1.,-4.4E-16));
#318 = CYLINDRICAL_SURFACE('',#319,2.);
#319 = AXIS2_PLACEMENT_3D('',#320,#321,#322);
#320 = CARTESIAN_POINT('',(-10.5,-2.,-2.));
#321 = DIRECTION('',(0.,1.,-4.4E-16));
#322 = DIRECTION('',(0.,4.4E-16,1.));
#323 = ADVANCED_FACE('',(#324),#342,.T.);
#324 = FACE_BOUND('',#325,.T.);
#325 = EDGE_LOOP('',(#326,#327,#328,#336));
#326 = ORIENTED_EDGE('',*,*,#40,.T.);
#327 = ORIENTED_EDGE('',*,*,#278,.T.);
#328 = ORIENTED_EDGE('',*,*,#329,.F.);
#329 = EDGE_CURVE('',#330,#279,#332,.T.);
#330 = VERTEX_POINT('',#331);
#331 = CARTESIAN_POINT('',(-20.5,-10.,-8.));
#332 = LINE('',#333,#334);
#333 = CARTESIAN_POINT('',(-22.5,-10.,-8.));
#334 = VECTOR('',#335,1.);
#335 = DIRECTION('',(1.,0.,0.));
#336 = ORIENTED_EDGE('',*,*,#337,.F.);
#337 = EDGE_CURVE('',#41,#330,#338,.T.);
#338 = LINE('',#339,#340);
#339 = CARTESIAN_POINT('',(-20.5,4.429918465516E-15,-8.));
#340 = VECTOR('',#341,1.);
#341 = DIRECTION('',(0.,-1.,2.22044604925E-16));
#342 = PLANE('',#343);
#343 = AXIS2_PLACEMENT_3D('',#344,#345,#346);
#344 = CARTESIAN_POINT('',(-17.5,-5.,-8.));
#345 = DIRECTION('',(0.,-2.981741837565E-16,-1.));
#346 = DIRECTION('',(0.,1.,-2.981741837565E-16));
#347 = ADVANCED_FACE('',(#348),#366,.F.);
#348 = FACE_BOUND('',#349,.F.);
#349 = EDGE_LOOP('',(#350,#351,#352,#360));
#350 = ORIENTED_EDGE('',*,*,#174,.F.);
#351 = ORIENTED_EDGE('',*,*,#313,.F.);
#352 = ORIENTED_EDGE('',*,*,#353,.T.);
#353 = EDGE_CURVE('',#303,#354,#356,.T.);
#354 = VERTEX_POINT('',#355);
#355 = CARTESIAN_POINT('',(0.,-2.,1.E-15));
#356 = LINE('',#357,#358);
#357 = CARTESIAN_POINT('',(-39.5,-2.,1.110223024625E-15));
#358 = VECTOR('',#359,1.);
#359 = DIRECTION('',(1.,0.,0.));
#360 = ORIENTED_EDGE('',*,*,#361,.F.);
#361 = EDGE_CURVE('',#167,#354,#362,.T.);
#362 = LINE('',#363,#364);
#363 = CARTESIAN_POINT('',(0.,0.,0.));
#364 = VECTOR('',#365,1.);
#365 = DIRECTION('',(0.,-1.,4.4E-16));
#366 = PLANE('',#367);
#367 = AXIS2_PLACEMENT_3D('',#368,#369,#370);
#368 = CARTESIAN_POINT('',(-39.5,0.,0.));
#369 = DIRECTION('',(0.,4.4E-16,1.));
#370 = DIRECTION('',(1.,0.,0.));
#371 = ADVANCED_FACE('',(#372),#391,.T.);
#372 = FACE_BOUND('',#373,.F.);
#373 = EDGE_LOOP('',(#374,#375,#383,#390));
#374 = ORIENTED_EDGE('',*,*,#48,.T.);
#375 = ORIENTED_EDGE('',*,*,#376,.T.);
#376 = EDGE_CURVE('',#49,#377,#379,.T.);
#377 = VERTEX_POINT('',#378);
#378 = CARTESIAN_POINT('',(-22.5,-10.,-6.));
#379 = LINE('',#380,#381);
#380 = CARTESIAN_POINT('',(-22.5,4.874007675366E-15,-6.));
#381 = VECTOR('',#382,1.);
#382 = DIRECTION('',(0.,-1.,2.22044604925E-16));
#383 = ORIENTED_EDGE('',*,*,#384,.F.);
#384 = EDGE_CURVE('',#330,#377,#385,.T.);
#385 = CIRCLE('',#386,2.);
#386 = AXIS2_PLACEMENT_3D('',#387,#388,#389);
#387 = CARTESIAN_POINT('',(-20.5,-10.,-6.));
#388 = DIRECTION('',(-0.,1.,-2.22044604925E-16));
#389 = DIRECTION('',(0.,-2.22044604925E-16,-1.));
#390 = ORIENTED_EDGE('',*,*,#337,.F.);
#391 = CYLINDRICAL_SURFACE('',#392,2.);
#392 = AXIS2_PLACEMENT_3D('',#393,#394,#395);
#393 = CARTESIAN_POINT('',(-20.5,4.874007675366E-15,-6.));
#394 = DIRECTION('',(0.,-1.,2.22044604925E-16));
#395 = DIRECTION('',(0.,-2.22044604925E-16,-1.));
#396 = ADVANCED_FACE('',(#397),#415,.F.);
#397 = FACE_BOUND('',#398,.F.);
#398 = EDGE_LOOP('',(#399,#400,#408,#414));
#399 = ORIENTED_EDGE('',*,*,#361,.T.);
#400 = ORIENTED_EDGE('',*,*,#401,.T.);
#401 = EDGE_CURVE('',#354,#402,#404,.T.);
#402 = VERTEX_POINT('',#403);
#403 = CARTESIAN_POINT('',(0.,-2.,16.5));
#404 = LINE('',#405,#406);
#405 = CARTESIAN_POINT('',(0.,-2.,1.110223024625E-15));
#406 = VECTOR('',#407,1.);
#407 = DIRECTION('',(0.,0.,1.));
#408 = ORIENTED_EDGE('',*,*,#409,.F.);
#409 = EDGE_CURVE('',#159,#402,#410,.T.);
#410 = LINE('',#411,#412);
#411 = CARTESIAN_POINT('',(0.,7.33E-15,16.5));
#412 = VECTOR('',#413,1.);
#413 = DIRECTION('',(0.,-1.,4.4E-16));
#414 = ORIENTED_EDGE('',*,*,#166,.F.);
#415 = PLANE('',#416);
#416 = AXIS2_PLACEMENT_3D('',#417,#418,#419);
#417 = CARTESIAN_POINT('',(0.,0.,0.));
#418 = DIRECTION('',(-1.,0.,0.));
#419 = DIRECTION('',(0.,4.4E-16,1.));
#420 = ADVANCED_FACE('',(#421),#455,.T.);
#421 = FACE_BOUND('',#422,.T.);
#422 = EDGE_LOOP('',(#423,#424,#425,#433,#441,#449));
#423 = ORIENTED_EDGE('',*,*,#57,.T.);
#424 = ORIENTED_EDGE('',*,*,#376,.T.);
#425 = ORIENTED_EDGE('',*,*,#426,.F.);
#426 = EDGE_CURVE('',#427,#377,#429,.T.);
#427 = VERTEX_POINT('',#428);
#428 = CARTESIAN_POINT('',(-22.5,-10.,1.33226762955E-15));
#429 = LINE('',#430,#431);
#430 = CARTESIAN_POINT('',(-22.5,-10.,0.));
#431 = VECTOR('',#432,1.);
#432 = DIRECTION('',(0.,-2.22044604925E-16,-1.));
#433 = ORIENTED_EDGE('',*,*,#434,.F.);
#434 = EDGE_CURVE('',#435,#427,#437,.T.);
#435 = VERTEX_POINT('',#436);
#436 = CARTESIAN_POINT('',(-22.5,-2.,-7.802341740319E-17));
#437 = LINE('',#438,#439);
#438 = CARTESIAN_POINT('',(-22.5,-2.,-4.440892098501E-16));
#439 = VECTOR('',#440,1.);
#440 = DIRECTION('',(0.,-1.,2.22044604925E-16));
#441 = ORIENTED_EDGE('',*,*,#442,.T.);
#442 = EDGE_CURVE('',#435,#443,#445,.T.);
#443 = VERTEX_POINT('',#444);
#444 = CARTESIAN_POINT('',(-22.5,-2.,-2.));
#445 = LINE('',#446,#447);
#446 = CARTESIAN_POINT('',(-22.5,-2.,2.199137931034));
#447 = VECTOR('',#448,1.);
#448 = DIRECTION('',(0.,2.22044604925E-16,-1.));
#449 = ORIENTED_EDGE('',*,*,#450,.F.);
#450 = EDGE_CURVE('',#58,#443,#451,.T.);
#451 = LINE('',#452,#453);
#452 = CARTESIAN_POINT('',(-22.5,-2.493124048753E-15,-2.));
#453 = VECTOR('',#454,1.);
#454 = DIRECTION('',(0.,-1.,4.4E-16));
#455 = PLANE('',#456);
#456 = AXIS2_PLACEMENT_3D('',#457,#458,#459);
#457 = CARTESIAN_POINT('',(-22.5,-5.,-4.));
#458 = DIRECTION('',(-1.,-8.065620243763E-16,-1.790927460502E-31));
#459 = DIRECTION('',(-8.065620243763E-16,1.,2.22044604925E-16));
#460 = ADVANCED_FACE('',(#461),#479,.F.);
#461 = FACE_BOUND('',#462,.F.);
#462 = EDGE_LOOP('',(#463,#464,#465,#473));
#463 = ORIENTED_EDGE('',*,*,#158,.F.);
#464 = ORIENTED_EDGE('',*,*,#409,.T.);
#465 = ORIENTED_EDGE('',*,*,#466,.T.);
#466 = EDGE_CURVE('',#402,#467,#469,.T.);
#467 = VERTEX_POINT('',#468);
#468 = CARTESIAN_POINT('',(-10.5,-2.,16.5));
#469 = LINE('',#470,#471);
#470 = CARTESIAN_POINT('',(0.,-2.,16.5));
#471 = VECTOR('',#472,1.);
#472 = DIRECTION('',(-1.,0.,0.));
#473 = ORIENTED_EDGE('',*,*,#474,.F.);
#474 = EDGE_CURVE('',#150,#467,#475,.T.);
#475 = LINE('',#476,#477);
#476 = CARTESIAN_POINT('',(-10.5,-1.417167037316E-15,16.5));
#477 = VECTOR('',#478,1.);
#478 = DIRECTION('',(0.,-1.,4.4E-16));
#479 = PLANE('',#480);
#480 = AXIS2_PLACEMENT_3D('',#481,#482,#483);
#481 = CARTESIAN_POINT('',(0.,7.33E-15,16.5));
#482 = DIRECTION('',(0.,-4.4E-16,-1.));
#483 = DIRECTION('',(-1.,0.,0.));
#484 = ADVANCED_FACE('',(#485),#504,.F.);
#485 = FACE_BOUND('',#486,.T.);
#486 = EDGE_LOOP('',(#487,#488,#489,#498));
#487 = ORIENTED_EDGE('',*,*,#65,.T.);
#488 = ORIENTED_EDGE('',*,*,#450,.T.);
#489 = ORIENTED_EDGE('',*,*,#490,.F.);
#490 = EDGE_CURVE('',#491,#443,#493,.T.);
#491 = VERTEX_POINT('',#492);
#492 = CARTESIAN_POINT('',(-24.5,-2.,1.554312234475E-15));
#493 = CIRCLE('',#494,2.);
#494 = AXIS2_PLACEMENT_3D('',#495,#496,#497);
#495 = CARTESIAN_POINT('',(-24.5,-2.,-2.));
#496 = DIRECTION('',(0.,1.,-4.4E-16));
#497 = DIRECTION('',(0.,-4.4E-16,-1.));
#498 = ORIENTED_EDGE('',*,*,#499,.F.);
#499 = EDGE_CURVE('',#66,#491,#500,.T.);
#500 = LINE('',#501,#502);
#501 = CARTESIAN_POINT('',(-24.5,-1.613124048753E-15,6.661338147751E-16)
  );
#502 = VECTOR('',#503,1.);
#503 = DIRECTION('',(0.,-1.,4.4E-16));
#504 = CYLINDRICAL_SURFACE('',#505,2.);
#505 = AXIS2_PLACEMENT_3D('',#506,#507,#508);
#506 = CARTESIAN_POINT('',(-24.5,-2.493124048753E-15,-2.));
#507 = DIRECTION('',(0.,-1.,4.4E-16));
#508 = DIRECTION('',(0.,4.4E-16,1.));
#509 = ADVANCED_FACE('',(#510),#529,.F.);
#510 = FACE_BOUND('',#511,.T.);
#511 = EDGE_LOOP('',(#512,#513,#521,#528));
#512 = ORIENTED_EDGE('',*,*,#149,.T.);
#513 = ORIENTED_EDGE('',*,*,#514,.T.);
#514 = EDGE_CURVE('',#142,#515,#517,.T.);
#515 = VERTEX_POINT('',#516);
#516 = CARTESIAN_POINT('',(-12.5,-2.,18.5));
#517 = LINE('',#518,#519);
#518 = CARTESIAN_POINT('',(-12.5,-5.371670373156E-16,18.5));
#519 = VECTOR('',#520,1.);
#520 = DIRECTION('',(0.,-1.,4.4E-16));
#521 = ORIENTED_EDGE('',*,*,#522,.F.);
#522 = EDGE_CURVE('',#467,#515,#523,.T.);
#523 = CIRCLE('',#524,2.);
#524 = AXIS2_PLACEMENT_3D('',#525,#526,#527);
#525 = CARTESIAN_POINT('',(-10.5,-2.,18.5));
#526 = DIRECTION('',(0.,1.,-4.4E-16));
#527 = DIRECTION('',(0.,-4.4E-16,-1.));
#528 = ORIENTED_EDGE('',*,*,#474,.F.);
#529 = CYLINDRICAL_SURFACE('',#530,2.);
#530 = AXIS2_PLACEMENT_3D('',#531,#532,#533);
#531 = CARTESIAN_POINT('',(-10.5,-5.371670373156E-16,18.5));
#532 = DIRECTION('',(0.,-1.,4.4E-16));
#533 = DIRECTION('',(0.,-4.4E-16,-1.));
#534 = ADVANCED_FACE('',(#535),#553,.F.);
#535 = FACE_BOUND('',#536,.F.);
#536 = EDGE_LOOP('',(#537,#538,#546,#552));
#537 = ORIENTED_EDGE('',*,*,#74,.F.);
#538 = ORIENTED_EDGE('',*,*,#539,.T.);
#539 = EDGE_CURVE('',#75,#540,#542,.T.);
#540 = VERTEX_POINT('',#541);
#541 = CARTESIAN_POINT('',(-39.5,-2.,1.E-15));
#542 = LINE('',#543,#544);
#543 = CARTESIAN_POINT('',(-39.5,0.,0.));
#544 = VECTOR('',#545,1.);
#545 = DIRECTION('',(0.,-1.,4.4E-16));
#546 = ORIENTED_EDGE('',*,*,#547,.T.);
#547 = EDGE_CURVE('',#540,#491,#548,.T.);
#548 = LINE('',#549,#550);
#549 = CARTESIAN_POINT('',(-39.5,-2.,1.110223024625E-15));
#550 = VECTOR('',#551,1.);
#551 = DIRECTION('',(1.,0.,0.));
#552 = ORIENTED_EDGE('',*,*,#499,.F.);
#553 = PLANE('',#554);
#554 = AXIS2_PLACEMENT_3D('',#555,#556,#557);
#555 = CARTESIAN_POINT('',(-39.5,0.,0.));
#556 = DIRECTION('',(0.,4.4E-16,1.));
#557 = DIRECTION('',(1.,0.,0.));
#558 = ADVANCED_FACE('',(#559),#593,.T.);
#559 = FACE_BOUND('',#560,.T.);
#560 = EDGE_LOOP('',(#561,#562,#570,#578,#586,#592));
#561 = ORIENTED_EDGE('',*,*,#141,.T.);
#562 = ORIENTED_EDGE('',*,*,#563,.F.);
#563 = EDGE_CURVE('',#564,#133,#566,.T.);
#564 = VERTEX_POINT('',#565);
#565 = CARTESIAN_POINT('',(-12.5,-10.,23.));
#566 = LINE('',#567,#568);
#567 = CARTESIAN_POINT('',(-12.5,-10.,23.));
#568 = VECTOR('',#569,1.);
#569 = DIRECTION('',(-0.,1.,0.));
#570 = ORIENTED_EDGE('',*,*,#571,.F.);
#571 = EDGE_CURVE('',#572,#564,#574,.T.);
#572 = VERTEX_POINT('',#573);
#573 = CARTESIAN_POINT('',(-12.5,-10.,16.5));
#574 = LINE('',#575,#576);
#575 = CARTESIAN_POINT('',(-12.5,-10.,16.5));
#576 = VECTOR('',#577,1.);
#577 = DIRECTION('',(0.,2.22044604925E-16,1.));
#578 = ORIENTED_EDGE('',*,*,#579,.F.);
#579 = EDGE_CURVE('',#580,#572,#582,.T.);
#580 = VERTEX_POINT('',#581);
#581 = CARTESIAN_POINT('',(-12.5,-2.,16.5));
#582 = LINE('',#583,#584);
#583 = CARTESIAN_POINT('',(-12.5,-2.,16.5));
#584 = VECTOR('',#585,1.);
#585 = DIRECTION('',(0.,-1.,2.22044604925E-16));
#586 = ORIENTED_EDGE('',*,*,#587,.T.);
#587 = EDGE_CURVE('',#580,#515,#588,.T.);
#588 = LINE('',#589,#590);
#589 = CARTESIAN_POINT('',(-12.5,-2.,14.574137931034));
#590 = VECTOR('',#591,1.);
#591 = DIRECTION('',(0.,-2.22044604925E-16,1.));
#592 = ORIENTED_EDGE('',*,*,#514,.F.);
#593 = PLANE('',#594);
#594 = AXIS2_PLACEMENT_3D('',#595,#596,#597);
#595 = CARTESIAN_POINT('',(-12.5,-5.,20.75));
#596 = DIRECTION('',(1.,6.791952621236E-16,1.508116436452E-31));
#597 = DIRECTION('',(6.791952621236E-16,-1.,-2.22044604925E-16));
#598 = ADVANCED_FACE('',(#599),#617,.F.);
#599 = FACE_BOUND('',#600,.F.);
#600 = EDGE_LOOP('',(#601,#609,#615,#616));
#601 = ORIENTED_EDGE('',*,*,#602,.T.);
#602 = EDGE_CURVE('',#83,#603,#605,.T.);
#603 = VERTEX_POINT('',#604);
#604 = CARTESIAN_POINT('',(-39.5,-2.,16.5));
#605 = LINE('',#606,#607);
#606 = CARTESIAN_POINT('',(-39.5,7.33E-15,16.5));
#607 = VECTOR('',#608,1.);
#608 = DIRECTION('',(0.,-1.,4.4E-16));
#609 = ORIENTED_EDGE('',*,*,#610,.T.);
#610 = EDGE_CURVE('',#603,#540,#611,.T.);
#611 = LINE('',#612,#613);
#612 = CARTESIAN_POINT('',(-39.5,-2.,16.5));
#613 = VECTOR('',#614,1.);
#614 = DIRECTION('',(0.,0.,-1.));
#615 = ORIENTED_EDGE('',*,*,#539,.F.);
#616 = ORIENTED_EDGE('',*,*,#82,.F.);
#617 = PLANE('',#618);
#618 = AXIS2_PLACEMENT_3D('',#619,#620,#621);
#619 = CARTESIAN_POINT('',(-39.5,7.33E-15,16.5));
#620 = DIRECTION('',(1.,0.,0.));
#621 = DIRECTION('',(0.,-4.4E-16,-1.));
#622 = ADVANCED_FACE('',(#623),#642,.T.);
#623 = FACE_BOUND('',#624,.F.);
#624 = EDGE_LOOP('',(#625,#634,#640,#641));
#625 = ORIENTED_EDGE('',*,*,#626,.T.);
#626 = EDGE_CURVE('',#564,#627,#629,.T.);
#627 = VERTEX_POINT('',#628);
#628 = CARTESIAN_POINT('',(-14.5,-10.,25.));
#629 = CIRCLE('',#630,2.);
#630 = AXIS2_PLACEMENT_3D('',#631,#632,#633);
#631 = CARTESIAN_POINT('',(-14.5,-10.,23.));
#632 = DIRECTION('',(0.,-1.,0.));
#633 = DIRECTION('',(0.,0.,1.));
#634 = ORIENTED_EDGE('',*,*,#635,.T.);
#635 = EDGE_CURVE('',#627,#125,#636,.T.);
#636 = LINE('',#637,#638);
#637 = CARTESIAN_POINT('',(-14.5,-10.,25.));
#638 = VECTOR('',#639,1.);
#639 = DIRECTION('',(-0.,1.,0.));
#640 = ORIENTED_EDGE('',*,*,#132,.F.);
#641 = ORIENTED_EDGE('',*,*,#563,.F.);
#642 = CYLINDRICAL_SURFACE('',#643,2.);
#643 = AXIS2_PLACEMENT_3D('',#644,#645,#646);
#644 = CARTESIAN_POINT('',(-14.5,-10.,23.));
#645 = DIRECTION('',(-0.,1.,0.));
#646 = DIRECTION('',(1.,0.,1.508116436452E-31));
#647 = ADVANCED_FACE('',(#648),#666,.F.);
#648 = FACE_BOUND('',#649,.F.);
#649 = EDGE_LOOP('',(#650,#651,#659,#665));
#650 = ORIENTED_EDGE('',*,*,#90,.F.);
#651 = ORIENTED_EDGE('',*,*,#652,.F.);
#652 = EDGE_CURVE('',#653,#91,#655,.T.);
#653 = VERTEX_POINT('',#654);
#654 = CARTESIAN_POINT('',(-24.5,-2.,16.5));
#655 = LINE('',#656,#657);
#656 = CARTESIAN_POINT('',(-24.5,-2.,16.5));
#657 = VECTOR('',#658,1.);
#658 = DIRECTION('',(0.,1.,-4.4E-16));
#659 = ORIENTED_EDGE('',*,*,#660,.T.);
#660 = EDGE_CURVE('',#653,#603,#661,.T.);
#661 = LINE('',#662,#663);
#662 = CARTESIAN_POINT('',(0.,-2.,16.5));
#663 = VECTOR('',#664,1.);
#664 = DIRECTION('',(-1.,0.,0.));
#665 = ORIENTED_EDGE('',*,*,#602,.F.);
#666 = PLANE('',#667);
#667 = AXIS2_PLACEMENT_3D('',#668,#669,#670);
#668 = CARTESIAN_POINT('',(0.,7.33E-15,16.5));
#669 = DIRECTION('',(0.,-4.4E-16,-1.));
#670 = DIRECTION('',(-1.,0.,0.));
#671 = ADVANCED_FACE('',(#672),#690,.T.);
#672 = FACE_BOUND('',#673,.T.);
#673 = EDGE_LOOP('',(#674,#675,#683,#689));
#674 = ORIENTED_EDGE('',*,*,#124,.T.);
#675 = ORIENTED_EDGE('',*,*,#676,.T.);
#676 = EDGE_CURVE('',#116,#677,#679,.T.);
#677 = VERTEX_POINT('',#678);
#678 = CARTESIAN_POINT('',(-20.5,-10.,25.));
#679 = LINE('',#680,#681);
#680 = CARTESIAN_POINT('',(-20.5,-2.144689654629E-15,25.));
#681 = VECTOR('',#682,1.);
#682 = DIRECTION('',(0.,-1.,2.22044604925E-16));
#683 = ORIENTED_EDGE('',*,*,#684,.F.);
#684 = EDGE_CURVE('',#627,#677,#685,.T.);
#685 = LINE('',#686,#687);
#686 = CARTESIAN_POINT('',(-12.5,-10.,25.));
#687 = VECTOR('',#688,1.);
#688 = DIRECTION('',(-1.,0.,0.));
#689 = ORIENTED_EDGE('',*,*,#635,.T.);
#690 = PLANE('',#691);
#691 = AXIS2_PLACEMENT_3D('',#692,#693,#694);
#692 = CARTESIAN_POINT('',(-17.5,-5.,25.));
#693 = DIRECTION('',(0.,-2.22044604925E-16,1.));
#694 = DIRECTION('',(0.,-1.,-2.22044604925E-16));
#695 = ADVANCED_FACE('',(#696),#715,.F.);
#696 = FACE_BOUND('',#697,.T.);
#697 = EDGE_LOOP('',(#698,#707,#713,#714));
#698 = ORIENTED_EDGE('',*,*,#699,.T.);
#699 = EDGE_CURVE('',#653,#700,#702,.T.);
#700 = VERTEX_POINT('',#701);
#701 = CARTESIAN_POINT('',(-22.5,-2.,18.5));
#702 = CIRCLE('',#703,2.);
#703 = AXIS2_PLACEMENT_3D('',#704,#705,#706);
#704 = CARTESIAN_POINT('',(-24.5,-2.,18.5));
#705 = DIRECTION('',(0.,-1.,4.4E-16));
#706 = DIRECTION('',(0.,4.4E-16,1.));
#707 = ORIENTED_EDGE('',*,*,#708,.T.);
#708 = EDGE_CURVE('',#700,#99,#709,.T.);
#709 = LINE('',#710,#711);
#710 = CARTESIAN_POINT('',(-22.5,-2.,18.5));
#711 = VECTOR('',#712,1.);
#712 = DIRECTION('',(0.,1.,-4.4E-16));
#713 = ORIENTED_EDGE('',*,*,#98,.F.);
#714 = ORIENTED_EDGE('',*,*,#652,.F.);
#715 = CYLINDRICAL_SURFACE('',#716,2.);
#716 = AXIS2_PLACEMENT_3D('',#717,#718,#719);
#717 = CARTESIAN_POINT('',(-24.5,-2.,18.5));
#718 = DIRECTION('',(0.,1.,-4.4E-16));
#719 = DIRECTION('',(0.,-4.4E-16,-1.));
#720 = ADVANCED_FACE('',(#721),#740,.T.);
#721 = FACE_BOUND('',#722,.T.);
#722 = EDGE_LOOP('',(#723,#724,#732,#739));
#723 = ORIENTED_EDGE('',*,*,#115,.T.);
#724 = ORIENTED_EDGE('',*,*,#725,.T.);
#725 = EDGE_CURVE('',#108,#726,#728,.T.);
#726 = VERTEX_POINT('',#727);
#727 = CARTESIAN_POINT('',(-22.5,-10.,23.));
#728 = LINE('',#729,#730);
#729 = CARTESIAN_POINT('',(-22.5,-2.588778864479E-15,23.));
#730 = VECTOR('',#731,1.);
#731 = DIRECTION('',(0.,-1.,2.22044604925E-16));
#732 = ORIENTED_EDGE('',*,*,#733,.F.);
#733 = EDGE_CURVE('',#677,#726,#734,.T.);
#734 = CIRCLE('',#735,2.);
#735 = AXIS2_PLACEMENT_3D('',#736,#737,#738);
#736 = CARTESIAN_POINT('',(-20.5,-10.,23.));
#737 = DIRECTION('',(0.,-1.,2.22044604925E-16));
#738 = DIRECTION('',(0.,-2.22044604925E-16,-1.));
#739 = ORIENTED_EDGE('',*,*,#676,.F.);
#740 = CYLINDRICAL_SURFACE('',#741,2.);
#741 = AXIS2_PLACEMENT_3D('',#742,#743,#744);
#742 = CARTESIAN_POINT('',(-20.5,-2.588778864479E-15,23.));
#743 = DIRECTION('',(0.,-1.,2.22044604925E-16));
#744 = DIRECTION('',(0.,2.22044604925E-16,1.));
#745 = ADVANCED_FACE('',(#746),#773,.T.);
#746 = FACE_BOUND('',#747,.T.);
#747 = EDGE_LOOP('',(#748,#749,#750,#758,#766,#772));
#748 = ORIENTED_EDGE('',*,*,#107,.T.);
#749 = ORIENTED_EDGE('',*,*,#708,.F.);
#750 = ORIENTED_EDGE('',*,*,#751,.F.);
#751 = EDGE_CURVE('',#752,#700,#754,.T.);
#752 = VERTEX_POINT('',#753);
#753 = CARTESIAN_POINT('',(-22.5,-2.,16.5));
#754 = LINE('',#755,#756);
#755 = CARTESIAN_POINT('',(-22.5,-2.,14.574137931034));
#756 = VECTOR('',#757,1.);
#757 = DIRECTION('',(0.,-2.22044604925E-16,1.));
#758 = ORIENTED_EDGE('',*,*,#759,.T.);
#759 = EDGE_CURVE('',#752,#760,#762,.T.);
#760 = VERTEX_POINT('',#761);
#761 = CARTESIAN_POINT('',(-22.5,-10.,16.5));
#762 = LINE('',#763,#764);
#763 = CARTESIAN_POINT('',(-22.5,-2.,16.5));
#764 = VECTOR('',#765,1.);
#765 = DIRECTION('',(0.,-1.,2.22044604925E-16));
#766 = ORIENTED_EDGE('',*,*,#767,.F.);
#767 = EDGE_CURVE('',#726,#760,#768,.T.);
#768 = LINE('',#769,#770);
#769 = CARTESIAN_POINT('',(-22.5,-10.,25.));
#770 = VECTOR('',#771,1.);
#771 = DIRECTION('',(0.,-2.22044604925E-16,-1.));
#772 = ORIENTED_EDGE('',*,*,#725,.F.);
#773 = PLANE('',#774);
#774 = AXIS2_PLACEMENT_3D('',#775,#776,#777);
#775 = CARTESIAN_POINT('',(-22.5,-5.,20.75));
#776 = DIRECTION('',(-1.,-8.150343145484E-16,-1.809739723742E-31));
#777 = DIRECTION('',(-8.150343145484E-16,1.,2.22044604925E-16));
#778 = ADVANCED_FACE('',(#779),#797,.F.);
#779 = FACE_BOUND('',#780,.F.);
#780 = EDGE_LOOP('',(#781,#782,#789,#796));
#781 = ORIENTED_EDGE('',*,*,#191,.T.);
#782 = ORIENTED_EDGE('',*,*,#783,.T.);
#783 = EDGE_CURVE('',#192,#784,#786,.T.);
#784 = VERTEX_POINT('',#785);
#785 = CARTESIAN_POINT('',(-15.25,-10.,-4.));
#786 = B_SPLINE_CURVE_WITH_KNOTS('',1,(#787,#788),.UNSPECIFIED.,.F.,.F.,
  (2,2),(-2.,8.),.PIECEWISE_BEZIER_KNOTS.);
#787 = CARTESIAN_POINT('',(-15.25,1.7763568394E-15,-4.));
#788 = CARTESIAN_POINT('',(-15.25,-10.,-4.));
#789 = ORIENTED_EDGE('',*,*,#790,.F.);
#790 = EDGE_CURVE('',#784,#784,#791,.T.);
#791 = CIRCLE('',#792,2.25);
#792 = AXIS2_PLACEMENT_3D('',#793,#794,#795);
#793 = CARTESIAN_POINT('',(-17.5,-10.,-4.));
#794 = DIRECTION('',(0.,-1.,2.22044604925E-16));
#795 = DIRECTION('',(1.,0.,0.));
#796 = ORIENTED_EDGE('',*,*,#783,.F.);
#797 = CYLINDRICAL_SURFACE('',#798,2.25);
#798 = AXIS2_PLACEMENT_3D('',#799,#800,#801);
#799 = CARTESIAN_POINT('',(-17.5,-2.,-4.));
#800 = DIRECTION('',(0.,-1.,-2.22044604925E-16));
#801 = DIRECTION('',(1.,0.,0.));
#802 = ADVANCED_FACE('',(#803),#821,.F.);
#803 = FACE_BOUND('',#804,.F.);
#804 = EDGE_LOOP('',(#805,#806,#813,#820));
#805 = ORIENTED_EDGE('',*,*,#202,.T.);
#806 = ORIENTED_EDGE('',*,*,#807,.T.);
#807 = EDGE_CURVE('',#203,#808,#810,.T.);
#808 = VERTEX_POINT('',#809);
#809 = CARTESIAN_POINT('',(-15.25,-10.,21.));
#810 = B_SPLINE_CURVE_WITH_KNOTS('',1,(#811,#812),.UNSPECIFIED.,.F.,.F.,
  (2,2),(-2.,8.),.PIECEWISE_BEZIER_KNOTS.);
#811 = CARTESIAN_POINT('',(-15.25,-3.774758283726E-15,21.));
#812 = CARTESIAN_POINT('',(-15.25,-10.,21.));
#813 = ORIENTED_EDGE('',*,*,#814,.F.);
#814 = EDGE_CURVE('',#808,#808,#815,.T.);
#815 = CIRCLE('',#816,2.25);
#816 = AXIS2_PLACEMENT_3D('',#817,#818,#819);
#817 = CARTESIAN_POINT('',(-17.5,-10.,21.));
#818 = DIRECTION('',(0.,-1.,2.22044604925E-16));
#819 = DIRECTION('',(1.,0.,0.));
#820 = ORIENTED_EDGE('',*,*,#807,.F.);
#821 = CYLINDRICAL_SURFACE('',#822,2.25);
#822 = AXIS2_PLACEMENT_3D('',#823,#824,#825);
#823 = CARTESIAN_POINT('',(-17.5,-2.,21.));
#824 = DIRECTION('',(0.,-1.,-2.22044604925E-16));
#825 = DIRECTION('',(1.,0.,0.));
#826 = ADVANCED_FACE('',(#827),#846,.F.);
#827 = FACE_BOUND('',#828,.T.);
#828 = EDGE_LOOP('',(#829,#837,#844,#845));
#829 = ORIENTED_EDGE('',*,*,#830,.T.);
#830 = EDGE_CURVE('',#214,#831,#833,.T.);
#831 = VERTEX_POINT('',#832);
#832 = CARTESIAN_POINT('',(-34.9,-2.,3.));
#833 = LINE('',#834,#835);
#834 = CARTESIAN_POINT('',(-34.9,1.33E-15,3.));
#835 = VECTOR('',#836,1.);
#836 = DIRECTION('',(0.,-1.,4.4E-16));
#837 = ORIENTED_EDGE('',*,*,#838,.T.);
#838 = EDGE_CURVE('',#831,#831,#839,.T.);
#839 = CIRCLE('',#840,1.6);
#840 = AXIS2_PLACEMENT_3D('',#841,#842,#843);
#841 = CARTESIAN_POINT('',(-36.5,-2.,3.));
#842 = DIRECTION('',(0.,-1.,0.));
#843 = DIRECTION('',(1.,0.,0.));
#844 = ORIENTED_EDGE('',*,*,#830,.F.);
#845 = ORIENTED_EDGE('',*,*,#213,.F.);
#846 = CYLINDRICAL_SURFACE('',#847,1.6);
#847 = AXIS2_PLACEMENT_3D('',#848,#849,#850);
#848 = CARTESIAN_POINT('',(-36.5,1.33E-15,3.));
#849 = DIRECTION('',(0.,1.,-4.4E-16));
#850 = DIRECTION('',(1.,0.,0.));
#851 = ADVANCED_FACE('',(#852,#865),#868,.F.);
#852 = FACE_BOUND('',#853,.F.);
#853 = EDGE_LOOP('',(#854,#855,#861,#862,#863,#864));
#854 = ORIENTED_EDGE('',*,*,#426,.F.);
#855 = ORIENTED_EDGE('',*,*,#856,.F.);
#856 = EDGE_CURVE('',#248,#427,#857,.T.);
#857 = LINE('',#858,#859);
#858 = CARTESIAN_POINT('',(-12.5,-10.,0.));
#859 = VECTOR('',#860,1.);
#860 = DIRECTION('',(-1.,0.,0.));
#861 = ORIENTED_EDGE('',*,*,#255,.F.);
#862 = ORIENTED_EDGE('',*,*,#286,.T.);
#863 = ORIENTED_EDGE('',*,*,#329,.F.);
#864 = ORIENTED_EDGE('',*,*,#384,.T.);
#865 = FACE_BOUND('',#866,.F.);
#866 = EDGE_LOOP('',(#867));
#867 = ORIENTED_EDGE('',*,*,#790,.T.);
#868 = PLANE('',#869);
#869 = AXIS2_PLACEMENT_3D('',#870,#871,#872);
#870 = CARTESIAN_POINT('',(-17.5,-10.,8.533719749243));
#871 = DIRECTION('',(0.,1.,0.));
#872 = DIRECTION('',(0.,0.,1.));
#873 = ADVANCED_FACE('',(#874,#902),#905,.T.);
#874 = FACE_BOUND('',#875,.T.);
#875 = EDGE_LOOP('',(#876,#877,#878,#879,#880,#881,#887,#888,#889,#890,
    #891,#892,#893,#894,#900,#901));
#876 = ORIENTED_EDGE('',*,*,#353,.T.);
#877 = ORIENTED_EDGE('',*,*,#401,.T.);
#878 = ORIENTED_EDGE('',*,*,#466,.T.);
#879 = ORIENTED_EDGE('',*,*,#522,.T.);
#880 = ORIENTED_EDGE('',*,*,#587,.F.);
#881 = ORIENTED_EDGE('',*,*,#882,.F.);
#882 = EDGE_CURVE('',#752,#580,#883,.T.);
#883 = LINE('',#884,#885);
#884 = CARTESIAN_POINT('',(-22.5,-2.,16.5));
#885 = VECTOR('',#886,1.);
#886 = DIRECTION('',(1.,0.,0.));
#887 = ORIENTED_EDGE('',*,*,#751,.T.);
#888 = ORIENTED_EDGE('',*,*,#699,.F.);
#889 = ORIENTED_EDGE('',*,*,#660,.T.);
#890 = ORIENTED_EDGE('',*,*,#610,.T.);
#891 = ORIENTED_EDGE('',*,*,#547,.T.);
#892 = ORIENTED_EDGE('',*,*,#490,.T.);
#893 = ORIENTED_EDGE('',*,*,#442,.F.);
#894 = ORIENTED_EDGE('',*,*,#895,.F.);
#895 = EDGE_CURVE('',#240,#435,#896,.T.);
#896 = LINE('',#897,#898);
#897 = CARTESIAN_POINT('',(-12.5,-2.,-4.440892098501E-16));
#898 = VECTOR('',#899,1.);
#899 = DIRECTION('',(-1.,0.,0.));
#900 = ORIENTED_EDGE('',*,*,#239,.T.);
#901 = ORIENTED_EDGE('',*,*,#302,.F.);
#902 = FACE_BOUND('',#903,.T.);
#903 = EDGE_LOOP('',(#904));
#904 = ORIENTED_EDGE('',*,*,#838,.F.);
#905 = PLANE('',#906);
#906 = AXIS2_PLACEMENT_3D('',#907,#908,#909);
#907 = CARTESIAN_POINT('',(-19.23793103448,-2.,8.398275862069));
#908 = DIRECTION('',(0.,-1.,-2.22044604925E-16));
#909 = DIRECTION('',(1.,0.,0.));
#910 = ADVANCED_FACE('',(#911),#917,.F.);
#911 = FACE_BOUND('',#912,.F.);
#912 = EDGE_LOOP('',(#913,#914,#915,#916));
#913 = ORIENTED_EDGE('',*,*,#247,.T.);
#914 = ORIENTED_EDGE('',*,*,#856,.T.);
#915 = ORIENTED_EDGE('',*,*,#434,.F.);
#916 = ORIENTED_EDGE('',*,*,#895,.F.);
#917 = PLANE('',#918);
#918 = AXIS2_PLACEMENT_3D('',#919,#920,#921);
#919 = CARTESIAN_POINT('',(-12.5,-2.,-4.440892098501E-16));
#920 = DIRECTION('',(0.,-2.22044604925E-16,-1.));
#921 = DIRECTION('',(-1.,0.,0.));
#922 = ADVANCED_FACE('',(#923,#936),#939,.F.);
#923 = FACE_BOUND('',#924,.F.);
#924 = EDGE_LOOP('',(#925,#926,#927,#928,#929,#930));
#925 = ORIENTED_EDGE('',*,*,#767,.F.);
#926 = ORIENTED_EDGE('',*,*,#733,.F.);
#927 = ORIENTED_EDGE('',*,*,#684,.F.);
#928 = ORIENTED_EDGE('',*,*,#626,.F.);
#929 = ORIENTED_EDGE('',*,*,#571,.F.);
#930 = ORIENTED_EDGE('',*,*,#931,.F.);
#931 = EDGE_CURVE('',#760,#572,#932,.T.);
#932 = LINE('',#933,#934);
#933 = CARTESIAN_POINT('',(-22.5,-10.,16.5));
#934 = VECTOR('',#935,1.);
#935 = DIRECTION('',(1.,0.,0.));
#936 = FACE_BOUND('',#937,.F.);
#937 = EDGE_LOOP('',(#938));
#938 = ORIENTED_EDGE('',*,*,#814,.T.);
#939 = PLANE('',#940);
#940 = AXIS2_PLACEMENT_3D('',#941,#942,#943);
#941 = CARTESIAN_POINT('',(-17.5,-10.,8.533719749243));
#942 = DIRECTION('',(0.,1.,0.));
#943 = DIRECTION('',(0.,0.,1.));
#944 = ADVANCED_FACE('',(#945),#951,.F.);
#945 = FACE_BOUND('',#946,.F.);
#946 = EDGE_LOOP('',(#947,#948,#949,#950));
#947 = ORIENTED_EDGE('',*,*,#759,.T.);
#948 = ORIENTED_EDGE('',*,*,#931,.T.);
#949 = ORIENTED_EDGE('',*,*,#579,.F.);
#950 = ORIENTED_EDGE('',*,*,#882,.F.);
#951 = PLANE('',#952);
#952 = AXIS2_PLACEMENT_3D('',#953,#954,#955);
#953 = CARTESIAN_POINT('',(-22.5,-2.,16.5));
#954 = DIRECTION('',(0.,2.22044604925E-16,1.));
#955 = DIRECTION('',(1.,0.,0.));
#956 = ( GEOMETRIC_REPRESENTATION_CONTEXT(3) 
GLOBAL_UNCERTAINTY_ASSIGNED_CONTEXT((#960)) GLOBAL_UNIT_ASSIGNED_CONTEXT
((#957,#958,#959)) REPRESENTATION_CONTEXT('Context #1',
  '3D Context with UNIT and UNCERTAINTY') );
#957 = ( LENGTH_UNIT() NAMED_UNIT(*) SI_UNIT(.MILLI.,.METRE.) );
#958 = ( NAMED_UNIT(*) PLANE_ANGLE_UNIT() SI_UNIT($,.RADIAN.) );
#959 = ( NAMED_UNIT(*) SI_UNIT($,.STERADIAN.) SOLID_ANGLE_UNIT() );
#960 = UNCERTAINTY_MEASURE_WITH_UNIT(LENGTH_MEASURE(2.E-05),#957,
  'distance_accuracy_value','confusion accuracy');
#961 = PRODUCT_RELATED_PRODUCT_CATEGORY('part',$,(#7));
#962 = MECHANICAL_DESIGN_GEOMETRIC_PRESENTATION_REPRESENTATION('',(#963)
  ,#956);
#963 = STYLED_ITEM('color',(#964),#15);
#964 = PRESENTATION_STYLE_ASSIGNMENT((#965,#971));
#965 = SURFACE_STYLE_USAGE(.BOTH.,#966);
#966 = SURFACE_SIDE_STYLE('',(#967));
#967 = SURFACE_STYLE_FILL_AREA(#968);
#968 = FILL_AREA_STYLE('',(#969));
#969 = FILL_AREA_STYLE_COLOUR('',#970);
#970 = COLOUR_RGB('',0.678431390124,0.709803936702,0.741176476869);
#971 = CURVE_STYLE('',#972,POSITIVE_LENGTH_MEASURE(0.1),#973);
#972 = DRAUGHTING_PRE_DEFINED_CURVE_FONT('continuous');
#973 = COLOUR_RGB('',9.803921802644E-02,9.803921802644E-02,
  9.803921802644E-02);
ENDSEC;
END-ISO-10303-21;
