ISO-10303-21;
HEADER;
FILE_DESCRIPTION(('FreeCAD Model'),'2;1');
FILE_NAME('Open CASCADE Shape Model','2026-03-26T17:37:33',(''),(''),
  'Open CASCADE STEP processor 7.8','FreeCAD','Unknown');
FILE_SCHEMA(('AUTOMOTIVE_DESIGN { 1 0 10303 214 1 1 1 1 }'));
ENDSEC;
DATA;
#1 = APPLICATION_PROTOCOL_DEFINITION('international standard',
  'automotive_design',2000,#2);
#2 = APPLICATION_CONTEXT(
  'core data for automotive mechanical design processes');
#3 = SHAPE_DEFINITION_REPRESENTATION(#4,#10);
#4 = PRODUCT_DEFINITION_SHAPE('','',#5);
#5 = PRODUCT_DEFINITION('design','',#6,#9);
#6 = PRODUCT_DEFINITION_FORMATION('','',#7);
#7 = PRODUCT('Body','Body','',(#8));
#8 = PRODUCT_CONTEXT('',#2,'mechanical');
#9 = PRODUCT_DEFINITION_CONTEXT('part definition',#2,'design');
#10 = ADVANCED_BREP_SHAPE_REPRESENTATION('',(#11,#15),#514);
#11 = AXIS2_PLACEMENT_3D('',#12,#13,#14);
#12 = CARTESIAN_POINT('',(0.,0.,0.));
#13 = DIRECTION('',(0.,0.,1.));
#14 = DIRECTION('',(1.,0.,-0.));
#15 = MANIFOLD_SOLID_BREP('',#16);
#16 = CLOSED_SHELL('',(#17,#57,#106,#131,#156,#229,#278,#327,#344,#369,
    #394,#411,#435,#460,#482,#499));
#17 = ADVANCED_FACE('',(#18),#52,.F.);
#18 = FACE_BOUND('',#19,.F.);
#19 = EDGE_LOOP('',(#20,#30,#38,#46));
#20 = ORIENTED_EDGE('',*,*,#21,.F.);
#21 = EDGE_CURVE('',#22,#24,#26,.T.);
#22 = VERTEX_POINT('',#23);
#23 = CARTESIAN_POINT('',(4.440892098501E-16,4.440892098501E-16,2.));
#24 = VERTEX_POINT('',#25);
#25 = CARTESIAN_POINT('',(4.440892098501E-16,3.219646771413E-15,14.5));
#26 = LINE('',#27,#28);
#27 = CARTESIAN_POINT('',(0.,0.,0.));
#28 = VECTOR('',#29,1.);
#29 = DIRECTION('',(0.,2.22044604925E-16,1.));
#30 = ORIENTED_EDGE('',*,*,#31,.T.);
#31 = EDGE_CURVE('',#22,#32,#34,.T.);
#32 = VERTEX_POINT('',#33);
#33 = CARTESIAN_POINT('',(4.440892098501E-16,-2.,2.));
#34 = LINE('',#35,#36);
#35 = CARTESIAN_POINT('',(4.440892098501E-16,2.169697547245E-16,2.));
#36 = VECTOR('',#37,1.);
#37 = DIRECTION('',(0.,-1.,2.22044604925E-16));
#38 = ORIENTED_EDGE('',*,*,#39,.T.);
#39 = EDGE_CURVE('',#32,#40,#42,.T.);
#40 = VERTEX_POINT('',#41);
#41 = CARTESIAN_POINT('',(4.440892098501E-16,-2.,14.5));
#42 = LINE('',#43,#44);
#43 = CARTESIAN_POINT('',(0.,-2.,4.440892098501E-16));
#44 = VECTOR('',#45,1.);
#45 = DIRECTION('',(0.,2.22044604925E-16,1.));
#46 = ORIENTED_EDGE('',*,*,#47,.F.);
#47 = EDGE_CURVE('',#24,#40,#48,.T.);
#48 = LINE('',#49,#50);
#49 = CARTESIAN_POINT('',(4.440892098501E-16,4.107825191113E-15,14.5));
#50 = VECTOR('',#51,1.);
#51 = DIRECTION('',(0.,-1.,2.22044604925E-16));
#52 = PLANE('',#53);
#53 = AXIS2_PLACEMENT_3D('',#54,#55,#56);
#54 = CARTESIAN_POINT('',(0.,0.,0.));
#55 = DIRECTION('',(-1.,0.,0.));
#56 = DIRECTION('',(0.,2.22044604925E-16,1.));
#57 = ADVANCED_FACE('',(#58),#101,.T.);
#58 = FACE_BOUND('',#59,.T.);
#59 = EDGE_LOOP('',(#60,#61,#70,#78,#86,#94));
#60 = ORIENTED_EDGE('',*,*,#21,.F.);
#61 = ORIENTED_EDGE('',*,*,#62,.T.);
#62 = EDGE_CURVE('',#22,#63,#65,.T.);
#63 = VERTEX_POINT('',#64);
#64 = CARTESIAN_POINT('',(-2.,-5.074850200497E-18,-2.22044604925E-16));
#65 = CIRCLE('',#66,2.);
#66 = AXIS2_PLACEMENT_3D('',#67,#68,#69);
#67 = CARTESIAN_POINT('',(-2.,1.681173655552E-15,2.));
#68 = DIRECTION('',(-0.,1.,-2.22044604925E-16));
#69 = DIRECTION('',(0.,-2.22044604925E-16,-1.));
#70 = ORIENTED_EDGE('',*,*,#71,.F.);
#71 = EDGE_CURVE('',#72,#63,#74,.T.);
#72 = VERTEX_POINT('',#73);
#73 = CARTESIAN_POINT('',(-15.5,1.681173655552E-15,-1.751623080406E-46)
  );
#74 = LINE('',#75,#76);
#75 = CARTESIAN_POINT('',(-39.5,0.,0.));
#76 = VECTOR('',#77,1.);
#77 = DIRECTION('',(1.,0.,0.));
#78 = ORIENTED_EDGE('',*,*,#79,.F.);
#79 = EDGE_CURVE('',#80,#72,#82,.T.);
#80 = VERTEX_POINT('',#81);
#81 = CARTESIAN_POINT('',(-15.5,-1.982562325711E-15,16.5));
#82 = LINE('',#83,#84);
#83 = CARTESIAN_POINT('',(-15.5,-1.982562325711E-15,16.5));
#84 = VECTOR('',#85,1.);
#85 = DIRECTION('',(0.,2.22044604925E-16,-1.));
#86 = ORIENTED_EDGE('',*,*,#87,.F.);
#87 = EDGE_CURVE('',#88,#80,#90,.T.);
#88 = VERTEX_POINT('',#89);
#89 = CARTESIAN_POINT('',(-2.,3.663735981263E-15,16.5));
#90 = LINE('',#91,#92);
#91 = CARTESIAN_POINT('',(0.,3.663735981263E-15,16.5));
#92 = VECTOR('',#93,1.);
#93 = DIRECTION('',(-1.,0.,0.));
#94 = ORIENTED_EDGE('',*,*,#95,.F.);
#95 = EDGE_CURVE('',#24,#88,#96,.T.);
#96 = CIRCLE('',#97,2.);
#97 = AXIS2_PLACEMENT_3D('',#98,#99,#100);
#98 = CARTESIAN_POINT('',(-2.,1.681173655552E-15,14.5));
#99 = DIRECTION('',(0.,-1.,2.22044604925E-16));
#100 = DIRECTION('',(0.,-2.22044604925E-16,-1.));
#101 = PLANE('',#102);
#102 = AXIS2_PLACEMENT_3D('',#103,#104,#105);
#103 = CARTESIAN_POINT('',(-20.68720674228,1.681173655552E-15,
    7.571333048688));
#104 = DIRECTION('',(0.,1.,-9.860761315263E-32));
#105 = DIRECTION('',(0.,9.860761315263E-32,1.));
#106 = ADVANCED_FACE('',(#107),#126,.T.);
#107 = FACE_BOUND('',#108,.F.);
#108 = EDGE_LOOP('',(#109,#110,#118,#125));
#109 = ORIENTED_EDGE('',*,*,#62,.T.);
#110 = ORIENTED_EDGE('',*,*,#111,.T.);
#111 = EDGE_CURVE('',#63,#112,#114,.T.);
#112 = VERTEX_POINT('',#113);
#113 = CARTESIAN_POINT('',(-2.,-2.,2.22044604925E-16));
#114 = LINE('',#115,#116);
#115 = CARTESIAN_POINT('',(-2.,-2.271194551255E-16,-2.22044604925E-16));
#116 = VECTOR('',#117,1.);
#117 = DIRECTION('',(0.,-1.,2.22044604925E-16));
#118 = ORIENTED_EDGE('',*,*,#119,.F.);
#119 = EDGE_CURVE('',#32,#112,#120,.T.);
#120 = CIRCLE('',#121,2.);
#121 = AXIS2_PLACEMENT_3D('',#122,#123,#124);
#122 = CARTESIAN_POINT('',(-2.,-2.,2.));
#123 = DIRECTION('',(-0.,1.,-2.22044604925E-16));
#124 = DIRECTION('',(0.,-2.22044604925E-16,-1.));
#125 = ORIENTED_EDGE('',*,*,#31,.F.);
#126 = CYLINDRICAL_SURFACE('',#127,2.);
#127 = AXIS2_PLACEMENT_3D('',#128,#129,#130);
#128 = CARTESIAN_POINT('',(-2.,2.169697547245E-16,2.));
#129 = DIRECTION('',(0.,-1.,2.22044604925E-16));
#130 = DIRECTION('',(1.,0.,0.));
#131 = ADVANCED_FACE('',(#132),#151,.T.);
#132 = FACE_BOUND('',#133,.T.);
#133 = EDGE_LOOP('',(#134,#135,#143,#150));
#134 = ORIENTED_EDGE('',*,*,#95,.T.);
#135 = ORIENTED_EDGE('',*,*,#136,.T.);
#136 = EDGE_CURVE('',#88,#137,#139,.T.);
#137 = VERTEX_POINT('',#138);
#138 = CARTESIAN_POINT('',(-2.,-2.,16.5));
#139 = LINE('',#140,#141);
#140 = CARTESIAN_POINT('',(-2.,4.551914400963E-15,16.5));
#141 = VECTOR('',#142,1.);
#142 = DIRECTION('',(0.,-1.,2.22044604925E-16));
#143 = ORIENTED_EDGE('',*,*,#144,.F.);
#144 = EDGE_CURVE('',#40,#137,#145,.T.);
#145 = CIRCLE('',#146,2.);
#146 = AXIS2_PLACEMENT_3D('',#147,#148,#149);
#147 = CARTESIAN_POINT('',(-2.,-2.,14.5));
#148 = DIRECTION('',(0.,-1.,2.22044604925E-16));
#149 = DIRECTION('',(0.,-2.22044604925E-16,-1.));
#150 = ORIENTED_EDGE('',*,*,#47,.F.);
#151 = CYLINDRICAL_SURFACE('',#152,2.);
#152 = AXIS2_PLACEMENT_3D('',#153,#154,#155);
#153 = CARTESIAN_POINT('',(-2.,4.107825191113E-15,14.5));
#154 = DIRECTION('',(0.,-1.,2.22044604925E-16));
#155 = DIRECTION('',(1.,0.,0.));
#156 = ADVANCED_FACE('',(#157,#202,#213),#224,.F.);
#157 = FACE_BOUND('',#158,.F.);
#158 = EDGE_LOOP('',(#159,#160,#161,#169,#178,#186,#195,#201));
#159 = ORIENTED_EDGE('',*,*,#39,.F.);
#160 = ORIENTED_EDGE('',*,*,#119,.T.);
#161 = ORIENTED_EDGE('',*,*,#162,.F.);
#162 = EDGE_CURVE('',#163,#112,#165,.T.);
#163 = VERTEX_POINT('',#164);
#164 = CARTESIAN_POINT('',(-37.5,-2.,0.));
#165 = LINE('',#166,#167);
#166 = CARTESIAN_POINT('',(-39.5,-2.,4.440892098501E-16));
#167 = VECTOR('',#168,1.);
#168 = DIRECTION('',(1.,0.,0.));
#169 = ORIENTED_EDGE('',*,*,#170,.F.);
#170 = EDGE_CURVE('',#171,#163,#173,.T.);
#171 = VERTEX_POINT('',#172);
#172 = CARTESIAN_POINT('',(-39.5,-2.,2.));
#173 = CIRCLE('',#174,2.);
#174 = AXIS2_PLACEMENT_3D('',#175,#176,#177);
#175 = CARTESIAN_POINT('',(-37.5,-2.,2.));
#176 = DIRECTION('',(0.,-1.,2.22044604925E-16));
#177 = DIRECTION('',(0.,-2.22044604925E-16,-1.));
#178 = ORIENTED_EDGE('',*,*,#179,.F.);
#179 = EDGE_CURVE('',#180,#171,#182,.T.);
#180 = VERTEX_POINT('',#181);
#181 = CARTESIAN_POINT('',(-39.5,-2.,14.5));
#182 = LINE('',#183,#184);
#183 = CARTESIAN_POINT('',(-39.5,-2.,16.5));
#184 = VECTOR('',#185,1.);
#185 = DIRECTION('',(0.,-2.22044604925E-16,-1.));
#186 = ORIENTED_EDGE('',*,*,#187,.T.);
#187 = EDGE_CURVE('',#180,#188,#190,.T.);
#188 = VERTEX_POINT('',#189);
#189 = CARTESIAN_POINT('',(-37.5,-2.,16.5));
#190 = CIRCLE('',#191,2.);
#191 = AXIS2_PLACEMENT_3D('',#192,#193,#194);
#192 = CARTESIAN_POINT('',(-37.5,-2.,14.5));
#193 = DIRECTION('',(-0.,1.,-2.22044604925E-16));
#194 = DIRECTION('',(0.,-2.22044604925E-16,-1.));
#195 = ORIENTED_EDGE('',*,*,#196,.F.);
#196 = EDGE_CURVE('',#137,#188,#197,.T.);
#197 = LINE('',#198,#199);
#198 = CARTESIAN_POINT('',(0.,-2.,16.5));
#199 = VECTOR('',#200,1.);
#200 = DIRECTION('',(-1.,0.,0.));
#201 = ORIENTED_EDGE('',*,*,#144,.F.);
#202 = FACE_BOUND('',#203,.F.);
#203 = EDGE_LOOP('',(#204));
#204 = ORIENTED_EDGE('',*,*,#205,.T.);
#205 = EDGE_CURVE('',#206,#206,#208,.T.);
#206 = VERTEX_POINT('',#207);
#207 = CARTESIAN_POINT('',(-15.9,-2.,3.));
#208 = CIRCLE('',#209,1.6);
#209 = AXIS2_PLACEMENT_3D('',#210,#211,#212);
#210 = CARTESIAN_POINT('',(-17.5,-2.,3.));
#211 = DIRECTION('',(0.,-1.,2.22044604925E-16));
#212 = DIRECTION('',(1.,0.,0.));
#213 = FACE_BOUND('',#214,.F.);
#214 = EDGE_LOOP('',(#215));
#215 = ORIENTED_EDGE('',*,*,#216,.T.);
#216 = EDGE_CURVE('',#217,#217,#219,.T.);
#217 = VERTEX_POINT('',#218);
#218 = CARTESIAN_POINT('',(-34.9,-2.,3.));
#219 = CIRCLE('',#220,1.6);
#220 = AXIS2_PLACEMENT_3D('',#221,#222,#223);
#221 = CARTESIAN_POINT('',(-36.5,-2.,3.));
#222 = DIRECTION('',(0.,-1.,2.22044604925E-16));
#223 = DIRECTION('',(1.,0.,0.));
#224 = PLANE('',#225);
#225 = AXIS2_PLACEMENT_3D('',#226,#227,#228);
#226 = CARTESIAN_POINT('',(-20.68720674228,-2.,7.571333048688));
#227 = DIRECTION('',(0.,1.,-9.860761315263E-32));
#228 = DIRECTION('',(0.,9.860761315263E-32,1.));
#229 = ADVANCED_FACE('',(#230),#273,.T.);
#230 = FACE_BOUND('',#231,.T.);
#231 = EDGE_LOOP('',(#232,#242,#250,#258,#264,#265,#266,#267));
#232 = ORIENTED_EDGE('',*,*,#233,.T.);
#233 = EDGE_CURVE('',#234,#236,#238,.T.);
#234 = VERTEX_POINT('',#235);
#235 = CARTESIAN_POINT('',(-37.5,-5.074850200497E-18,-4.440892098501E-16
    ));
#236 = VERTEX_POINT('',#237);
#237 = CARTESIAN_POINT('',(-19.5,1.681173655552E-15,-1.751623080406E-46)
  );
#238 = LINE('',#239,#240);
#239 = CARTESIAN_POINT('',(-39.5,0.,0.));
#240 = VECTOR('',#241,1.);
#241 = DIRECTION('',(1.,0.,0.));
#242 = ORIENTED_EDGE('',*,*,#243,.T.);
#243 = EDGE_CURVE('',#236,#244,#246,.T.);
#244 = VERTEX_POINT('',#245);
#245 = CARTESIAN_POINT('',(-19.5,2.,4.440892098501E-16));
#246 = LINE('',#247,#248);
#247 = CARTESIAN_POINT('',(-19.5,1.681173655552E-15,-1.751623080406E-46)
  );
#248 = VECTOR('',#249,1.);
#249 = DIRECTION('',(0.,1.,2.22044604925E-16));
#250 = ORIENTED_EDGE('',*,*,#251,.F.);
#251 = EDGE_CURVE('',#252,#244,#254,.T.);
#252 = VERTEX_POINT('',#253);
#253 = CARTESIAN_POINT('',(-15.5,2.,4.440892098501E-16));
#254 = LINE('',#255,#256);
#255 = CARTESIAN_POINT('',(-15.5,2.,4.440892098501E-16));
#256 = VECTOR('',#257,1.);
#257 = DIRECTION('',(-1.,0.,-0.));
#258 = ORIENTED_EDGE('',*,*,#259,.F.);
#259 = EDGE_CURVE('',#72,#252,#260,.T.);
#260 = LINE('',#261,#262);
#261 = CARTESIAN_POINT('',(-15.5,1.681173655552E-15,-1.751623080406E-46)
  );
#262 = VECTOR('',#263,1.);
#263 = DIRECTION('',(0.,1.,2.22044604925E-16));
#264 = ORIENTED_EDGE('',*,*,#71,.T.);
#265 = ORIENTED_EDGE('',*,*,#111,.T.);
#266 = ORIENTED_EDGE('',*,*,#162,.F.);
#267 = ORIENTED_EDGE('',*,*,#268,.F.);
#268 = EDGE_CURVE('',#234,#163,#269,.T.);
#269 = LINE('',#270,#271);
#270 = CARTESIAN_POINT('',(-37.5,-2.271194551255E-16,-4.440892098501E-16
    ));
#271 = VECTOR('',#272,1.);
#272 = DIRECTION('',(0.,-1.,2.22044604925E-16));
#273 = PLANE('',#274);
#274 = AXIS2_PLACEMENT_3D('',#275,#276,#277);
#275 = CARTESIAN_POINT('',(-19.64655172413,-0.816091954023,
    2.424624996308E-16));
#276 = DIRECTION('',(0.,-1.084848773623E-16,-1.));
#277 = DIRECTION('',(0.,1.,-1.084848773623E-16));
#278 = ADVANCED_FACE('',(#279),#322,.T.);
#279 = FACE_BOUND('',#280,.T.);
#280 = EDGE_LOOP('',(#281,#282,#290,#298,#306,#314,#320,#321));
#281 = ORIENTED_EDGE('',*,*,#87,.T.);
#282 = ORIENTED_EDGE('',*,*,#283,.T.);
#283 = EDGE_CURVE('',#80,#284,#286,.T.);
#284 = VERTEX_POINT('',#285);
#285 = CARTESIAN_POINT('',(-15.5,2.,16.5));
#286 = LINE('',#287,#288);
#287 = CARTESIAN_POINT('',(-15.5,-1.982562325711E-15,16.5));
#288 = VECTOR('',#289,1.);
#289 = DIRECTION('',(0.,1.,2.22044604925E-16));
#290 = ORIENTED_EDGE('',*,*,#291,.F.);
#291 = EDGE_CURVE('',#292,#284,#294,.T.);
#292 = VERTEX_POINT('',#293);
#293 = CARTESIAN_POINT('',(-19.5,2.,16.5));
#294 = LINE('',#295,#296);
#295 = CARTESIAN_POINT('',(-19.5,2.,16.5));
#296 = VECTOR('',#297,1.);
#297 = DIRECTION('',(1.,0.,0.));
#298 = ORIENTED_EDGE('',*,*,#299,.F.);
#299 = EDGE_CURVE('',#300,#292,#302,.T.);
#300 = VERTEX_POINT('',#301);
#301 = CARTESIAN_POINT('',(-19.5,-1.982562325711E-15,16.5));
#302 = LINE('',#303,#304);
#303 = CARTESIAN_POINT('',(-19.5,-1.982562325711E-15,16.5));
#304 = VECTOR('',#305,1.);
#305 = DIRECTION('',(0.,1.,2.22044604925E-16));
#306 = ORIENTED_EDGE('',*,*,#307,.T.);
#307 = EDGE_CURVE('',#300,#308,#310,.T.);
#308 = VERTEX_POINT('',#309);
#309 = CARTESIAN_POINT('',(-37.5,3.663735981263E-15,16.5));
#310 = LINE('',#311,#312);
#311 = CARTESIAN_POINT('',(0.,3.663735981263E-15,16.5));
#312 = VECTOR('',#313,1.);
#313 = DIRECTION('',(-1.,0.,0.));
#314 = ORIENTED_EDGE('',*,*,#315,.T.);
#315 = EDGE_CURVE('',#308,#188,#316,.T.);
#316 = LINE('',#317,#318);
#317 = CARTESIAN_POINT('',(-37.5,4.551914400963E-15,16.5));
#318 = VECTOR('',#319,1.);
#319 = DIRECTION('',(0.,-1.,2.22044604925E-16));
#320 = ORIENTED_EDGE('',*,*,#196,.F.);
#321 = ORIENTED_EDGE('',*,*,#136,.F.);
#322 = PLANE('',#323);
#323 = AXIS2_PLACEMENT_3D('',#324,#325,#326);
#324 = CARTESIAN_POINT('',(-19.64655172413,-0.816091954023,16.5));
#325 = DIRECTION('',(0.,-2.22044604925E-16,1.));
#326 = DIRECTION('',(0.,-1.,-2.22044604925E-16));
#327 = ADVANCED_FACE('',(#328),#339,.F.);
#328 = FACE_BOUND('',#329,.F.);
#329 = EDGE_LOOP('',(#330,#331,#337,#338));
#330 = ORIENTED_EDGE('',*,*,#283,.T.);
#331 = ORIENTED_EDGE('',*,*,#332,.T.);
#332 = EDGE_CURVE('',#284,#252,#333,.T.);
#333 = LINE('',#334,#335);
#334 = CARTESIAN_POINT('',(-15.5,2.,16.5));
#335 = VECTOR('',#336,1.);
#336 = DIRECTION('',(0.,2.22044604925E-16,-1.));
#337 = ORIENTED_EDGE('',*,*,#259,.F.);
#338 = ORIENTED_EDGE('',*,*,#79,.F.);
#339 = PLANE('',#340);
#340 = AXIS2_PLACEMENT_3D('',#341,#342,#343);
#341 = CARTESIAN_POINT('',(-15.5,-1.982562325711E-15,16.5));
#342 = DIRECTION('',(-1.,0.,0.));
#343 = DIRECTION('',(0.,2.22044604925E-16,-1.));
#344 = ADVANCED_FACE('',(#345),#364,.T.);
#345 = FACE_BOUND('',#346,.T.);
#346 = EDGE_LOOP('',(#347,#356,#357,#358));
#347 = ORIENTED_EDGE('',*,*,#348,.T.);
#348 = EDGE_CURVE('',#349,#234,#351,.T.);
#349 = VERTEX_POINT('',#350);
#350 = CARTESIAN_POINT('',(-39.5,4.440892098501E-16,2.));
#351 = CIRCLE('',#352,2.);
#352 = AXIS2_PLACEMENT_3D('',#353,#354,#355);
#353 = CARTESIAN_POINT('',(-37.5,1.681173655552E-15,2.));
#354 = DIRECTION('',(0.,-1.,2.22044604925E-16));
#355 = DIRECTION('',(0.,-2.22044604925E-16,-1.));
#356 = ORIENTED_EDGE('',*,*,#268,.T.);
#357 = ORIENTED_EDGE('',*,*,#170,.F.);
#358 = ORIENTED_EDGE('',*,*,#359,.F.);
#359 = EDGE_CURVE('',#349,#171,#360,.T.);
#360 = LINE('',#361,#362);
#361 = CARTESIAN_POINT('',(-39.5,2.169697547245E-16,2.));
#362 = VECTOR('',#363,1.);
#363 = DIRECTION('',(0.,-1.,2.22044604925E-16));
#364 = CYLINDRICAL_SURFACE('',#365,2.);
#365 = AXIS2_PLACEMENT_3D('',#366,#367,#368);
#366 = CARTESIAN_POINT('',(-37.5,2.169697547245E-16,2.));
#367 = DIRECTION('',(0.,-1.,2.22044604925E-16));
#368 = DIRECTION('',(-1.,-0.,0.));
#369 = ADVANCED_FACE('',(#370),#389,.T.);
#370 = FACE_BOUND('',#371,.F.);
#371 = EDGE_LOOP('',(#372,#381,#382,#383));
#372 = ORIENTED_EDGE('',*,*,#373,.T.);
#373 = EDGE_CURVE('',#374,#308,#376,.T.);
#374 = VERTEX_POINT('',#375);
#375 = CARTESIAN_POINT('',(-39.5,3.219646771413E-15,14.5));
#376 = CIRCLE('',#377,2.);
#377 = AXIS2_PLACEMENT_3D('',#378,#379,#380);
#378 = CARTESIAN_POINT('',(-37.5,1.681173655552E-15,14.5));
#379 = DIRECTION('',(-0.,1.,-2.22044604925E-16));
#380 = DIRECTION('',(0.,-2.22044604925E-16,-1.));
#381 = ORIENTED_EDGE('',*,*,#315,.T.);
#382 = ORIENTED_EDGE('',*,*,#187,.F.);
#383 = ORIENTED_EDGE('',*,*,#384,.F.);
#384 = EDGE_CURVE('',#374,#180,#385,.T.);
#385 = LINE('',#386,#387);
#386 = CARTESIAN_POINT('',(-39.5,4.107825191113E-15,14.5));
#387 = VECTOR('',#388,1.);
#388 = DIRECTION('',(0.,-1.,2.22044604925E-16));
#389 = CYLINDRICAL_SURFACE('',#390,2.);
#390 = AXIS2_PLACEMENT_3D('',#391,#392,#393);
#391 = CARTESIAN_POINT('',(-37.5,4.107825191113E-15,14.5));
#392 = DIRECTION('',(0.,-1.,2.22044604925E-16));
#393 = DIRECTION('',(-1.,-0.,0.));
#394 = ADVANCED_FACE('',(#395),#406,.F.);
#395 = FACE_BOUND('',#396,.F.);
#396 = EDGE_LOOP('',(#397,#403,#404,#405));
#397 = ORIENTED_EDGE('',*,*,#398,.F.);
#398 = EDGE_CURVE('',#374,#349,#399,.T.);
#399 = LINE('',#400,#401);
#400 = CARTESIAN_POINT('',(-39.5,3.663735981263E-15,16.5));
#401 = VECTOR('',#402,1.);
#402 = DIRECTION('',(0.,-2.22044604925E-16,-1.));
#403 = ORIENTED_EDGE('',*,*,#384,.T.);
#404 = ORIENTED_EDGE('',*,*,#179,.T.);
#405 = ORIENTED_EDGE('',*,*,#359,.F.);
#406 = PLANE('',#407);
#407 = AXIS2_PLACEMENT_3D('',#408,#409,#410);
#408 = CARTESIAN_POINT('',(-39.5,3.663735981263E-15,16.5));
#409 = DIRECTION('',(1.,0.,0.));
#410 = DIRECTION('',(0.,-2.22044604925E-16,-1.));
#411 = ADVANCED_FACE('',(#412),#430,.F.);
#412 = FACE_BOUND('',#413,.T.);
#413 = EDGE_LOOP('',(#414,#415,#422,#429));
#414 = ORIENTED_EDGE('',*,*,#205,.T.);
#415 = ORIENTED_EDGE('',*,*,#416,.T.);
#416 = EDGE_CURVE('',#206,#417,#419,.T.);
#417 = VERTEX_POINT('',#418);
#418 = CARTESIAN_POINT('',(-15.9,2.,3.));
#419 = B_SPLINE_CURVE_WITH_KNOTS('',1,(#420,#421),.UNSPECIFIED.,.F.,.F.,
  (2,2),(-2.,2.),.PIECEWISE_BEZIER_KNOTS.);
#420 = CARTESIAN_POINT('',(-15.9,-2.,3.));
#421 = CARTESIAN_POINT('',(-15.9,2.,3.));
#422 = ORIENTED_EDGE('',*,*,#423,.T.);
#423 = EDGE_CURVE('',#417,#417,#424,.T.);
#424 = CIRCLE('',#425,1.6);
#425 = AXIS2_PLACEMENT_3D('',#426,#427,#428);
#426 = CARTESIAN_POINT('',(-17.5,2.,3.));
#427 = DIRECTION('',(-0.,1.,2.22044604925E-16));
#428 = DIRECTION('',(1.,0.,0.));
#429 = ORIENTED_EDGE('',*,*,#416,.F.);
#430 = CYLINDRICAL_SURFACE('',#431,1.6);
#431 = AXIS2_PLACEMENT_3D('',#432,#433,#434);
#432 = CARTESIAN_POINT('',(-17.5,6.661338147751E-16,3.));
#433 = DIRECTION('',(0.,1.,-2.22044604925E-16));
#434 = DIRECTION('',(1.,0.,0.));
#435 = ADVANCED_FACE('',(#436),#455,.F.);
#436 = FACE_BOUND('',#437,.T.);
#437 = EDGE_LOOP('',(#438,#446,#447,#448));
#438 = ORIENTED_EDGE('',*,*,#439,.T.);
#439 = EDGE_CURVE('',#440,#217,#442,.T.);
#440 = VERTEX_POINT('',#441);
#441 = CARTESIAN_POINT('',(-34.9,6.661338147751E-16,3.));
#442 = LINE('',#443,#444);
#443 = CARTESIAN_POINT('',(-34.9,6.661338147751E-16,3.));
#444 = VECTOR('',#445,1.);
#445 = DIRECTION('',(0.,-1.,2.22044604925E-16));
#446 = ORIENTED_EDGE('',*,*,#216,.T.);
#447 = ORIENTED_EDGE('',*,*,#439,.F.);
#448 = ORIENTED_EDGE('',*,*,#449,.F.);
#449 = EDGE_CURVE('',#440,#440,#450,.T.);
#450 = CIRCLE('',#451,1.6);
#451 = AXIS2_PLACEMENT_3D('',#452,#453,#454);
#452 = CARTESIAN_POINT('',(-36.5,6.661338147751E-16,3.));
#453 = DIRECTION('',(0.,-1.,2.22044604925E-16));
#454 = DIRECTION('',(1.,0.,0.));
#455 = CYLINDRICAL_SURFACE('',#456,1.6);
#456 = AXIS2_PLACEMENT_3D('',#457,#458,#459);
#457 = CARTESIAN_POINT('',(-36.5,6.661338147751E-16,3.));
#458 = DIRECTION('',(0.,1.,-2.22044604925E-16));
#459 = DIRECTION('',(1.,0.,0.));
#460 = ADVANCED_FACE('',(#461,#474),#477,.T.);
#461 = FACE_BOUND('',#462,.T.);
#462 = EDGE_LOOP('',(#463,#464,#470,#471,#472,#473));
#463 = ORIENTED_EDGE('',*,*,#307,.F.);
#464 = ORIENTED_EDGE('',*,*,#465,.F.);
#465 = EDGE_CURVE('',#236,#300,#466,.T.);
#466 = LINE('',#467,#468);
#467 = CARTESIAN_POINT('',(-19.5,1.681173655552E-15,0.));
#468 = VECTOR('',#469,1.);
#469 = DIRECTION('',(0.,-2.22044604925E-16,1.));
#470 = ORIENTED_EDGE('',*,*,#233,.F.);
#471 = ORIENTED_EDGE('',*,*,#348,.F.);
#472 = ORIENTED_EDGE('',*,*,#398,.F.);
#473 = ORIENTED_EDGE('',*,*,#373,.T.);
#474 = FACE_BOUND('',#475,.T.);
#475 = EDGE_LOOP('',(#476));
#476 = ORIENTED_EDGE('',*,*,#449,.T.);
#477 = PLANE('',#478);
#478 = AXIS2_PLACEMENT_3D('',#479,#480,#481);
#479 = CARTESIAN_POINT('',(-20.68720674228,1.681173655552E-15,
    7.571333048688));
#480 = DIRECTION('',(0.,1.,-9.860761315263E-32));
#481 = DIRECTION('',(0.,9.860761315263E-32,1.));
#482 = ADVANCED_FACE('',(#483),#494,.F.);
#483 = FACE_BOUND('',#484,.F.);
#484 = EDGE_LOOP('',(#485,#486,#492,#493));
#485 = ORIENTED_EDGE('',*,*,#243,.T.);
#486 = ORIENTED_EDGE('',*,*,#487,.T.);
#487 = EDGE_CURVE('',#244,#292,#488,.T.);
#488 = LINE('',#489,#490);
#489 = CARTESIAN_POINT('',(-19.5,2.,4.440892098501E-16));
#490 = VECTOR('',#491,1.);
#491 = DIRECTION('',(0.,-2.22044604925E-16,1.));
#492 = ORIENTED_EDGE('',*,*,#299,.F.);
#493 = ORIENTED_EDGE('',*,*,#465,.F.);
#494 = PLANE('',#495);
#495 = AXIS2_PLACEMENT_3D('',#496,#497,#498);
#496 = CARTESIAN_POINT('',(-19.5,1.681173655552E-15,-1.751623080406E-46)
  );
#497 = DIRECTION('',(1.,0.,0.));
#498 = DIRECTION('',(0.,-2.22044604925E-16,1.));
#499 = ADVANCED_FACE('',(#500,#506),#509,.T.);
#500 = FACE_BOUND('',#501,.T.);
#501 = EDGE_LOOP('',(#502,#503,#504,#505));
#502 = ORIENTED_EDGE('',*,*,#487,.T.);
#503 = ORIENTED_EDGE('',*,*,#291,.T.);
#504 = ORIENTED_EDGE('',*,*,#332,.T.);
#505 = ORIENTED_EDGE('',*,*,#251,.T.);
#506 = FACE_BOUND('',#507,.F.);
#507 = EDGE_LOOP('',(#508));
#508 = ORIENTED_EDGE('',*,*,#423,.T.);
#509 = PLANE('',#510);
#510 = AXIS2_PLACEMENT_3D('',#511,#512,#513);
#511 = CARTESIAN_POINT('',(-17.5,2.,7.364900058081));
#512 = DIRECTION('',(0.,1.,-4.930380657631E-32));
#513 = DIRECTION('',(0.,4.930380657631E-32,1.));
#514 = ( GEOMETRIC_REPRESENTATION_CONTEXT(3) 
GLOBAL_UNCERTAINTY_ASSIGNED_CONTEXT((#518)) GLOBAL_UNIT_ASSIGNED_CONTEXT
((#515,#516,#517)) REPRESENTATION_CONTEXT('Context #1',
  '3D Context with UNIT and UNCERTAINTY') );
#515 = ( LENGTH_UNIT() NAMED_UNIT(*) SI_UNIT(.MILLI.,.METRE.) );
#516 = ( NAMED_UNIT(*) PLANE_ANGLE_UNIT() SI_UNIT($,.RADIAN.) );
#517 = ( NAMED_UNIT(*) SI_UNIT($,.STERADIAN.) SOLID_ANGLE_UNIT() );
#518 = UNCERTAINTY_MEASURE_WITH_UNIT(LENGTH_MEASURE(5.E-07),#515,
  'distance_accuracy_value','confusion accuracy');
#519 = PRODUCT_RELATED_PRODUCT_CATEGORY('part',$,(#7));
#520 = MECHANICAL_DESIGN_GEOMETRIC_PRESENTATION_REPRESENTATION('',(#521)
  ,#514);
#521 = STYLED_ITEM('color',(#522),#15);
#522 = PRESENTATION_STYLE_ASSIGNMENT((#523,#529));
#523 = SURFACE_STYLE_USAGE(.BOTH.,#524);
#524 = SURFACE_SIDE_STYLE('',(#525));
#525 = SURFACE_STYLE_FILL_AREA(#526);
#526 = FILL_AREA_STYLE('',(#527));
#527 = FILL_AREA_STYLE_COLOUR('',#528);
#528 = COLOUR_RGB('',0.678430976034,0.709803998361,0.741176010593);
#529 = CURVE_STYLE('',#530,POSITIVE_LENGTH_MEASURE(0.1),#531);
#530 = DRAUGHTING_PRE_DEFINED_CURVE_FONT('continuous');
#531 = COLOUR_RGB('',9.803921802644E-02,9.803921802644E-02,
  9.803921802644E-02);
ENDSEC;
END-ISO-10303-21;
