ISO-10303-21;
HEADER;
FILE_DESCRIPTION(('FreeCAD Model'),'2;1');
FILE_NAME('Open CASCADE Shape Model','2026-03-30T15:50:33',(''),(''),
  'Open CASCADE STEP processor 7.8','FreeCAD','Unknown');
FILE_SCHEMA(('AUTOMOTIVE_DESIGN { 1 0 10303 214 1 1 1 1 }'));
ENDSEC;
DATA;
#1 = APPLICATION_PROTOCOL_DEFINITION('international standard',
  'automotive_design',2000,#2);
#2 = APPLICATION_CONTEXT(
  'core data for automotive mechanical design processes');
#3 = SHAPE_DEFINITION_REPRESENTATION(#4,#10);
#4 = PRODUCT_DEFINITION_SHAPE('','',#5);
#5 = PRODUCT_DEFINITION('design','',#6,#9);
#6 = PRODUCT_DEFINITION_FORMATION('','',#7);
#7 = PRODUCT('Body','Body','',(#8));
#8 = PRODUCT_CONTEXT('',#2,'mechanical');
#9 = PRODUCT_DEFINITION_CONTEXT('part definition',#2,'design');
#10 = ADVANCED_BREP_SHAPE_REPRESENTATION('',(#11,#15),#524);
#11 = AXIS2_PLACEMENT_3D('',#12,#13,#14);
#12 = CARTESIAN_POINT('',(0.,0.,0.));
#13 = DIRECTION('',(0.,0.,1.));
#14 = DIRECTION('',(1.,0.,-0.));
#15 = MANIFOLD_SOLID_BREP('',#16);
#16 = CLOSED_SHELL('',(#17,#81,#147,#172,#221,#308,#333,#359,#376,#393,
    #410,#427,#439,#478,#490,#507));
#17 = ADVANCED_FACE('',(#18),#76,.T.);
#18 = FACE_BOUND('',#19,.T.);
#19 = EDGE_LOOP('',(#20,#30,#38,#46,#54,#62,#70));
#20 = ORIENTED_EDGE('',*,*,#21,.F.);
#21 = EDGE_CURVE('',#22,#24,#26,.T.);
#22 = VERTEX_POINT('',#23);
#23 = CARTESIAN_POINT('',(25.,-14.,-33.));
#24 = VERTEX_POINT('',#25);
#25 = CARTESIAN_POINT('',(0.,-14.,-33.));
#26 = LINE('',#27,#28);
#27 = CARTESIAN_POINT('',(27.,-14.,-33.));
#28 = VECTOR('',#29,1.);
#29 = DIRECTION('',(-1.,0.,0.));
#30 = ORIENTED_EDGE('',*,*,#31,.F.);
#31 = EDGE_CURVE('',#32,#22,#34,.T.);
#32 = VERTEX_POINT('',#33);
#33 = CARTESIAN_POINT('',(25.,-6.555877048716E-15,-33.));
#34 = LINE('',#35,#36);
#35 = CARTESIAN_POINT('',(25.,-7.444055468416E-15,-33.));
#36 = VECTOR('',#37,1.);
#37 = DIRECTION('',(0.,-1.,2.22044604925E-16));
#38 = ORIENTED_EDGE('',*,*,#39,.F.);
#39 = EDGE_CURVE('',#40,#32,#42,.T.);
#40 = VERTEX_POINT('',#41);
#41 = CARTESIAN_POINT('',(10.,-7.327471962526E-15,-33.));
#42 = LINE('',#43,#44);
#43 = CARTESIAN_POINT('',(10.,-7.327471962526E-15,-33.));
#44 = VECTOR('',#45,1.);
#45 = DIRECTION('',(1.,0.,0.));
#46 = ORIENTED_EDGE('',*,*,#47,.T.);
#47 = EDGE_CURVE('',#40,#48,#50,.T.);
#48 = VERTEX_POINT('',#49);
#49 = CARTESIAN_POINT('',(10.,-4.,-33.));
#50 = LINE('',#51,#52);
#51 = CARTESIAN_POINT('',(10.,-7.327471962526E-15,-33.));
#52 = VECTOR('',#53,1.);
#53 = DIRECTION('',(0.,-1.,2.22044604925E-16));
#54 = ORIENTED_EDGE('',*,*,#55,.T.);
#55 = EDGE_CURVE('',#48,#56,#58,.T.);
#56 = VERTEX_POINT('',#57);
#57 = CARTESIAN_POINT('',(10.,-9.,-33.));
#58 = LINE('',#59,#60);
#59 = CARTESIAN_POINT('',(10.,-3.743902439024,-33.));
#60 = VECTOR('',#61,1.);
#61 = DIRECTION('',(0.,-1.,3.913586603323E-16));
#62 = ORIENTED_EDGE('',*,*,#63,.T.);
#63 = EDGE_CURVE('',#56,#64,#66,.T.);
#64 = VERTEX_POINT('',#65);
#65 = CARTESIAN_POINT('',(0.,-9.,-33.));
#66 = LINE('',#67,#68);
#67 = CARTESIAN_POINT('',(10.,-9.,-33.));
#68 = VECTOR('',#69,1.);
#69 = DIRECTION('',(-1.,0.,0.));
#70 = ORIENTED_EDGE('',*,*,#71,.T.);
#71 = EDGE_CURVE('',#64,#24,#72,.T.);
#72 = LINE('',#73,#74);
#73 = CARTESIAN_POINT('',(0.,-4.,-33.));
#74 = VECTOR('',#75,1.);
#75 = DIRECTION('',(0.,-1.,2.22044604925E-16));
#76 = PLANE('',#77);
#77 = AXIS2_PLACEMENT_3D('',#78,#79,#80);
#78 = CARTESIAN_POINT('',(13.987804878049,-7.487804878049,-33.));
#79 = DIRECTION('',(0.,3.913586603323E-16,1.));
#80 = DIRECTION('',(0.,1.,-3.913586603323E-16));
#81 = ADVANCED_FACE('',(#82),#142,.F.);
#82 = FACE_BOUND('',#83,.F.);
#83 = EDGE_LOOP('',(#84,#85,#94,#102,#111,#119,#128,#136));
#84 = ORIENTED_EDGE('',*,*,#21,.F.);
#85 = ORIENTED_EDGE('',*,*,#86,.T.);
#86 = EDGE_CURVE('',#22,#87,#89,.T.);
#87 = VERTEX_POINT('',#88);
#88 = CARTESIAN_POINT('',(27.,-14.,-35.));
#89 = CIRCLE('',#90,2.);
#90 = AXIS2_PLACEMENT_3D('',#91,#92,#93);
#91 = CARTESIAN_POINT('',(25.,-14.,-35.));
#92 = DIRECTION('',(0.,1.,-2.22044604925E-16));
#93 = DIRECTION('',(0.,-2.22044604925E-16,-1.));
#94 = ORIENTED_EDGE('',*,*,#95,.T.);
#95 = EDGE_CURVE('',#87,#96,#98,.T.);
#96 = VERTEX_POINT('',#97);
#97 = CARTESIAN_POINT('',(27.,-14.,-42.17157287525));
#98 = LINE('',#99,#100);
#99 = CARTESIAN_POINT('',(27.,-14.,-33.));
#100 = VECTOR('',#101,1.);
#101 = DIRECTION('',(0.,-2.22044604925E-16,-1.));
#102 = ORIENTED_EDGE('',*,*,#103,.T.);
#103 = EDGE_CURVE('',#96,#104,#106,.T.);
#104 = VERTEX_POINT('',#105);
#105 = CARTESIAN_POINT('',(26.414213562373,-14.,-43.58578643762));
#106 = CIRCLE('',#107,2.);
#107 = AXIS2_PLACEMENT_3D('',#108,#109,#110);
#108 = CARTESIAN_POINT('',(25.,-14.,-42.17157287525));
#109 = DIRECTION('',(0.,1.,-2.22044604925E-16));
#110 = DIRECTION('',(0.,-2.22044604925E-16,-1.));
#111 = ORIENTED_EDGE('',*,*,#112,.T.);
#112 = EDGE_CURVE('',#104,#113,#115,.T.);
#113 = VERTEX_POINT('',#114);
#114 = CARTESIAN_POINT('',(10.585786437627,-14.,-59.41421356237));
#115 = LINE('',#116,#117);
#116 = CARTESIAN_POINT('',(27.,-14.,-43.));
#117 = VECTOR('',#118,1.);
#118 = DIRECTION('',(-0.707106781187,-1.570092458684E-16,-0.707106781187
    ));
#119 = ORIENTED_EDGE('',*,*,#120,.F.);
#120 = EDGE_CURVE('',#121,#113,#123,.T.);
#121 = VERTEX_POINT('',#122);
#122 = CARTESIAN_POINT('',(9.171572875254,-14.,-60.));
#123 = CIRCLE('',#124,2.);
#124 = AXIS2_PLACEMENT_3D('',#125,#126,#127);
#125 = CARTESIAN_POINT('',(9.171572875254,-14.,-58.));
#126 = DIRECTION('',(0.,-1.,2.22044604925E-16));
#127 = DIRECTION('',(0.,-2.22044604925E-16,-1.));
#128 = ORIENTED_EDGE('',*,*,#129,.F.);
#129 = EDGE_CURVE('',#130,#121,#132,.T.);
#130 = VERTEX_POINT('',#131);
#131 = CARTESIAN_POINT('',(0.,-14.,-60.));
#132 = LINE('',#133,#134);
#133 = CARTESIAN_POINT('',(0.,-14.,-60.));
#134 = VECTOR('',#135,1.);
#135 = DIRECTION('',(1.,0.,0.));
#136 = ORIENTED_EDGE('',*,*,#137,.T.);
#137 = EDGE_CURVE('',#130,#24,#138,.T.);
#138 = LINE('',#139,#140);
#139 = CARTESIAN_POINT('',(0.,-14.,-60.));
#140 = VECTOR('',#141,1.);
#141 = DIRECTION('',(0.,2.22044604925E-16,1.));
#142 = PLANE('',#143);
#143 = AXIS2_PLACEMENT_3D('',#144,#145,#146);
#144 = CARTESIAN_POINT('',(11.518271971938,-14.,-44.51827197193));
#145 = DIRECTION('',(0.,1.,-2.31415452266E-16));
#146 = DIRECTION('',(0.,2.31415452266E-16,1.));
#147 = ADVANCED_FACE('',(#148),#167,.T.);
#148 = FACE_BOUND('',#149,.F.);
#149 = EDGE_LOOP('',(#150,#159,#165,#166));
#150 = ORIENTED_EDGE('',*,*,#151,.T.);
#151 = EDGE_CURVE('',#32,#152,#154,.T.);
#152 = VERTEX_POINT('',#153);
#153 = CARTESIAN_POINT('',(27.,-7.444055468416E-15,-35.));
#154 = CIRCLE('',#155,2.);
#155 = AXIS2_PLACEMENT_3D('',#156,#157,#158);
#156 = CARTESIAN_POINT('',(25.,-1.188986756764E-15,-35.));
#157 = DIRECTION('',(0.,1.,-2.22044604925E-16));
#158 = DIRECTION('',(0.,-2.22044604925E-16,-1.));
#159 = ORIENTED_EDGE('',*,*,#160,.T.);
#160 = EDGE_CURVE('',#152,#87,#161,.T.);
#161 = LINE('',#162,#163);
#162 = CARTESIAN_POINT('',(27.,-7.888144678266E-15,-35.));
#163 = VECTOR('',#164,1.);
#164 = DIRECTION('',(0.,-1.,2.22044604925E-16));
#165 = ORIENTED_EDGE('',*,*,#86,.F.);
#166 = ORIENTED_EDGE('',*,*,#31,.F.);
#167 = CYLINDRICAL_SURFACE('',#168,2.);
#168 = AXIS2_PLACEMENT_3D('',#169,#170,#171);
#169 = CARTESIAN_POINT('',(25.,-7.888144678266E-15,-35.));
#170 = DIRECTION('',(0.,-1.,2.22044604925E-16));
#171 = DIRECTION('',(0.,2.22044604925E-16,1.));
#172 = ADVANCED_FACE('',(#173),#216,.T.);
#173 = FACE_BOUND('',#174,.T.);
#174 = EDGE_LOOP('',(#175,#176,#185,#193,#201,#209,#215));
#175 = ORIENTED_EDGE('',*,*,#71,.F.);
#176 = ORIENTED_EDGE('',*,*,#177,.F.);
#177 = EDGE_CURVE('',#178,#64,#180,.T.);
#178 = VERTEX_POINT('',#179);
#179 = CARTESIAN_POINT('',(0.,-4.,-28.));
#180 = CIRCLE('',#181,5.);
#181 = AXIS2_PLACEMENT_3D('',#182,#183,#184);
#182 = CARTESIAN_POINT('',(0.,-9.,-28.));
#183 = DIRECTION('',(-1.,0.,0.));
#184 = DIRECTION('',(0.,0.,-1.));
#185 = ORIENTED_EDGE('',*,*,#186,.F.);
#186 = EDGE_CURVE('',#187,#178,#189,.T.);
#187 = VERTEX_POINT('',#188);
#188 = CARTESIAN_POINT('',(0.,-4.,50.));
#189 = LINE('',#190,#191);
#190 = CARTESIAN_POINT('',(0.,-4.,50.));
#191 = VECTOR('',#192,1.);
#192 = DIRECTION('',(0.,-2.22044604925E-16,-1.));
#193 = ORIENTED_EDGE('',*,*,#194,.F.);
#194 = EDGE_CURVE('',#195,#187,#197,.T.);
#195 = VERTEX_POINT('',#196);
#196 = CARTESIAN_POINT('',(0.,1.110223024625E-14,50.));
#197 = LINE('',#198,#199);
#198 = CARTESIAN_POINT('',(0.,1.110223024625E-14,50.));
#199 = VECTOR('',#200,1.);
#200 = DIRECTION('',(0.,-1.,2.22044604925E-16));
#201 = ORIENTED_EDGE('',*,*,#202,.T.);
#202 = EDGE_CURVE('',#195,#203,#205,.T.);
#203 = VERTEX_POINT('',#204);
#204 = CARTESIAN_POINT('',(0.,-1.33226762955E-14,-60.));
#205 = LINE('',#206,#207);
#206 = CARTESIAN_POINT('',(0.,0.,0.));
#207 = VECTOR('',#208,1.);
#208 = DIRECTION('',(0.,-2.22044604925E-16,-1.));
#209 = ORIENTED_EDGE('',*,*,#210,.T.);
#210 = EDGE_CURVE('',#203,#130,#211,.T.);
#211 = LINE('',#212,#213);
#212 = CARTESIAN_POINT('',(0.,-1.33226762955E-14,-60.));
#213 = VECTOR('',#214,1.);
#214 = DIRECTION('',(0.,-1.,2.22044604925E-16));
#215 = ORIENTED_EDGE('',*,*,#137,.T.);
#216 = PLANE('',#217);
#217 = AXIS2_PLACEMENT_3D('',#218,#219,#220);
#218 = CARTESIAN_POINT('',(0.,-3.653225806452,-8.346774193548));
#219 = DIRECTION('',(-1.,-0.,-0.));
#220 = DIRECTION('',(0.,0.,-1.));
#221 = ADVANCED_FACE('',(#222,#281,#292),#303,.T.);
#222 = FACE_BOUND('',#223,.T.);
#223 = EDGE_LOOP('',(#224,#232,#233,#241,#247,#248,#249,#257,#266,#274)
  );
#224 = ORIENTED_EDGE('',*,*,#225,.T.);
#225 = EDGE_CURVE('',#226,#203,#228,.T.);
#226 = VERTEX_POINT('',#227);
#227 = CARTESIAN_POINT('',(9.171572875254,-1.376676550535E-14,-60.));
#228 = LINE('',#229,#230);
#229 = CARTESIAN_POINT('',(10.,-1.33226762955E-14,-60.));
#230 = VECTOR('',#231,1.);
#231 = DIRECTION('',(-1.,0.,0.));
#232 = ORIENTED_EDGE('',*,*,#202,.F.);
#233 = ORIENTED_EDGE('',*,*,#234,.T.);
#234 = EDGE_CURVE('',#195,#235,#237,.T.);
#235 = VERTEX_POINT('',#236);
#236 = CARTESIAN_POINT('',(10.,1.110223024625E-14,50.));
#237 = LINE('',#238,#239);
#238 = CARTESIAN_POINT('',(0.,1.110223024625E-14,50.));
#239 = VECTOR('',#240,1.);
#240 = DIRECTION('',(1.,0.,0.));
#241 = ORIENTED_EDGE('',*,*,#242,.F.);
#242 = EDGE_CURVE('',#40,#235,#243,.T.);
#243 = LINE('',#244,#245);
#244 = CARTESIAN_POINT('',(10.,-7.327471962526E-15,-33.));
#245 = VECTOR('',#246,1.);
#246 = DIRECTION('',(0.,2.22044604925E-16,1.));
#247 = ORIENTED_EDGE('',*,*,#39,.T.);
#248 = ORIENTED_EDGE('',*,*,#151,.T.);
#249 = ORIENTED_EDGE('',*,*,#250,.T.);
#250 = EDGE_CURVE('',#152,#251,#253,.T.);
#251 = VERTEX_POINT('',#252);
#252 = CARTESIAN_POINT('',(27.,-9.141925633228E-15,-42.17157287525));
#253 = LINE('',#254,#255);
#254 = CARTESIAN_POINT('',(27.,-7.327471962526E-15,-33.));
#255 = VECTOR('',#256,1.);
#256 = DIRECTION('',(0.,-2.22044604925E-16,-1.));
#257 = ORIENTED_EDGE('',*,*,#258,.T.);
#258 = EDGE_CURVE('',#251,#259,#261,.T.);
#259 = VERTEX_POINT('',#260);
#260 = CARTESIAN_POINT('',(26.414213562373,-1.021405182655E-14,
    -43.58578643762));
#261 = CIRCLE('',#262,2.);
#262 = AXIS2_PLACEMENT_3D('',#263,#264,#265);
#263 = CARTESIAN_POINT('',(25.,-1.188986756764E-15,-42.17157287525));
#264 = DIRECTION('',(0.,1.,-2.22044604925E-16));
#265 = DIRECTION('',(0.,-2.22044604925E-16,-1.));
#266 = ORIENTED_EDGE('',*,*,#267,.T.);
#267 = EDGE_CURVE('',#259,#268,#270,.T.);
#268 = VERTEX_POINT('',#269);
#269 = CARTESIAN_POINT('',(10.585786437627,-1.372866867405E-14,
    -59.41421356237));
#270 = LINE('',#271,#272);
#271 = CARTESIAN_POINT('',(27.,-9.547918011776E-15,-43.));
#272 = VECTOR('',#273,1.);
#273 = DIRECTION('',(-0.707106781187,-1.570092458684E-16,-0.707106781187
    ));
#274 = ORIENTED_EDGE('',*,*,#275,.F.);
#275 = EDGE_CURVE('',#226,#268,#276,.T.);
#276 = CIRCLE('',#277,2.);
#277 = AXIS2_PLACEMENT_3D('',#278,#279,#280);
#278 = CARTESIAN_POINT('',(9.171572875254,-1.188986756764E-15,-58.));
#279 = DIRECTION('',(0.,-1.,2.22044604925E-16));
#280 = DIRECTION('',(0.,-2.22044604925E-16,-1.));
#281 = FACE_BOUND('',#282,.T.);
#282 = EDGE_LOOP('',(#283));
#283 = ORIENTED_EDGE('',*,*,#284,.T.);
#284 = EDGE_CURVE('',#285,#285,#287,.T.);
#285 = VERTEX_POINT('',#286);
#286 = CARTESIAN_POINT('',(7.25,1.110223024625E-15,5.));
#287 = CIRCLE('',#288,2.25);
#288 = AXIS2_PLACEMENT_3D('',#289,#290,#291);
#289 = CARTESIAN_POINT('',(5.,1.110223024625E-15,5.));
#290 = DIRECTION('',(0.,-1.,2.22044604925E-16));
#291 = DIRECTION('',(1.,0.,0.));
#292 = FACE_BOUND('',#293,.T.);
#293 = EDGE_LOOP('',(#294));
#294 = ORIENTED_EDGE('',*,*,#295,.T.);
#295 = EDGE_CURVE('',#296,#296,#298,.T.);
#296 = VERTEX_POINT('',#297);
#297 = CARTESIAN_POINT('',(7.25,9.992007221626E-15,45.));
#298 = CIRCLE('',#299,2.25);
#299 = AXIS2_PLACEMENT_3D('',#300,#301,#302);
#300 = CARTESIAN_POINT('',(5.,9.992007221626E-15,45.));
#301 = DIRECTION('',(0.,-1.,2.22044604925E-16));
#302 = DIRECTION('',(1.,0.,0.));
#303 = PLANE('',#304);
#304 = AXIS2_PLACEMENT_3D('',#305,#306,#307);
#305 = CARTESIAN_POINT('',(7.223409697655,-1.188986756764E-15,
    -5.354720314709));
#306 = DIRECTION('',(0.,1.,0.));
#307 = DIRECTION('',(0.,0.,1.));
#308 = ADVANCED_FACE('',(#309),#328,.F.);
#309 = FACE_BOUND('',#310,.F.);
#310 = EDGE_LOOP('',(#311,#320,#321,#322));
#311 = ORIENTED_EDGE('',*,*,#312,.T.);
#312 = EDGE_CURVE('',#313,#56,#315,.T.);
#313 = VERTEX_POINT('',#314);
#314 = CARTESIAN_POINT('',(10.,-4.,-28.));
#315 = CIRCLE('',#316,5.);
#316 = AXIS2_PLACEMENT_3D('',#317,#318,#319);
#317 = CARTESIAN_POINT('',(10.,-9.,-28.));
#318 = DIRECTION('',(-1.,0.,0.));
#319 = DIRECTION('',(0.,0.,-1.));
#320 = ORIENTED_EDGE('',*,*,#63,.T.);
#321 = ORIENTED_EDGE('',*,*,#177,.F.);
#322 = ORIENTED_EDGE('',*,*,#323,.F.);
#323 = EDGE_CURVE('',#313,#178,#324,.T.);
#324 = LINE('',#325,#326);
#325 = CARTESIAN_POINT('',(10.,-4.,-28.));
#326 = VECTOR('',#327,1.);
#327 = DIRECTION('',(-1.,0.,0.));
#328 = CYLINDRICAL_SURFACE('',#329,5.);
#329 = AXIS2_PLACEMENT_3D('',#330,#331,#332);
#330 = CARTESIAN_POINT('',(10.,-9.,-28.));
#331 = DIRECTION('',(-1.,0.,0.));
#332 = DIRECTION('',(0.,1.,0.));
#333 = ADVANCED_FACE('',(#334),#354,.F.);
#334 = FACE_BOUND('',#335,.F.);
#335 = EDGE_LOOP('',(#336,#344,#350,#351,#352,#353));
#336 = ORIENTED_EDGE('',*,*,#337,.T.);
#337 = EDGE_CURVE('',#313,#338,#340,.T.);
#338 = VERTEX_POINT('',#339);
#339 = CARTESIAN_POINT('',(10.,-4.,50.));
#340 = LINE('',#341,#342);
#341 = CARTESIAN_POINT('',(10.,-4.,-33.));
#342 = VECTOR('',#343,1.);
#343 = DIRECTION('',(0.,2.22044604925E-16,1.));
#344 = ORIENTED_EDGE('',*,*,#345,.F.);
#345 = EDGE_CURVE('',#235,#338,#346,.T.);
#346 = LINE('',#347,#348);
#347 = CARTESIAN_POINT('',(10.,1.110223024625E-14,50.));
#348 = VECTOR('',#349,1.);
#349 = DIRECTION('',(0.,-1.,2.22044604925E-16));
#350 = ORIENTED_EDGE('',*,*,#242,.F.);
#351 = ORIENTED_EDGE('',*,*,#47,.T.);
#352 = ORIENTED_EDGE('',*,*,#55,.T.);
#353 = ORIENTED_EDGE('',*,*,#312,.F.);
#354 = PLANE('',#355);
#355 = AXIS2_PLACEMENT_3D('',#356,#357,#358);
#356 = CARTESIAN_POINT('',(10.,-7.327471962526E-15,-33.));
#357 = DIRECTION('',(-1.,0.,0.));
#358 = DIRECTION('',(0.,2.22044604925E-16,1.));
#359 = ADVANCED_FACE('',(#360),#371,.T.);
#360 = FACE_BOUND('',#361,.T.);
#361 = EDGE_LOOP('',(#362,#363,#369,#370));
#362 = ORIENTED_EDGE('',*,*,#95,.T.);
#363 = ORIENTED_EDGE('',*,*,#364,.F.);
#364 = EDGE_CURVE('',#251,#96,#365,.T.);
#365 = LINE('',#366,#367);
#366 = CARTESIAN_POINT('',(27.,-9.769962616701E-15,-42.17157287525));
#367 = VECTOR('',#368,1.);
#368 = DIRECTION('',(0.,-1.,2.22044604925E-16));
#369 = ORIENTED_EDGE('',*,*,#250,.F.);
#370 = ORIENTED_EDGE('',*,*,#160,.T.);
#371 = PLANE('',#372);
#372 = AXIS2_PLACEMENT_3D('',#373,#374,#375);
#373 = CARTESIAN_POINT('',(27.,-7.,-38.));
#374 = DIRECTION('',(1.,0.,0.));
#375 = DIRECTION('',(0.,0.,1.));
#376 = ADVANCED_FACE('',(#377),#388,.T.);
#377 = FACE_BOUND('',#378,.T.);
#378 = EDGE_LOOP('',(#379,#380,#381,#382));
#379 = ORIENTED_EDGE('',*,*,#129,.F.);
#380 = ORIENTED_EDGE('',*,*,#210,.F.);
#381 = ORIENTED_EDGE('',*,*,#225,.F.);
#382 = ORIENTED_EDGE('',*,*,#383,.T.);
#383 = EDGE_CURVE('',#226,#121,#384,.T.);
#384 = LINE('',#385,#386);
#385 = CARTESIAN_POINT('',(9.171572875254,-1.376676550535E-14,-60.));
#386 = VECTOR('',#387,1.);
#387 = DIRECTION('',(0.,-1.,2.22044604925E-16));
#388 = PLANE('',#389);
#389 = AXIS2_PLACEMENT_3D('',#390,#391,#392);
#390 = CARTESIAN_POINT('',(5.,-7.,-60.));
#391 = DIRECTION('',(-0.,-0.,-1.));
#392 = DIRECTION('',(-1.,0.,0.));
#393 = ADVANCED_FACE('',(#394),#405,.T.);
#394 = FACE_BOUND('',#395,.F.);
#395 = EDGE_LOOP('',(#396,#397,#403,#404));
#396 = ORIENTED_EDGE('',*,*,#258,.T.);
#397 = ORIENTED_EDGE('',*,*,#398,.T.);
#398 = EDGE_CURVE('',#259,#104,#399,.T.);
#399 = LINE('',#400,#401);
#400 = CARTESIAN_POINT('',(26.414213562373,-1.008398110844E-14,
    -43.58578643762));
#401 = VECTOR('',#402,1.);
#402 = DIRECTION('',(0.,-1.,2.22044604925E-16));
#403 = ORIENTED_EDGE('',*,*,#103,.F.);
#404 = ORIENTED_EDGE('',*,*,#364,.F.);
#405 = CYLINDRICAL_SURFACE('',#406,2.);
#406 = AXIS2_PLACEMENT_3D('',#407,#408,#409);
#407 = CARTESIAN_POINT('',(25.,-9.769962616701E-15,-42.17157287525));
#408 = DIRECTION('',(0.,-1.,2.22044604925E-16));
#409 = DIRECTION('',(1.,0.,0.));
#410 = ADVANCED_FACE('',(#411),#422,.T.);
#411 = FACE_BOUND('',#412,.T.);
#412 = EDGE_LOOP('',(#413,#414,#420,#421));
#413 = ORIENTED_EDGE('',*,*,#275,.T.);
#414 = ORIENTED_EDGE('',*,*,#415,.T.);
#415 = EDGE_CURVE('',#268,#113,#416,.T.);
#416 = LINE('',#417,#418);
#417 = CARTESIAN_POINT('',(10.585786437627,-1.363669478724E-14,
    -59.41421356237));
#418 = VECTOR('',#419,1.);
#419 = DIRECTION('',(0.,-1.,2.22044604925E-16));
#420 = ORIENTED_EDGE('',*,*,#120,.F.);
#421 = ORIENTED_EDGE('',*,*,#383,.F.);
#422 = CYLINDRICAL_SURFACE('',#423,2.);
#423 = AXIS2_PLACEMENT_3D('',#424,#425,#426);
#424 = CARTESIAN_POINT('',(9.171572875254,-1.33226762955E-14,-58.));
#425 = DIRECTION('',(0.,-1.,2.22044604925E-16));
#426 = DIRECTION('',(0.,-2.22044604925E-16,-1.));
#427 = ADVANCED_FACE('',(#428),#434,.T.);
#428 = FACE_BOUND('',#429,.T.);
#429 = EDGE_LOOP('',(#430,#431,#432,#433));
#430 = ORIENTED_EDGE('',*,*,#112,.T.);
#431 = ORIENTED_EDGE('',*,*,#415,.F.);
#432 = ORIENTED_EDGE('',*,*,#267,.F.);
#433 = ORIENTED_EDGE('',*,*,#398,.T.);
#434 = PLANE('',#435);
#435 = AXIS2_PLACEMENT_3D('',#436,#437,#438);
#436 = CARTESIAN_POINT('',(18.5,-7.,-51.5));
#437 = DIRECTION('',(0.707106781187,0.,-0.707106781187));
#438 = DIRECTION('',(-0.707106781187,0.,-0.707106781187));
#439 = ADVANCED_FACE('',(#440,#451,#462),#473,.F.);
#440 = FACE_BOUND('',#441,.F.);
#441 = EDGE_LOOP('',(#442,#443,#444,#445));
#442 = ORIENTED_EDGE('',*,*,#337,.F.);
#443 = ORIENTED_EDGE('',*,*,#323,.T.);
#444 = ORIENTED_EDGE('',*,*,#186,.F.);
#445 = ORIENTED_EDGE('',*,*,#446,.T.);
#446 = EDGE_CURVE('',#187,#338,#447,.T.);
#447 = LINE('',#448,#449);
#448 = CARTESIAN_POINT('',(0.,-4.,50.));
#449 = VECTOR('',#450,1.);
#450 = DIRECTION('',(1.,0.,0.));
#451 = FACE_BOUND('',#452,.F.);
#452 = EDGE_LOOP('',(#453));
#453 = ORIENTED_EDGE('',*,*,#454,.T.);
#454 = EDGE_CURVE('',#455,#455,#457,.T.);
#455 = VERTEX_POINT('',#456);
#456 = CARTESIAN_POINT('',(7.25,-4.,5.));
#457 = CIRCLE('',#458,2.25);
#458 = AXIS2_PLACEMENT_3D('',#459,#460,#461);
#459 = CARTESIAN_POINT('',(5.,-4.,5.));
#460 = DIRECTION('',(0.,-1.,2.22044604925E-16));
#461 = DIRECTION('',(1.,0.,0.));
#462 = FACE_BOUND('',#463,.F.);
#463 = EDGE_LOOP('',(#464));
#464 = ORIENTED_EDGE('',*,*,#465,.T.);
#465 = EDGE_CURVE('',#466,#466,#468,.T.);
#466 = VERTEX_POINT('',#467);
#467 = CARTESIAN_POINT('',(7.25,-4.,45.));
#468 = CIRCLE('',#469,2.25);
#469 = AXIS2_PLACEMENT_3D('',#470,#471,#472);
#470 = CARTESIAN_POINT('',(5.,-4.,45.));
#471 = DIRECTION('',(0.,-1.,2.22044604925E-16));
#472 = DIRECTION('',(1.,0.,0.));
#473 = PLANE('',#474);
#474 = AXIS2_PLACEMENT_3D('',#475,#476,#477);
#475 = CARTESIAN_POINT('',(7.223409697655,-4.,-5.354720314709));
#476 = DIRECTION('',(0.,1.,0.));
#477 = DIRECTION('',(0.,0.,1.));
#478 = ADVANCED_FACE('',(#479),#485,.T.);
#479 = FACE_BOUND('',#480,.T.);
#480 = EDGE_LOOP('',(#481,#482,#483,#484));
#481 = ORIENTED_EDGE('',*,*,#194,.T.);
#482 = ORIENTED_EDGE('',*,*,#446,.T.);
#483 = ORIENTED_EDGE('',*,*,#345,.F.);
#484 = ORIENTED_EDGE('',*,*,#234,.F.);
#485 = PLANE('',#486);
#486 = AXIS2_PLACEMENT_3D('',#487,#488,#489);
#487 = CARTESIAN_POINT('',(0.,1.110223024625E-14,50.));
#488 = DIRECTION('',(0.,2.22044604925E-16,1.));
#489 = DIRECTION('',(1.,0.,0.));
#490 = ADVANCED_FACE('',(#491),#502,.F.);
#491 = FACE_BOUND('',#492,.T.);
#492 = EDGE_LOOP('',(#493,#499,#500,#501));
#493 = ORIENTED_EDGE('',*,*,#494,.T.);
#494 = EDGE_CURVE('',#285,#455,#495,.T.);
#495 = LINE('',#496,#497);
#496 = CARTESIAN_POINT('',(7.25,1.110223024625E-15,5.));
#497 = VECTOR('',#498,1.);
#498 = DIRECTION('',(0.,-1.,2.22044604925E-16));
#499 = ORIENTED_EDGE('',*,*,#454,.T.);
#500 = ORIENTED_EDGE('',*,*,#494,.F.);
#501 = ORIENTED_EDGE('',*,*,#284,.F.);
#502 = CYLINDRICAL_SURFACE('',#503,2.25);
#503 = AXIS2_PLACEMENT_3D('',#504,#505,#506);
#504 = CARTESIAN_POINT('',(5.,1.110223024625E-15,5.));
#505 = DIRECTION('',(0.,1.,-2.22044604925E-16));
#506 = DIRECTION('',(1.,0.,0.));
#507 = ADVANCED_FACE('',(#508),#519,.F.);
#508 = FACE_BOUND('',#509,.T.);
#509 = EDGE_LOOP('',(#510,#516,#517,#518));
#510 = ORIENTED_EDGE('',*,*,#511,.T.);
#511 = EDGE_CURVE('',#296,#466,#512,.T.);
#512 = LINE('',#513,#514);
#513 = CARTESIAN_POINT('',(7.25,9.992007221626E-15,45.));
#514 = VECTOR('',#515,1.);
#515 = DIRECTION('',(0.,-1.,2.22044604925E-16));
#516 = ORIENTED_EDGE('',*,*,#465,.T.);
#517 = ORIENTED_EDGE('',*,*,#511,.F.);
#518 = ORIENTED_EDGE('',*,*,#295,.F.);
#519 = CYLINDRICAL_SURFACE('',#520,2.25);
#520 = AXIS2_PLACEMENT_3D('',#521,#522,#523);
#521 = CARTESIAN_POINT('',(5.,9.992007221626E-15,45.));
#522 = DIRECTION('',(0.,1.,-2.22044604925E-16));
#523 = DIRECTION('',(1.,0.,0.));
#524 = ( GEOMETRIC_REPRESENTATION_CONTEXT(3) 
GLOBAL_UNCERTAINTY_ASSIGNED_CONTEXT((#528)) GLOBAL_UNIT_ASSIGNED_CONTEXT
((#525,#526,#527)) REPRESENTATION_CONTEXT('Context #1',
  '3D Context with UNIT and UNCERTAINTY') );
#525 = ( LENGTH_UNIT() NAMED_UNIT(*) SI_UNIT(.MILLI.,.METRE.) );
#526 = ( NAMED_UNIT(*) PLANE_ANGLE_UNIT() SI_UNIT($,.RADIAN.) );
#527 = ( NAMED_UNIT(*) SI_UNIT($,.STERADIAN.) SOLID_ANGLE_UNIT() );
#528 = UNCERTAINTY_MEASURE_WITH_UNIT(LENGTH_MEASURE(1.E-07),#525,
  'distance_accuracy_value','confusion accuracy');
#529 = PRODUCT_RELATED_PRODUCT_CATEGORY('part',$,(#7));
#530 = MECHANICAL_DESIGN_GEOMETRIC_PRESENTATION_REPRESENTATION('',(#531)
  ,#524);
#531 = STYLED_ITEM('color',(#532),#15);
#532 = PRESENTATION_STYLE_ASSIGNMENT((#533,#539));
#533 = SURFACE_STYLE_USAGE(.BOTH.,#534);
#534 = SURFACE_SIDE_STYLE('',(#535));
#535 = SURFACE_STYLE_FILL_AREA(#536);
#536 = FILL_AREA_STYLE('',(#537));
#537 = FILL_AREA_STYLE_COLOUR('',#538);
#538 = COLOUR_RGB('',0.678431390124,0.709803936702,0.741176476869);
#539 = CURVE_STYLE('',#540,POSITIVE_LENGTH_MEASURE(0.1),#541);
#540 = DRAUGHTING_PRE_DEFINED_CURVE_FONT('continuous');
#541 = COLOUR_RGB('',9.803921802644E-02,9.803921802644E-02,
  9.803921802644E-02);
ENDSEC;
END-ISO-10303-21;
