ISO-10303-21;
HEADER;
FILE_DESCRIPTION(('FreeCAD Model'),'2;1');
FILE_NAME('Open CASCADE Shape Model','2026-03-26T17:54:14',(''),(''),
  'Open CASCADE STEP processor 7.8','FreeCAD','Unknown');
FILE_SCHEMA(('AUTOMOTIVE_DESIGN { 1 0 10303 214 1 1 1 1 }'));
ENDSEC;
DATA;
#1 = APPLICATION_PROTOCOL_DEFINITION('international standard',
  'automotive_design',2000,#2);
#2 = APPLICATION_CONTEXT(
  'core data for automotive mechanical design processes');
#3 = SHAPE_DEFINITION_REPRESENTATION(#4,#10);
#4 = PRODUCT_DEFINITION_SHAPE('','',#5);
#5 = PRODUCT_DEFINITION('design','',#6,#9);
#6 = PRODUCT_DEFINITION_FORMATION('','',#7);
#7 = PRODUCT('Body','Body','',(#8));
#8 = PRODUCT_CONTEXT('',#2,'mechanical');
#9 = PRODUCT_DEFINITION_CONTEXT('part definition',#2,'design');
#10 = ADVANCED_BREP_SHAPE_REPRESENTATION('',(#11,#15),#618);
#11 = AXIS2_PLACEMENT_3D('',#12,#13,#14);
#12 = CARTESIAN_POINT('',(0.,0.,0.));
#13 = DIRECTION('',(0.,0.,1.));
#14 = DIRECTION('',(1.,0.,-0.));
#15 = MANIFOLD_SOLID_BREP('',#16);
#16 = CLOSED_SHELL('',(#17,#57,#179,#204,#229,#335,#368,#385,#409,#426,
    #451,#468,#499,#516,#528,#545,#562,#586,#604));
#17 = ADVANCED_FACE('',(#18),#52,.F.);
#18 = FACE_BOUND('',#19,.F.);
#19 = EDGE_LOOP('',(#20,#30,#38,#46));
#20 = ORIENTED_EDGE('',*,*,#21,.F.);
#21 = EDGE_CURVE('',#22,#24,#26,.T.);
#22 = VERTEX_POINT('',#23);
#23 = CARTESIAN_POINT('',(10.,-6.439293542826E-15,29.));
#24 = VERTEX_POINT('',#25);
#25 = CARTESIAN_POINT('',(10.,-1.021405182655E-14,46.));
#26 = LINE('',#27,#28);
#27 = CARTESIAN_POINT('',(10.,-5.551115123126E-15,25.));
#28 = VECTOR('',#29,1.);
#29 = DIRECTION('',(0.,-2.22044604925E-16,1.));
#30 = ORIENTED_EDGE('',*,*,#31,.T.);
#31 = EDGE_CURVE('',#22,#32,#34,.T.);
#32 = VERTEX_POINT('',#33);
#33 = CARTESIAN_POINT('',(10.,-2.,29.));
#34 = LINE('',#35,#36);
#35 = CARTESIAN_POINT('',(10.,-9.16035795701E-15,29.));
#36 = VECTOR('',#37,1.);
#37 = DIRECTION('',(0.,-1.,9.860761315263E-32));
#38 = ORIENTED_EDGE('',*,*,#39,.T.);
#39 = EDGE_CURVE('',#32,#40,#42,.T.);
#40 = VERTEX_POINT('',#41);
#41 = CARTESIAN_POINT('',(10.,-2.,46.));
#42 = LINE('',#43,#44);
#43 = CARTESIAN_POINT('',(10.,-2.,25.));
#44 = VECTOR('',#45,1.);
#45 = DIRECTION('',(0.,-2.22044604925E-16,1.));
#46 = ORIENTED_EDGE('',*,*,#47,.F.);
#47 = EDGE_CURVE('',#24,#40,#48,.T.);
#48 = LINE('',#49,#50);
#49 = CARTESIAN_POINT('',(10.,-1.110223024625E-14,46.));
#50 = VECTOR('',#51,1.);
#51 = DIRECTION('',(0.,-1.,9.860761315263E-32));
#52 = PLANE('',#53);
#53 = AXIS2_PLACEMENT_3D('',#54,#55,#56);
#54 = CARTESIAN_POINT('',(10.,-5.551115123126E-15,25.));
#55 = DIRECTION('',(-1.,0.,0.));
#56 = DIRECTION('',(0.,-2.22044604925E-16,1.));
#57 = ADVANCED_FACE('',(#58,#152,#163),#174,.T.);
#58 = FACE_BOUND('',#59,.T.);
#59 = EDGE_LOOP('',(#60,#61,#70,#78,#86,#95,#103,#111,#120,#128,#137,
    #145));
#60 = ORIENTED_EDGE('',*,*,#21,.F.);
#61 = ORIENTED_EDGE('',*,*,#62,.T.);
#62 = EDGE_CURVE('',#22,#63,#65,.T.);
#63 = VERTEX_POINT('',#64);
#64 = CARTESIAN_POINT('',(14.,-5.607644278209E-15,25.));
#65 = CIRCLE('',#66,4.);
#66 = AXIS2_PLACEMENT_3D('',#67,#68,#69);
#67 = CARTESIAN_POINT('',(14.,-5.390545105636E-15,29.));
#68 = DIRECTION('',(0.,-1.,9.860761315263E-32));
#69 = DIRECTION('',(0.,-9.860761315263E-32,-1.));
#70 = ORIENTED_EDGE('',*,*,#71,.T.);
#71 = EDGE_CURVE('',#63,#72,#74,.T.);
#72 = VERTEX_POINT('',#73);
#73 = CARTESIAN_POINT('',(27.,-5.551115123126E-15,25.));
#74 = LINE('',#75,#76);
#75 = CARTESIAN_POINT('',(10.,-5.551115123126E-15,25.));
#76 = VECTOR('',#77,1.);
#77 = DIRECTION('',(1.,0.,0.));
#78 = ORIENTED_EDGE('',*,*,#79,.T.);
#79 = EDGE_CURVE('',#72,#80,#82,.T.);
#80 = VERTEX_POINT('',#81);
#81 = CARTESIAN_POINT('',(27.,-4.171815179049E-15,18.656854249048));
#82 = LINE('',#83,#84);
#83 = CARTESIAN_POINT('',(27.,-5.551115123126E-15,25.));
#84 = VECTOR('',#85,1.);
#85 = DIRECTION('',(0.,2.22044604925E-16,-1.));
#86 = ORIENTED_EDGE('',*,*,#87,.T.);
#87 = EDGE_CURVE('',#80,#88,#90,.T.);
#88 = VERTEX_POINT('',#89);
#89 = CARTESIAN_POINT('',(25.828427124706,-3.023495323131E-15,
    15.828427124262));
#90 = CIRCLE('',#91,4.);
#91 = AXIS2_PLACEMENT_3D('',#92,#93,#94);
#92 = CARTESIAN_POINT('',(23.,-5.390545105636E-15,18.656854249048));
#93 = DIRECTION('',(-0.,1.,-2.22044604925E-16));
#94 = DIRECTION('',(0.,-2.22044604925E-16,-1.));
#95 = ORIENTED_EDGE('',*,*,#96,.F.);
#96 = EDGE_CURVE('',#97,#88,#99,.T.);
#97 = VERTEX_POINT('',#98);
#98 = CARTESIAN_POINT('',(10.,0.,0.));
#99 = LINE('',#100,#101);
#100 = CARTESIAN_POINT('',(10.,0.,0.));
#101 = VECTOR('',#102,1.);
#102 = DIRECTION('',(0.707106781196,-1.570092458662E-16,0.707106781177)
  );
#103 = ORIENTED_EDGE('',*,*,#104,.F.);
#104 = EDGE_CURVE('',#105,#97,#107,.T.);
#105 = VERTEX_POINT('',#106);
#106 = CARTESIAN_POINT('',(4.,-4.379057701015E-47,-8.881784197001E-16));
#107 = LINE('',#108,#109);
#108 = CARTESIAN_POINT('',(0.,0.,0.));
#109 = VECTOR('',#110,1.);
#110 = DIRECTION('',(1.,0.,0.));
#111 = ORIENTED_EDGE('',*,*,#112,.F.);
#112 = EDGE_CURVE('',#113,#105,#115,.T.);
#113 = VERTEX_POINT('',#114);
#114 = CARTESIAN_POINT('',(-8.881784197001E-16,-8.881784197001E-16,4.));
#115 = CIRCLE('',#116,4.);
#116 = AXIS2_PLACEMENT_3D('',#117,#118,#119);
#117 = CARTESIAN_POINT('',(4.,-5.390545105636E-15,4.));
#118 = DIRECTION('',(0.,-1.,9.860761315263E-32));
#119 = DIRECTION('',(0.,-9.860761315263E-32,-1.));
#120 = ORIENTED_EDGE('',*,*,#121,.F.);
#121 = EDGE_CURVE('',#122,#113,#124,.T.);
#122 = VERTEX_POINT('',#123);
#123 = CARTESIAN_POINT('',(-8.881784197001E-16,-1.021405182655E-14,46.)
  );
#124 = LINE('',#125,#126);
#125 = CARTESIAN_POINT('',(0.,-1.110223024625E-14,50.));
#126 = VECTOR('',#127,1.);
#127 = DIRECTION('',(0.,2.22044604925E-16,-1.));
#128 = ORIENTED_EDGE('',*,*,#129,.F.);
#129 = EDGE_CURVE('',#130,#122,#132,.T.);
#130 = VERTEX_POINT('',#131);
#131 = CARTESIAN_POINT('',(4.,-1.110223024625E-14,50.));
#132 = CIRCLE('',#133,4.);
#133 = AXIS2_PLACEMENT_3D('',#134,#135,#136);
#134 = CARTESIAN_POINT('',(4.,-5.390545105636E-15,46.));
#135 = DIRECTION('',(0.,-1.,9.860761315263E-32));
#136 = DIRECTION('',(0.,-9.860761315263E-32,-1.));
#137 = ORIENTED_EDGE('',*,*,#138,.T.);
#138 = EDGE_CURVE('',#130,#139,#141,.T.);
#139 = VERTEX_POINT('',#140);
#140 = CARTESIAN_POINT('',(6.,-1.110223024625E-14,50.));
#141 = LINE('',#142,#143);
#142 = CARTESIAN_POINT('',(0.,-1.110223024625E-14,50.));
#143 = VECTOR('',#144,1.);
#144 = DIRECTION('',(1.,0.,0.));
#145 = ORIENTED_EDGE('',*,*,#146,.F.);
#146 = EDGE_CURVE('',#24,#139,#147,.T.);
#147 = CIRCLE('',#148,4.);
#148 = AXIS2_PLACEMENT_3D('',#149,#150,#151);
#149 = CARTESIAN_POINT('',(6.,-5.390545105636E-15,46.));
#150 = DIRECTION('',(0.,-1.,9.860761315263E-32));
#151 = DIRECTION('',(0.,-9.860761315263E-32,-1.));
#152 = FACE_BOUND('',#153,.T.);
#153 = EDGE_LOOP('',(#154));
#154 = ORIENTED_EDGE('',*,*,#155,.T.);
#155 = EDGE_CURVE('',#156,#156,#158,.T.);
#156 = VERTEX_POINT('',#157);
#157 = CARTESIAN_POINT('',(6.6,-9.992007221626E-15,45.));
#158 = CIRCLE('',#159,1.6);
#159 = AXIS2_PLACEMENT_3D('',#160,#161,#162);
#160 = CARTESIAN_POINT('',(5.,-9.992007221626E-15,45.));
#161 = DIRECTION('',(0.,-1.,-2.22044604925E-16));
#162 = DIRECTION('',(1.,0.,0.));
#163 = FACE_BOUND('',#164,.T.);
#164 = EDGE_LOOP('',(#165));
#165 = ORIENTED_EDGE('',*,*,#166,.T.);
#166 = EDGE_CURVE('',#167,#167,#169,.T.);
#167 = VERTEX_POINT('',#168);
#168 = CARTESIAN_POINT('',(6.6,-1.110223024625E-15,5.));
#169 = CIRCLE('',#170,1.6);
#170 = AXIS2_PLACEMENT_3D('',#171,#172,#173);
#171 = CARTESIAN_POINT('',(5.,-1.110223024625E-15,5.));
#172 = DIRECTION('',(0.,-1.,-2.22044604925E-16));
#173 = DIRECTION('',(1.,0.,0.));
#174 = PLANE('',#175);
#175 = AXIS2_PLACEMENT_3D('',#176,#177,#178);
#176 = CARTESIAN_POINT('',(8.765883984093,-5.390545105636E-15,
    24.276856929067));
#177 = DIRECTION('',(0.,1.,-9.860761315263E-32));
#178 = DIRECTION('',(0.,9.860761315263E-32,1.));
#179 = ADVANCED_FACE('',(#180),#199,.F.);
#180 = FACE_BOUND('',#181,.F.);
#181 = EDGE_LOOP('',(#182,#183,#191,#198));
#182 = ORIENTED_EDGE('',*,*,#62,.T.);
#183 = ORIENTED_EDGE('',*,*,#184,.T.);
#184 = EDGE_CURVE('',#63,#185,#187,.T.);
#185 = VERTEX_POINT('',#186);
#186 = CARTESIAN_POINT('',(14.,-2.,25.));
#187 = LINE('',#188,#189);
#188 = CARTESIAN_POINT('',(14.,-9.16035795701E-15,25.));
#189 = VECTOR('',#190,1.);
#190 = DIRECTION('',(0.,-1.,9.860761315263E-32));
#191 = ORIENTED_EDGE('',*,*,#192,.F.);
#192 = EDGE_CURVE('',#32,#185,#193,.T.);
#193 = CIRCLE('',#194,4.);
#194 = AXIS2_PLACEMENT_3D('',#195,#196,#197);
#195 = CARTESIAN_POINT('',(14.,-2.,29.));
#196 = DIRECTION('',(0.,-1.,9.860761315263E-32));
#197 = DIRECTION('',(0.,-9.860761315263E-32,-1.));
#198 = ORIENTED_EDGE('',*,*,#31,.F.);
#199 = CYLINDRICAL_SURFACE('',#200,4.);
#200 = AXIS2_PLACEMENT_3D('',#201,#202,#203);
#201 = CARTESIAN_POINT('',(14.,-9.16035795701E-15,29.));
#202 = DIRECTION('',(0.,-1.,9.860761315263E-32));
#203 = DIRECTION('',(-1.,-0.,0.));
#204 = ADVANCED_FACE('',(#205),#224,.T.);
#205 = FACE_BOUND('',#206,.T.);
#206 = EDGE_LOOP('',(#207,#208,#216,#223));
#207 = ORIENTED_EDGE('',*,*,#146,.T.);
#208 = ORIENTED_EDGE('',*,*,#209,.T.);
#209 = EDGE_CURVE('',#139,#210,#212,.T.);
#210 = VERTEX_POINT('',#211);
#211 = CARTESIAN_POINT('',(6.,-2.,50.));
#212 = LINE('',#213,#214);
#213 = CARTESIAN_POINT('',(6.,-1.110223024625E-14,50.));
#214 = VECTOR('',#215,1.);
#215 = DIRECTION('',(0.,-1.,9.860761315263E-32));
#216 = ORIENTED_EDGE('',*,*,#217,.F.);
#217 = EDGE_CURVE('',#40,#210,#218,.T.);
#218 = CIRCLE('',#219,4.);
#219 = AXIS2_PLACEMENT_3D('',#220,#221,#222);
#220 = CARTESIAN_POINT('',(6.,-2.,46.));
#221 = DIRECTION('',(0.,-1.,9.860761315263E-32));
#222 = DIRECTION('',(0.,-9.860761315263E-32,-1.));
#223 = ORIENTED_EDGE('',*,*,#47,.F.);
#224 = CYLINDRICAL_SURFACE('',#225,4.);
#225 = AXIS2_PLACEMENT_3D('',#226,#227,#228);
#226 = CARTESIAN_POINT('',(6.,-1.110223024625E-14,46.));
#227 = DIRECTION('',(0.,-1.,9.860761315263E-32));
#228 = DIRECTION('',(1.,0.,0.));
#229 = ADVANCED_FACE('',(#230,#308,#319),#330,.F.);
#230 = FACE_BOUND('',#231,.F.);
#231 = EDGE_LOOP('',(#232,#233,#234,#242,#250,#259,#267,#275,#284,#292,
    #301,#307));
#232 = ORIENTED_EDGE('',*,*,#39,.F.);
#233 = ORIENTED_EDGE('',*,*,#192,.T.);
#234 = ORIENTED_EDGE('',*,*,#235,.F.);
#235 = EDGE_CURVE('',#236,#185,#238,.T.);
#236 = VERTEX_POINT('',#237);
#237 = CARTESIAN_POINT('',(10.,-2.,25.));
#238 = LINE('',#239,#240);
#239 = CARTESIAN_POINT('',(13.632941992046,-2.,25.));
#240 = VECTOR('',#241,1.);
#241 = DIRECTION('',(1.,0.,0.));
#242 = ORIENTED_EDGE('',*,*,#243,.T.);
#243 = EDGE_CURVE('',#236,#244,#246,.T.);
#244 = VERTEX_POINT('',#245);
#245 = CARTESIAN_POINT('',(10.,-2.,9.656854249301));
#246 = LINE('',#247,#248);
#247 = CARTESIAN_POINT('',(10.,-2.,25.));
#248 = VECTOR('',#249,1.);
#249 = DIRECTION('',(0.,-2.22044604925E-16,-1.));
#250 = ORIENTED_EDGE('',*,*,#251,.T.);
#251 = EDGE_CURVE('',#244,#252,#254,.T.);
#252 = VERTEX_POINT('',#253);
#253 = CARTESIAN_POINT('',(16.828427124706,-2.,6.828427124515));
#254 = CIRCLE('',#255,4.);
#255 = AXIS2_PLACEMENT_3D('',#256,#257,#258);
#256 = CARTESIAN_POINT('',(14.,-2.,9.656854249301));
#257 = DIRECTION('',(0.,-1.,2.22044604925E-16));
#258 = DIRECTION('',(0.,-2.22044604925E-16,-1.));
#259 = ORIENTED_EDGE('',*,*,#260,.F.);
#260 = EDGE_CURVE('',#261,#252,#263,.T.);
#261 = VERTEX_POINT('',#262);
#262 = CARTESIAN_POINT('',(10.,-2.,1.972152263053E-31));
#263 = LINE('',#264,#265);
#264 = CARTESIAN_POINT('',(20.010685228281,-2.,10.010685228));
#265 = VECTOR('',#266,1.);
#266 = DIRECTION('',(0.707106781196,4.930380657631E-32,0.707106781177));
#267 = ORIENTED_EDGE('',*,*,#268,.F.);
#268 = EDGE_CURVE('',#269,#261,#271,.T.);
#269 = VERTEX_POINT('',#270);
#270 = CARTESIAN_POINT('',(4.,-2.,-8.881784197001E-16));
#271 = LINE('',#272,#273);
#272 = CARTESIAN_POINT('',(0.,-2.,0.));
#273 = VECTOR('',#274,1.);
#274 = DIRECTION('',(1.,0.,0.));
#275 = ORIENTED_EDGE('',*,*,#276,.F.);
#276 = EDGE_CURVE('',#277,#269,#279,.T.);
#277 = VERTEX_POINT('',#278);
#278 = CARTESIAN_POINT('',(-8.881784197001E-16,-2.,4.));
#279 = CIRCLE('',#280,4.);
#280 = AXIS2_PLACEMENT_3D('',#281,#282,#283);
#281 = CARTESIAN_POINT('',(4.,-2.,4.));
#282 = DIRECTION('',(0.,-1.,9.860761315263E-32));
#283 = DIRECTION('',(0.,-9.860761315263E-32,-1.));
#284 = ORIENTED_EDGE('',*,*,#285,.F.);
#285 = EDGE_CURVE('',#286,#277,#288,.T.);
#286 = VERTEX_POINT('',#287);
#287 = CARTESIAN_POINT('',(-8.881784197001E-16,-2.,46.));
#288 = LINE('',#289,#290);
#289 = CARTESIAN_POINT('',(0.,-2.,50.));
#290 = VECTOR('',#291,1.);
#291 = DIRECTION('',(0.,2.22044604925E-16,-1.));
#292 = ORIENTED_EDGE('',*,*,#293,.F.);
#293 = EDGE_CURVE('',#294,#286,#296,.T.);
#294 = VERTEX_POINT('',#295);
#295 = CARTESIAN_POINT('',(4.,-2.,50.));
#296 = CIRCLE('',#297,4.);
#297 = AXIS2_PLACEMENT_3D('',#298,#299,#300);
#298 = CARTESIAN_POINT('',(4.,-2.,46.));
#299 = DIRECTION('',(0.,-1.,9.860761315263E-32));
#300 = DIRECTION('',(0.,-9.860761315263E-32,-1.));
#301 = ORIENTED_EDGE('',*,*,#302,.T.);
#302 = EDGE_CURVE('',#294,#210,#303,.T.);
#303 = LINE('',#304,#305);
#304 = CARTESIAN_POINT('',(0.,-2.,50.));
#305 = VECTOR('',#306,1.);
#306 = DIRECTION('',(1.,0.,0.));
#307 = ORIENTED_EDGE('',*,*,#217,.F.);
#308 = FACE_BOUND('',#309,.F.);
#309 = EDGE_LOOP('',(#310));
#310 = ORIENTED_EDGE('',*,*,#311,.T.);
#311 = EDGE_CURVE('',#312,#312,#314,.T.);
#312 = VERTEX_POINT('',#313);
#313 = CARTESIAN_POINT('',(6.6,-2.,5.));
#314 = CIRCLE('',#315,1.6);
#315 = AXIS2_PLACEMENT_3D('',#316,#317,#318);
#316 = CARTESIAN_POINT('',(5.,-2.,5.));
#317 = DIRECTION('',(0.,-1.,-2.22044604925E-16));
#318 = DIRECTION('',(1.,0.,0.));
#319 = FACE_BOUND('',#320,.F.);
#320 = EDGE_LOOP('',(#321));
#321 = ORIENTED_EDGE('',*,*,#322,.T.);
#322 = EDGE_CURVE('',#323,#323,#325,.T.);
#323 = VERTEX_POINT('',#324);
#324 = CARTESIAN_POINT('',(6.6,-2.,45.));
#325 = CIRCLE('',#326,1.6);
#326 = AXIS2_PLACEMENT_3D('',#327,#328,#329);
#327 = CARTESIAN_POINT('',(5.,-2.,45.));
#328 = DIRECTION('',(0.,-1.,-2.22044604925E-16));
#329 = DIRECTION('',(1.,0.,0.));
#330 = PLANE('',#331);
#331 = AXIS2_PLACEMENT_3D('',#332,#333,#334);
#332 = CARTESIAN_POINT('',(8.765883984093,-2.,24.276856929067));
#333 = DIRECTION('',(0.,1.,-9.860761315263E-32));
#334 = DIRECTION('',(0.,9.860761315263E-32,1.));
#335 = ADVANCED_FACE('',(#336),#363,.T.);
#336 = FACE_BOUND('',#337,.T.);
#337 = EDGE_LOOP('',(#338,#339,#340,#341,#349,#357));
#338 = ORIENTED_EDGE('',*,*,#71,.F.);
#339 = ORIENTED_EDGE('',*,*,#184,.T.);
#340 = ORIENTED_EDGE('',*,*,#235,.F.);
#341 = ORIENTED_EDGE('',*,*,#342,.T.);
#342 = EDGE_CURVE('',#236,#343,#345,.T.);
#343 = VERTEX_POINT('',#344);
#344 = CARTESIAN_POINT('',(10.,-9.,25.));
#345 = LINE('',#346,#347);
#346 = CARTESIAN_POINT('',(10.,-2.,25.));
#347 = VECTOR('',#348,1.);
#348 = DIRECTION('',(0.,-1.,2.22044604925E-16));
#349 = ORIENTED_EDGE('',*,*,#350,.F.);
#350 = EDGE_CURVE('',#351,#343,#353,.T.);
#351 = VERTEX_POINT('',#352);
#352 = CARTESIAN_POINT('',(27.,-9.,25.));
#353 = LINE('',#354,#355);
#354 = CARTESIAN_POINT('',(27.,-9.,25.));
#355 = VECTOR('',#356,1.);
#356 = DIRECTION('',(-1.,0.,0.));
#357 = ORIENTED_EDGE('',*,*,#358,.F.);
#358 = EDGE_CURVE('',#72,#351,#359,.T.);
#359 = LINE('',#360,#361);
#360 = CARTESIAN_POINT('',(27.,-2.,25.));
#361 = VECTOR('',#362,1.);
#362 = DIRECTION('',(0.,-1.,2.22044604925E-16));
#363 = PLANE('',#364);
#364 = AXIS2_PLACEMENT_3D('',#365,#366,#367);
#365 = CARTESIAN_POINT('',(18.5,-4.5,25.));
#366 = DIRECTION('',(0.,-9.02310708471E-16,1.));
#367 = DIRECTION('',(0.,-1.,-9.02310708471E-16));
#368 = ADVANCED_FACE('',(#369),#380,.T.);
#369 = FACE_BOUND('',#370,.T.);
#370 = EDGE_LOOP('',(#371,#372,#378,#379));
#371 = ORIENTED_EDGE('',*,*,#138,.F.);
#372 = ORIENTED_EDGE('',*,*,#373,.T.);
#373 = EDGE_CURVE('',#130,#294,#374,.T.);
#374 = LINE('',#375,#376);
#375 = CARTESIAN_POINT('',(4.,-1.110223024625E-14,50.));
#376 = VECTOR('',#377,1.);
#377 = DIRECTION('',(0.,-1.,9.860761315263E-32));
#378 = ORIENTED_EDGE('',*,*,#302,.T.);
#379 = ORIENTED_EDGE('',*,*,#209,.F.);
#380 = PLANE('',#381);
#381 = AXIS2_PLACEMENT_3D('',#382,#383,#384);
#382 = CARTESIAN_POINT('',(0.,-1.110223024625E-14,50.));
#383 = DIRECTION('',(0.,9.860761315263E-32,1.));
#384 = DIRECTION('',(1.,0.,0.));
#385 = ADVANCED_FACE('',(#386),#404,.T.);
#386 = FACE_BOUND('',#387,.T.);
#387 = EDGE_LOOP('',(#388,#396,#402,#403));
#388 = ORIENTED_EDGE('',*,*,#389,.F.);
#389 = EDGE_CURVE('',#390,#351,#392,.T.);
#390 = VERTEX_POINT('',#391);
#391 = CARTESIAN_POINT('',(27.,-9.,18.656854249048));
#392 = LINE('',#393,#394);
#393 = CARTESIAN_POINT('',(27.,-9.,16.999999999523));
#394 = VECTOR('',#395,1.);
#395 = DIRECTION('',(0.,2.22044604925E-16,1.));
#396 = ORIENTED_EDGE('',*,*,#397,.F.);
#397 = EDGE_CURVE('',#80,#390,#398,.T.);
#398 = LINE('',#399,#400);
#399 = CARTESIAN_POINT('',(27.,2.690769194519E-16,18.656854249048));
#400 = VECTOR('',#401,1.);
#401 = DIRECTION('',(0.,-1.,2.22044604925E-16));
#402 = ORIENTED_EDGE('',*,*,#79,.F.);
#403 = ORIENTED_EDGE('',*,*,#358,.T.);
#404 = PLANE('',#405);
#405 = AXIS2_PLACEMENT_3D('',#406,#407,#408);
#406 = CARTESIAN_POINT('',(27.,-4.5,20.999999999761));
#407 = DIRECTION('',(1.,-1.035813410358E-15,-2.299967794789E-31));
#408 = DIRECTION('',(-1.035813410358E-15,-1.,-2.22044604925E-16));
#409 = ADVANCED_FACE('',(#410),#421,.T.);
#410 = FACE_BOUND('',#411,.T.);
#411 = EDGE_LOOP('',(#412,#413,#419,#420));
#412 = ORIENTED_EDGE('',*,*,#129,.T.);
#413 = ORIENTED_EDGE('',*,*,#414,.T.);
#414 = EDGE_CURVE('',#122,#286,#415,.T.);
#415 = LINE('',#416,#417);
#416 = CARTESIAN_POINT('',(-8.881784197001E-16,-1.110223024625E-14,46.)
  );
#417 = VECTOR('',#418,1.);
#418 = DIRECTION('',(0.,-1.,9.860761315263E-32));
#419 = ORIENTED_EDGE('',*,*,#293,.F.);
#420 = ORIENTED_EDGE('',*,*,#373,.F.);
#421 = CYLINDRICAL_SURFACE('',#422,4.);
#422 = AXIS2_PLACEMENT_3D('',#423,#424,#425);
#423 = CARTESIAN_POINT('',(4.,-1.110223024625E-14,46.));
#424 = DIRECTION('',(0.,-1.,9.860761315263E-32));
#425 = DIRECTION('',(0.,9.860761315263E-32,1.));
#426 = ADVANCED_FACE('',(#427),#446,.T.);
#427 = FACE_BOUND('',#428,.F.);
#428 = EDGE_LOOP('',(#429,#430,#438,#445));
#429 = ORIENTED_EDGE('',*,*,#87,.T.);
#430 = ORIENTED_EDGE('',*,*,#431,.T.);
#431 = EDGE_CURVE('',#88,#432,#434,.T.);
#432 = VERTEX_POINT('',#433);
#433 = CARTESIAN_POINT('',(25.828427124706,-9.,15.828427124262));
#434 = LINE('',#435,#436);
#435 = CARTESIAN_POINT('',(25.828427124706,-3.589600640304E-16,
    15.828427124262));
#436 = VECTOR('',#437,1.);
#437 = DIRECTION('',(0.,-1.,2.22044604925E-16));
#438 = ORIENTED_EDGE('',*,*,#439,.F.);
#439 = EDGE_CURVE('',#390,#432,#440,.T.);
#440 = CIRCLE('',#441,4.);
#441 = AXIS2_PLACEMENT_3D('',#442,#443,#444);
#442 = CARTESIAN_POINT('',(23.,-9.,18.656854249048));
#443 = DIRECTION('',(-0.,1.,-2.22044604925E-16));
#444 = DIRECTION('',(0.,-2.22044604925E-16,-1.));
#445 = ORIENTED_EDGE('',*,*,#397,.F.);
#446 = CYLINDRICAL_SURFACE('',#447,4.);
#447 = AXIS2_PLACEMENT_3D('',#448,#449,#450);
#448 = CARTESIAN_POINT('',(23.,2.690769194519E-16,18.656854249048));
#449 = DIRECTION('',(0.,-1.,2.22044604925E-16));
#450 = DIRECTION('',(1.,-1.021390880668E-46,-4.599935589578E-31));
#451 = ADVANCED_FACE('',(#452),#463,.F.);
#452 = FACE_BOUND('',#453,.F.);
#453 = EDGE_LOOP('',(#454,#455,#456,#457));
#454 = ORIENTED_EDGE('',*,*,#121,.F.);
#455 = ORIENTED_EDGE('',*,*,#414,.T.);
#456 = ORIENTED_EDGE('',*,*,#285,.T.);
#457 = ORIENTED_EDGE('',*,*,#458,.F.);
#458 = EDGE_CURVE('',#113,#277,#459,.T.);
#459 = LINE('',#460,#461);
#460 = CARTESIAN_POINT('',(-8.881784197001E-16,5.916456789158E-31,4.));
#461 = VECTOR('',#462,1.);
#462 = DIRECTION('',(0.,-1.,9.860761315263E-32));
#463 = PLANE('',#464);
#464 = AXIS2_PLACEMENT_3D('',#465,#466,#467);
#465 = CARTESIAN_POINT('',(0.,-1.110223024625E-14,50.));
#466 = DIRECTION('',(1.,0.,0.));
#467 = DIRECTION('',(0.,2.22044604925E-16,-1.));
#468 = ADVANCED_FACE('',(#469),#494,.T.);
#469 = FACE_BOUND('',#470,.T.);
#470 = EDGE_LOOP('',(#471,#472,#473,#481,#487,#488));
#471 = ORIENTED_EDGE('',*,*,#96,.T.);
#472 = ORIENTED_EDGE('',*,*,#431,.T.);
#473 = ORIENTED_EDGE('',*,*,#474,.F.);
#474 = EDGE_CURVE('',#475,#432,#477,.T.);
#475 = VERTEX_POINT('',#476);
#476 = CARTESIAN_POINT('',(16.828427124706,-9.,6.828427124515));
#477 = LINE('',#478,#479);
#478 = CARTESIAN_POINT('',(10.,-9.,1.7763568394E-15));
#479 = VECTOR('',#480,1.);
#480 = DIRECTION('',(0.707106781196,1.570092458662E-16,0.707106781177));
#481 = ORIENTED_EDGE('',*,*,#482,.F.);
#482 = EDGE_CURVE('',#252,#475,#483,.T.);
#483 = LINE('',#484,#485);
#484 = CARTESIAN_POINT('',(16.828427124706,-2.,6.828427124515));
#485 = VECTOR('',#486,1.);
#486 = DIRECTION('',(0.,-1.,2.22044604925E-16));
#487 = ORIENTED_EDGE('',*,*,#260,.F.);
#488 = ORIENTED_EDGE('',*,*,#489,.F.);
#489 = EDGE_CURVE('',#97,#261,#490,.T.);
#490 = LINE('',#491,#492);
#491 = CARTESIAN_POINT('',(10.,0.,0.));
#492 = VECTOR('',#493,1.);
#493 = DIRECTION('',(0.,-1.,9.860761315263E-32));
#494 = PLANE('',#495);
#495 = AXIS2_PLACEMENT_3D('',#496,#497,#498);
#496 = CARTESIAN_POINT('',(18.5,-4.5,8.499999999761));
#497 = DIRECTION('',(0.707106781177,-6.900012139234E-16,-0.707106781196)
  );
#498 = DIRECTION('',(-0.707106781196,1.570092458662E-16,-0.707106781177)
  );
#499 = ADVANCED_FACE('',(#500),#511,.T.);
#500 = FACE_BOUND('',#501,.T.);
#501 = EDGE_LOOP('',(#502,#503,#509,#510));
#502 = ORIENTED_EDGE('',*,*,#112,.T.);
#503 = ORIENTED_EDGE('',*,*,#504,.T.);
#504 = EDGE_CURVE('',#105,#269,#505,.T.);
#505 = LINE('',#506,#507);
#506 = CARTESIAN_POINT('',(4.,1.972152263053E-31,-8.881784197001E-16));
#507 = VECTOR('',#508,1.);
#508 = DIRECTION('',(0.,-1.,9.860761315263E-32));
#509 = ORIENTED_EDGE('',*,*,#276,.F.);
#510 = ORIENTED_EDGE('',*,*,#458,.F.);
#511 = CYLINDRICAL_SURFACE('',#512,4.);
#512 = AXIS2_PLACEMENT_3D('',#513,#514,#515);
#513 = CARTESIAN_POINT('',(4.,5.916456789158E-31,4.));
#514 = DIRECTION('',(0.,-1.,9.860761315263E-32));
#515 = DIRECTION('',(-1.,-0.,0.));
#516 = ADVANCED_FACE('',(#517),#523,.F.);
#517 = FACE_BOUND('',#518,.F.);
#518 = EDGE_LOOP('',(#519,#520,#521,#522));
#519 = ORIENTED_EDGE('',*,*,#104,.F.);
#520 = ORIENTED_EDGE('',*,*,#504,.T.);
#521 = ORIENTED_EDGE('',*,*,#268,.T.);
#522 = ORIENTED_EDGE('',*,*,#489,.F.);
#523 = PLANE('',#524);
#524 = AXIS2_PLACEMENT_3D('',#525,#526,#527);
#525 = CARTESIAN_POINT('',(0.,0.,0.));
#526 = DIRECTION('',(0.,9.860761315263E-32,1.));
#527 = DIRECTION('',(1.,0.,0.));
#528 = ADVANCED_FACE('',(#529),#540,.F.);
#529 = FACE_BOUND('',#530,.T.);
#530 = EDGE_LOOP('',(#531,#537,#538,#539));
#531 = ORIENTED_EDGE('',*,*,#532,.T.);
#532 = EDGE_CURVE('',#156,#323,#533,.T.);
#533 = LINE('',#534,#535);
#534 = CARTESIAN_POINT('',(6.6,-9.992007221626E-15,45.));
#535 = VECTOR('',#536,1.);
#536 = DIRECTION('',(0.,-1.,9.860761315263E-32));
#537 = ORIENTED_EDGE('',*,*,#322,.T.);
#538 = ORIENTED_EDGE('',*,*,#532,.F.);
#539 = ORIENTED_EDGE('',*,*,#155,.F.);
#540 = CYLINDRICAL_SURFACE('',#541,1.6);
#541 = AXIS2_PLACEMENT_3D('',#542,#543,#544);
#542 = CARTESIAN_POINT('',(5.,-9.992007221626E-15,45.));
#543 = DIRECTION('',(0.,1.,2.22044604925E-16));
#544 = DIRECTION('',(1.,0.,0.));
#545 = ADVANCED_FACE('',(#546),#557,.F.);
#546 = FACE_BOUND('',#547,.T.);
#547 = EDGE_LOOP('',(#548,#554,#555,#556));
#548 = ORIENTED_EDGE('',*,*,#549,.T.);
#549 = EDGE_CURVE('',#167,#312,#550,.T.);
#550 = LINE('',#551,#552);
#551 = CARTESIAN_POINT('',(6.6,-1.110223024625E-15,5.));
#552 = VECTOR('',#553,1.);
#553 = DIRECTION('',(0.,-1.,9.860761315263E-32));
#554 = ORIENTED_EDGE('',*,*,#311,.T.);
#555 = ORIENTED_EDGE('',*,*,#549,.F.);
#556 = ORIENTED_EDGE('',*,*,#166,.F.);
#557 = CYLINDRICAL_SURFACE('',#558,1.6);
#558 = AXIS2_PLACEMENT_3D('',#559,#560,#561);
#559 = CARTESIAN_POINT('',(5.,-1.110223024625E-15,5.));
#560 = DIRECTION('',(0.,1.,2.22044604925E-16));
#561 = DIRECTION('',(1.,0.,0.));
#562 = ADVANCED_FACE('',(#563),#581,.F.);
#563 = FACE_BOUND('',#564,.F.);
#564 = EDGE_LOOP('',(#565,#566,#567,#575));
#565 = ORIENTED_EDGE('',*,*,#243,.F.);
#566 = ORIENTED_EDGE('',*,*,#342,.T.);
#567 = ORIENTED_EDGE('',*,*,#568,.T.);
#568 = EDGE_CURVE('',#343,#569,#571,.T.);
#569 = VERTEX_POINT('',#570);
#570 = CARTESIAN_POINT('',(10.,-9.,9.656854249301));
#571 = LINE('',#572,#573);
#572 = CARTESIAN_POINT('',(10.,-9.,25.));
#573 = VECTOR('',#574,1.);
#574 = DIRECTION('',(0.,-2.22044604925E-16,-1.));
#575 = ORIENTED_EDGE('',*,*,#576,.F.);
#576 = EDGE_CURVE('',#244,#569,#577,.T.);
#577 = LINE('',#578,#579);
#578 = CARTESIAN_POINT('',(10.,-2.,9.656854249301));
#579 = VECTOR('',#580,1.);
#580 = DIRECTION('',(0.,-1.,2.22044604925E-16));
#581 = PLANE('',#582);
#582 = AXIS2_PLACEMENT_3D('',#583,#584,#585);
#583 = CARTESIAN_POINT('',(10.,-2.,25.));
#584 = DIRECTION('',(1.,0.,0.));
#585 = DIRECTION('',(0.,-2.22044604925E-16,-1.));
#586 = ADVANCED_FACE('',(#587),#599,.T.);
#587 = FACE_BOUND('',#588,.T.);
#588 = EDGE_LOOP('',(#589,#590,#591,#598));
#589 = ORIENTED_EDGE('',*,*,#251,.T.);
#590 = ORIENTED_EDGE('',*,*,#482,.T.);
#591 = ORIENTED_EDGE('',*,*,#592,.F.);
#592 = EDGE_CURVE('',#569,#475,#593,.T.);
#593 = CIRCLE('',#594,4.);
#594 = AXIS2_PLACEMENT_3D('',#595,#596,#597);
#595 = CARTESIAN_POINT('',(14.,-9.,9.656854249301));
#596 = DIRECTION('',(0.,-1.,2.22044604925E-16));
#597 = DIRECTION('',(0.,-2.22044604925E-16,-1.));
#598 = ORIENTED_EDGE('',*,*,#576,.F.);
#599 = CYLINDRICAL_SURFACE('',#600,4.);
#600 = AXIS2_PLACEMENT_3D('',#601,#602,#603);
#601 = CARTESIAN_POINT('',(14.,-2.,9.656854249301));
#602 = DIRECTION('',(0.,-1.,2.22044604925E-16));
#603 = DIRECTION('',(-1.,-0.,0.));
#604 = ADVANCED_FACE('',(#605),#613,.F.);
#605 = FACE_BOUND('',#606,.F.);
#606 = EDGE_LOOP('',(#607,#608,#609,#610,#611,#612));
#607 = ORIENTED_EDGE('',*,*,#568,.F.);
#608 = ORIENTED_EDGE('',*,*,#350,.F.);
#609 = ORIENTED_EDGE('',*,*,#389,.F.);
#610 = ORIENTED_EDGE('',*,*,#439,.T.);
#611 = ORIENTED_EDGE('',*,*,#474,.F.);
#612 = ORIENTED_EDGE('',*,*,#592,.F.);
#613 = PLANE('',#614);
#614 = AXIS2_PLACEMENT_3D('',#615,#616,#617);
#615 = CARTESIAN_POINT('',(16.548395221687,-9.,14.989592359879));
#616 = DIRECTION('',(0.,1.,-2.337130603176E-16));
#617 = DIRECTION('',(0.,2.337130603176E-16,1.));
#618 = ( GEOMETRIC_REPRESENTATION_CONTEXT(3) 
GLOBAL_UNCERTAINTY_ASSIGNED_CONTEXT((#622)) GLOBAL_UNIT_ASSIGNED_CONTEXT
((#619,#620,#621)) REPRESENTATION_CONTEXT('Context #1',
  '3D Context with UNIT and UNCERTAINTY') );
#619 = ( LENGTH_UNIT() NAMED_UNIT(*) SI_UNIT(.MILLI.,.METRE.) );
#620 = ( NAMED_UNIT(*) PLANE_ANGLE_UNIT() SI_UNIT($,.RADIAN.) );
#621 = ( NAMED_UNIT(*) SI_UNIT($,.STERADIAN.) SOLID_ANGLE_UNIT() );
#622 = UNCERTAINTY_MEASURE_WITH_UNIT(LENGTH_MEASURE(1.E-07),#619,
  'distance_accuracy_value','confusion accuracy');
#623 = PRODUCT_RELATED_PRODUCT_CATEGORY('part',$,(#7));
#624 = MECHANICAL_DESIGN_GEOMETRIC_PRESENTATION_REPRESENTATION('',(#625)
  ,#618);
#625 = STYLED_ITEM('color',(#626),#15);
#626 = PRESENTATION_STYLE_ASSIGNMENT((#627,#633));
#627 = SURFACE_STYLE_USAGE(.BOTH.,#628);
#628 = SURFACE_SIDE_STYLE('',(#629));
#629 = SURFACE_STYLE_FILL_AREA(#630);
#630 = FILL_AREA_STYLE('',(#631));
#631 = FILL_AREA_STYLE_COLOUR('',#632);
#632 = COLOUR_RGB('',0.678430976034,0.709803998361,0.741176010593);
#633 = CURVE_STYLE('',#634,POSITIVE_LENGTH_MEASURE(0.1),#635);
#634 = DRAUGHTING_PRE_DEFINED_CURVE_FONT('continuous');
#635 = COLOUR_RGB('',9.803921802644E-02,9.803921802644E-02,
  9.803921802644E-02);
ENDSEC;
END-ISO-10303-21;
