ISO-10303-21;
HEADER;
FILE_DESCRIPTION(('FreeCAD Model'),'2;1');
FILE_NAME('Open CASCADE Shape Model','2026-04-06T21:12:13',(''),(''),
  'Open CASCADE STEP processor 7.8','FreeCAD','Unknown');
FILE_SCHEMA(('AUTOMOTIVE_DESIGN { 1 0 10303 214 1 1 1 1 }'));
ENDSEC;
DATA;
#1 = APPLICATION_PROTOCOL_DEFINITION('international standard',
  'automotive_design',2000,#2);
#2 = APPLICATION_CONTEXT(
  'core data for automotive mechanical design processes');
#3 = SHAPE_DEFINITION_REPRESENTATION(#4,#10);
#4 = PRODUCT_DEFINITION_SHAPE('','',#5);
#5 = PRODUCT_DEFINITION('design','',#6,#9);
#6 = PRODUCT_DEFINITION_FORMATION('','',#7);
#7 = PRODUCT('Body','Body','',(#8));
#8 = PRODUCT_CONTEXT('',#2,'mechanical');
#9 = PRODUCT_DEFINITION_CONTEXT('part definition',#2,'design');
#10 = ADVANCED_BREP_SHAPE_REPRESENTATION('',(#11,#15),#770);
#11 = AXIS2_PLACEMENT_3D('',#12,#13,#14);
#12 = CARTESIAN_POINT('',(0.,0.,0.));
#13 = DIRECTION('',(0.,0.,1.));
#14 = DIRECTION('',(1.,0.,-0.));
#15 = MANIFOLD_SOLID_BREP('',#16);
#16 = CLOSED_SHELL('',(#17,#131,#187,#212,#237,#261,#309,#327,#352,#377,
    #408,#432,#456,#473,#504,#543,#616,#628,#645,#662,#693,#717,#741,
    #758));
#17 = ADVANCED_FACE('',(#18,#70,#81,#92),#126,.T.);
#18 = FACE_BOUND('',#19,.T.);
#19 = EDGE_LOOP('',(#20,#30,#38,#46,#55,#63));
#20 = ORIENTED_EDGE('',*,*,#21,.F.);
#21 = EDGE_CURVE('',#22,#24,#26,.T.);
#22 = VERTEX_POINT('',#23);
#23 = CARTESIAN_POINT('',(80.,6.661338147751E-15,6.));
#24 = VERTEX_POINT('',#25);
#25 = CARTESIAN_POINT('',(80.,1.132427485118E-14,51.));
#26 = LINE('',#27,#28);
#27 = CARTESIAN_POINT('',(80.,0.,0.));
#28 = VECTOR('',#29,1.);
#29 = DIRECTION('',(0.,2.22044604925E-16,1.));
#30 = ORIENTED_EDGE('',*,*,#31,.F.);
#31 = EDGE_CURVE('',#32,#22,#34,.T.);
#32 = VERTEX_POINT('',#33);
#33 = CARTESIAN_POINT('',(0.,6.661338147751E-15,6.));
#34 = LINE('',#35,#36);
#35 = CARTESIAN_POINT('',(0.,6.661338147751E-15,6.));
#36 = VECTOR('',#37,1.);
#37 = DIRECTION('',(1.,0.,0.));
#38 = ORIENTED_EDGE('',*,*,#39,.F.);
#39 = EDGE_CURVE('',#40,#32,#42,.T.);
#40 = VERTEX_POINT('',#41);
#41 = CARTESIAN_POINT('',(-1.7763568394E-15,1.132427485118E-14,51.));
#42 = LINE('',#43,#44);
#43 = CARTESIAN_POINT('',(0.,1.310063169058E-14,59.));
#44 = VECTOR('',#45,1.);
#45 = DIRECTION('',(0.,-2.22044604925E-16,-1.));
#46 = ORIENTED_EDGE('',*,*,#47,.F.);
#47 = EDGE_CURVE('',#48,#40,#50,.T.);
#48 = VERTEX_POINT('',#49);
#49 = CARTESIAN_POINT('',(8.,1.310063169058E-14,59.));
#50 = CIRCLE('',#51,8.);
#51 = AXIS2_PLACEMENT_3D('',#52,#53,#54);
#52 = CARTESIAN_POINT('',(8.,6.721164049771E-15,51.));
#53 = DIRECTION('',(0.,-1.,2.22044604925E-16));
#54 = DIRECTION('',(0.,-2.22044604925E-16,-1.));
#55 = ORIENTED_EDGE('',*,*,#56,.F.);
#56 = EDGE_CURVE('',#57,#48,#59,.T.);
#57 = VERTEX_POINT('',#58);
#58 = CARTESIAN_POINT('',(72.,1.310063169058E-14,59.));
#59 = LINE('',#60,#61);
#60 = CARTESIAN_POINT('',(80.,1.310063169058E-14,59.));
#61 = VECTOR('',#62,1.);
#62 = DIRECTION('',(-1.,0.,0.));
#63 = ORIENTED_EDGE('',*,*,#64,.F.);
#64 = EDGE_CURVE('',#24,#57,#65,.T.);
#65 = CIRCLE('',#66,8.);
#66 = AXIS2_PLACEMENT_3D('',#67,#68,#69);
#67 = CARTESIAN_POINT('',(72.,6.721164049771E-15,51.));
#68 = DIRECTION('',(0.,-1.,2.22044604925E-16));
#69 = DIRECTION('',(0.,-2.22044604925E-16,-1.));
#70 = FACE_BOUND('',#71,.T.);
#71 = EDGE_LOOP('',(#72));
#72 = ORIENTED_EDGE('',*,*,#73,.T.);
#73 = EDGE_CURVE('',#74,#74,#76,.T.);
#74 = VERTEX_POINT('',#75);
#75 = CARTESIAN_POINT('',(42.1,2.553512956638E-15,11.5));
#76 = CIRCLE('',#77,2.1);
#77 = AXIS2_PLACEMENT_3D('',#78,#79,#80);
#78 = CARTESIAN_POINT('',(40.,2.553512956638E-15,11.5));
#79 = DIRECTION('',(0.,-1.,2.22044604925E-16));
#80 = DIRECTION('',(1.,0.,0.));
#81 = FACE_BOUND('',#82,.T.);
#82 = EDGE_LOOP('',(#83));
#83 = ORIENTED_EDGE('',*,*,#84,.T.);
#84 = EDGE_CURVE('',#85,#85,#87,.T.);
#85 = VERTEX_POINT('',#86);
#86 = CARTESIAN_POINT('',(42.1,1.143529715364E-14,51.5));
#87 = CIRCLE('',#88,2.1);
#88 = AXIS2_PLACEMENT_3D('',#89,#90,#91);
#89 = CARTESIAN_POINT('',(40.,1.143529715364E-14,51.5));
#90 = DIRECTION('',(0.,-1.,2.22044604925E-16));
#91 = DIRECTION('',(1.,0.,0.));
#92 = FACE_BOUND('',#93,.T.);
#93 = EDGE_LOOP('',(#94,#104,#112,#120));
#94 = ORIENTED_EDGE('',*,*,#95,.T.);
#95 = EDGE_CURVE('',#96,#98,#100,.T.);
#96 = VERTEX_POINT('',#97);
#97 = CARTESIAN_POINT('',(16.,1.010302952409E-14,45.5));
#98 = VERTEX_POINT('',#99);
#99 = CARTESIAN_POINT('',(16.,3.885780586188E-15,17.5));
#100 = LINE('',#101,#102);
#101 = CARTESIAN_POINT('',(16.,1.010302952409E-14,45.5));
#102 = VECTOR('',#103,1.);
#103 = DIRECTION('',(0.,-2.22044604925E-16,-1.));
#104 = ORIENTED_EDGE('',*,*,#105,.T.);
#105 = EDGE_CURVE('',#98,#106,#108,.T.);
#106 = VERTEX_POINT('',#107);
#107 = CARTESIAN_POINT('',(64.,3.885780586188E-15,17.5));
#108 = LINE('',#109,#110);
#109 = CARTESIAN_POINT('',(16.,3.885780586188E-15,17.5));
#110 = VECTOR('',#111,1.);
#111 = DIRECTION('',(1.,0.,0.));
#112 = ORIENTED_EDGE('',*,*,#113,.T.);
#113 = EDGE_CURVE('',#106,#114,#116,.T.);
#114 = VERTEX_POINT('',#115);
#115 = CARTESIAN_POINT('',(64.,1.010302952409E-14,45.5));
#116 = LINE('',#117,#118);
#117 = CARTESIAN_POINT('',(64.,3.885780586188E-15,17.5));
#118 = VECTOR('',#119,1.);
#119 = DIRECTION('',(0.,2.22044604925E-16,1.));
#120 = ORIENTED_EDGE('',*,*,#121,.T.);
#121 = EDGE_CURVE('',#114,#96,#122,.T.);
#122 = LINE('',#123,#124);
#123 = CARTESIAN_POINT('',(64.,1.010302952409E-14,45.5));
#124 = VECTOR('',#125,1.);
#125 = DIRECTION('',(-1.,0.,0.));
#126 = PLANE('',#127);
#127 = AXIS2_PLACEMENT_3D('',#128,#129,#130);
#128 = CARTESIAN_POINT('',(40.,6.721164049771E-15,30.269431910047));
#129 = DIRECTION('',(0.,1.,0.));
#130 = DIRECTION('',(0.,0.,1.));
#131 = ADVANCED_FACE('',(#132),#182,.T.);
#132 = FACE_BOUND('',#133,.T.);
#133 = EDGE_LOOP('',(#134,#135,#143,#151,#159,#167,#175));
#134 = ORIENTED_EDGE('',*,*,#21,.T.);
#135 = ORIENTED_EDGE('',*,*,#136,.T.);
#136 = EDGE_CURVE('',#24,#137,#139,.T.);
#137 = VERTEX_POINT('',#138);
#138 = CARTESIAN_POINT('',(80.,-6.,51.));
#139 = LINE('',#140,#141);
#140 = CARTESIAN_POINT('',(80.,1.132427485118E-14,51.));
#141 = VECTOR('',#142,1.);
#142 = DIRECTION('',(0.,-1.,2.22044604925E-16));
#143 = ORIENTED_EDGE('',*,*,#144,.F.);
#144 = EDGE_CURVE('',#145,#137,#147,.T.);
#145 = VERTEX_POINT('',#146);
#146 = CARTESIAN_POINT('',(80.,-6.,1.33226762955E-15));
#147 = LINE('',#148,#149);
#148 = CARTESIAN_POINT('',(80.,-6.,1.33226762955E-15));
#149 = VECTOR('',#150,1.);
#150 = DIRECTION('',(0.,2.22044604925E-16,1.));
#151 = ORIENTED_EDGE('',*,*,#152,.T.);
#152 = EDGE_CURVE('',#145,#153,#155,.T.);
#153 = VERTEX_POINT('',#154);
#154 = CARTESIAN_POINT('',(80.,20.,0.));
#155 = LINE('',#156,#157);
#156 = CARTESIAN_POINT('',(80.,0.,0.));
#157 = VECTOR('',#158,1.);
#158 = DIRECTION('',(0.,1.,0.));
#159 = ORIENTED_EDGE('',*,*,#160,.T.);
#160 = EDGE_CURVE('',#153,#161,#163,.T.);
#161 = VERTEX_POINT('',#162);
#162 = CARTESIAN_POINT('',(80.,20.,4.));
#163 = LINE('',#164,#165);
#164 = CARTESIAN_POINT('',(80.,20.,0.));
#165 = VECTOR('',#166,1.);
#166 = DIRECTION('',(0.,0.,1.));
#167 = ORIENTED_EDGE('',*,*,#168,.F.);
#168 = EDGE_CURVE('',#169,#161,#171,.T.);
#169 = VERTEX_POINT('',#170);
#170 = CARTESIAN_POINT('',(80.,2.,4.));
#171 = LINE('',#172,#173);
#172 = CARTESIAN_POINT('',(80.,0.,4.));
#173 = VECTOR('',#174,1.);
#174 = DIRECTION('',(0.,1.,0.));
#175 = ORIENTED_EDGE('',*,*,#176,.F.);
#176 = EDGE_CURVE('',#22,#169,#177,.T.);
#177 = CIRCLE('',#178,2.);
#178 = AXIS2_PLACEMENT_3D('',#179,#180,#181);
#179 = CARTESIAN_POINT('',(80.,2.,6.));
#180 = DIRECTION('',(1.,0.,-0.));
#181 = DIRECTION('',(0.,0.,1.));
#182 = PLANE('',#183);
#183 = AXIS2_PLACEMENT_3D('',#184,#185,#186);
#184 = CARTESIAN_POINT('',(80.,0.529411764706,23.029411764706));
#185 = DIRECTION('',(1.,0.,0.));
#186 = DIRECTION('',(0.,0.,1.));
#187 = ADVANCED_FACE('',(#188),#207,.T.);
#188 = FACE_BOUND('',#189,.T.);
#189 = EDGE_LOOP('',(#190,#191,#199,#206));
#190 = ORIENTED_EDGE('',*,*,#64,.T.);
#191 = ORIENTED_EDGE('',*,*,#192,.T.);
#192 = EDGE_CURVE('',#57,#193,#195,.T.);
#193 = VERTEX_POINT('',#194);
#194 = CARTESIAN_POINT('',(72.,-6.,59.));
#195 = LINE('',#196,#197);
#196 = CARTESIAN_POINT('',(72.,1.310063169058E-14,59.));
#197 = VECTOR('',#198,1.);
#198 = DIRECTION('',(0.,-1.,2.22044604925E-16));
#199 = ORIENTED_EDGE('',*,*,#200,.F.);
#200 = EDGE_CURVE('',#137,#193,#201,.T.);
#201 = CIRCLE('',#202,8.);
#202 = AXIS2_PLACEMENT_3D('',#203,#204,#205);
#203 = CARTESIAN_POINT('',(72.,-6.,51.));
#204 = DIRECTION('',(0.,-1.,2.22044604925E-16));
#205 = DIRECTION('',(0.,-2.22044604925E-16,-1.));
#206 = ORIENTED_EDGE('',*,*,#136,.F.);
#207 = CYLINDRICAL_SURFACE('',#208,8.);
#208 = AXIS2_PLACEMENT_3D('',#209,#210,#211);
#209 = CARTESIAN_POINT('',(72.,1.132427485118E-14,51.));
#210 = DIRECTION('',(0.,-1.,2.22044604925E-16));
#211 = DIRECTION('',(1.,0.,0.));
#212 = ADVANCED_FACE('',(#213),#232,.F.);
#213 = FACE_BOUND('',#214,.F.);
#214 = EDGE_LOOP('',(#215,#224,#230,#231));
#215 = ORIENTED_EDGE('',*,*,#216,.T.);
#216 = EDGE_CURVE('',#32,#217,#219,.T.);
#217 = VERTEX_POINT('',#218);
#218 = CARTESIAN_POINT('',(0.,2.,4.));
#219 = CIRCLE('',#220,2.);
#220 = AXIS2_PLACEMENT_3D('',#221,#222,#223);
#221 = CARTESIAN_POINT('',(0.,2.,6.));
#222 = DIRECTION('',(1.,0.,-0.));
#223 = DIRECTION('',(0.,0.,1.));
#224 = ORIENTED_EDGE('',*,*,#225,.T.);
#225 = EDGE_CURVE('',#217,#169,#226,.T.);
#226 = LINE('',#227,#228);
#227 = CARTESIAN_POINT('',(0.,2.,4.));
#228 = VECTOR('',#229,1.);
#229 = DIRECTION('',(1.,0.,0.));
#230 = ORIENTED_EDGE('',*,*,#176,.F.);
#231 = ORIENTED_EDGE('',*,*,#31,.F.);
#232 = CYLINDRICAL_SURFACE('',#233,2.);
#233 = AXIS2_PLACEMENT_3D('',#234,#235,#236);
#234 = CARTESIAN_POINT('',(0.,2.,6.));
#235 = DIRECTION('',(1.,0.,0.));
#236 = DIRECTION('',(0.,-1.,0.));
#237 = ADVANCED_FACE('',(#238),#256,.F.);
#238 = FACE_BOUND('',#239,.F.);
#239 = EDGE_LOOP('',(#240,#241,#242,#250));
#240 = ORIENTED_EDGE('',*,*,#56,.F.);
#241 = ORIENTED_EDGE('',*,*,#192,.T.);
#242 = ORIENTED_EDGE('',*,*,#243,.T.);
#243 = EDGE_CURVE('',#193,#244,#246,.T.);
#244 = VERTEX_POINT('',#245);
#245 = CARTESIAN_POINT('',(8.,-6.,59.));
#246 = LINE('',#247,#248);
#247 = CARTESIAN_POINT('',(80.,-6.,59.));
#248 = VECTOR('',#249,1.);
#249 = DIRECTION('',(-1.,0.,0.));
#250 = ORIENTED_EDGE('',*,*,#251,.F.);
#251 = EDGE_CURVE('',#48,#244,#252,.T.);
#252 = LINE('',#253,#254);
#253 = CARTESIAN_POINT('',(8.,1.310063169058E-14,59.));
#254 = VECTOR('',#255,1.);
#255 = DIRECTION('',(0.,-1.,2.22044604925E-16));
#256 = PLANE('',#257);
#257 = AXIS2_PLACEMENT_3D('',#258,#259,#260);
#258 = CARTESIAN_POINT('',(80.,1.310063169058E-14,59.));
#259 = DIRECTION('',(-0.,-2.22044604925E-16,-1.));
#260 = DIRECTION('',(-1.,0.,0.));
#261 = ADVANCED_FACE('',(#262),#304,.T.);
#262 = FACE_BOUND('',#263,.T.);
#263 = EDGE_LOOP('',(#264,#265,#266,#274,#282,#290,#298));
#264 = ORIENTED_EDGE('',*,*,#39,.T.);
#265 = ORIENTED_EDGE('',*,*,#216,.T.);
#266 = ORIENTED_EDGE('',*,*,#267,.F.);
#267 = EDGE_CURVE('',#268,#217,#270,.T.);
#268 = VERTEX_POINT('',#269);
#269 = CARTESIAN_POINT('',(0.,20.,4.));
#270 = LINE('',#271,#272);
#271 = CARTESIAN_POINT('',(0.,20.,4.));
#272 = VECTOR('',#273,1.);
#273 = DIRECTION('',(0.,-1.,0.));
#274 = ORIENTED_EDGE('',*,*,#275,.F.);
#275 = EDGE_CURVE('',#276,#268,#278,.T.);
#276 = VERTEX_POINT('',#277);
#277 = CARTESIAN_POINT('',(0.,20.,0.));
#278 = LINE('',#279,#280);
#279 = CARTESIAN_POINT('',(0.,20.,0.));
#280 = VECTOR('',#281,1.);
#281 = DIRECTION('',(0.,0.,1.));
#282 = ORIENTED_EDGE('',*,*,#283,.T.);
#283 = EDGE_CURVE('',#276,#284,#286,.T.);
#284 = VERTEX_POINT('',#285);
#285 = CARTESIAN_POINT('',(0.,-6.,1.33226762955E-15));
#286 = LINE('',#287,#288);
#287 = CARTESIAN_POINT('',(0.,20.,0.));
#288 = VECTOR('',#289,1.);
#289 = DIRECTION('',(0.,-1.,0.));
#290 = ORIENTED_EDGE('',*,*,#291,.F.);
#291 = EDGE_CURVE('',#292,#284,#294,.T.);
#292 = VERTEX_POINT('',#293);
#293 = CARTESIAN_POINT('',(-1.7763568394E-15,-6.,51.));
#294 = LINE('',#295,#296);
#295 = CARTESIAN_POINT('',(0.,-6.,59.));
#296 = VECTOR('',#297,1.);
#297 = DIRECTION('',(0.,-2.22044604925E-16,-1.));
#298 = ORIENTED_EDGE('',*,*,#299,.F.);
#299 = EDGE_CURVE('',#40,#292,#300,.T.);
#300 = LINE('',#301,#302);
#301 = CARTESIAN_POINT('',(-1.7763568394E-15,1.132427485118E-14,51.));
#302 = VECTOR('',#303,1.);
#303 = DIRECTION('',(0.,-1.,2.22044604925E-16));
#304 = PLANE('',#305);
#305 = AXIS2_PLACEMENT_3D('',#306,#307,#308);
#306 = CARTESIAN_POINT('',(0.,0.529411764706,23.029411764706));
#307 = DIRECTION('',(-1.,-0.,-0.));
#308 = DIRECTION('',(0.,0.,-1.));
#309 = ADVANCED_FACE('',(#310),#322,.T.);
#310 = FACE_BOUND('',#311,.T.);
#311 = EDGE_LOOP('',(#312,#313,#314,#321));
#312 = ORIENTED_EDGE('',*,*,#47,.T.);
#313 = ORIENTED_EDGE('',*,*,#299,.T.);
#314 = ORIENTED_EDGE('',*,*,#315,.F.);
#315 = EDGE_CURVE('',#244,#292,#316,.T.);
#316 = CIRCLE('',#317,8.);
#317 = AXIS2_PLACEMENT_3D('',#318,#319,#320);
#318 = CARTESIAN_POINT('',(8.,-6.,51.));
#319 = DIRECTION('',(0.,-1.,2.22044604925E-16));
#320 = DIRECTION('',(0.,-2.22044604925E-16,-1.));
#321 = ORIENTED_EDGE('',*,*,#251,.F.);
#322 = CYLINDRICAL_SURFACE('',#323,8.);
#323 = AXIS2_PLACEMENT_3D('',#324,#325,#326);
#324 = CARTESIAN_POINT('',(8.,1.132427485118E-14,51.));
#325 = DIRECTION('',(0.,-1.,2.22044604925E-16));
#326 = DIRECTION('',(0.,2.22044604925E-16,1.));
#327 = ADVANCED_FACE('',(#328),#347,.F.);
#328 = FACE_BOUND('',#329,.T.);
#329 = EDGE_LOOP('',(#330,#338,#345,#346));
#330 = ORIENTED_EDGE('',*,*,#331,.T.);
#331 = EDGE_CURVE('',#74,#332,#334,.T.);
#332 = VERTEX_POINT('',#333);
#333 = CARTESIAN_POINT('',(42.1,-6.,11.5));
#334 = LINE('',#335,#336);
#335 = CARTESIAN_POINT('',(42.1,2.553512956638E-15,11.5));
#336 = VECTOR('',#337,1.);
#337 = DIRECTION('',(0.,-1.,2.22044604925E-16));
#338 = ORIENTED_EDGE('',*,*,#339,.T.);
#339 = EDGE_CURVE('',#332,#332,#340,.T.);
#340 = CIRCLE('',#341,2.1);
#341 = AXIS2_PLACEMENT_3D('',#342,#343,#344);
#342 = CARTESIAN_POINT('',(40.,-6.,11.5));
#343 = DIRECTION('',(0.,-1.,2.22044604925E-16));
#344 = DIRECTION('',(1.,0.,0.));
#345 = ORIENTED_EDGE('',*,*,#331,.F.);
#346 = ORIENTED_EDGE('',*,*,#73,.F.);
#347 = CYLINDRICAL_SURFACE('',#348,2.1);
#348 = AXIS2_PLACEMENT_3D('',#349,#350,#351);
#349 = CARTESIAN_POINT('',(40.,2.553512956638E-15,11.5));
#350 = DIRECTION('',(0.,1.,-2.22044604925E-16));
#351 = DIRECTION('',(1.,0.,0.));
#352 = ADVANCED_FACE('',(#353),#372,.F.);
#353 = FACE_BOUND('',#354,.T.);
#354 = EDGE_LOOP('',(#355,#363,#370,#371));
#355 = ORIENTED_EDGE('',*,*,#356,.T.);
#356 = EDGE_CURVE('',#85,#357,#359,.T.);
#357 = VERTEX_POINT('',#358);
#358 = CARTESIAN_POINT('',(42.1,-6.,51.5));
#359 = LINE('',#360,#361);
#360 = CARTESIAN_POINT('',(42.1,1.143529715364E-14,51.5));
#361 = VECTOR('',#362,1.);
#362 = DIRECTION('',(0.,-1.,2.22044604925E-16));
#363 = ORIENTED_EDGE('',*,*,#364,.T.);
#364 = EDGE_CURVE('',#357,#357,#365,.T.);
#365 = CIRCLE('',#366,2.1);
#366 = AXIS2_PLACEMENT_3D('',#367,#368,#369);
#367 = CARTESIAN_POINT('',(40.,-6.,51.5));
#368 = DIRECTION('',(0.,-1.,2.22044604925E-16));
#369 = DIRECTION('',(1.,0.,0.));
#370 = ORIENTED_EDGE('',*,*,#356,.F.);
#371 = ORIENTED_EDGE('',*,*,#84,.F.);
#372 = CYLINDRICAL_SURFACE('',#373,2.1);
#373 = AXIS2_PLACEMENT_3D('',#374,#375,#376);
#374 = CARTESIAN_POINT('',(40.,1.143529715364E-14,51.5));
#375 = DIRECTION('',(0.,1.,-2.22044604925E-16));
#376 = DIRECTION('',(1.,0.,0.));
#377 = ADVANCED_FACE('',(#378),#403,.T.);
#378 = FACE_BOUND('',#379,.T.);
#379 = EDGE_LOOP('',(#380,#388,#396,#402));
#380 = ORIENTED_EDGE('',*,*,#381,.T.);
#381 = EDGE_CURVE('',#96,#382,#384,.T.);
#382 = VERTEX_POINT('',#383);
#383 = CARTESIAN_POINT('',(16.,-6.,45.5));
#384 = LINE('',#385,#386);
#385 = CARTESIAN_POINT('',(16.,1.010302952409E-14,45.5));
#386 = VECTOR('',#387,1.);
#387 = DIRECTION('',(0.,-1.,2.22044604925E-16));
#388 = ORIENTED_EDGE('',*,*,#389,.T.);
#389 = EDGE_CURVE('',#382,#390,#392,.T.);
#390 = VERTEX_POINT('',#391);
#391 = CARTESIAN_POINT('',(16.,-6.,17.5));
#392 = LINE('',#393,#394);
#393 = CARTESIAN_POINT('',(16.,-6.,45.5));
#394 = VECTOR('',#395,1.);
#395 = DIRECTION('',(0.,-2.22044604925E-16,-1.));
#396 = ORIENTED_EDGE('',*,*,#397,.F.);
#397 = EDGE_CURVE('',#98,#390,#398,.T.);
#398 = LINE('',#399,#400);
#399 = CARTESIAN_POINT('',(16.,3.885780586188E-15,17.5));
#400 = VECTOR('',#401,1.);
#401 = DIRECTION('',(0.,-1.,2.22044604925E-16));
#402 = ORIENTED_EDGE('',*,*,#95,.F.);
#403 = PLANE('',#404);
#404 = AXIS2_PLACEMENT_3D('',#405,#406,#407);
#405 = CARTESIAN_POINT('',(16.,1.010302952409E-14,45.5));
#406 = DIRECTION('',(1.,0.,0.));
#407 = DIRECTION('',(0.,-2.22044604925E-16,-1.));
#408 = ADVANCED_FACE('',(#409),#427,.T.);
#409 = FACE_BOUND('',#410,.T.);
#410 = EDGE_LOOP('',(#411,#419,#425,#426));
#411 = ORIENTED_EDGE('',*,*,#412,.T.);
#412 = EDGE_CURVE('',#114,#413,#415,.T.);
#413 = VERTEX_POINT('',#414);
#414 = CARTESIAN_POINT('',(64.,-6.,45.5));
#415 = LINE('',#416,#417);
#416 = CARTESIAN_POINT('',(64.,1.010302952409E-14,45.5));
#417 = VECTOR('',#418,1.);
#418 = DIRECTION('',(0.,-1.,2.22044604925E-16));
#419 = ORIENTED_EDGE('',*,*,#420,.T.);
#420 = EDGE_CURVE('',#413,#382,#421,.T.);
#421 = LINE('',#422,#423);
#422 = CARTESIAN_POINT('',(64.,-6.,45.5));
#423 = VECTOR('',#424,1.);
#424 = DIRECTION('',(-1.,0.,0.));
#425 = ORIENTED_EDGE('',*,*,#381,.F.);
#426 = ORIENTED_EDGE('',*,*,#121,.F.);
#427 = PLANE('',#428);
#428 = AXIS2_PLACEMENT_3D('',#429,#430,#431);
#429 = CARTESIAN_POINT('',(64.,1.010302952409E-14,45.5));
#430 = DIRECTION('',(-0.,-2.22044604925E-16,-1.));
#431 = DIRECTION('',(-1.,0.,0.));
#432 = ADVANCED_FACE('',(#433),#451,.T.);
#433 = FACE_BOUND('',#434,.T.);
#434 = EDGE_LOOP('',(#435,#436,#444,#450));
#435 = ORIENTED_EDGE('',*,*,#397,.T.);
#436 = ORIENTED_EDGE('',*,*,#437,.T.);
#437 = EDGE_CURVE('',#390,#438,#440,.T.);
#438 = VERTEX_POINT('',#439);
#439 = CARTESIAN_POINT('',(64.,-6.,17.5));
#440 = LINE('',#441,#442);
#441 = CARTESIAN_POINT('',(16.,-6.,17.5));
#442 = VECTOR('',#443,1.);
#443 = DIRECTION('',(1.,0.,0.));
#444 = ORIENTED_EDGE('',*,*,#445,.F.);
#445 = EDGE_CURVE('',#106,#438,#446,.T.);
#446 = LINE('',#447,#448);
#447 = CARTESIAN_POINT('',(64.,3.885780586188E-15,17.5));
#448 = VECTOR('',#449,1.);
#449 = DIRECTION('',(0.,-1.,2.22044604925E-16));
#450 = ORIENTED_EDGE('',*,*,#105,.F.);
#451 = PLANE('',#452);
#452 = AXIS2_PLACEMENT_3D('',#453,#454,#455);
#453 = CARTESIAN_POINT('',(16.,3.885780586188E-15,17.5));
#454 = DIRECTION('',(0.,2.22044604925E-16,1.));
#455 = DIRECTION('',(1.,0.,0.));
#456 = ADVANCED_FACE('',(#457),#468,.T.);
#457 = FACE_BOUND('',#458,.T.);
#458 = EDGE_LOOP('',(#459,#460,#466,#467));
#459 = ORIENTED_EDGE('',*,*,#445,.T.);
#460 = ORIENTED_EDGE('',*,*,#461,.T.);
#461 = EDGE_CURVE('',#438,#413,#462,.T.);
#462 = LINE('',#463,#464);
#463 = CARTESIAN_POINT('',(64.,-6.,17.5));
#464 = VECTOR('',#465,1.);
#465 = DIRECTION('',(0.,2.22044604925E-16,1.));
#466 = ORIENTED_EDGE('',*,*,#412,.F.);
#467 = ORIENTED_EDGE('',*,*,#113,.F.);
#468 = PLANE('',#469);
#469 = AXIS2_PLACEMENT_3D('',#470,#471,#472);
#470 = CARTESIAN_POINT('',(64.,3.885780586188E-15,17.5));
#471 = DIRECTION('',(-1.,0.,0.));
#472 = DIRECTION('',(0.,2.22044604925E-16,1.));
#473 = ADVANCED_FACE('',(#474,#487,#493,#496),#499,.F.);
#474 = FACE_BOUND('',#475,.F.);
#475 = EDGE_LOOP('',(#476,#477,#483,#484,#485,#486));
#476 = ORIENTED_EDGE('',*,*,#144,.F.);
#477 = ORIENTED_EDGE('',*,*,#478,.F.);
#478 = EDGE_CURVE('',#284,#145,#479,.T.);
#479 = LINE('',#480,#481);
#480 = CARTESIAN_POINT('',(0.,-6.,1.33226762955E-15));
#481 = VECTOR('',#482,1.);
#482 = DIRECTION('',(1.,0.,0.));
#483 = ORIENTED_EDGE('',*,*,#291,.F.);
#484 = ORIENTED_EDGE('',*,*,#315,.F.);
#485 = ORIENTED_EDGE('',*,*,#243,.F.);
#486 = ORIENTED_EDGE('',*,*,#200,.F.);
#487 = FACE_BOUND('',#488,.F.);
#488 = EDGE_LOOP('',(#489,#490,#491,#492));
#489 = ORIENTED_EDGE('',*,*,#389,.T.);
#490 = ORIENTED_EDGE('',*,*,#437,.T.);
#491 = ORIENTED_EDGE('',*,*,#461,.T.);
#492 = ORIENTED_EDGE('',*,*,#420,.T.);
#493 = FACE_BOUND('',#494,.F.);
#494 = EDGE_LOOP('',(#495));
#495 = ORIENTED_EDGE('',*,*,#339,.T.);
#496 = FACE_BOUND('',#497,.F.);
#497 = EDGE_LOOP('',(#498));
#498 = ORIENTED_EDGE('',*,*,#364,.T.);
#499 = PLANE('',#500);
#500 = AXIS2_PLACEMENT_3D('',#501,#502,#503);
#501 = CARTESIAN_POINT('',(40.,-6.,30.269431910047));
#502 = DIRECTION('',(0.,1.,0.));
#503 = DIRECTION('',(0.,0.,1.));
#504 = ADVANCED_FACE('',(#505,#516,#527),#538,.T.);
#505 = FACE_BOUND('',#506,.T.);
#506 = EDGE_LOOP('',(#507,#508,#514,#515));
#507 = ORIENTED_EDGE('',*,*,#168,.T.);
#508 = ORIENTED_EDGE('',*,*,#509,.T.);
#509 = EDGE_CURVE('',#161,#268,#510,.T.);
#510 = LINE('',#511,#512);
#511 = CARTESIAN_POINT('',(80.,20.,4.));
#512 = VECTOR('',#513,1.);
#513 = DIRECTION('',(-1.,0.,0.));
#514 = ORIENTED_EDGE('',*,*,#267,.T.);
#515 = ORIENTED_EDGE('',*,*,#225,.T.);
#516 = FACE_BOUND('',#517,.F.);
#517 = EDGE_LOOP('',(#518));
#518 = ORIENTED_EDGE('',*,*,#519,.T.);
#519 = EDGE_CURVE('',#520,#520,#522,.T.);
#520 = VERTEX_POINT('',#521);
#521 = CARTESIAN_POINT('',(74.5,10.,4.));
#522 = CIRCLE('',#523,2.75);
#523 = AXIS2_PLACEMENT_3D('',#524,#525,#526);
#524 = CARTESIAN_POINT('',(71.75,10.,4.));
#525 = DIRECTION('',(0.,0.,1.));
#526 = DIRECTION('',(1.,0.,0.));
#527 = FACE_BOUND('',#528,.F.);
#528 = EDGE_LOOP('',(#529));
#529 = ORIENTED_EDGE('',*,*,#530,.T.);
#530 = EDGE_CURVE('',#531,#531,#533,.T.);
#531 = VERTEX_POINT('',#532);
#532 = CARTESIAN_POINT('',(11.,10.,4.));
#533 = CIRCLE('',#534,2.75);
#534 = AXIS2_PLACEMENT_3D('',#535,#536,#537);
#535 = CARTESIAN_POINT('',(8.25,10.,4.));
#536 = DIRECTION('',(0.,0.,1.));
#537 = DIRECTION('',(1.,0.,0.));
#538 = PLANE('',#539);
#539 = AXIS2_PLACEMENT_3D('',#540,#541,#542);
#540 = CARTESIAN_POINT('',(40.,10.,4.));
#541 = DIRECTION('',(0.,0.,1.));
#542 = DIRECTION('',(1.,0.,0.));
#543 = ADVANCED_FACE('',(#544,#555,#589,#600),#611,.T.);
#544 = FACE_BOUND('',#545,.T.);
#545 = EDGE_LOOP('',(#546,#547,#553,#554));
#546 = ORIENTED_EDGE('',*,*,#283,.F.);
#547 = ORIENTED_EDGE('',*,*,#548,.F.);
#548 = EDGE_CURVE('',#153,#276,#549,.T.);
#549 = LINE('',#550,#551);
#550 = CARTESIAN_POINT('',(80.,20.,0.));
#551 = VECTOR('',#552,1.);
#552 = DIRECTION('',(-1.,0.,0.));
#553 = ORIENTED_EDGE('',*,*,#152,.F.);
#554 = ORIENTED_EDGE('',*,*,#478,.F.);
#555 = FACE_BOUND('',#556,.T.);
#556 = EDGE_LOOP('',(#557,#567,#575,#583));
#557 = ORIENTED_EDGE('',*,*,#558,.F.);
#558 = EDGE_CURVE('',#559,#561,#563,.T.);
#559 = VERTEX_POINT('',#560);
#560 = CARTESIAN_POINT('',(58.,7.125,0.));
#561 = VERTEX_POINT('',#562);
#562 = CARTESIAN_POINT('',(22.,7.125,0.));
#563 = LINE('',#564,#565);
#564 = CARTESIAN_POINT('',(58.,7.125,0.));
#565 = VECTOR('',#566,1.);
#566 = DIRECTION('',(-1.,0.,0.));
#567 = ORIENTED_EDGE('',*,*,#568,.F.);
#568 = EDGE_CURVE('',#569,#559,#571,.T.);
#569 = VERTEX_POINT('',#570);
#570 = CARTESIAN_POINT('',(58.,12.875,0.));
#571 = LINE('',#572,#573);
#572 = CARTESIAN_POINT('',(58.,12.875,0.));
#573 = VECTOR('',#574,1.);
#574 = DIRECTION('',(0.,-1.,0.));
#575 = ORIENTED_EDGE('',*,*,#576,.F.);
#576 = EDGE_CURVE('',#577,#569,#579,.T.);
#577 = VERTEX_POINT('',#578);
#578 = CARTESIAN_POINT('',(22.,12.875,0.));
#579 = LINE('',#580,#581);
#580 = CARTESIAN_POINT('',(22.,12.875,0.));
#581 = VECTOR('',#582,1.);
#582 = DIRECTION('',(1.,0.,0.));
#583 = ORIENTED_EDGE('',*,*,#584,.F.);
#584 = EDGE_CURVE('',#561,#577,#585,.T.);
#585 = LINE('',#586,#587);
#586 = CARTESIAN_POINT('',(22.,7.125,0.));
#587 = VECTOR('',#588,1.);
#588 = DIRECTION('',(0.,1.,0.));
#589 = FACE_BOUND('',#590,.T.);
#590 = EDGE_LOOP('',(#591));
#591 = ORIENTED_EDGE('',*,*,#592,.T.);
#592 = EDGE_CURVE('',#593,#593,#595,.T.);
#593 = VERTEX_POINT('',#594);
#594 = CARTESIAN_POINT('',(11.,10.,0.));
#595 = CIRCLE('',#596,2.75);
#596 = AXIS2_PLACEMENT_3D('',#597,#598,#599);
#597 = CARTESIAN_POINT('',(8.25,10.,0.));
#598 = DIRECTION('',(0.,0.,1.));
#599 = DIRECTION('',(1.,0.,0.));
#600 = FACE_BOUND('',#601,.T.);
#601 = EDGE_LOOP('',(#602));
#602 = ORIENTED_EDGE('',*,*,#603,.T.);
#603 = EDGE_CURVE('',#604,#604,#606,.T.);
#604 = VERTEX_POINT('',#605);
#605 = CARTESIAN_POINT('',(74.5,10.,0.));
#606 = CIRCLE('',#607,2.75);
#607 = AXIS2_PLACEMENT_3D('',#608,#609,#610);
#608 = CARTESIAN_POINT('',(71.75,10.,0.));
#609 = DIRECTION('',(0.,0.,1.));
#610 = DIRECTION('',(1.,0.,0.));
#611 = PLANE('',#612);
#612 = AXIS2_PLACEMENT_3D('',#613,#614,#615);
#613 = CARTESIAN_POINT('',(40.,7.,5.404481893458E-16));
#614 = DIRECTION('',(-0.,-0.,-1.));
#615 = DIRECTION('',(-1.,0.,0.));
#616 = ADVANCED_FACE('',(#617),#623,.F.);
#617 = FACE_BOUND('',#618,.F.);
#618 = EDGE_LOOP('',(#619,#620,#621,#622));
#619 = ORIENTED_EDGE('',*,*,#160,.T.);
#620 = ORIENTED_EDGE('',*,*,#509,.T.);
#621 = ORIENTED_EDGE('',*,*,#275,.F.);
#622 = ORIENTED_EDGE('',*,*,#548,.F.);
#623 = PLANE('',#624);
#624 = AXIS2_PLACEMENT_3D('',#625,#626,#627);
#625 = CARTESIAN_POINT('',(80.,20.,0.));
#626 = DIRECTION('',(0.,-1.,0.));
#627 = DIRECTION('',(-1.,0.,0.));
#628 = ADVANCED_FACE('',(#629),#640,.F.);
#629 = FACE_BOUND('',#630,.T.);
#630 = EDGE_LOOP('',(#631,#637,#638,#639));
#631 = ORIENTED_EDGE('',*,*,#632,.T.);
#632 = EDGE_CURVE('',#604,#520,#633,.T.);
#633 = LINE('',#634,#635);
#634 = CARTESIAN_POINT('',(74.5,10.,0.));
#635 = VECTOR('',#636,1.);
#636 = DIRECTION('',(0.,0.,1.));
#637 = ORIENTED_EDGE('',*,*,#519,.T.);
#638 = ORIENTED_EDGE('',*,*,#632,.F.);
#639 = ORIENTED_EDGE('',*,*,#603,.F.);
#640 = CYLINDRICAL_SURFACE('',#641,2.75);
#641 = AXIS2_PLACEMENT_3D('',#642,#643,#644);
#642 = CARTESIAN_POINT('',(71.75,10.,0.));
#643 = DIRECTION('',(-0.,-0.,-1.));
#644 = DIRECTION('',(1.,0.,0.));
#645 = ADVANCED_FACE('',(#646),#657,.F.);
#646 = FACE_BOUND('',#647,.T.);
#647 = EDGE_LOOP('',(#648,#654,#655,#656));
#648 = ORIENTED_EDGE('',*,*,#649,.T.);
#649 = EDGE_CURVE('',#593,#531,#650,.T.);
#650 = LINE('',#651,#652);
#651 = CARTESIAN_POINT('',(11.,10.,0.));
#652 = VECTOR('',#653,1.);
#653 = DIRECTION('',(0.,0.,1.));
#654 = ORIENTED_EDGE('',*,*,#530,.T.);
#655 = ORIENTED_EDGE('',*,*,#649,.F.);
#656 = ORIENTED_EDGE('',*,*,#592,.F.);
#657 = CYLINDRICAL_SURFACE('',#658,2.75);
#658 = AXIS2_PLACEMENT_3D('',#659,#660,#661);
#659 = CARTESIAN_POINT('',(8.25,10.,0.));
#660 = DIRECTION('',(-0.,-0.,-1.));
#661 = DIRECTION('',(1.,0.,0.));
#662 = ADVANCED_FACE('',(#663),#688,.F.);
#663 = FACE_BOUND('',#664,.F.);
#664 = EDGE_LOOP('',(#665,#673,#681,#687));
#665 = ORIENTED_EDGE('',*,*,#666,.T.);
#666 = EDGE_CURVE('',#559,#667,#669,.T.);
#667 = VERTEX_POINT('',#668);
#668 = CARTESIAN_POINT('',(58.,7.125,-2.));
#669 = LINE('',#670,#671);
#670 = CARTESIAN_POINT('',(58.,7.125,0.));
#671 = VECTOR('',#672,1.);
#672 = DIRECTION('',(0.,0.,-1.));
#673 = ORIENTED_EDGE('',*,*,#674,.T.);
#674 = EDGE_CURVE('',#667,#675,#677,.T.);
#675 = VERTEX_POINT('',#676);
#676 = CARTESIAN_POINT('',(22.,7.125,-2.));
#677 = LINE('',#678,#679);
#678 = CARTESIAN_POINT('',(58.,7.125,-2.));
#679 = VECTOR('',#680,1.);
#680 = DIRECTION('',(-1.,0.,0.));
#681 = ORIENTED_EDGE('',*,*,#682,.F.);
#682 = EDGE_CURVE('',#561,#675,#683,.T.);
#683 = LINE('',#684,#685);
#684 = CARTESIAN_POINT('',(22.,7.125,0.));
#685 = VECTOR('',#686,1.);
#686 = DIRECTION('',(0.,0.,-1.));
#687 = ORIENTED_EDGE('',*,*,#558,.F.);
#688 = PLANE('',#689);
#689 = AXIS2_PLACEMENT_3D('',#690,#691,#692);
#690 = CARTESIAN_POINT('',(58.,7.125,0.));
#691 = DIRECTION('',(0.,1.,0.));
#692 = DIRECTION('',(-1.,0.,0.));
#693 = ADVANCED_FACE('',(#694),#712,.F.);
#694 = FACE_BOUND('',#695,.F.);
#695 = EDGE_LOOP('',(#696,#704,#710,#711));
#696 = ORIENTED_EDGE('',*,*,#697,.T.);
#697 = EDGE_CURVE('',#569,#698,#700,.T.);
#698 = VERTEX_POINT('',#699);
#699 = CARTESIAN_POINT('',(58.,12.875,-2.));
#700 = LINE('',#701,#702);
#701 = CARTESIAN_POINT('',(58.,12.875,0.));
#702 = VECTOR('',#703,1.);
#703 = DIRECTION('',(0.,0.,-1.));
#704 = ORIENTED_EDGE('',*,*,#705,.T.);
#705 = EDGE_CURVE('',#698,#667,#706,.T.);
#706 = LINE('',#707,#708);
#707 = CARTESIAN_POINT('',(58.,12.875,-2.));
#708 = VECTOR('',#709,1.);
#709 = DIRECTION('',(0.,-1.,0.));
#710 = ORIENTED_EDGE('',*,*,#666,.F.);
#711 = ORIENTED_EDGE('',*,*,#568,.F.);
#712 = PLANE('',#713);
#713 = AXIS2_PLACEMENT_3D('',#714,#715,#716);
#714 = CARTESIAN_POINT('',(58.,12.875,0.));
#715 = DIRECTION('',(-1.,-0.,-0.));
#716 = DIRECTION('',(0.,-1.,0.));
#717 = ADVANCED_FACE('',(#718),#736,.F.);
#718 = FACE_BOUND('',#719,.F.);
#719 = EDGE_LOOP('',(#720,#728,#734,#735));
#720 = ORIENTED_EDGE('',*,*,#721,.T.);
#721 = EDGE_CURVE('',#577,#722,#724,.T.);
#722 = VERTEX_POINT('',#723);
#723 = CARTESIAN_POINT('',(22.,12.875,-2.));
#724 = LINE('',#725,#726);
#725 = CARTESIAN_POINT('',(22.,12.875,0.));
#726 = VECTOR('',#727,1.);
#727 = DIRECTION('',(0.,0.,-1.));
#728 = ORIENTED_EDGE('',*,*,#729,.T.);
#729 = EDGE_CURVE('',#722,#698,#730,.T.);
#730 = LINE('',#731,#732);
#731 = CARTESIAN_POINT('',(22.,12.875,-2.));
#732 = VECTOR('',#733,1.);
#733 = DIRECTION('',(1.,0.,0.));
#734 = ORIENTED_EDGE('',*,*,#697,.F.);
#735 = ORIENTED_EDGE('',*,*,#576,.F.);
#736 = PLANE('',#737);
#737 = AXIS2_PLACEMENT_3D('',#738,#739,#740);
#738 = CARTESIAN_POINT('',(22.,12.875,0.));
#739 = DIRECTION('',(0.,-1.,0.));
#740 = DIRECTION('',(1.,0.,0.));
#741 = ADVANCED_FACE('',(#742),#753,.F.);
#742 = FACE_BOUND('',#743,.F.);
#743 = EDGE_LOOP('',(#744,#745,#751,#752));
#744 = ORIENTED_EDGE('',*,*,#682,.T.);
#745 = ORIENTED_EDGE('',*,*,#746,.T.);
#746 = EDGE_CURVE('',#675,#722,#747,.T.);
#747 = LINE('',#748,#749);
#748 = CARTESIAN_POINT('',(22.,7.125,-2.));
#749 = VECTOR('',#750,1.);
#750 = DIRECTION('',(0.,1.,0.));
#751 = ORIENTED_EDGE('',*,*,#721,.F.);
#752 = ORIENTED_EDGE('',*,*,#584,.F.);
#753 = PLANE('',#754);
#754 = AXIS2_PLACEMENT_3D('',#755,#756,#757);
#755 = CARTESIAN_POINT('',(22.,7.125,0.));
#756 = DIRECTION('',(1.,0.,0.));
#757 = DIRECTION('',(0.,1.,0.));
#758 = ADVANCED_FACE('',(#759),#765,.F.);
#759 = FACE_BOUND('',#760,.T.);
#760 = EDGE_LOOP('',(#761,#762,#763,#764));
#761 = ORIENTED_EDGE('',*,*,#746,.T.);
#762 = ORIENTED_EDGE('',*,*,#729,.T.);
#763 = ORIENTED_EDGE('',*,*,#705,.T.);
#764 = ORIENTED_EDGE('',*,*,#674,.T.);
#765 = PLANE('',#766);
#766 = AXIS2_PLACEMENT_3D('',#767,#768,#769);
#767 = CARTESIAN_POINT('',(40.,10.,-2.));
#768 = DIRECTION('',(0.,0.,1.));
#769 = DIRECTION('',(1.,0.,0.));
#770 = ( GEOMETRIC_REPRESENTATION_CONTEXT(3) 
GLOBAL_UNCERTAINTY_ASSIGNED_CONTEXT((#774)) GLOBAL_UNIT_ASSIGNED_CONTEXT
((#771,#772,#773)) REPRESENTATION_CONTEXT('Context #1',
  '3D Context with UNIT and UNCERTAINTY') );
#771 = ( LENGTH_UNIT() NAMED_UNIT(*) SI_UNIT(.MILLI.,.METRE.) );
#772 = ( NAMED_UNIT(*) PLANE_ANGLE_UNIT() SI_UNIT($,.RADIAN.) );
#773 = ( NAMED_UNIT(*) SI_UNIT($,.STERADIAN.) SOLID_ANGLE_UNIT() );
#774 = UNCERTAINTY_MEASURE_WITH_UNIT(LENGTH_MEASURE(1.E-07),#771,
  'distance_accuracy_value','confusion accuracy');
#775 = PRODUCT_RELATED_PRODUCT_CATEGORY('part',$,(#7));
#776 = MECHANICAL_DESIGN_GEOMETRIC_PRESENTATION_REPRESENTATION('',(#777)
  ,#770);
#777 = STYLED_ITEM('color',(#778),#15);
#778 = PRESENTATION_STYLE_ASSIGNMENT((#779,#785));
#779 = SURFACE_STYLE_USAGE(.BOTH.,#780);
#780 = SURFACE_SIDE_STYLE('',(#781));
#781 = SURFACE_STYLE_FILL_AREA(#782);
#782 = FILL_AREA_STYLE('',(#783));
#783 = FILL_AREA_STYLE_COLOUR('',#784);
#784 = COLOUR_RGB('',0.678430976034,0.709803998361,0.741176010593);
#785 = CURVE_STYLE('',#786,POSITIVE_LENGTH_MEASURE(0.1),#787);
#786 = DRAUGHTING_PRE_DEFINED_CURVE_FONT('continuous');
#787 = COLOUR_RGB('',9.803921802644E-02,9.803921802644E-02,
  9.803921802644E-02);
ENDSEC;
END-ISO-10303-21;
