ISO-10303-21;
HEADER;
FILE_DESCRIPTION(('FreeCAD Model'),'2;1');
FILE_NAME('Open CASCADE Shape Model','2026-09-14T18:33:47',(''),(''),
  'Open CASCADE STEP processor 7.8','FreeCAD','Unknown');
FILE_SCHEMA(('AUTOMOTIVE_DESIGN { 1 0 10303 214 1 1 1 1 }'));
ENDSEC;
DATA;
#1 = APPLICATION_PROTOCOL_DEFINITION('international standard',
  'automotive_design',2000,#2);
#2 = APPLICATION_CONTEXT(
  'core data for automotive mechanical design processes');
#3 = SHAPE_DEFINITION_REPRESENTATION(#4,#10);
#4 = PRODUCT_DEFINITION_SHAPE('','',#5);
#5 = PRODUCT_DEFINITION('design','',#6,#9);
#6 = PRODUCT_DEFINITION_FORMATION('','',#7);
#7 = PRODUCT('CylinderBodyClamp','CylinderBodyClamp','',(#8));
#8 = PRODUCT_CONTEXT('',#2,'mechanical');
#9 = PRODUCT_DEFINITION_CONTEXT('part definition',#2,'design');
#10 = ADVANCED_BREP_SHAPE_REPRESENTATION('',(#11,#15),#775);
#11 = AXIS2_PLACEMENT_3D('',#12,#13,#14);
#12 = CARTESIAN_POINT('',(0.,0.,0.));
#13 = DIRECTION('',(0.,0.,1.));
#14 = DIRECTION('',(1.,0.,-0.));
#15 = MANIFOLD_SOLID_BREP('',#16);
#16 = CLOSED_SHELL('',(#17,#57,#123,#247,#305,#344,#361,#477,#534,#559,
    #609,#627,#645,#663,#696,#720,#746,#763));
#17 = ADVANCED_FACE('',(#18),#52,.F.);
#18 = FACE_BOUND('',#19,.F.);
#19 = EDGE_LOOP('',(#20,#30,#38,#46));
#20 = ORIENTED_EDGE('',*,*,#21,.F.);
#21 = EDGE_CURVE('',#22,#24,#26,.T.);
#22 = VERTEX_POINT('',#23);
#23 = CARTESIAN_POINT('',(0.,0.,0.));
#24 = VERTEX_POINT('',#25);
#25 = CARTESIAN_POINT('',(29.,0.,0.));
#26 = LINE('',#27,#28);
#27 = CARTESIAN_POINT('',(0.,0.,0.));
#28 = VECTOR('',#29,1.);
#29 = DIRECTION('',(1.,0.,0.));
#30 = ORIENTED_EDGE('',*,*,#31,.T.);
#31 = EDGE_CURVE('',#22,#32,#34,.T.);
#32 = VERTEX_POINT('',#33);
#33 = CARTESIAN_POINT('',(0.,0.,8.));
#34 = LINE('',#35,#36);
#35 = CARTESIAN_POINT('',(0.,0.,0.));
#36 = VECTOR('',#37,1.);
#37 = DIRECTION('',(0.,0.,1.));
#38 = ORIENTED_EDGE('',*,*,#39,.T.);
#39 = EDGE_CURVE('',#32,#40,#42,.T.);
#40 = VERTEX_POINT('',#41);
#41 = CARTESIAN_POINT('',(29.,-1.595659538462E-13,8.));
#42 = LINE('',#43,#44);
#43 = CARTESIAN_POINT('',(0.,0.,8.));
#44 = VECTOR('',#45,1.);
#45 = DIRECTION('',(1.,0.,0.));
#46 = ORIENTED_EDGE('',*,*,#47,.F.);
#47 = EDGE_CURVE('',#24,#40,#48,.T.);
#48 = LINE('',#49,#50);
#49 = CARTESIAN_POINT('',(29.,0.,8.));
#50 = VECTOR('',#51,1.);
#51 = DIRECTION('',(0.,0.,1.));
#52 = PLANE('',#53);
#53 = AXIS2_PLACEMENT_3D('',#54,#55,#56);
#54 = CARTESIAN_POINT('',(0.,0.,0.));
#55 = DIRECTION('',(0.,1.,0.));
#56 = DIRECTION('',(1.,0.,0.));
#57 = ADVANCED_FACE('',(#58),#118,.F.);
#58 = FACE_BOUND('',#59,.F.);
#59 = EDGE_LOOP('',(#60,#70,#76,#77,#86,#94,#103,#111));
#60 = ORIENTED_EDGE('',*,*,#61,.T.);
#61 = EDGE_CURVE('',#62,#64,#66,.T.);
#62 = VERTEX_POINT('',#63);
#63 = CARTESIAN_POINT('',(29.,65.,0.));
#64 = VERTEX_POINT('',#65);
#65 = CARTESIAN_POINT('',(0.,65.,0.));
#66 = LINE('',#67,#68);
#67 = CARTESIAN_POINT('',(34.,65.,0.));
#68 = VECTOR('',#69,1.);
#69 = DIRECTION('',(-1.,0.,0.));
#70 = ORIENTED_EDGE('',*,*,#71,.T.);
#71 = EDGE_CURVE('',#64,#22,#72,.T.);
#72 = LINE('',#73,#74);
#73 = CARTESIAN_POINT('',(0.,65.,0.));
#74 = VECTOR('',#75,1.);
#75 = DIRECTION('',(0.,-1.,0.));
#76 = ORIENTED_EDGE('',*,*,#21,.T.);
#77 = ORIENTED_EDGE('',*,*,#78,.F.);
#78 = EDGE_CURVE('',#79,#24,#81,.T.);
#79 = VERTEX_POINT('',#80);
#80 = CARTESIAN_POINT('',(34.,5.,0.));
#81 = CIRCLE('',#82,5.);
#82 = AXIS2_PLACEMENT_3D('',#83,#84,#85);
#83 = CARTESIAN_POINT('',(34.,0.,0.));
#84 = DIRECTION('',(0.,0.,1.));
#85 = DIRECTION('',(1.,0.,0.));
#86 = ORIENTED_EDGE('',*,*,#87,.T.);
#87 = EDGE_CURVE('',#79,#88,#90,.T.);
#88 = VERTEX_POINT('',#89);
#89 = CARTESIAN_POINT('',(34.,11.1,0.));
#90 = LINE('',#91,#92);
#91 = CARTESIAN_POINT('',(34.,0.,0.));
#92 = VECTOR('',#93,1.);
#93 = DIRECTION('',(0.,1.,0.));
#94 = ORIENTED_EDGE('',*,*,#95,.T.);
#95 = EDGE_CURVE('',#88,#96,#98,.T.);
#96 = VERTEX_POINT('',#97);
#97 = CARTESIAN_POINT('',(34.,53.9,0.));
#98 = CIRCLE('',#99,21.4);
#99 = AXIS2_PLACEMENT_3D('',#100,#101,#102);
#100 = CARTESIAN_POINT('',(34.,32.5,0.));
#101 = DIRECTION('',(0.,0.,-1.));
#102 = DIRECTION('',(1.,0.,0.));
#103 = ORIENTED_EDGE('',*,*,#104,.T.);
#104 = EDGE_CURVE('',#96,#105,#107,.T.);
#105 = VERTEX_POINT('',#106);
#106 = CARTESIAN_POINT('',(34.,60.,0.));
#107 = LINE('',#108,#109);
#108 = CARTESIAN_POINT('',(34.,0.,0.));
#109 = VECTOR('',#110,1.);
#110 = DIRECTION('',(0.,1.,0.));
#111 = ORIENTED_EDGE('',*,*,#112,.F.);
#112 = EDGE_CURVE('',#62,#105,#113,.T.);
#113 = CIRCLE('',#114,5.);
#114 = AXIS2_PLACEMENT_3D('',#115,#116,#117);
#115 = CARTESIAN_POINT('',(34.,65.,0.));
#116 = DIRECTION('',(0.,0.,1.));
#117 = DIRECTION('',(1.,0.,0.));
#118 = PLANE('',#119);
#119 = AXIS2_PLACEMENT_3D('',#120,#121,#122);
#120 = CARTESIAN_POINT('',(17.,32.5,0.));
#121 = DIRECTION('',(0.,0.,1.));
#122 = DIRECTION('',(1.,0.,0.));
#123 = ADVANCED_FACE('',(#124),#242,.F.);
#124 = FACE_BOUND('',#125,.F.);
#125 = EDGE_LOOP('',(#126,#135,#143,#234,#240,#241));
#126 = ORIENTED_EDGE('',*,*,#127,.F.);
#127 = EDGE_CURVE('',#128,#40,#130,.T.);
#128 = VERTEX_POINT('',#129);
#129 = CARTESIAN_POINT('',(34.,5.,8.));
#130 = CIRCLE('',#131,5.);
#131 = AXIS2_PLACEMENT_3D('',#132,#133,#134);
#132 = CARTESIAN_POINT('',(34.,0.,8.));
#133 = DIRECTION('',(0.,0.,1.));
#134 = DIRECTION('',(1.,0.,0.));
#135 = ORIENTED_EDGE('',*,*,#136,.F.);
#136 = EDGE_CURVE('',#137,#128,#139,.T.);
#137 = VERTEX_POINT('',#138);
#138 = CARTESIAN_POINT('',(34.,5.,5.8));
#139 = LINE('',#140,#141);
#140 = CARTESIAN_POINT('',(34.,5.,8.));
#141 = VECTOR('',#142,1.);
#142 = DIRECTION('',(0.,0.,1.));
#143 = ORIENTED_EDGE('',*,*,#144,.T.);
#144 = EDGE_CURVE('',#137,#145,#147,.T.);
#145 = VERTEX_POINT('',#146);
#146 = CARTESIAN_POINT('',(34.,5.,2.2));
#147 = B_SPLINE_CURVE_WITH_KNOTS('',7,(#148,#149,#150,#151,#152,#153,
    #154,#155,#156,#157,#158,#159,#160,#161,#162,#163,#164,#165,#166,
    #167,#168,#169,#170,#171,#172,#173,#174,#175,#176,#177,#178,#179,
    #180,#181,#182,#183,#184,#185,#186,#187,#188,#189,#190,#191,#192,
    #193,#194,#195,#196,#197,#198,#199,#200,#201,#202,#203,#204,#205,
    #206,#207,#208,#209,#210,#211,#212,#213,#214,#215,#216,#217,#218,
    #219,#220,#221,#222,#223,#224,#225,#226,#227,#228,#229,#230,#231,
    #232,#233),.UNSPECIFIED.,.F.,.F.,(8,6,6,6,6,6,6,6,6,6,6,6,6,6,8),(0.
    ,0.150869494255,0.273428369502,0.317294744347,0.358634204697,
    0.398467056137,0.445900004929,0.499980211877,0.554049800405,
    0.60173727705,0.657195597071,0.681888986326,0.726420368335,
    0.854422130366,1.),.UNSPECIFIED.);
#148 = CARTESIAN_POINT('',(34.,5.,5.8));
#149 = CARTESIAN_POINT('',(33.775432992731,5.,5.8));
#150 = CARTESIAN_POINT('',(33.550925044222,4.988232895129,5.80000009555)
  );
#151 = CARTESIAN_POINT('',(33.326906735463,4.964710009338,5.799999583125
    ));
#152 = CARTESIAN_POINT('',(33.103827104477,4.929402741252,5.799516403061
    ));
#153 = CARTESIAN_POINT('',(32.882191626084,4.882256005958,5.797577152739
    ));
#154 = CARTESIAN_POINT('',(32.662613289356,4.823214377523,5.792726316877
    ));
#155 = CARTESIAN_POINT('',(32.269804246514,4.694756460669,5.77488187392)
  );
#156 = CARTESIAN_POINT('',(32.09532339876,4.629273163133,5.763573614775)
  );
#157 = CARTESIAN_POINT('',(31.923062136476,4.555934845997,5.74783027521)
  );
#158 = CARTESIAN_POINT('',(31.753762051188,4.474914966302,5.726253155948
    ));
#159 = CARTESIAN_POINT('',(31.588306899868,4.386566379924,5.697159240886
    ));
#160 = CARTESIAN_POINT('',(31.427746112894,4.291556341694,5.658540830892
    ));
#161 = CARTESIAN_POINT('',(31.21803370521,4.155118801217,5.589904503736)
  );
#162 = CARTESIAN_POINT('',(31.163571844521,4.118475731861,5.570295082498
    ));
#163 = CARTESIAN_POINT('',(31.110035145117,4.081244540945,5.549078182497
    ));
#164 = CARTESIAN_POINT('',(31.057527296791,4.043527437682,5.526166372931
    ));
#165 = CARTESIAN_POINT('',(31.006144882313,4.00543567334,5.501474381162)
  );
#166 = CARTESIAN_POINT('',(30.955977596814,3.967089108853,5.47491945799)
  );
#167 = CARTESIAN_POINT('',(30.861054434785,3.892358704973,5.419565633506
    ));
#168 = CARTESIAN_POINT('',(30.816155725742,3.85599097539,5.390985546446)
  );
#169 = CARTESIAN_POINT('',(30.772527938617,3.819656055444,5.360641436428
    ));
#170 = CARTESIAN_POINT('',(30.73027255705,3.78350320216,5.32850501029));
#171 = CARTESIAN_POINT('',(30.689477751734,3.747685245334,5.294560266006
    ));
#172 = CARTESIAN_POINT('',(30.650219182424,3.712356365029,5.258804031677
    ));
#173 = CARTESIAN_POINT('',(30.576274870145,3.64424751596,5.185057754432)
  );
#174 = CARTESIAN_POINT('',(30.541487447743,3.611433375913,5.147209360852
    ));
#175 = CARTESIAN_POINT('',(30.508269966999,3.579378505168,5.107728127039
    ));
#176 = CARTESIAN_POINT('',(30.476680773305,3.548232100072,5.066657494339
    ));
#177 = CARTESIAN_POINT('',(30.446766220255,3.518138657205,5.024057772116
    ));
#178 = CARTESIAN_POINT('',(30.418561766737,3.489235133532,4.980006367677
    ));
#179 = CARTESIAN_POINT('',(30.360574161853,3.428797482204,4.880525763455
    ));
#180 = CARTESIAN_POINT('',(30.331529773718,3.397827324772,4.824551714652
    ));
#181 = CARTESIAN_POINT('',(30.304980824252,3.368929329148,4.766807265233
    ));
#182 = CARTESIAN_POINT('',(30.280936669947,3.342278985207,4.70744855031)
  );
#183 = CARTESIAN_POINT('',(30.259397017101,3.318031210286,4.646656013397
    ));
#184 = CARTESIAN_POINT('',(30.24035382977,3.296315981681,4.584633975148)
  );
#185 = CARTESIAN_POINT('',(30.204911842652,3.255477801471,4.449754271212
    ));
#186 = CARTESIAN_POINT('',(30.189253374454,3.237139664245,4.376579571044
    ));
#187 = CARTESIAN_POINT('',(30.176774744446,3.222343899516,4.302334782068
    ));
#188 = CARTESIAN_POINT('',(30.167441777544,3.211185220406,4.227279848903
    ));
#189 = CARTESIAN_POINT('',(30.161230005064,3.203727073291,4.151684904472
    ));
#190 = CARTESIAN_POINT('',(30.15812545754,3.2,4.075829194164));
#191 = CARTESIAN_POINT('',(30.15812545754,3.2,3.924185694576));
#192 = CARTESIAN_POINT('',(30.161228785719,3.203725609674,3.848344905164
    ));
#193 = CARTESIAN_POINT('',(30.167438115683,3.211180823819,3.772764731992
    ));
#194 = CARTESIAN_POINT('',(30.176767405843,3.222335125047,3.697724246818
    ));
#195 = CARTESIAN_POINT('',(30.189241107623,3.237125119425,3.623493418555
    ));
#196 = CARTESIAN_POINT('',(30.204893373667,3.255456172099,3.550332038897
    ));
#197 = CARTESIAN_POINT('',(30.240413375749,3.296384900618,3.41512530228)
  );
#198 = CARTESIAN_POINT('',(30.259568874846,3.318227531504,3.352773870881
    ));
#199 = CARTESIAN_POINT('',(30.281247850992,3.342629649932,3.291666052126
    ));
#200 = CARTESIAN_POINT('',(30.305458406522,3.369458985016,3.232009547384
    ));
#201 = CARTESIAN_POINT('',(30.332200695565,3.39855777737,3.173987618452)
  );
#202 = CARTESIAN_POINT('',(30.361464961151,3.429747275829,3.117758644984
    ));
#203 = CARTESIAN_POINT('',(30.430170339503,3.501308503779,3.000303858527
    ));
#204 = CARTESIAN_POINT('',(30.470469873966,3.542324730713,2.939795216855
    ));
#205 = CARTESIAN_POINT('',(30.514060099077,3.585540629772,2.882178742056
    ));
#206 = CARTESIAN_POINT('',(30.560836467293,3.630577838441,2.827639567668
    ));
#207 = CARTESIAN_POINT('',(30.610652380334,3.677034246008,2.776300608076
    ));
#208 = CARTESIAN_POINT('',(30.663313609337,3.724498322654,2.728224190971
    ));
#209 = CARTESIAN_POINT('',(30.743177402043,3.793964941849,2.663461351768
    ));
#210 = CARTESIAN_POINT('',(30.7682993559,3.815487594091,2.644154775597)
  );
#211 = CARTESIAN_POINT('',(30.793922238751,3.837099910742,2.625490293196
    ));
#212 = CARTESIAN_POINT('',(30.82002819332,3.858770888099,2.607462898856)
  );
#213 = CARTESIAN_POINT('',(30.846597842898,3.880470013299,2.590066249259
    ));
#214 = CARTESIAN_POINT('',(30.873610291348,3.902167264324,2.573292663474
    ));
#215 = CARTESIAN_POINT('',(30.950514740691,3.962904702812,2.527991450088
    ));
#216 = CARTESIAN_POINT('',(31.001333468318,4.001858640558,2.500858501652
    ));
#217 = CARTESIAN_POINT('',(31.053412551139,4.040559919367,2.47565144336)
  );
#218 = CARTESIAN_POINT('',(31.106658058511,4.078882165306,2.452284234009
    ));
#219 = CARTESIAN_POINT('',(31.160968639735,4.116708121906,2.430668025984
    ));
#220 = CARTESIAN_POINT('',(31.216235279802,4.153930137676,2.410711565763
    ));
#221 = CARTESIAN_POINT('',(31.433612450242,4.295425845983,2.339461147908
    ));
#222 = CARTESIAN_POINT('',(31.601553350691,4.394432906191,2.299629543296
    ));
#223 = CARTESIAN_POINT('',(31.77476825746,4.486115583162,2.270080231247)
  );
#224 = CARTESIAN_POINT('',(31.952079083271,4.569745183516,2.248542193343
    ));
#225 = CARTESIAN_POINT('',(32.132507438913,4.644955350999,2.233130640712
    ));
#226 = CARTESIAN_POINT('',(32.315246116959,4.711577430198,2.222295765053
    ));
#227 = CARTESIAN_POINT('',(32.709310042876,4.835539323517,2.206295374847
    ));
#228 = CARTESIAN_POINT('',(32.921513574504,4.890473034374,2.202094989759
    ));
#229 = CARTESIAN_POINT('',(33.135557332806,4.934343370184,2.200419067549
    ));
#230 = CARTESIAN_POINT('',(33.350897983206,4.967194937278,2.199998343572
    ));
#231 = CARTESIAN_POINT('',(33.567082677664,4.98907884666,2.200000541135)
  );
#232 = CARTESIAN_POINT('',(33.783708831609,5.000016577877,2.2));
#233 = CARTESIAN_POINT('',(34.000382891648,4.999999985339,2.2));
#234 = ORIENTED_EDGE('',*,*,#235,.F.);
#235 = EDGE_CURVE('',#79,#145,#236,.T.);
#236 = LINE('',#237,#238);
#237 = CARTESIAN_POINT('',(34.,5.,8.));
#238 = VECTOR('',#239,1.);
#239 = DIRECTION('',(0.,0.,1.));
#240 = ORIENTED_EDGE('',*,*,#78,.T.);
#241 = ORIENTED_EDGE('',*,*,#47,.T.);
#242 = CYLINDRICAL_SURFACE('',#243,5.);
#243 = AXIS2_PLACEMENT_3D('',#244,#245,#246);
#244 = CARTESIAN_POINT('',(34.,0.,8.));
#245 = DIRECTION('',(0.,0.,1.));
#246 = DIRECTION('',(1.,0.,0.));
#247 = ADVANCED_FACE('',(#248),#300,.T.);
#248 = FACE_BOUND('',#249,.T.);
#249 = EDGE_LOOP('',(#250,#260,#266,#267,#268,#276,#285,#293));
#250 = ORIENTED_EDGE('',*,*,#251,.T.);
#251 = EDGE_CURVE('',#252,#254,#256,.T.);
#252 = VERTEX_POINT('',#253);
#253 = CARTESIAN_POINT('',(29.,65.,8.));
#254 = VERTEX_POINT('',#255);
#255 = CARTESIAN_POINT('',(0.,65.,8.));
#256 = LINE('',#257,#258);
#257 = CARTESIAN_POINT('',(34.,65.,8.));
#258 = VECTOR('',#259,1.);
#259 = DIRECTION('',(-1.,0.,0.));
#260 = ORIENTED_EDGE('',*,*,#261,.T.);
#261 = EDGE_CURVE('',#254,#32,#262,.T.);
#262 = LINE('',#263,#264);
#263 = CARTESIAN_POINT('',(0.,65.,8.));
#264 = VECTOR('',#265,1.);
#265 = DIRECTION('',(0.,-1.,0.));
#266 = ORIENTED_EDGE('',*,*,#39,.T.);
#267 = ORIENTED_EDGE('',*,*,#127,.F.);
#268 = ORIENTED_EDGE('',*,*,#269,.T.);
#269 = EDGE_CURVE('',#128,#270,#272,.T.);
#270 = VERTEX_POINT('',#271);
#271 = CARTESIAN_POINT('',(34.,11.1,8.));
#272 = LINE('',#273,#274);
#273 = CARTESIAN_POINT('',(34.,0.,8.));
#274 = VECTOR('',#275,1.);
#275 = DIRECTION('',(0.,1.,0.));
#276 = ORIENTED_EDGE('',*,*,#277,.T.);
#277 = EDGE_CURVE('',#270,#278,#280,.T.);
#278 = VERTEX_POINT('',#279);
#279 = CARTESIAN_POINT('',(34.,53.9,8.));
#280 = CIRCLE('',#281,21.4);
#281 = AXIS2_PLACEMENT_3D('',#282,#283,#284);
#282 = CARTESIAN_POINT('',(34.,32.5,8.));
#283 = DIRECTION('',(0.,0.,-1.));
#284 = DIRECTION('',(1.,0.,0.));
#285 = ORIENTED_EDGE('',*,*,#286,.T.);
#286 = EDGE_CURVE('',#278,#287,#289,.T.);
#287 = VERTEX_POINT('',#288);
#288 = CARTESIAN_POINT('',(34.,60.,8.));
#289 = LINE('',#290,#291);
#290 = CARTESIAN_POINT('',(34.,0.,8.));
#291 = VECTOR('',#292,1.);
#292 = DIRECTION('',(0.,1.,0.));
#293 = ORIENTED_EDGE('',*,*,#294,.F.);
#294 = EDGE_CURVE('',#252,#287,#295,.T.);
#295 = CIRCLE('',#296,5.);
#296 = AXIS2_PLACEMENT_3D('',#297,#298,#299);
#297 = CARTESIAN_POINT('',(34.,65.,8.));
#298 = DIRECTION('',(0.,0.,1.));
#299 = DIRECTION('',(1.,0.,0.));
#300 = PLANE('',#301);
#301 = AXIS2_PLACEMENT_3D('',#302,#303,#304);
#302 = CARTESIAN_POINT('',(17.,32.5,8.));
#303 = DIRECTION('',(0.,0.,1.));
#304 = DIRECTION('',(1.,0.,0.));
#305 = ADVANCED_FACE('',(#306,#317,#328),#339,.F.);
#306 = FACE_BOUND('',#307,.F.);
#307 = EDGE_LOOP('',(#308,#314,#315,#316));
#308 = ORIENTED_EDGE('',*,*,#309,.T.);
#309 = EDGE_CURVE('',#64,#254,#310,.T.);
#310 = LINE('',#311,#312);
#311 = CARTESIAN_POINT('',(0.,65.,0.));
#312 = VECTOR('',#313,1.);
#313 = DIRECTION('',(0.,0.,1.));
#314 = ORIENTED_EDGE('',*,*,#261,.T.);
#315 = ORIENTED_EDGE('',*,*,#31,.F.);
#316 = ORIENTED_EDGE('',*,*,#71,.F.);
#317 = FACE_BOUND('',#318,.F.);
#318 = EDGE_LOOP('',(#319));
#319 = ORIENTED_EDGE('',*,*,#320,.T.);
#320 = EDGE_CURVE('',#321,#321,#323,.T.);
#321 = VERTEX_POINT('',#322);
#322 = CARTESIAN_POINT('',(0.,60.,5.8));
#323 = CIRCLE('',#324,1.8);
#324 = AXIS2_PLACEMENT_3D('',#325,#326,#327);
#325 = CARTESIAN_POINT('',(0.,60.,4.));
#326 = DIRECTION('',(-1.,0.,0.));
#327 = DIRECTION('',(0.,0.,1.));
#328 = FACE_BOUND('',#329,.F.);
#329 = EDGE_LOOP('',(#330));
#330 = ORIENTED_EDGE('',*,*,#331,.T.);
#331 = EDGE_CURVE('',#332,#332,#334,.T.);
#332 = VERTEX_POINT('',#333);
#333 = CARTESIAN_POINT('',(0.,5.,5.8));
#334 = CIRCLE('',#335,1.8);
#335 = AXIS2_PLACEMENT_3D('',#336,#337,#338);
#336 = CARTESIAN_POINT('',(0.,5.,4.));
#337 = DIRECTION('',(-1.,0.,0.));
#338 = DIRECTION('',(0.,0.,1.));
#339 = PLANE('',#340);
#340 = AXIS2_PLACEMENT_3D('',#341,#342,#343);
#341 = CARTESIAN_POINT('',(0.,65.,0.));
#342 = DIRECTION('',(1.,0.,0.));
#343 = DIRECTION('',(0.,-1.,0.));
#344 = ADVANCED_FACE('',(#345),#356,.F.);
#345 = FACE_BOUND('',#346,.F.);
#346 = EDGE_LOOP('',(#347,#348,#354,#355));
#347 = ORIENTED_EDGE('',*,*,#61,.F.);
#348 = ORIENTED_EDGE('',*,*,#349,.T.);
#349 = EDGE_CURVE('',#62,#252,#350,.T.);
#350 = LINE('',#351,#352);
#351 = CARTESIAN_POINT('',(29.,65.,8.));
#352 = VECTOR('',#353,1.);
#353 = DIRECTION('',(0.,0.,1.));
#354 = ORIENTED_EDGE('',*,*,#251,.T.);
#355 = ORIENTED_EDGE('',*,*,#309,.F.);
#356 = PLANE('',#357);
#357 = AXIS2_PLACEMENT_3D('',#358,#359,#360);
#358 = CARTESIAN_POINT('',(34.,65.,0.));
#359 = DIRECTION('',(0.,-1.,0.));
#360 = DIRECTION('',(-1.,0.,0.));
#361 = ADVANCED_FACE('',(#362),#472,.F.);
#362 = FACE_BOUND('',#363,.F.);
#363 = EDGE_LOOP('',(#364,#365,#366,#367,#375,#466));
#364 = ORIENTED_EDGE('',*,*,#294,.F.);
#365 = ORIENTED_EDGE('',*,*,#349,.F.);
#366 = ORIENTED_EDGE('',*,*,#112,.T.);
#367 = ORIENTED_EDGE('',*,*,#368,.T.);
#368 = EDGE_CURVE('',#105,#369,#371,.T.);
#369 = VERTEX_POINT('',#370);
#370 = CARTESIAN_POINT('',(34.,60.,2.2));
#371 = LINE('',#372,#373);
#372 = CARTESIAN_POINT('',(34.,60.,8.));
#373 = VECTOR('',#374,1.);
#374 = DIRECTION('',(0.,0.,1.));
#375 = ORIENTED_EDGE('',*,*,#376,.F.);
#376 = EDGE_CURVE('',#377,#369,#379,.T.);
#377 = VERTEX_POINT('',#378);
#378 = CARTESIAN_POINT('',(34.,60.,5.8));
#379 = B_SPLINE_CURVE_WITH_KNOTS('',7,(#380,#381,#382,#383,#384,#385,
    #386,#387,#388,#389,#390,#391,#392,#393,#394,#395,#396,#397,#398,
    #399,#400,#401,#402,#403,#404,#405,#406,#407,#408,#409,#410,#411,
    #412,#413,#414,#415,#416,#417,#418,#419,#420,#421,#422,#423,#424,
    #425,#426,#427,#428,#429,#430,#431,#432,#433,#434,#435,#436,#437,
    #438,#439,#440,#441,#442,#443,#444,#445,#446,#447,#448,#449,#450,
    #451,#452,#453,#454,#455,#456,#457,#458,#459,#460,#461,#462,#463,
    #464,#465),.UNSPECIFIED.,.F.,.F.,(8,6,6,6,6,6,6,6,6,6,6,6,6,6,8),(0.
    ,0.148004991273,0.273558652581,0.31809460921,0.359335432512,
    0.398244194427,0.445932099278,0.500002173322,0.554082865881,
    0.601516240594,0.657752531468,0.682692703048,0.726555734137,
    0.849105267218,1.),.UNSPECIFIED.);
#380 = CARTESIAN_POINT('',(34.,60.,5.8));
#381 = CARTESIAN_POINT('',(33.779720898796,60.,5.8));
#382 = CARTESIAN_POINT('',(33.559494287677,60.011321853421,
    5.799999387645));
#383 = CARTESIAN_POINT('',(33.339731989701,60.033956656045,
    5.800001395111));
#384 = CARTESIAN_POINT('',(33.120855612115,60.067927472245,
    5.799550483422));
#385 = CARTESIAN_POINT('',(32.903341952761,60.113289618846,
    5.797757591213));
#386 = CARTESIAN_POINT('',(32.687767226228,60.170090108502,
    5.793266022003));
#387 = CARTESIAN_POINT('',(32.294231042139,60.29613751492,5.776431546228
    ));
#388 = CARTESIAN_POINT('',(32.115225957898,60.362284435128,
    5.765369128411));
#389 = CARTESIAN_POINT('',(31.938491702614,60.436684971664,
    5.749788680294));
#390 = CARTESIAN_POINT('',(31.764806697427,60.519167489637,
    5.728208835539));
#391 = CARTESIAN_POINT('',(31.59510687173,60.609370601016,5.698836841363
    ));
#392 = CARTESIAN_POINT('',(31.430511801769,60.706592436117,
    5.659522542518));
#393 = CARTESIAN_POINT('',(31.216235279812,60.846069862318,5.58928843424
    ));
#394 = CARTESIAN_POINT('',(31.160968639736,60.883291878093,
    5.569331974016));
#395 = CARTESIAN_POINT('',(31.106658058502,60.9211178347,5.547715765988)
  );
#396 = CARTESIAN_POINT('',(31.053412551131,60.959440080639,
    5.524348556636));
#397 = CARTESIAN_POINT('',(31.00133346832,60.998141359441,5.499141498348
    ));
#398 = CARTESIAN_POINT('',(30.9505147407,61.037095297181,5.472008549917)
  );
#399 = CARTESIAN_POINT('',(30.855231819281,61.112347647703,
    5.415881342816));
#400 = CARTESIAN_POINT('',(30.810579245064,61.14862644315,5.387175459758
    ));
#401 = CARTESIAN_POINT('',(30.767200021707,61.184859866835,
    5.356710512644));
#402 = CARTESIAN_POINT('',(30.725194689402,61.220898866373,5.32445961885
    ));
#403 = CARTESIAN_POINT('',(30.68465051235,61.25659097657,5.290408261127)
  );
#404 = CARTESIAN_POINT('',(30.645642283847,61.29178254949,5.254554820393
    ));
#405 = CARTESIAN_POINT('',(30.572939369227,61.358906360804,
    5.181396050715));
#406 = CARTESIAN_POINT('',(30.539081112532,61.390899168415,5.14429965431
    ));
#407 = CARTESIAN_POINT('',(30.506724139309,61.422158723659,
    5.105647964627));
#408 = CARTESIAN_POINT('',(30.475922353234,61.45254617027,5.065482196573
    ));
#409 = CARTESIAN_POINT('',(30.446718761394,61.481927006015,
    5.023858934783));
#410 = CARTESIAN_POINT('',(30.419146452034,61.51017360931,4.980850333771
    ));
#411 = CARTESIAN_POINT('',(30.361464961151,61.570252724171,
    4.882241355016));
#412 = CARTESIAN_POINT('',(30.332200695564,61.601442222631,
    4.826012381548));
#413 = CARTESIAN_POINT('',(30.305458406522,61.630541014984,
    4.767990452616));
#414 = CARTESIAN_POINT('',(30.281247850992,61.657370350068,
    4.708333947874));
#415 = CARTESIAN_POINT('',(30.259568874846,61.681772468496,
    4.647226129119));
#416 = CARTESIAN_POINT('',(30.240413375749,61.703615099382,4.58487469772
    ));
#417 = CARTESIAN_POINT('',(30.204893373667,61.744543827901,
    4.449667961103));
#418 = CARTESIAN_POINT('',(30.189241107623,61.762874880575,
    4.376506581445));
#419 = CARTESIAN_POINT('',(30.176767405843,61.777664874953,
    4.302275753182));
#420 = CARTESIAN_POINT('',(30.167438115683,61.788819176181,
    4.227235268008));
#421 = CARTESIAN_POINT('',(30.161228785719,61.796274390326,
    4.151655094836));
#422 = CARTESIAN_POINT('',(30.15812545754,61.8,4.075814305424));
#423 = CARTESIAN_POINT('',(30.15812545754,61.8,3.924170805836));
#424 = CARTESIAN_POINT('',(30.161230005064,61.796272926709,
    3.848315095528));
#425 = CARTESIAN_POINT('',(30.167441777544,61.788814779594,
    3.772720151097));
#426 = CARTESIAN_POINT('',(30.176774744446,61.777656100484,
    3.697665217932));
#427 = CARTESIAN_POINT('',(30.189253374454,61.762860335755,
    3.623420428956));
#428 = CARTESIAN_POINT('',(30.204911842652,61.744522198529,
    3.550245728788));
#429 = CARTESIAN_POINT('',(30.24035382977,61.703684018319,3.415366024852
    ));
#430 = CARTESIAN_POINT('',(30.259397017101,61.681968789714,
    3.353343986603));
#431 = CARTESIAN_POINT('',(30.280936669947,61.657721014793,3.29255144969
    ));
#432 = CARTESIAN_POINT('',(30.304980824252,61.631070670852,
    3.233192734767));
#433 = CARTESIAN_POINT('',(30.331529773718,61.602172675228,
    3.175448285348));
#434 = CARTESIAN_POINT('',(30.360574161853,61.571202517796,
    3.119474236545));
#435 = CARTESIAN_POINT('',(30.429461419066,61.499404690644,
    3.001294739659));
#436 = CARTESIAN_POINT('',(30.470284625613,61.457838391817,
    2.939899973723));
#437 = CARTESIAN_POINT('',(30.514492447607,61.414007004466,
    2.881478186418));
#438 = CARTESIAN_POINT('',(30.561976200729,61.368304941793,
    2.826222407848));
#439 = CARTESIAN_POINT('',(30.612582785018,61.321151686408,
    2.774259959369));
#440 = CARTESIAN_POINT('',(30.66610870748,61.272976454023,2.725654215174
    ));
#441 = CARTESIAN_POINT('',(30.747211705521,61.202572307627,
    2.660339443404));
#442 = CARTESIAN_POINT('',(30.772654813771,61.180821890101,
    2.640931078995));
#443 = CARTESIAN_POINT('',(30.798606581566,61.158983914156,
    2.622177229827));
#444 = CARTESIAN_POINT('',(30.825048594637,61.137090163651,
    2.604072486171));
#445 = CARTESIAN_POINT('',(30.851960872339,61.115171896725,
    2.586610069371));
#446 = CARTESIAN_POINT('',(30.879321867648,61.093259845794,
    2.569781831845));
#447 = CARTESIAN_POINT('',(30.955977596814,61.032910891147,2.52508054201
    ));
#448 = CARTESIAN_POINT('',(31.006144882313,60.99456432666,2.498525618838
    ));
#449 = CARTESIAN_POINT('',(31.057527296791,60.956472562318,
    2.473833627069));
#450 = CARTESIAN_POINT('',(31.110035145117,60.918755459055,
    2.450921817503));
#451 = CARTESIAN_POINT('',(31.163571844521,60.881524268139,
    2.429704917502));
#452 = CARTESIAN_POINT('',(31.21803370521,60.844881198783,2.410095496264
    ));
#453 = CARTESIAN_POINT('',(31.427746112894,60.708443658306,
    2.341459169108));
#454 = CARTESIAN_POINT('',(31.588306899868,60.613433620076,
    2.302840759114));
#455 = CARTESIAN_POINT('',(31.753762051188,60.525085033698,
    2.273746844052));
#456 = CARTESIAN_POINT('',(31.923062136476,60.444065154003,2.25216972479
    ));
#457 = CARTESIAN_POINT('',(32.09532339876,60.370726836868,2.236426385225
    ));
#458 = CARTESIAN_POINT('',(32.269804246514,60.305243539331,2.22511812608
    ));
#459 = CARTESIAN_POINT('',(32.662666072438,60.176768361152,
    2.207271285304));
#460 = CARTESIAN_POINT('',(32.882298587716,60.117715233545,
    2.202420484158));
#461 = CARTESIAN_POINT('',(33.103989074226,60.070562804063,
    2.200482180257));
#462 = CARTESIAN_POINT('',(33.327124127433,60.035255586264,2.19999994603
    ));
#463 = CARTESIAN_POINT('',(33.551197939218,60.011738457253,
    2.199999904554));
#464 = CARTESIAN_POINT('',(33.775761162761,59.999982813504,2.2));
#465 = CARTESIAN_POINT('',(34.000382891641,60.000000014661,2.2));
#466 = ORIENTED_EDGE('',*,*,#467,.T.);
#467 = EDGE_CURVE('',#377,#287,#468,.T.);
#468 = LINE('',#469,#470);
#469 = CARTESIAN_POINT('',(34.,60.,8.));
#470 = VECTOR('',#471,1.);
#471 = DIRECTION('',(0.,0.,1.));
#472 = CYLINDRICAL_SURFACE('',#473,5.);
#473 = AXIS2_PLACEMENT_3D('',#474,#475,#476);
#474 = CARTESIAN_POINT('',(34.,65.,8.));
#475 = DIRECTION('',(0.,0.,1.));
#476 = DIRECTION('',(1.,0.,0.));
#477 = ADVANCED_FACE('',(#478),#529,.F.);
#478 = FACE_BOUND('',#479,.F.);
#479 = EDGE_LOOP('',(#480,#481,#489,#497,#505,#513,#519,#520,#521,#528)
  );
#480 = ORIENTED_EDGE('',*,*,#104,.F.);
#481 = ORIENTED_EDGE('',*,*,#482,.F.);
#482 = EDGE_CURVE('',#483,#96,#485,.T.);
#483 = VERTEX_POINT('',#484);
#484 = CARTESIAN_POINT('',(34.,53.9,2.6));
#485 = LINE('',#486,#487);
#486 = CARTESIAN_POINT('',(34.,53.9,-165.2750301226));
#487 = VECTOR('',#488,1.);
#488 = DIRECTION('',(-0.,-0.,-1.));
#489 = ORIENTED_EDGE('',*,*,#490,.T.);
#490 = EDGE_CURVE('',#483,#491,#493,.T.);
#491 = VERTEX_POINT('',#492);
#492 = CARTESIAN_POINT('',(34.,55.000000000043,2.6));
#493 = LINE('',#494,#495);
#494 = CARTESIAN_POINT('',(34.,10.000000000043,2.6));
#495 = VECTOR('',#496,1.);
#496 = DIRECTION('',(0.,1.,0.));
#497 = ORIENTED_EDGE('',*,*,#498,.T.);
#498 = EDGE_CURVE('',#491,#499,#501,.T.);
#499 = VERTEX_POINT('',#500);
#500 = CARTESIAN_POINT('',(34.,55.000000000043,5.4));
#501 = LINE('',#502,#503);
#502 = CARTESIAN_POINT('',(34.,55.000000000043,2.6));
#503 = VECTOR('',#504,1.);
#504 = DIRECTION('',(0.,0.,1.));
#505 = ORIENTED_EDGE('',*,*,#506,.F.);
#506 = EDGE_CURVE('',#507,#499,#509,.T.);
#507 = VERTEX_POINT('',#508);
#508 = CARTESIAN_POINT('',(34.,53.9,5.4));
#509 = LINE('',#510,#511);
#510 = CARTESIAN_POINT('',(34.,10.000000000043,5.4));
#511 = VECTOR('',#512,1.);
#512 = DIRECTION('',(0.,1.,0.));
#513 = ORIENTED_EDGE('',*,*,#514,.F.);
#514 = EDGE_CURVE('',#278,#507,#515,.T.);
#515 = LINE('',#516,#517);
#516 = CARTESIAN_POINT('',(34.,53.9,-165.2750301226));
#517 = VECTOR('',#518,1.);
#518 = DIRECTION('',(-0.,-0.,-1.));
#519 = ORIENTED_EDGE('',*,*,#286,.T.);
#520 = ORIENTED_EDGE('',*,*,#467,.F.);
#521 = ORIENTED_EDGE('',*,*,#522,.T.);
#522 = EDGE_CURVE('',#377,#369,#523,.T.);
#523 = CIRCLE('',#524,1.8);
#524 = AXIS2_PLACEMENT_3D('',#525,#526,#527);
#525 = CARTESIAN_POINT('',(34.,60.,4.));
#526 = DIRECTION('',(1.,0.,-0.));
#527 = DIRECTION('',(0.,0.,1.));
#528 = ORIENTED_EDGE('',*,*,#368,.F.);
#529 = PLANE('',#530);
#530 = AXIS2_PLACEMENT_3D('',#531,#532,#533);
#531 = CARTESIAN_POINT('',(34.,0.,0.));
#532 = DIRECTION('',(-1.,0.,0.));
#533 = DIRECTION('',(0.,1.,0.));
#534 = ADVANCED_FACE('',(#535),#554,.F.);
#535 = FACE_BOUND('',#536,.T.);
#536 = EDGE_LOOP('',(#537,#546,#552,#553));
#537 = ORIENTED_EDGE('',*,*,#538,.F.);
#538 = EDGE_CURVE('',#539,#483,#541,.T.);
#539 = VERTEX_POINT('',#540);
#540 = CARTESIAN_POINT('',(34.,11.1,2.6));
#541 = CIRCLE('',#542,21.4);
#542 = AXIS2_PLACEMENT_3D('',#543,#544,#545);
#543 = CARTESIAN_POINT('',(34.,32.5,2.6));
#544 = DIRECTION('',(0.,0.,-1.));
#545 = DIRECTION('',(1.,0.,0.));
#546 = ORIENTED_EDGE('',*,*,#547,.T.);
#547 = EDGE_CURVE('',#539,#88,#548,.T.);
#548 = LINE('',#549,#550);
#549 = CARTESIAN_POINT('',(34.,11.1,-165.2750301226));
#550 = VECTOR('',#551,1.);
#551 = DIRECTION('',(-0.,-0.,-1.));
#552 = ORIENTED_EDGE('',*,*,#95,.T.);
#553 = ORIENTED_EDGE('',*,*,#482,.F.);
#554 = CYLINDRICAL_SURFACE('',#555,21.4);
#555 = AXIS2_PLACEMENT_3D('',#556,#557,#558);
#556 = CARTESIAN_POINT('',(34.,32.5,-165.2750301226));
#557 = DIRECTION('',(-0.,-0.,-1.));
#558 = DIRECTION('',(1.,0.,0.));
#559 = ADVANCED_FACE('',(#560),#604,.F.);
#560 = FACE_BOUND('',#561,.F.);
#561 = EDGE_LOOP('',(#562,#563,#564,#571,#572,#573,#581,#589,#597,#603)
  );
#562 = ORIENTED_EDGE('',*,*,#87,.F.);
#563 = ORIENTED_EDGE('',*,*,#235,.T.);
#564 = ORIENTED_EDGE('',*,*,#565,.T.);
#565 = EDGE_CURVE('',#145,#137,#566,.T.);
#566 = CIRCLE('',#567,1.8);
#567 = AXIS2_PLACEMENT_3D('',#568,#569,#570);
#568 = CARTESIAN_POINT('',(34.,5.,4.));
#569 = DIRECTION('',(1.,0.,-0.));
#570 = DIRECTION('',(0.,0.,1.));
#571 = ORIENTED_EDGE('',*,*,#136,.T.);
#572 = ORIENTED_EDGE('',*,*,#269,.T.);
#573 = ORIENTED_EDGE('',*,*,#574,.T.);
#574 = EDGE_CURVE('',#270,#575,#577,.T.);
#575 = VERTEX_POINT('',#576);
#576 = CARTESIAN_POINT('',(34.,11.1,5.4));
#577 = LINE('',#578,#579);
#578 = CARTESIAN_POINT('',(34.,11.1,-165.2750301226));
#579 = VECTOR('',#580,1.);
#580 = DIRECTION('',(-0.,-0.,-1.));
#581 = ORIENTED_EDGE('',*,*,#582,.F.);
#582 = EDGE_CURVE('',#583,#575,#585,.T.);
#583 = VERTEX_POINT('',#584);
#584 = CARTESIAN_POINT('',(34.,10.000000000043,5.4));
#585 = LINE('',#586,#587);
#586 = CARTESIAN_POINT('',(34.,10.000000000043,5.4));
#587 = VECTOR('',#588,1.);
#588 = DIRECTION('',(0.,1.,0.));
#589 = ORIENTED_EDGE('',*,*,#590,.F.);
#590 = EDGE_CURVE('',#591,#583,#593,.T.);
#591 = VERTEX_POINT('',#592);
#592 = CARTESIAN_POINT('',(34.,10.000000000043,2.6));
#593 = LINE('',#594,#595);
#594 = CARTESIAN_POINT('',(34.,10.000000000043,2.6));
#595 = VECTOR('',#596,1.);
#596 = DIRECTION('',(0.,0.,1.));
#597 = ORIENTED_EDGE('',*,*,#598,.T.);
#598 = EDGE_CURVE('',#591,#539,#599,.T.);
#599 = LINE('',#600,#601);
#600 = CARTESIAN_POINT('',(34.,10.000000000043,2.6));
#601 = VECTOR('',#602,1.);
#602 = DIRECTION('',(0.,1.,0.));
#603 = ORIENTED_EDGE('',*,*,#547,.T.);
#604 = PLANE('',#605);
#605 = AXIS2_PLACEMENT_3D('',#606,#607,#608);
#606 = CARTESIAN_POINT('',(34.,0.,0.));
#607 = DIRECTION('',(-1.,0.,0.));
#608 = DIRECTION('',(0.,1.,0.));
#609 = ADVANCED_FACE('',(#610),#622,.F.);
#610 = FACE_BOUND('',#611,.T.);
#611 = EDGE_LOOP('',(#612,#613,#619,#620,#621));
#612 = ORIENTED_EDGE('',*,*,#331,.T.);
#613 = ORIENTED_EDGE('',*,*,#614,.T.);
#614 = EDGE_CURVE('',#332,#137,#615,.T.);
#615 = LINE('',#616,#617);
#616 = CARTESIAN_POINT('',(0.,5.,5.8));
#617 = VECTOR('',#618,1.);
#618 = DIRECTION('',(1.,0.,-6.107644781466E-17));
#619 = ORIENTED_EDGE('',*,*,#144,.T.);
#620 = ORIENTED_EDGE('',*,*,#565,.T.);
#621 = ORIENTED_EDGE('',*,*,#614,.F.);
#622 = CYLINDRICAL_SURFACE('',#623,1.8);
#623 = AXIS2_PLACEMENT_3D('',#624,#625,#626);
#624 = CARTESIAN_POINT('',(0.,5.,4.));
#625 = DIRECTION('',(1.,0.,0.));
#626 = DIRECTION('',(0.,0.,1.));
#627 = ADVANCED_FACE('',(#628),#640,.F.);
#628 = FACE_BOUND('',#629,.T.);
#629 = EDGE_LOOP('',(#630,#631,#632,#639));
#630 = ORIENTED_EDGE('',*,*,#277,.F.);
#631 = ORIENTED_EDGE('',*,*,#574,.T.);
#632 = ORIENTED_EDGE('',*,*,#633,.T.);
#633 = EDGE_CURVE('',#575,#507,#634,.T.);
#634 = CIRCLE('',#635,21.4);
#635 = AXIS2_PLACEMENT_3D('',#636,#637,#638);
#636 = CARTESIAN_POINT('',(34.,32.5,5.4));
#637 = DIRECTION('',(0.,0.,-1.));
#638 = DIRECTION('',(1.,0.,0.));
#639 = ORIENTED_EDGE('',*,*,#514,.F.);
#640 = CYLINDRICAL_SURFACE('',#641,21.4);
#641 = AXIS2_PLACEMENT_3D('',#642,#643,#644);
#642 = CARTESIAN_POINT('',(34.,32.5,-165.2750301226));
#643 = DIRECTION('',(-0.,-0.,-1.));
#644 = DIRECTION('',(1.,0.,0.));
#645 = ADVANCED_FACE('',(#646),#658,.F.);
#646 = FACE_BOUND('',#647,.T.);
#647 = EDGE_LOOP('',(#648,#649,#655,#656,#657));
#648 = ORIENTED_EDGE('',*,*,#320,.T.);
#649 = ORIENTED_EDGE('',*,*,#650,.T.);
#650 = EDGE_CURVE('',#321,#377,#651,.T.);
#651 = LINE('',#652,#653);
#652 = CARTESIAN_POINT('',(0.,60.,5.8));
#653 = VECTOR('',#654,1.);
#654 = DIRECTION('',(1.,0.,-6.107644781466E-17));
#655 = ORIENTED_EDGE('',*,*,#522,.T.);
#656 = ORIENTED_EDGE('',*,*,#376,.F.);
#657 = ORIENTED_EDGE('',*,*,#650,.F.);
#658 = CYLINDRICAL_SURFACE('',#659,1.8);
#659 = AXIS2_PLACEMENT_3D('',#660,#661,#662);
#660 = CARTESIAN_POINT('',(0.,60.,4.));
#661 = DIRECTION('',(1.,0.,0.));
#662 = DIRECTION('',(0.,0.,1.));
#663 = ADVANCED_FACE('',(#664),#691,.F.);
#664 = FACE_BOUND('',#665,.F.);
#665 = EDGE_LOOP('',(#666,#667,#675,#683,#689,#690));
#666 = ORIENTED_EDGE('',*,*,#506,.T.);
#667 = ORIENTED_EDGE('',*,*,#668,.T.);
#668 = EDGE_CURVE('',#499,#669,#671,.T.);
#669 = VERTEX_POINT('',#670);
#670 = CARTESIAN_POINT('',(4.,55.000000000043,5.4));
#671 = LINE('',#672,#673);
#672 = CARTESIAN_POINT('',(34.,55.000000000043,5.4));
#673 = VECTOR('',#674,1.);
#674 = DIRECTION('',(-1.,0.,0.));
#675 = ORIENTED_EDGE('',*,*,#676,.T.);
#676 = EDGE_CURVE('',#669,#677,#679,.T.);
#677 = VERTEX_POINT('',#678);
#678 = CARTESIAN_POINT('',(4.,10.000000000043,5.4));
#679 = LINE('',#680,#681);
#680 = CARTESIAN_POINT('',(4.,55.000000000043,5.4));
#681 = VECTOR('',#682,1.);
#682 = DIRECTION('',(0.,-1.,0.));
#683 = ORIENTED_EDGE('',*,*,#684,.T.);
#684 = EDGE_CURVE('',#677,#583,#685,.T.);
#685 = LINE('',#686,#687);
#686 = CARTESIAN_POINT('',(4.,10.000000000043,5.4));
#687 = VECTOR('',#688,1.);
#688 = DIRECTION('',(1.,0.,0.));
#689 = ORIENTED_EDGE('',*,*,#582,.T.);
#690 = ORIENTED_EDGE('',*,*,#633,.T.);
#691 = PLANE('',#692);
#692 = AXIS2_PLACEMENT_3D('',#693,#694,#695);
#693 = CARTESIAN_POINT('',(19.,32.500000000043,5.4));
#694 = DIRECTION('',(0.,0.,1.));
#695 = DIRECTION('',(1.,0.,0.));
#696 = ADVANCED_FACE('',(#697),#715,.T.);
#697 = FACE_BOUND('',#698,.T.);
#698 = EDGE_LOOP('',(#699,#700,#701,#709));
#699 = ORIENTED_EDGE('',*,*,#498,.T.);
#700 = ORIENTED_EDGE('',*,*,#668,.T.);
#701 = ORIENTED_EDGE('',*,*,#702,.F.);
#702 = EDGE_CURVE('',#703,#669,#705,.T.);
#703 = VERTEX_POINT('',#704);
#704 = CARTESIAN_POINT('',(4.,55.000000000043,2.6));
#705 = LINE('',#706,#707);
#706 = CARTESIAN_POINT('',(4.,55.000000000043,2.6));
#707 = VECTOR('',#708,1.);
#708 = DIRECTION('',(0.,0.,1.));
#709 = ORIENTED_EDGE('',*,*,#710,.F.);
#710 = EDGE_CURVE('',#491,#703,#711,.T.);
#711 = LINE('',#712,#713);
#712 = CARTESIAN_POINT('',(34.,55.000000000043,2.6));
#713 = VECTOR('',#714,1.);
#714 = DIRECTION('',(-1.,0.,0.));
#715 = PLANE('',#716);
#716 = AXIS2_PLACEMENT_3D('',#717,#718,#719);
#717 = CARTESIAN_POINT('',(34.,55.000000000043,2.6));
#718 = DIRECTION('',(0.,-1.,0.));
#719 = DIRECTION('',(-1.,0.,0.));
#720 = ADVANCED_FACE('',(#721),#741,.T.);
#721 = FACE_BOUND('',#722,.T.);
#722 = EDGE_LOOP('',(#723,#724,#725,#733,#739,#740));
#723 = ORIENTED_EDGE('',*,*,#490,.T.);
#724 = ORIENTED_EDGE('',*,*,#710,.T.);
#725 = ORIENTED_EDGE('',*,*,#726,.T.);
#726 = EDGE_CURVE('',#703,#727,#729,.T.);
#727 = VERTEX_POINT('',#728);
#728 = CARTESIAN_POINT('',(4.,10.000000000043,2.6));
#729 = LINE('',#730,#731);
#730 = CARTESIAN_POINT('',(4.,55.000000000043,2.6));
#731 = VECTOR('',#732,1.);
#732 = DIRECTION('',(0.,-1.,0.));
#733 = ORIENTED_EDGE('',*,*,#734,.T.);
#734 = EDGE_CURVE('',#727,#591,#735,.T.);
#735 = LINE('',#736,#737);
#736 = CARTESIAN_POINT('',(4.,10.000000000043,2.6));
#737 = VECTOR('',#738,1.);
#738 = DIRECTION('',(1.,0.,0.));
#739 = ORIENTED_EDGE('',*,*,#598,.T.);
#740 = ORIENTED_EDGE('',*,*,#538,.T.);
#741 = PLANE('',#742);
#742 = AXIS2_PLACEMENT_3D('',#743,#744,#745);
#743 = CARTESIAN_POINT('',(19.,32.500000000043,2.6));
#744 = DIRECTION('',(0.,0.,1.));
#745 = DIRECTION('',(1.,0.,0.));
#746 = ADVANCED_FACE('',(#747),#758,.T.);
#747 = FACE_BOUND('',#748,.T.);
#748 = EDGE_LOOP('',(#749,#755,#756,#757));
#749 = ORIENTED_EDGE('',*,*,#750,.T.);
#750 = EDGE_CURVE('',#727,#677,#751,.T.);
#751 = LINE('',#752,#753);
#752 = CARTESIAN_POINT('',(4.,10.000000000043,2.6));
#753 = VECTOR('',#754,1.);
#754 = DIRECTION('',(0.,0.,1.));
#755 = ORIENTED_EDGE('',*,*,#684,.T.);
#756 = ORIENTED_EDGE('',*,*,#590,.F.);
#757 = ORIENTED_EDGE('',*,*,#734,.F.);
#758 = PLANE('',#759);
#759 = AXIS2_PLACEMENT_3D('',#760,#761,#762);
#760 = CARTESIAN_POINT('',(4.,10.000000000043,2.6));
#761 = DIRECTION('',(0.,1.,0.));
#762 = DIRECTION('',(1.,0.,0.));
#763 = ADVANCED_FACE('',(#764),#770,.T.);
#764 = FACE_BOUND('',#765,.T.);
#765 = EDGE_LOOP('',(#766,#767,#768,#769));
#766 = ORIENTED_EDGE('',*,*,#702,.T.);
#767 = ORIENTED_EDGE('',*,*,#676,.T.);
#768 = ORIENTED_EDGE('',*,*,#750,.F.);
#769 = ORIENTED_EDGE('',*,*,#726,.F.);
#770 = PLANE('',#771);
#771 = AXIS2_PLACEMENT_3D('',#772,#773,#774);
#772 = CARTESIAN_POINT('',(4.,55.000000000043,2.6));
#773 = DIRECTION('',(1.,0.,0.));
#774 = DIRECTION('',(0.,-1.,0.));
#775 = ( GEOMETRIC_REPRESENTATION_CONTEXT(3) 
GLOBAL_UNCERTAINTY_ASSIGNED_CONTEXT((#779)) GLOBAL_UNIT_ASSIGNED_CONTEXT
((#776,#777,#778)) REPRESENTATION_CONTEXT('Context #1',
  '3D Context with UNIT and UNCERTAINTY') );
#776 = ( LENGTH_UNIT() NAMED_UNIT(*) SI_UNIT(.MILLI.,.METRE.) );
#777 = ( NAMED_UNIT(*) PLANE_ANGLE_UNIT() SI_UNIT($,.RADIAN.) );
#778 = ( NAMED_UNIT(*) SI_UNIT($,.STERADIAN.) SOLID_ANGLE_UNIT() );
#779 = UNCERTAINTY_MEASURE_WITH_UNIT(LENGTH_MEASURE(1.E-07),#776,
  'distance_accuracy_value','confusion accuracy');
#780 = PRODUCT_RELATED_PRODUCT_CATEGORY('part',$,(#7));
#781 = MECHANICAL_DESIGN_GEOMETRIC_PRESENTATION_REPRESENTATION('',(#782)
  ,#775);
#782 = STYLED_ITEM('color',(#783),#15);
#783 = PRESENTATION_STYLE_ASSIGNMENT((#784,#790));
#784 = SURFACE_STYLE_USAGE(.BOTH.,#785);
#785 = SURFACE_SIDE_STYLE('',(#786));
#786 = SURFACE_STYLE_FILL_AREA(#787);
#787 = FILL_AREA_STYLE('',(#788));
#788 = FILL_AREA_STYLE_COLOUR('',#789);
#789 = COLOUR_RGB('',0.678431390124,0.709803936702,0.741176476869);
#790 = CURVE_STYLE('',#791,POSITIVE_LENGTH_MEASURE(0.1),#792);
#791 = DRAUGHTING_PRE_DEFINED_CURVE_FONT('continuous');
#792 = COLOUR_RGB('',9.803921802644E-02,9.803921802644E-02,
  9.803921802644E-02);
ENDSEC;
END-ISO-10303-21;
