ISO-10303-21;
HEADER;
FILE_DESCRIPTION(('FreeCAD Model'),'2;1');
FILE_NAME('Open CASCADE Shape Model','2026-09-14T18:33:53',(''),(''),
  'Open CASCADE STEP processor 7.8','FreeCAD','Unknown');
FILE_SCHEMA(('AUTOMOTIVE_DESIGN { 1 0 10303 214 1 1 1 1 }'));
ENDSEC;
DATA;
#1 = APPLICATION_PROTOCOL_DEFINITION('international standard',
  'automotive_design',2000,#2);
#2 = APPLICATION_CONTEXT(
  'core data for automotive mechanical design processes');
#3 = SHAPE_DEFINITION_REPRESENTATION(#4,#10);
#4 = PRODUCT_DEFINITION_SHAPE('','',#5);
#5 = PRODUCT_DEFINITION('design','',#6,#9);
#6 = PRODUCT_DEFINITION_FORMATION('','',#7);
#7 = PRODUCT('PlungerClamp','PlungerClamp','',(#8));
#8 = PRODUCT_CONTEXT('',#2,'mechanical');
#9 = PRODUCT_DEFINITION_CONTEXT('part definition',#2,'design');
#10 = ADVANCED_BREP_SHAPE_REPRESENTATION('',(#11,#15),#791);
#11 = AXIS2_PLACEMENT_3D('',#12,#13,#14);
#12 = CARTESIAN_POINT('',(0.,0.,0.));
#13 = DIRECTION('',(0.,0.,1.));
#14 = DIRECTION('',(1.,0.,-0.));
#15 = MANIFOLD_SOLID_BREP('',#16);
#16 = CLOSED_SHELL('',(#17,#57,#248,#273,#298,#473,#490,#507,#524,#541,
    #558,#575,#592,#609,#626,#643,#660,#677,#694,#711,#728,#745,#757,
    #774));
#17 = ADVANCED_FACE('',(#18),#52,.F.);
#18 = FACE_BOUND('',#19,.F.);
#19 = EDGE_LOOP('',(#20,#30,#38,#46));
#20 = ORIENTED_EDGE('',*,*,#21,.F.);
#21 = EDGE_CURVE('',#22,#24,#26,.T.);
#22 = VERTEX_POINT('',#23);
#23 = CARTESIAN_POINT('',(-1.060658554228,19.445435096157,0.));
#24 = VERTEX_POINT('',#25);
#25 = CARTESIAN_POINT('',(-18.33960039313,2.166498903916,0.));
#26 = LINE('',#27,#28);
#27 = CARTESIAN_POINT('',(-0.353551773041,20.152541646265,0.));
#28 = VECTOR('',#29,1.);
#29 = DIRECTION('',(-0.707106896726,-0.707106665647,0.));
#30 = ORIENTED_EDGE('',*,*,#31,.T.);
#31 = EDGE_CURVE('',#22,#32,#34,.T.);
#32 = VERTEX_POINT('',#33);
#33 = CARTESIAN_POINT('',(-1.060658554228,19.445435096157,-7.));
#34 = LINE('',#35,#36);
#35 = CARTESIAN_POINT('',(-1.060658554228,19.445435096157,0.));
#36 = VECTOR('',#37,1.);
#37 = DIRECTION('',(0.,0.,-1.));
#38 = ORIENTED_EDGE('',*,*,#39,.T.);
#39 = EDGE_CURVE('',#32,#40,#42,.T.);
#40 = VERTEX_POINT('',#41);
#41 = CARTESIAN_POINT('',(-18.33960039313,2.166498903916,-7.));
#42 = LINE('',#43,#44);
#43 = CARTESIAN_POINT('',(-0.353551773041,20.152541646265,-7.));
#44 = VECTOR('',#45,1.);
#45 = DIRECTION('',(-0.707106896726,-0.707106665647,0.));
#46 = ORIENTED_EDGE('',*,*,#47,.F.);
#47 = EDGE_CURVE('',#24,#40,#48,.T.);
#48 = LINE('',#49,#50);
#49 = CARTESIAN_POINT('',(-18.33960039313,2.166498903916,0.));
#50 = VECTOR('',#51,1.);
#51 = DIRECTION('',(0.,0.,-1.));
#52 = PLANE('',#53);
#53 = AXIS2_PLACEMENT_3D('',#54,#55,#56);
#54 = CARTESIAN_POINT('',(-0.353551773041,20.152541646265,0.));
#55 = DIRECTION('',(-0.707106665647,0.707106896726,0.));
#56 = DIRECTION('',(-0.707106896726,-0.707106665647,0.));
#57 = ADVANCED_FACE('',(#58,#221,#232),#243,.T.);
#58 = FACE_BOUND('',#59,.T.);
#59 = EDGE_LOOP('',(#60,#61,#70,#78,#87,#95,#104,#112,#121,#129,#138,
    #146,#155,#163,#172,#180,#189,#197,#206,#214));
#60 = ORIENTED_EDGE('',*,*,#21,.F.);
#61 = ORIENTED_EDGE('',*,*,#62,.T.);
#62 = EDGE_CURVE('',#22,#63,#65,.T.);
#63 = VERTEX_POINT('',#64);
#64 = CARTESIAN_POINT('',(0.353554892606,19.445434980617,0.));
#65 = CIRCLE('',#66,1.);
#66 = AXIS2_PLACEMENT_3D('',#67,#68,#69);
#67 = CARTESIAN_POINT('',(-0.353551888581,18.738328199431,0.));
#68 = DIRECTION('',(0.,0.,-1.));
#69 = DIRECTION('',(0.,1.,0.));
#70 = ORIENTED_EDGE('',*,*,#71,.F.);
#71 = EDGE_CURVE('',#72,#63,#74,.T.);
#72 = VERTEX_POINT('',#73);
#73 = CARTESIAN_POINT('',(19.44543648263,0.353553390593,0.));
#74 = LINE('',#75,#76);
#75 = CARTESIAN_POINT('',(20.152543263817,-0.353553390593,0.));
#76 = VECTOR('',#77,1.);
#77 = DIRECTION('',(-0.707106781187,0.707106781187,0.));
#78 = ORIENTED_EDGE('',*,*,#79,.T.);
#79 = EDGE_CURVE('',#72,#80,#82,.T.);
#80 = VERTEX_POINT('',#81);
#81 = CARTESIAN_POINT('',(19.44543648263,-1.06066017178,0.));
#82 = CIRCLE('',#83,1.);
#83 = AXIS2_PLACEMENT_3D('',#84,#85,#86);
#84 = CARTESIAN_POINT('',(18.738329701444,-0.353553390593,0.));
#85 = DIRECTION('',(0.,0.,-1.));
#86 = DIRECTION('',(0.,1.,0.));
#87 = ORIENTED_EDGE('',*,*,#88,.T.);
#88 = EDGE_CURVE('',#80,#89,#91,.T.);
#89 = VERTEX_POINT('',#90);
#90 = CARTESIAN_POINT('',(2.166499832202,-18.3395968222,0.));
#91 = LINE('',#92,#93);
#92 = CARTESIAN_POINT('',(20.152543263817,-0.353553390593,0.));
#93 = VECTOR('',#94,1.);
#94 = DIRECTION('',(-0.707106781187,-0.707106781187,0.));
#95 = ORIENTED_EDGE('',*,*,#96,.F.);
#96 = EDGE_CURVE('',#97,#89,#99,.T.);
#97 = VERTEX_POINT('',#98);
#98 = CARTESIAN_POINT('',(3.777744413119,-24.97833451894,0.));
#99 = CIRCLE('',#100,4.);
#100 = AXIS2_PLACEMENT_3D('',#101,#102,#103);
#101 = CARTESIAN_POINT('',(4.994926956948,-21.16802394695,0.));
#102 = DIRECTION('',(0.,0.,-1.));
#103 = DIRECTION('',(0.,1.,0.));
#104 = ORIENTED_EDGE('',*,*,#105,.T.);
#105 = EDGE_CURVE('',#97,#106,#108,.T.);
#106 = VERTEX_POINT('',#107);
#107 = CARTESIAN_POINT('',(20.658988410288,-30.37095412914,0.));
#108 = LINE('',#109,#110);
#109 = CARTESIAN_POINT('',(-2.474873734153,-22.98097038856,0.));
#110 = VECTOR('',#111,1.);
#111 = DIRECTION('',(0.952577642997,-0.304295635957,-0.));
#112 = ORIENTED_EDGE('',*,*,#113,.F.);
#113 = EDGE_CURVE('',#114,#106,#116,.T.);
#114 = VERTEX_POINT('',#115);
#115 = CARTESIAN_POINT('',(24.704598078864,-29.3890706819,0.));
#116 = CIRCLE('',#117,4.);
#117 = AXIS2_PLACEMENT_3D('',#118,#119,#120);
#118 = CARTESIAN_POINT('',(21.876170954118,-26.56064355716,0.));
#119 = DIRECTION('',(0.,0.,-1.));
#120 = DIRECTION('',(0.,1.,0.));
#121 = ORIENTED_EDGE('',*,*,#122,.T.);
#122 = EDGE_CURVE('',#114,#123,#125,.T.);
#123 = VERTEX_POINT('',#124);
#124 = CARTESIAN_POINT('',(29.941125496954,-24.15254326381,0.));
#125 = LINE('',#126,#127);
#126 = CARTESIAN_POINT('',(22.980970388563,-31.1126983722,0.));
#127 = VECTOR('',#128,1.);
#128 = DIRECTION('',(0.707106781187,0.707106781187,0.));
#129 = ORIENTED_EDGE('',*,*,#130,.F.);
#130 = EDGE_CURVE('',#131,#123,#133,.T.);
#131 = VERTEX_POINT('',#132);
#132 = CARTESIAN_POINT('',(31.112698372208,-21.32411613907,0.));
#133 = CIRCLE('',#134,4.);
#134 = AXIS2_PLACEMENT_3D('',#135,#136,#137);
#135 = CARTESIAN_POINT('',(27.112698372208,-21.32411613907,0.));
#136 = DIRECTION('',(0.,0.,-1.));
#137 = DIRECTION('',(0.,1.,0.));
#138 = ORIENTED_EDGE('',*,*,#139,.T.);
#139 = EDGE_CURVE('',#131,#140,#142,.T.);
#140 = VERTEX_POINT('',#141);
#141 = CARTESIAN_POINT('',(31.112698372208,-1.656854249492,0.));
#142 = LINE('',#143,#144);
#143 = CARTESIAN_POINT('',(31.112698372208,-22.98097038856,0.));
#144 = VECTOR('',#145,1.);
#145 = DIRECTION('',(0.,1.,0.));
#146 = ORIENTED_EDGE('',*,*,#147,.F.);
#147 = EDGE_CURVE('',#148,#140,#150,.T.);
#148 = VERTEX_POINT('',#149);
#149 = CARTESIAN_POINT('',(29.941125496954,1.171572875254,0.));
#150 = CIRCLE('',#151,4.);
#151 = AXIS2_PLACEMENT_3D('',#152,#153,#154);
#152 = CARTESIAN_POINT('',(27.112698372208,-1.656854249492,0.));
#153 = DIRECTION('',(0.,0.,-1.));
#154 = DIRECTION('',(0.,1.,0.));
#155 = ORIENTED_EDGE('',*,*,#156,.T.);
#156 = EDGE_CURVE('',#148,#157,#159,.T.);
#157 = VERTEX_POINT('',#158);
#158 = CARTESIAN_POINT('',(1.171572875254,29.941125496954,0.));
#159 = LINE('',#160,#161);
#160 = CARTESIAN_POINT('',(31.112698372208,0.,0.));
#161 = VECTOR('',#162,1.);
#162 = DIRECTION('',(-0.707106781187,0.707106781187,0.));
#163 = ORIENTED_EDGE('',*,*,#164,.F.);
#164 = EDGE_CURVE('',#165,#157,#167,.T.);
#165 = VERTEX_POINT('',#166);
#166 = CARTESIAN_POINT('',(-1.656854249492,31.112698372208,0.));
#167 = CIRCLE('',#168,4.);
#168 = AXIS2_PLACEMENT_3D('',#169,#170,#171);
#169 = CARTESIAN_POINT('',(-1.656854249492,27.112698372208,0.));
#170 = DIRECTION('',(0.,0.,-1.));
#171 = DIRECTION('',(0.,1.,0.));
#172 = ORIENTED_EDGE('',*,*,#173,.T.);
#173 = EDGE_CURVE('',#165,#174,#176,.T.);
#174 = VERTEX_POINT('',#175);
#175 = CARTESIAN_POINT('',(-21.3240882286,31.112698372208,0.));
#176 = LINE('',#177,#178);
#177 = CARTESIAN_POINT('',(3.552713678801E-15,31.112698372208,0.));
#178 = VECTOR('',#179,1.);
#179 = DIRECTION('',(-1.,0.,0.));
#180 = ORIENTED_EDGE('',*,*,#181,.F.);
#181 = EDGE_CURVE('',#182,#174,#184,.T.);
#182 = VERTEX_POINT('',#183);
#183 = CARTESIAN_POINT('',(-24.15251535334,29.941125496954,0.));
#184 = CIRCLE('',#185,4.);
#185 = AXIS2_PLACEMENT_3D('',#186,#187,#188);
#186 = CARTESIAN_POINT('',(-21.3240882286,27.112698372208,0.));
#187 = DIRECTION('',(0.,0.,-1.));
#188 = DIRECTION('',(0.,1.,0.));
#189 = ORIENTED_EDGE('',*,*,#190,.T.);
#190 = EDGE_CURVE('',#182,#191,#193,.T.);
#191 = VERTEX_POINT('',#192);
#192 = CARTESIAN_POINT('',(-29.38907016338,24.704570686919,0.));
#193 = LINE('',#194,#195);
#194 = CARTESIAN_POINT('',(-22.98094247809,31.112698372208,0.));
#195 = VECTOR('',#196,1.);
#196 = DIRECTION('',(-0.707106781187,-0.707106781187,0.));
#197 = ORIENTED_EDGE('',*,*,#198,.F.);
#198 = EDGE_CURVE('',#199,#191,#201,.T.);
#199 = VERTEX_POINT('',#200);
#200 = CARTESIAN_POINT('',(-30.37095328519,20.658959999603,0.));
#201 = CIRCLE('',#202,4.);
#202 = AXIS2_PLACEMENT_3D('',#203,#204,#205);
#203 = CARTESIAN_POINT('',(-26.56064303863,21.876143562173,0.));
#204 = DIRECTION('',(0.,0.,-1.));
#205 = DIRECTION('',(0.,1.,0.));
#206 = ORIENTED_EDGE('',*,*,#207,.T.);
#207 = EDGE_CURVE('',#199,#208,#210,.T.);
#208 = VERTEX_POINT('',#209);
#209 = CARTESIAN_POINT('',(-24.97833730228,3.77774292825,0.));
#210 = LINE('',#211,#212);
#211 = CARTESIAN_POINT('',(-31.1126983722,22.980942478092,0.));
#212 = VECTOR('',#213,1.);
#213 = DIRECTION('',(0.304295890642,-0.952577561639,-0.));
#214 = ORIENTED_EDGE('',*,*,#215,.F.);
#215 = EDGE_CURVE('',#24,#208,#216,.T.);
#216 = CIRCLE('',#217,4.);
#217 = AXIS2_PLACEMENT_3D('',#218,#219,#220);
#218 = CARTESIAN_POINT('',(-21.16802705572,4.99492649082,0.));
#219 = DIRECTION('',(0.,0.,-1.));
#220 = DIRECTION('',(0.,1.,0.));
#221 = FACE_BOUND('',#222,.T.);
#222 = EDGE_LOOP('',(#223));
#223 = ORIENTED_EDGE('',*,*,#224,.F.);
#224 = EDGE_CURVE('',#225,#225,#227,.T.);
#225 = VERTEX_POINT('',#226);
#226 = CARTESIAN_POINT('',(24.780974143594,-22.98096663353,0.));
#227 = CIRCLE('',#228,1.8);
#228 = AXIS2_PLACEMENT_3D('',#229,#230,#231);
#229 = CARTESIAN_POINT('',(22.980974143594,-22.98096663353,0.));
#230 = DIRECTION('',(0.,0.,1.));
#231 = DIRECTION('',(1.,0.,0.));
#232 = FACE_BOUND('',#233,.T.);
#233 = EDGE_LOOP('',(#234));
#234 = ORIENTED_EDGE('',*,*,#235,.F.);
#235 = EDGE_CURVE('',#236,#236,#238,.T.);
#236 = VERTEX_POINT('',#237);
#237 = CARTESIAN_POINT('',(-21.18097414359,22.980966633531,0.));
#238 = CIRCLE('',#239,1.8);
#239 = AXIS2_PLACEMENT_3D('',#240,#241,#242);
#240 = CARTESIAN_POINT('',(-22.98097414359,22.980966633531,0.));
#241 = DIRECTION('',(0.,0.,1.));
#242 = DIRECTION('',(1.,0.,0.));
#243 = PLANE('',#244);
#244 = AXIS2_PLACEMENT_3D('',#245,#246,#247);
#245 = CARTESIAN_POINT('',(3.404714559459,3.404710186976,0.));
#246 = DIRECTION('',(0.,0.,1.));
#247 = DIRECTION('',(1.,0.,0.));
#248 = ADVANCED_FACE('',(#249),#268,.F.);
#249 = FACE_BOUND('',#250,.F.);
#250 = EDGE_LOOP('',(#251,#252,#260,#267));
#251 = ORIENTED_EDGE('',*,*,#62,.T.);
#252 = ORIENTED_EDGE('',*,*,#253,.T.);
#253 = EDGE_CURVE('',#63,#254,#256,.T.);
#254 = VERTEX_POINT('',#255);
#255 = CARTESIAN_POINT('',(0.353554892606,19.445434980617,-7.));
#256 = LINE('',#257,#258);
#257 = CARTESIAN_POINT('',(0.353554892606,19.445434980617,0.));
#258 = VECTOR('',#259,1.);
#259 = DIRECTION('',(0.,0.,-1.));
#260 = ORIENTED_EDGE('',*,*,#261,.F.);
#261 = EDGE_CURVE('',#32,#254,#262,.T.);
#262 = CIRCLE('',#263,1.);
#263 = AXIS2_PLACEMENT_3D('',#264,#265,#266);
#264 = CARTESIAN_POINT('',(-0.353551888581,18.738328199431,-7.));
#265 = DIRECTION('',(0.,0.,-1.));
#266 = DIRECTION('',(0.,1.,0.));
#267 = ORIENTED_EDGE('',*,*,#31,.F.);
#268 = CYLINDRICAL_SURFACE('',#269,1.);
#269 = AXIS2_PLACEMENT_3D('',#270,#271,#272);
#270 = CARTESIAN_POINT('',(-0.353551888581,18.738328199431,0.));
#271 = DIRECTION('',(0.,0.,-1.));
#272 = DIRECTION('',(-0.707106665647,0.707106896726,0.));
#273 = ADVANCED_FACE('',(#274),#293,.T.);
#274 = FACE_BOUND('',#275,.T.);
#275 = EDGE_LOOP('',(#276,#277,#285,#292));
#276 = ORIENTED_EDGE('',*,*,#215,.T.);
#277 = ORIENTED_EDGE('',*,*,#278,.T.);
#278 = EDGE_CURVE('',#208,#279,#281,.T.);
#279 = VERTEX_POINT('',#280);
#280 = CARTESIAN_POINT('',(-24.97833730228,3.77774292825,-7.));
#281 = LINE('',#282,#283);
#282 = CARTESIAN_POINT('',(-24.97833730228,3.77774292825,0.));
#283 = VECTOR('',#284,1.);
#284 = DIRECTION('',(0.,0.,-1.));
#285 = ORIENTED_EDGE('',*,*,#286,.F.);
#286 = EDGE_CURVE('',#40,#279,#287,.T.);
#287 = CIRCLE('',#288,4.);
#288 = AXIS2_PLACEMENT_3D('',#289,#290,#291);
#289 = CARTESIAN_POINT('',(-21.16802705572,4.99492649082,-7.));
#290 = DIRECTION('',(0.,0.,-1.));
#291 = DIRECTION('',(0.,1.,0.));
#292 = ORIENTED_EDGE('',*,*,#47,.F.);
#293 = CYLINDRICAL_SURFACE('',#294,4.);
#294 = AXIS2_PLACEMENT_3D('',#295,#296,#297);
#295 = CARTESIAN_POINT('',(-21.16802705572,4.99492649082,0.));
#296 = DIRECTION('',(0.,0.,-1.));
#297 = DIRECTION('',(0.707106665647,-0.707106896726,0.));
#298 = ADVANCED_FACE('',(#299,#446,#457),#468,.F.);
#299 = FACE_BOUND('',#300,.F.);
#300 = EDGE_LOOP('',(#301,#302,#303,#311,#320,#328,#337,#345,#354,#362,
    #371,#379,#388,#396,#405,#413,#422,#430,#439,#445));
#301 = ORIENTED_EDGE('',*,*,#39,.F.);
#302 = ORIENTED_EDGE('',*,*,#261,.T.);
#303 = ORIENTED_EDGE('',*,*,#304,.F.);
#304 = EDGE_CURVE('',#305,#254,#307,.T.);
#305 = VERTEX_POINT('',#306);
#306 = CARTESIAN_POINT('',(19.44543648263,0.353553390593,-7.));
#307 = LINE('',#308,#309);
#308 = CARTESIAN_POINT('',(20.152543263817,-0.353553390593,-7.));
#309 = VECTOR('',#310,1.);
#310 = DIRECTION('',(-0.707106781187,0.707106781187,0.));
#311 = ORIENTED_EDGE('',*,*,#312,.T.);
#312 = EDGE_CURVE('',#305,#313,#315,.T.);
#313 = VERTEX_POINT('',#314);
#314 = CARTESIAN_POINT('',(19.44543648263,-1.06066017178,-7.));
#315 = CIRCLE('',#316,1.);
#316 = AXIS2_PLACEMENT_3D('',#317,#318,#319);
#317 = CARTESIAN_POINT('',(18.738329701444,-0.353553390593,-7.));
#318 = DIRECTION('',(0.,0.,-1.));
#319 = DIRECTION('',(0.,1.,0.));
#320 = ORIENTED_EDGE('',*,*,#321,.T.);
#321 = EDGE_CURVE('',#313,#322,#324,.T.);
#322 = VERTEX_POINT('',#323);
#323 = CARTESIAN_POINT('',(2.166499832202,-18.3395968222,-7.));
#324 = LINE('',#325,#326);
#325 = CARTESIAN_POINT('',(20.152543263817,-0.353553390593,-7.));
#326 = VECTOR('',#327,1.);
#327 = DIRECTION('',(-0.707106781187,-0.707106781187,0.));
#328 = ORIENTED_EDGE('',*,*,#329,.F.);
#329 = EDGE_CURVE('',#330,#322,#332,.T.);
#330 = VERTEX_POINT('',#331);
#331 = CARTESIAN_POINT('',(3.777744413119,-24.97833451894,-7.));
#332 = CIRCLE('',#333,4.);
#333 = AXIS2_PLACEMENT_3D('',#334,#335,#336);
#334 = CARTESIAN_POINT('',(4.994926956948,-21.16802394695,-7.));
#335 = DIRECTION('',(0.,0.,-1.));
#336 = DIRECTION('',(0.,1.,0.));
#337 = ORIENTED_EDGE('',*,*,#338,.T.);
#338 = EDGE_CURVE('',#330,#339,#341,.T.);
#339 = VERTEX_POINT('',#340);
#340 = CARTESIAN_POINT('',(20.658988410288,-30.37095412914,-7.));
#341 = LINE('',#342,#343);
#342 = CARTESIAN_POINT('',(-2.474873734153,-22.98097038856,-7.));
#343 = VECTOR('',#344,1.);
#344 = DIRECTION('',(0.952577642997,-0.304295635957,-0.));
#345 = ORIENTED_EDGE('',*,*,#346,.F.);
#346 = EDGE_CURVE('',#347,#339,#349,.T.);
#347 = VERTEX_POINT('',#348);
#348 = CARTESIAN_POINT('',(24.704598078864,-29.3890706819,-7.));
#349 = CIRCLE('',#350,4.);
#350 = AXIS2_PLACEMENT_3D('',#351,#352,#353);
#351 = CARTESIAN_POINT('',(21.876170954118,-26.56064355716,-7.));
#352 = DIRECTION('',(0.,0.,-1.));
#353 = DIRECTION('',(0.,1.,0.));
#354 = ORIENTED_EDGE('',*,*,#355,.T.);
#355 = EDGE_CURVE('',#347,#356,#358,.T.);
#356 = VERTEX_POINT('',#357);
#357 = CARTESIAN_POINT('',(29.941125496954,-24.15254326381,-7.));
#358 = LINE('',#359,#360);
#359 = CARTESIAN_POINT('',(22.980970388563,-31.1126983722,-7.));
#360 = VECTOR('',#361,1.);
#361 = DIRECTION('',(0.707106781187,0.707106781187,0.));
#362 = ORIENTED_EDGE('',*,*,#363,.F.);
#363 = EDGE_CURVE('',#364,#356,#366,.T.);
#364 = VERTEX_POINT('',#365);
#365 = CARTESIAN_POINT('',(31.112698372208,-21.32411613907,-7.));
#366 = CIRCLE('',#367,4.);
#367 = AXIS2_PLACEMENT_3D('',#368,#369,#370);
#368 = CARTESIAN_POINT('',(27.112698372208,-21.32411613907,-7.));
#369 = DIRECTION('',(0.,0.,-1.));
#370 = DIRECTION('',(0.,1.,0.));
#371 = ORIENTED_EDGE('',*,*,#372,.T.);
#372 = EDGE_CURVE('',#364,#373,#375,.T.);
#373 = VERTEX_POINT('',#374);
#374 = CARTESIAN_POINT('',(31.112698372208,-1.656854249492,-7.));
#375 = LINE('',#376,#377);
#376 = CARTESIAN_POINT('',(31.112698372208,-22.98097038856,-7.));
#377 = VECTOR('',#378,1.);
#378 = DIRECTION('',(0.,1.,0.));
#379 = ORIENTED_EDGE('',*,*,#380,.F.);
#380 = EDGE_CURVE('',#381,#373,#383,.T.);
#381 = VERTEX_POINT('',#382);
#382 = CARTESIAN_POINT('',(29.941125496954,1.171572875254,-7.));
#383 = CIRCLE('',#384,4.);
#384 = AXIS2_PLACEMENT_3D('',#385,#386,#387);
#385 = CARTESIAN_POINT('',(27.112698372208,-1.656854249492,-7.));
#386 = DIRECTION('',(0.,0.,-1.));
#387 = DIRECTION('',(0.,1.,0.));
#388 = ORIENTED_EDGE('',*,*,#389,.T.);
#389 = EDGE_CURVE('',#381,#390,#392,.T.);
#390 = VERTEX_POINT('',#391);
#391 = CARTESIAN_POINT('',(1.171572875254,29.941125496954,-7.));
#392 = LINE('',#393,#394);
#393 = CARTESIAN_POINT('',(31.112698372208,0.,-7.));
#394 = VECTOR('',#395,1.);
#395 = DIRECTION('',(-0.707106781187,0.707106781187,0.));
#396 = ORIENTED_EDGE('',*,*,#397,.F.);
#397 = EDGE_CURVE('',#398,#390,#400,.T.);
#398 = VERTEX_POINT('',#399);
#399 = CARTESIAN_POINT('',(-1.656854249492,31.112698372208,-7.));
#400 = CIRCLE('',#401,4.);
#401 = AXIS2_PLACEMENT_3D('',#402,#403,#404);
#402 = CARTESIAN_POINT('',(-1.656854249492,27.112698372208,-7.));
#403 = DIRECTION('',(0.,0.,-1.));
#404 = DIRECTION('',(0.,1.,0.));
#405 = ORIENTED_EDGE('',*,*,#406,.T.);
#406 = EDGE_CURVE('',#398,#407,#409,.T.);
#407 = VERTEX_POINT('',#408);
#408 = CARTESIAN_POINT('',(-21.3240882286,31.112698372208,-7.));
#409 = LINE('',#410,#411);
#410 = CARTESIAN_POINT('',(3.552713678801E-15,31.112698372208,-7.));
#411 = VECTOR('',#412,1.);
#412 = DIRECTION('',(-1.,0.,0.));
#413 = ORIENTED_EDGE('',*,*,#414,.F.);
#414 = EDGE_CURVE('',#415,#407,#417,.T.);
#415 = VERTEX_POINT('',#416);
#416 = CARTESIAN_POINT('',(-24.15251535334,29.941125496954,-7.));
#417 = CIRCLE('',#418,4.);
#418 = AXIS2_PLACEMENT_3D('',#419,#420,#421);
#419 = CARTESIAN_POINT('',(-21.3240882286,27.112698372208,-7.));
#420 = DIRECTION('',(0.,0.,-1.));
#421 = DIRECTION('',(0.,1.,0.));
#422 = ORIENTED_EDGE('',*,*,#423,.T.);
#423 = EDGE_CURVE('',#415,#424,#426,.T.);
#424 = VERTEX_POINT('',#425);
#425 = CARTESIAN_POINT('',(-29.38907016338,24.704570686919,-7.));
#426 = LINE('',#427,#428);
#427 = CARTESIAN_POINT('',(-22.98094247809,31.112698372208,-7.));
#428 = VECTOR('',#429,1.);
#429 = DIRECTION('',(-0.707106781187,-0.707106781187,0.));
#430 = ORIENTED_EDGE('',*,*,#431,.F.);
#431 = EDGE_CURVE('',#432,#424,#434,.T.);
#432 = VERTEX_POINT('',#433);
#433 = CARTESIAN_POINT('',(-30.37095328519,20.658959999603,-7.));
#434 = CIRCLE('',#435,4.);
#435 = AXIS2_PLACEMENT_3D('',#436,#437,#438);
#436 = CARTESIAN_POINT('',(-26.56064303863,21.876143562173,-7.));
#437 = DIRECTION('',(0.,0.,-1.));
#438 = DIRECTION('',(0.,1.,0.));
#439 = ORIENTED_EDGE('',*,*,#440,.T.);
#440 = EDGE_CURVE('',#432,#279,#441,.T.);
#441 = LINE('',#442,#443);
#442 = CARTESIAN_POINT('',(-31.1126983722,22.980942478092,-7.));
#443 = VECTOR('',#444,1.);
#444 = DIRECTION('',(0.304295890642,-0.952577561639,-0.));
#445 = ORIENTED_EDGE('',*,*,#286,.F.);
#446 = FACE_BOUND('',#447,.F.);
#447 = EDGE_LOOP('',(#448));
#448 = ORIENTED_EDGE('',*,*,#449,.T.);
#449 = EDGE_CURVE('',#450,#450,#452,.T.);
#450 = VERTEX_POINT('',#451);
#451 = CARTESIAN_POINT('',(24.780974143594,-22.98096663353,-7.));
#452 = CIRCLE('',#453,1.8);
#453 = AXIS2_PLACEMENT_3D('',#454,#455,#456);
#454 = CARTESIAN_POINT('',(22.980974143594,-22.98096663353,-7.));
#455 = DIRECTION('',(0.,0.,-1.));
#456 = DIRECTION('',(1.,0.,0.));
#457 = FACE_BOUND('',#458,.F.);
#458 = EDGE_LOOP('',(#459));
#459 = ORIENTED_EDGE('',*,*,#460,.T.);
#460 = EDGE_CURVE('',#461,#461,#463,.T.);
#461 = VERTEX_POINT('',#462);
#462 = CARTESIAN_POINT('',(-21.18097414359,22.980966633531,-7.));
#463 = CIRCLE('',#464,1.8);
#464 = AXIS2_PLACEMENT_3D('',#465,#466,#467);
#465 = CARTESIAN_POINT('',(-22.98097414359,22.980966633531,-7.));
#466 = DIRECTION('',(0.,0.,-1.));
#467 = DIRECTION('',(1.,0.,0.));
#468 = PLANE('',#469);
#469 = AXIS2_PLACEMENT_3D('',#470,#471,#472);
#470 = CARTESIAN_POINT('',(3.404714559459,3.404710186976,-7.));
#471 = DIRECTION('',(0.,0.,1.));
#472 = DIRECTION('',(1.,0.,0.));
#473 = ADVANCED_FACE('',(#474),#485,.F.);
#474 = FACE_BOUND('',#475,.F.);
#475 = EDGE_LOOP('',(#476,#477,#483,#484));
#476 = ORIENTED_EDGE('',*,*,#71,.F.);
#477 = ORIENTED_EDGE('',*,*,#478,.T.);
#478 = EDGE_CURVE('',#72,#305,#479,.T.);
#479 = LINE('',#480,#481);
#480 = CARTESIAN_POINT('',(19.44543648263,0.353553390593,0.));
#481 = VECTOR('',#482,1.);
#482 = DIRECTION('',(0.,0.,-1.));
#483 = ORIENTED_EDGE('',*,*,#304,.T.);
#484 = ORIENTED_EDGE('',*,*,#253,.F.);
#485 = PLANE('',#486);
#486 = AXIS2_PLACEMENT_3D('',#487,#488,#489);
#487 = CARTESIAN_POINT('',(20.152543263817,-0.353553390593,0.));
#488 = DIRECTION('',(0.707106781187,0.707106781187,0.));
#489 = DIRECTION('',(-0.707106781187,0.707106781187,0.));
#490 = ADVANCED_FACE('',(#491),#502,.T.);
#491 = FACE_BOUND('',#492,.T.);
#492 = EDGE_LOOP('',(#493,#494,#500,#501));
#493 = ORIENTED_EDGE('',*,*,#207,.F.);
#494 = ORIENTED_EDGE('',*,*,#495,.T.);
#495 = EDGE_CURVE('',#199,#432,#496,.T.);
#496 = LINE('',#497,#498);
#497 = CARTESIAN_POINT('',(-30.37095328519,20.658959999603,0.));
#498 = VECTOR('',#499,1.);
#499 = DIRECTION('',(0.,0.,-1.));
#500 = ORIENTED_EDGE('',*,*,#440,.T.);
#501 = ORIENTED_EDGE('',*,*,#278,.F.);
#502 = PLANE('',#503);
#503 = AXIS2_PLACEMENT_3D('',#504,#505,#506);
#504 = CARTESIAN_POINT('',(-31.1126983722,22.980942478092,0.));
#505 = DIRECTION('',(-0.952577561639,-0.304295890642,-0.));
#506 = DIRECTION('',(0.304295890642,-0.952577561639,0.));
#507 = ADVANCED_FACE('',(#508),#519,.F.);
#508 = FACE_BOUND('',#509,.F.);
#509 = EDGE_LOOP('',(#510,#511,#517,#518));
#510 = ORIENTED_EDGE('',*,*,#79,.T.);
#511 = ORIENTED_EDGE('',*,*,#512,.T.);
#512 = EDGE_CURVE('',#80,#313,#513,.T.);
#513 = LINE('',#514,#515);
#514 = CARTESIAN_POINT('',(19.44543648263,-1.06066017178,0.));
#515 = VECTOR('',#516,1.);
#516 = DIRECTION('',(0.,0.,-1.));
#517 = ORIENTED_EDGE('',*,*,#312,.F.);
#518 = ORIENTED_EDGE('',*,*,#478,.F.);
#519 = CYLINDRICAL_SURFACE('',#520,1.);
#520 = AXIS2_PLACEMENT_3D('',#521,#522,#523);
#521 = CARTESIAN_POINT('',(18.738329701444,-0.353553390593,0.));
#522 = DIRECTION('',(0.,0.,-1.));
#523 = DIRECTION('',(0.707106781187,0.707106781187,0.));
#524 = ADVANCED_FACE('',(#525),#536,.T.);
#525 = FACE_BOUND('',#526,.T.);
#526 = EDGE_LOOP('',(#527,#528,#534,#535));
#527 = ORIENTED_EDGE('',*,*,#198,.T.);
#528 = ORIENTED_EDGE('',*,*,#529,.T.);
#529 = EDGE_CURVE('',#191,#424,#530,.T.);
#530 = LINE('',#531,#532);
#531 = CARTESIAN_POINT('',(-29.38907016338,24.704570686919,0.));
#532 = VECTOR('',#533,1.);
#533 = DIRECTION('',(0.,0.,-1.));
#534 = ORIENTED_EDGE('',*,*,#431,.F.);
#535 = ORIENTED_EDGE('',*,*,#495,.F.);
#536 = CYLINDRICAL_SURFACE('',#537,4.);
#537 = AXIS2_PLACEMENT_3D('',#538,#539,#540);
#538 = CARTESIAN_POINT('',(-26.56064303863,21.876143562173,0.));
#539 = DIRECTION('',(0.,0.,-1.));
#540 = DIRECTION('',(-0.952577561639,-0.304295890642,-0.));
#541 = ADVANCED_FACE('',(#542),#553,.T.);
#542 = FACE_BOUND('',#543,.T.);
#543 = EDGE_LOOP('',(#544,#545,#546,#547));
#544 = ORIENTED_EDGE('',*,*,#88,.F.);
#545 = ORIENTED_EDGE('',*,*,#512,.T.);
#546 = ORIENTED_EDGE('',*,*,#321,.T.);
#547 = ORIENTED_EDGE('',*,*,#548,.F.);
#548 = EDGE_CURVE('',#89,#322,#549,.T.);
#549 = LINE('',#550,#551);
#550 = CARTESIAN_POINT('',(2.166499832202,-18.3395968222,0.));
#551 = VECTOR('',#552,1.);
#552 = DIRECTION('',(0.,0.,-1.));
#553 = PLANE('',#554);
#554 = AXIS2_PLACEMENT_3D('',#555,#556,#557);
#555 = CARTESIAN_POINT('',(20.152543263817,-0.353553390593,0.));
#556 = DIRECTION('',(-0.707106781187,0.707106781187,0.));
#557 = DIRECTION('',(-0.707106781187,-0.707106781187,0.));
#558 = ADVANCED_FACE('',(#559),#570,.T.);
#559 = FACE_BOUND('',#560,.T.);
#560 = EDGE_LOOP('',(#561,#562,#568,#569));
#561 = ORIENTED_EDGE('',*,*,#190,.F.);
#562 = ORIENTED_EDGE('',*,*,#563,.T.);
#563 = EDGE_CURVE('',#182,#415,#564,.T.);
#564 = LINE('',#565,#566);
#565 = CARTESIAN_POINT('',(-24.15251535334,29.941125496954,0.));
#566 = VECTOR('',#567,1.);
#567 = DIRECTION('',(0.,0.,-1.));
#568 = ORIENTED_EDGE('',*,*,#423,.T.);
#569 = ORIENTED_EDGE('',*,*,#529,.F.);
#570 = PLANE('',#571);
#571 = AXIS2_PLACEMENT_3D('',#572,#573,#574);
#572 = CARTESIAN_POINT('',(-22.98094247809,31.112698372208,0.));
#573 = DIRECTION('',(-0.707106781187,0.707106781187,0.));
#574 = DIRECTION('',(-0.707106781187,-0.707106781187,0.));
#575 = ADVANCED_FACE('',(#576),#587,.T.);
#576 = FACE_BOUND('',#577,.T.);
#577 = EDGE_LOOP('',(#578,#579,#580,#581));
#578 = ORIENTED_EDGE('',*,*,#96,.T.);
#579 = ORIENTED_EDGE('',*,*,#548,.T.);
#580 = ORIENTED_EDGE('',*,*,#329,.F.);
#581 = ORIENTED_EDGE('',*,*,#582,.F.);
#582 = EDGE_CURVE('',#97,#330,#583,.T.);
#583 = LINE('',#584,#585);
#584 = CARTESIAN_POINT('',(3.777744413119,-24.97833451894,0.));
#585 = VECTOR('',#586,1.);
#586 = DIRECTION('',(0.,0.,-1.));
#587 = CYLINDRICAL_SURFACE('',#588,4.);
#588 = AXIS2_PLACEMENT_3D('',#589,#590,#591);
#589 = CARTESIAN_POINT('',(4.994926956948,-21.16802394695,0.));
#590 = DIRECTION('',(0.,0.,-1.));
#591 = DIRECTION('',(-0.304295635957,-0.952577642997,-0.));
#592 = ADVANCED_FACE('',(#593),#604,.T.);
#593 = FACE_BOUND('',#594,.T.);
#594 = EDGE_LOOP('',(#595,#596,#602,#603));
#595 = ORIENTED_EDGE('',*,*,#181,.T.);
#596 = ORIENTED_EDGE('',*,*,#597,.T.);
#597 = EDGE_CURVE('',#174,#407,#598,.T.);
#598 = LINE('',#599,#600);
#599 = CARTESIAN_POINT('',(-21.3240882286,31.112698372208,0.));
#600 = VECTOR('',#601,1.);
#601 = DIRECTION('',(0.,0.,-1.));
#602 = ORIENTED_EDGE('',*,*,#414,.F.);
#603 = ORIENTED_EDGE('',*,*,#563,.F.);
#604 = CYLINDRICAL_SURFACE('',#605,4.);
#605 = AXIS2_PLACEMENT_3D('',#606,#607,#608);
#606 = CARTESIAN_POINT('',(-21.3240882286,27.112698372208,0.));
#607 = DIRECTION('',(0.,0.,-1.));
#608 = DIRECTION('',(-0.707106781187,0.707106781187,0.));
#609 = ADVANCED_FACE('',(#610),#621,.T.);
#610 = FACE_BOUND('',#611,.T.);
#611 = EDGE_LOOP('',(#612,#613,#614,#615));
#612 = ORIENTED_EDGE('',*,*,#105,.F.);
#613 = ORIENTED_EDGE('',*,*,#582,.T.);
#614 = ORIENTED_EDGE('',*,*,#338,.T.);
#615 = ORIENTED_EDGE('',*,*,#616,.F.);
#616 = EDGE_CURVE('',#106,#339,#617,.T.);
#617 = LINE('',#618,#619);
#618 = CARTESIAN_POINT('',(20.658988410288,-30.37095412914,0.));
#619 = VECTOR('',#620,1.);
#620 = DIRECTION('',(0.,0.,-1.));
#621 = PLANE('',#622);
#622 = AXIS2_PLACEMENT_3D('',#623,#624,#625);
#623 = CARTESIAN_POINT('',(-2.474873734153,-22.98097038856,0.));
#624 = DIRECTION('',(-0.304295635957,-0.952577642997,-0.));
#625 = DIRECTION('',(0.952577642997,-0.304295635957,0.));
#626 = ADVANCED_FACE('',(#627),#638,.T.);
#627 = FACE_BOUND('',#628,.T.);
#628 = EDGE_LOOP('',(#629,#630,#636,#637));
#629 = ORIENTED_EDGE('',*,*,#173,.F.);
#630 = ORIENTED_EDGE('',*,*,#631,.T.);
#631 = EDGE_CURVE('',#165,#398,#632,.T.);
#632 = LINE('',#633,#634);
#633 = CARTESIAN_POINT('',(-1.656854249492,31.112698372208,0.));
#634 = VECTOR('',#635,1.);
#635 = DIRECTION('',(0.,0.,-1.));
#636 = ORIENTED_EDGE('',*,*,#406,.T.);
#637 = ORIENTED_EDGE('',*,*,#597,.F.);
#638 = PLANE('',#639);
#639 = AXIS2_PLACEMENT_3D('',#640,#641,#642);
#640 = CARTESIAN_POINT('',(3.552713678801E-15,31.112698372208,0.));
#641 = DIRECTION('',(0.,1.,0.));
#642 = DIRECTION('',(-1.,0.,0.));
#643 = ADVANCED_FACE('',(#644),#655,.T.);
#644 = FACE_BOUND('',#645,.T.);
#645 = EDGE_LOOP('',(#646,#647,#648,#649));
#646 = ORIENTED_EDGE('',*,*,#113,.T.);
#647 = ORIENTED_EDGE('',*,*,#616,.T.);
#648 = ORIENTED_EDGE('',*,*,#346,.F.);
#649 = ORIENTED_EDGE('',*,*,#650,.F.);
#650 = EDGE_CURVE('',#114,#347,#651,.T.);
#651 = LINE('',#652,#653);
#652 = CARTESIAN_POINT('',(24.704598078864,-29.3890706819,0.));
#653 = VECTOR('',#654,1.);
#654 = DIRECTION('',(0.,0.,-1.));
#655 = CYLINDRICAL_SURFACE('',#656,4.);
#656 = AXIS2_PLACEMENT_3D('',#657,#658,#659);
#657 = CARTESIAN_POINT('',(21.876170954118,-26.56064355716,0.));
#658 = DIRECTION('',(0.,0.,-1.));
#659 = DIRECTION('',(0.707106781187,-0.707106781187,0.));
#660 = ADVANCED_FACE('',(#661),#672,.T.);
#661 = FACE_BOUND('',#662,.T.);
#662 = EDGE_LOOP('',(#663,#664,#670,#671));
#663 = ORIENTED_EDGE('',*,*,#164,.T.);
#664 = ORIENTED_EDGE('',*,*,#665,.T.);
#665 = EDGE_CURVE('',#157,#390,#666,.T.);
#666 = LINE('',#667,#668);
#667 = CARTESIAN_POINT('',(1.171572875254,29.941125496954,0.));
#668 = VECTOR('',#669,1.);
#669 = DIRECTION('',(0.,0.,-1.));
#670 = ORIENTED_EDGE('',*,*,#397,.F.);
#671 = ORIENTED_EDGE('',*,*,#631,.F.);
#672 = CYLINDRICAL_SURFACE('',#673,4.);
#673 = AXIS2_PLACEMENT_3D('',#674,#675,#676);
#674 = CARTESIAN_POINT('',(-1.656854249492,27.112698372208,0.));
#675 = DIRECTION('',(0.,0.,-1.));
#676 = DIRECTION('',(0.,1.,0.));
#677 = ADVANCED_FACE('',(#678),#689,.T.);
#678 = FACE_BOUND('',#679,.T.);
#679 = EDGE_LOOP('',(#680,#681,#682,#683));
#680 = ORIENTED_EDGE('',*,*,#122,.F.);
#681 = ORIENTED_EDGE('',*,*,#650,.T.);
#682 = ORIENTED_EDGE('',*,*,#355,.T.);
#683 = ORIENTED_EDGE('',*,*,#684,.F.);
#684 = EDGE_CURVE('',#123,#356,#685,.T.);
#685 = LINE('',#686,#687);
#686 = CARTESIAN_POINT('',(29.941125496954,-24.15254326381,0.));
#687 = VECTOR('',#688,1.);
#688 = DIRECTION('',(0.,0.,-1.));
#689 = PLANE('',#690);
#690 = AXIS2_PLACEMENT_3D('',#691,#692,#693);
#691 = CARTESIAN_POINT('',(22.980970388563,-31.1126983722,0.));
#692 = DIRECTION('',(0.707106781187,-0.707106781187,0.));
#693 = DIRECTION('',(0.707106781187,0.707106781187,0.));
#694 = ADVANCED_FACE('',(#695),#706,.T.);
#695 = FACE_BOUND('',#696,.T.);
#696 = EDGE_LOOP('',(#697,#698,#704,#705));
#697 = ORIENTED_EDGE('',*,*,#156,.F.);
#698 = ORIENTED_EDGE('',*,*,#699,.T.);
#699 = EDGE_CURVE('',#148,#381,#700,.T.);
#700 = LINE('',#701,#702);
#701 = CARTESIAN_POINT('',(29.941125496954,1.171572875254,0.));
#702 = VECTOR('',#703,1.);
#703 = DIRECTION('',(0.,0.,-1.));
#704 = ORIENTED_EDGE('',*,*,#389,.T.);
#705 = ORIENTED_EDGE('',*,*,#665,.F.);
#706 = PLANE('',#707);
#707 = AXIS2_PLACEMENT_3D('',#708,#709,#710);
#708 = CARTESIAN_POINT('',(31.112698372208,0.,0.));
#709 = DIRECTION('',(0.707106781187,0.707106781187,0.));
#710 = DIRECTION('',(-0.707106781187,0.707106781187,0.));
#711 = ADVANCED_FACE('',(#712),#723,.T.);
#712 = FACE_BOUND('',#713,.T.);
#713 = EDGE_LOOP('',(#714,#715,#716,#717));
#714 = ORIENTED_EDGE('',*,*,#130,.T.);
#715 = ORIENTED_EDGE('',*,*,#684,.T.);
#716 = ORIENTED_EDGE('',*,*,#363,.F.);
#717 = ORIENTED_EDGE('',*,*,#718,.F.);
#718 = EDGE_CURVE('',#131,#364,#719,.T.);
#719 = LINE('',#720,#721);
#720 = CARTESIAN_POINT('',(31.112698372208,-21.32411613907,0.));
#721 = VECTOR('',#722,1.);
#722 = DIRECTION('',(0.,0.,-1.));
#723 = CYLINDRICAL_SURFACE('',#724,4.);
#724 = AXIS2_PLACEMENT_3D('',#725,#726,#727);
#725 = CARTESIAN_POINT('',(27.112698372208,-21.32411613907,0.));
#726 = DIRECTION('',(0.,0.,-1.));
#727 = DIRECTION('',(1.,0.,0.));
#728 = ADVANCED_FACE('',(#729),#740,.T.);
#729 = FACE_BOUND('',#730,.T.);
#730 = EDGE_LOOP('',(#731,#732,#738,#739));
#731 = ORIENTED_EDGE('',*,*,#147,.T.);
#732 = ORIENTED_EDGE('',*,*,#733,.T.);
#733 = EDGE_CURVE('',#140,#373,#734,.T.);
#734 = LINE('',#735,#736);
#735 = CARTESIAN_POINT('',(31.112698372208,-1.656854249492,0.));
#736 = VECTOR('',#737,1.);
#737 = DIRECTION('',(0.,0.,-1.));
#738 = ORIENTED_EDGE('',*,*,#380,.F.);
#739 = ORIENTED_EDGE('',*,*,#699,.F.);
#740 = CYLINDRICAL_SURFACE('',#741,4.);
#741 = AXIS2_PLACEMENT_3D('',#742,#743,#744);
#742 = CARTESIAN_POINT('',(27.112698372208,-1.656854249492,0.));
#743 = DIRECTION('',(0.,0.,-1.));
#744 = DIRECTION('',(0.707106781187,0.707106781187,0.));
#745 = ADVANCED_FACE('',(#746),#752,.T.);
#746 = FACE_BOUND('',#747,.T.);
#747 = EDGE_LOOP('',(#748,#749,#750,#751));
#748 = ORIENTED_EDGE('',*,*,#139,.F.);
#749 = ORIENTED_EDGE('',*,*,#718,.T.);
#750 = ORIENTED_EDGE('',*,*,#372,.T.);
#751 = ORIENTED_EDGE('',*,*,#733,.F.);
#752 = PLANE('',#753);
#753 = AXIS2_PLACEMENT_3D('',#754,#755,#756);
#754 = CARTESIAN_POINT('',(31.112698372208,-22.98097038856,0.));
#755 = DIRECTION('',(1.,0.,0.));
#756 = DIRECTION('',(0.,1.,0.));
#757 = ADVANCED_FACE('',(#758),#769,.F.);
#758 = FACE_BOUND('',#759,.T.);
#759 = EDGE_LOOP('',(#760,#766,#767,#768));
#760 = ORIENTED_EDGE('',*,*,#761,.F.);
#761 = EDGE_CURVE('',#225,#450,#762,.T.);
#762 = LINE('',#763,#764);
#763 = CARTESIAN_POINT('',(24.780974143594,-22.98096663353,0.));
#764 = VECTOR('',#765,1.);
#765 = DIRECTION('',(-6.15578422087E-17,0.,-1.));
#766 = ORIENTED_EDGE('',*,*,#224,.T.);
#767 = ORIENTED_EDGE('',*,*,#761,.T.);
#768 = ORIENTED_EDGE('',*,*,#449,.T.);
#769 = CYLINDRICAL_SURFACE('',#770,1.8);
#770 = AXIS2_PLACEMENT_3D('',#771,#772,#773);
#771 = CARTESIAN_POINT('',(22.980974143594,-22.98096663353,0.));
#772 = DIRECTION('',(-0.,-0.,-1.));
#773 = DIRECTION('',(1.,0.,0.));
#774 = ADVANCED_FACE('',(#775),#786,.F.);
#775 = FACE_BOUND('',#776,.T.);
#776 = EDGE_LOOP('',(#777,#783,#784,#785));
#777 = ORIENTED_EDGE('',*,*,#778,.F.);
#778 = EDGE_CURVE('',#236,#461,#779,.T.);
#779 = LINE('',#780,#781);
#780 = CARTESIAN_POINT('',(-21.18097414359,22.980966633531,0.));
#781 = VECTOR('',#782,1.);
#782 = DIRECTION('',(-6.15578422087E-17,0.,-1.));
#783 = ORIENTED_EDGE('',*,*,#235,.T.);
#784 = ORIENTED_EDGE('',*,*,#778,.T.);
#785 = ORIENTED_EDGE('',*,*,#460,.T.);
#786 = CYLINDRICAL_SURFACE('',#787,1.8);
#787 = AXIS2_PLACEMENT_3D('',#788,#789,#790);
#788 = CARTESIAN_POINT('',(-22.98097414359,22.980966633531,0.));
#789 = DIRECTION('',(-0.,-0.,-1.));
#790 = DIRECTION('',(1.,0.,0.));
#791 = ( GEOMETRIC_REPRESENTATION_CONTEXT(3) 
GLOBAL_UNCERTAINTY_ASSIGNED_CONTEXT((#795)) GLOBAL_UNIT_ASSIGNED_CONTEXT
((#792,#793,#794)) REPRESENTATION_CONTEXT('Context #1',
  '3D Context with UNIT and UNCERTAINTY') );
#792 = ( LENGTH_UNIT() NAMED_UNIT(*) SI_UNIT(.MILLI.,.METRE.) );
#793 = ( NAMED_UNIT(*) PLANE_ANGLE_UNIT() SI_UNIT($,.RADIAN.) );
#794 = ( NAMED_UNIT(*) SI_UNIT($,.STERADIAN.) SOLID_ANGLE_UNIT() );
#795 = UNCERTAINTY_MEASURE_WITH_UNIT(LENGTH_MEASURE(1.E-07),#792,
  'distance_accuracy_value','confusion accuracy');
#796 = PRODUCT_RELATED_PRODUCT_CATEGORY('part',$,(#7));
#797 = MECHANICAL_DESIGN_GEOMETRIC_PRESENTATION_REPRESENTATION('',(#798)
  ,#791);
#798 = STYLED_ITEM('color',(#799),#15);
#799 = PRESENTATION_STYLE_ASSIGNMENT((#800,#806));
#800 = SURFACE_STYLE_USAGE(.BOTH.,#801);
#801 = SURFACE_SIDE_STYLE('',(#802));
#802 = SURFACE_STYLE_FILL_AREA(#803);
#803 = FILL_AREA_STYLE('',(#804));
#804 = FILL_AREA_STYLE_COLOUR('',#805);
#805 = COLOUR_RGB('',0.678431390124,0.709803936702,0.741176476869);
#806 = CURVE_STYLE('',#807,POSITIVE_LENGTH_MEASURE(0.1),#808);
#807 = DRAUGHTING_PRE_DEFINED_CURVE_FONT('continuous');
#808 = COLOUR_RGB('',9.803921802644E-02,9.803921802644E-02,
  9.803921802644E-02);
ENDSEC;
END-ISO-10303-21;
