ISO-10303-21;
HEADER;
FILE_DESCRIPTION(('FreeCAD Model'),'2;1');
FILE_NAME('Open CASCADE Shape Model','2026-09-14T23:36:11',(''),(''),
  'Open CASCADE STEP processor 7.8','FreeCAD','Unknown');
FILE_SCHEMA(('AUTOMOTIVE_DESIGN { 1 0 10303 214 1 1 1 1 }'));
ENDSEC;
DATA;
#1 = APPLICATION_PROTOCOL_DEFINITION('international standard',
  'automotive_design',2000,#2);
#2 = APPLICATION_CONTEXT(
  'core data for automotive mechanical design processes');
#3 = SHAPE_DEFINITION_REPRESENTATION(#4,#10);
#4 = PRODUCT_DEFINITION_SHAPE('','',#5);
#5 = PRODUCT_DEFINITION('design','',#6,#9);
#6 = PRODUCT_DEFINITION_FORMATION('','',#7);
#7 = PRODUCT('CylinderBodyClamp','CylinderBodyClamp','',(#8));
#8 = PRODUCT_CONTEXT('',#2,'mechanical');
#9 = PRODUCT_DEFINITION_CONTEXT('part definition',#2,'design');
#10 = ADVANCED_BREP_SHAPE_REPRESENTATION('',(#11,#15),#901);
#11 = AXIS2_PLACEMENT_3D('',#12,#13,#14);
#12 = CARTESIAN_POINT('',(0.,0.,0.));
#13 = DIRECTION('',(0.,0.,1.));
#14 = DIRECTION('',(1.,0.,-0.));
#15 = MANIFOLD_SOLID_BREP('',#16);
#16 = CLOSED_SHELL('',(#17,#92,#123,#148,#221,#245,#270,#295,#368,#385,
    #407,#464,#476,#527,#662,#688,#823,#849,#866,#883));
#17 = ADVANCED_FACE('',(#18),#87,.F.);
#18 = FACE_BOUND('',#19,.F.);
#19 = EDGE_LOOP('',(#20,#30,#38,#47,#55,#63,#72,#80));
#20 = ORIENTED_EDGE('',*,*,#21,.T.);
#21 = EDGE_CURVE('',#22,#24,#26,.T.);
#22 = VERTEX_POINT('',#23);
#23 = CARTESIAN_POINT('',(8.,10.000000000043,5.4));
#24 = VERTEX_POINT('',#25);
#25 = CARTESIAN_POINT('',(34.,10.000000000043,5.4));
#26 = LINE('',#27,#28);
#27 = CARTESIAN_POINT('',(4.,10.000000000043,5.4));
#28 = VECTOR('',#29,1.);
#29 = DIRECTION('',(1.,0.,0.));
#30 = ORIENTED_EDGE('',*,*,#31,.T.);
#31 = EDGE_CURVE('',#24,#32,#34,.T.);
#32 = VERTEX_POINT('',#33);
#33 = CARTESIAN_POINT('',(34.,11.1,5.4));
#34 = LINE('',#35,#36);
#35 = CARTESIAN_POINT('',(34.,10.000000000043,5.4));
#36 = VECTOR('',#37,1.);
#37 = DIRECTION('',(0.,1.,0.));
#38 = ORIENTED_EDGE('',*,*,#39,.T.);
#39 = EDGE_CURVE('',#32,#40,#42,.T.);
#40 = VERTEX_POINT('',#41);
#41 = CARTESIAN_POINT('',(34.,53.9,5.4));
#42 = CIRCLE('',#43,21.4);
#43 = AXIS2_PLACEMENT_3D('',#44,#45,#46);
#44 = CARTESIAN_POINT('',(34.,32.5,5.4));
#45 = DIRECTION('',(0.,0.,-1.));
#46 = DIRECTION('',(1.,0.,0.));
#47 = ORIENTED_EDGE('',*,*,#48,.T.);
#48 = EDGE_CURVE('',#40,#49,#51,.T.);
#49 = VERTEX_POINT('',#50);
#50 = CARTESIAN_POINT('',(34.,55.000000000043,5.4));
#51 = LINE('',#52,#53);
#52 = CARTESIAN_POINT('',(34.,10.000000000043,5.4));
#53 = VECTOR('',#54,1.);
#54 = DIRECTION('',(0.,1.,0.));
#55 = ORIENTED_EDGE('',*,*,#56,.T.);
#56 = EDGE_CURVE('',#49,#57,#59,.T.);
#57 = VERTEX_POINT('',#58);
#58 = CARTESIAN_POINT('',(8.,55.000000000043,5.4));
#59 = LINE('',#60,#61);
#60 = CARTESIAN_POINT('',(34.,55.000000000043,5.4));
#61 = VECTOR('',#62,1.);
#62 = DIRECTION('',(-1.,0.,0.));
#63 = ORIENTED_EDGE('',*,*,#64,.T.);
#64 = EDGE_CURVE('',#57,#65,#67,.T.);
#65 = VERTEX_POINT('',#66);
#66 = CARTESIAN_POINT('',(4.,51.000000000043,5.4));
#67 = CIRCLE('',#68,4.);
#68 = AXIS2_PLACEMENT_3D('',#69,#70,#71);
#69 = CARTESIAN_POINT('',(8.,51.000000000043,5.4));
#70 = DIRECTION('',(-0.,0.,1.));
#71 = DIRECTION('',(0.,-1.,0.));
#72 = ORIENTED_EDGE('',*,*,#73,.T.);
#73 = EDGE_CURVE('',#65,#74,#76,.T.);
#74 = VERTEX_POINT('',#75);
#75 = CARTESIAN_POINT('',(4.,14.000000000043,5.4));
#76 = LINE('',#77,#78);
#77 = CARTESIAN_POINT('',(4.,55.000000000043,5.4));
#78 = VECTOR('',#79,1.);
#79 = DIRECTION('',(0.,-1.,0.));
#80 = ORIENTED_EDGE('',*,*,#81,.F.);
#81 = EDGE_CURVE('',#22,#74,#82,.T.);
#82 = CIRCLE('',#83,4.);
#83 = AXIS2_PLACEMENT_3D('',#84,#85,#86);
#84 = CARTESIAN_POINT('',(8.,14.000000000043,5.4));
#85 = DIRECTION('',(-0.,-0.,-1.));
#86 = DIRECTION('',(0.,-1.,0.));
#87 = PLANE('',#88);
#88 = AXIS2_PLACEMENT_3D('',#89,#90,#91);
#89 = CARTESIAN_POINT('',(19.,32.500000000043,5.4));
#90 = DIRECTION('',(0.,0.,1.));
#91 = DIRECTION('',(1.,0.,0.));
#92 = ADVANCED_FACE('',(#93),#118,.T.);
#93 = FACE_BOUND('',#94,.T.);
#94 = EDGE_LOOP('',(#95,#105,#111,#112));
#95 = ORIENTED_EDGE('',*,*,#96,.F.);
#96 = EDGE_CURVE('',#97,#99,#101,.T.);
#97 = VERTEX_POINT('',#98);
#98 = CARTESIAN_POINT('',(8.,10.000000000043,2.6));
#99 = VERTEX_POINT('',#100);
#100 = CARTESIAN_POINT('',(34.,10.000000000043,2.6));
#101 = LINE('',#102,#103);
#102 = CARTESIAN_POINT('',(4.,10.000000000043,2.6));
#103 = VECTOR('',#104,1.);
#104 = DIRECTION('',(1.,0.,0.));
#105 = ORIENTED_EDGE('',*,*,#106,.T.);
#106 = EDGE_CURVE('',#97,#22,#107,.T.);
#107 = LINE('',#108,#109);
#108 = CARTESIAN_POINT('',(8.,10.000000000043,2.6));
#109 = VECTOR('',#110,1.);
#110 = DIRECTION('',(0.,0.,1.));
#111 = ORIENTED_EDGE('',*,*,#21,.T.);
#112 = ORIENTED_EDGE('',*,*,#113,.F.);
#113 = EDGE_CURVE('',#99,#24,#114,.T.);
#114 = LINE('',#115,#116);
#115 = CARTESIAN_POINT('',(34.,10.000000000043,2.6));
#116 = VECTOR('',#117,1.);
#117 = DIRECTION('',(0.,0.,1.));
#118 = PLANE('',#119);
#119 = AXIS2_PLACEMENT_3D('',#120,#121,#122);
#120 = CARTESIAN_POINT('',(4.,10.000000000043,2.6));
#121 = DIRECTION('',(0.,1.,0.));
#122 = DIRECTION('',(1.,0.,0.));
#123 = ADVANCED_FACE('',(#124),#143,.F.);
#124 = FACE_BOUND('',#125,.T.);
#125 = EDGE_LOOP('',(#126,#135,#141,#142));
#126 = ORIENTED_EDGE('',*,*,#127,.T.);
#127 = EDGE_CURVE('',#97,#128,#130,.T.);
#128 = VERTEX_POINT('',#129);
#129 = CARTESIAN_POINT('',(4.,14.000000000043,2.6));
#130 = CIRCLE('',#131,4.);
#131 = AXIS2_PLACEMENT_3D('',#132,#133,#134);
#132 = CARTESIAN_POINT('',(8.,14.000000000043,2.6));
#133 = DIRECTION('',(-0.,-0.,-1.));
#134 = DIRECTION('',(0.,-1.,0.));
#135 = ORIENTED_EDGE('',*,*,#136,.T.);
#136 = EDGE_CURVE('',#128,#74,#137,.T.);
#137 = LINE('',#138,#139);
#138 = CARTESIAN_POINT('',(4.,14.000000000043,2.6));
#139 = VECTOR('',#140,1.);
#140 = DIRECTION('',(0.,0.,1.));
#141 = ORIENTED_EDGE('',*,*,#81,.F.);
#142 = ORIENTED_EDGE('',*,*,#106,.F.);
#143 = CYLINDRICAL_SURFACE('',#144,4.);
#144 = AXIS2_PLACEMENT_3D('',#145,#146,#147);
#145 = CARTESIAN_POINT('',(8.,14.000000000043,2.6));
#146 = DIRECTION('',(0.,0.,1.));
#147 = DIRECTION('',(0.,-1.,0.));
#148 = ADVANCED_FACE('',(#149),#216,.F.);
#149 = FACE_BOUND('',#150,.F.);
#150 = EDGE_LOOP('',(#151,#161,#169,#178,#186,#194,#200,#201,#202,#210)
  );
#151 = ORIENTED_EDGE('',*,*,#152,.F.);
#152 = EDGE_CURVE('',#153,#155,#157,.T.);
#153 = VERTEX_POINT('',#154);
#154 = CARTESIAN_POINT('',(34.,5.,0.));
#155 = VERTEX_POINT('',#156);
#156 = CARTESIAN_POINT('',(34.,11.1,0.));
#157 = LINE('',#158,#159);
#158 = CARTESIAN_POINT('',(34.,0.,0.));
#159 = VECTOR('',#160,1.);
#160 = DIRECTION('',(0.,1.,0.));
#161 = ORIENTED_EDGE('',*,*,#162,.T.);
#162 = EDGE_CURVE('',#153,#163,#165,.T.);
#163 = VERTEX_POINT('',#164);
#164 = CARTESIAN_POINT('',(34.,5.,1.35));
#165 = LINE('',#166,#167);
#166 = CARTESIAN_POINT('',(34.,5.,8.));
#167 = VECTOR('',#168,1.);
#168 = DIRECTION('',(0.,0.,1.));
#169 = ORIENTED_EDGE('',*,*,#170,.T.);
#170 = EDGE_CURVE('',#163,#171,#173,.T.);
#171 = VERTEX_POINT('',#172);
#172 = CARTESIAN_POINT('',(34.,5.,6.65));
#173 = CIRCLE('',#174,2.65);
#174 = AXIS2_PLACEMENT_3D('',#175,#176,#177);
#175 = CARTESIAN_POINT('',(34.,5.,4.));
#176 = DIRECTION('',(1.,0.,-0.));
#177 = DIRECTION('',(0.,0.,1.));
#178 = ORIENTED_EDGE('',*,*,#179,.T.);
#179 = EDGE_CURVE('',#171,#180,#182,.T.);
#180 = VERTEX_POINT('',#181);
#181 = CARTESIAN_POINT('',(34.,5.,8.));
#182 = LINE('',#183,#184);
#183 = CARTESIAN_POINT('',(34.,5.,8.));
#184 = VECTOR('',#185,1.);
#185 = DIRECTION('',(0.,0.,1.));
#186 = ORIENTED_EDGE('',*,*,#187,.T.);
#187 = EDGE_CURVE('',#180,#188,#190,.T.);
#188 = VERTEX_POINT('',#189);
#189 = CARTESIAN_POINT('',(34.,11.1,8.));
#190 = LINE('',#191,#192);
#191 = CARTESIAN_POINT('',(34.,0.,8.));
#192 = VECTOR('',#193,1.);
#193 = DIRECTION('',(0.,1.,0.));
#194 = ORIENTED_EDGE('',*,*,#195,.T.);
#195 = EDGE_CURVE('',#188,#32,#196,.T.);
#196 = LINE('',#197,#198);
#197 = CARTESIAN_POINT('',(34.,11.1,-165.2750301226));
#198 = VECTOR('',#199,1.);
#199 = DIRECTION('',(-0.,-0.,-1.));
#200 = ORIENTED_EDGE('',*,*,#31,.F.);
#201 = ORIENTED_EDGE('',*,*,#113,.F.);
#202 = ORIENTED_EDGE('',*,*,#203,.T.);
#203 = EDGE_CURVE('',#99,#204,#206,.T.);
#204 = VERTEX_POINT('',#205);
#205 = CARTESIAN_POINT('',(34.,11.1,2.6));
#206 = LINE('',#207,#208);
#207 = CARTESIAN_POINT('',(34.,10.000000000043,2.6));
#208 = VECTOR('',#209,1.);
#209 = DIRECTION('',(0.,1.,0.));
#210 = ORIENTED_EDGE('',*,*,#211,.T.);
#211 = EDGE_CURVE('',#204,#155,#212,.T.);
#212 = LINE('',#213,#214);
#213 = CARTESIAN_POINT('',(34.,11.1,-165.2750301226));
#214 = VECTOR('',#215,1.);
#215 = DIRECTION('',(-0.,-0.,-1.));
#216 = PLANE('',#217);
#217 = AXIS2_PLACEMENT_3D('',#218,#219,#220);
#218 = CARTESIAN_POINT('',(34.,0.,0.));
#219 = DIRECTION('',(-1.,0.,0.));
#220 = DIRECTION('',(0.,1.,0.));
#221 = ADVANCED_FACE('',(#222),#240,.T.);
#222 = FACE_BOUND('',#223,.T.);
#223 = EDGE_LOOP('',(#224,#232,#238,#239));
#224 = ORIENTED_EDGE('',*,*,#225,.F.);
#225 = EDGE_CURVE('',#226,#128,#228,.T.);
#226 = VERTEX_POINT('',#227);
#227 = CARTESIAN_POINT('',(4.,51.000000000043,2.6));
#228 = LINE('',#229,#230);
#229 = CARTESIAN_POINT('',(4.,55.000000000043,2.6));
#230 = VECTOR('',#231,1.);
#231 = DIRECTION('',(0.,-1.,0.));
#232 = ORIENTED_EDGE('',*,*,#233,.T.);
#233 = EDGE_CURVE('',#226,#65,#234,.T.);
#234 = LINE('',#235,#236);
#235 = CARTESIAN_POINT('',(4.,51.000000000043,2.6));
#236 = VECTOR('',#237,1.);
#237 = DIRECTION('',(0.,0.,1.));
#238 = ORIENTED_EDGE('',*,*,#73,.T.);
#239 = ORIENTED_EDGE('',*,*,#136,.F.);
#240 = PLANE('',#241);
#241 = AXIS2_PLACEMENT_3D('',#242,#243,#244);
#242 = CARTESIAN_POINT('',(4.,55.000000000043,2.6));
#243 = DIRECTION('',(1.,0.,0.));
#244 = DIRECTION('',(0.,-1.,0.));
#245 = ADVANCED_FACE('',(#246),#265,.F.);
#246 = FACE_BOUND('',#247,.T.);
#247 = EDGE_LOOP('',(#248,#257,#258,#259));
#248 = ORIENTED_EDGE('',*,*,#249,.F.);
#249 = EDGE_CURVE('',#188,#250,#252,.T.);
#250 = VERTEX_POINT('',#251);
#251 = CARTESIAN_POINT('',(34.,53.9,8.));
#252 = CIRCLE('',#253,21.4);
#253 = AXIS2_PLACEMENT_3D('',#254,#255,#256);
#254 = CARTESIAN_POINT('',(34.,32.5,8.));
#255 = DIRECTION('',(0.,0.,-1.));
#256 = DIRECTION('',(1.,0.,0.));
#257 = ORIENTED_EDGE('',*,*,#195,.T.);
#258 = ORIENTED_EDGE('',*,*,#39,.T.);
#259 = ORIENTED_EDGE('',*,*,#260,.F.);
#260 = EDGE_CURVE('',#250,#40,#261,.T.);
#261 = LINE('',#262,#263);
#262 = CARTESIAN_POINT('',(34.,53.9,-165.2750301226));
#263 = VECTOR('',#264,1.);
#264 = DIRECTION('',(-0.,-0.,-1.));
#265 = CYLINDRICAL_SURFACE('',#266,21.4);
#266 = AXIS2_PLACEMENT_3D('',#267,#268,#269);
#267 = CARTESIAN_POINT('',(34.,32.5,-165.2750301226));
#268 = DIRECTION('',(-0.,-0.,-1.));
#269 = DIRECTION('',(1.,0.,0.));
#270 = ADVANCED_FACE('',(#271),#290,.F.);
#271 = FACE_BOUND('',#272,.F.);
#272 = EDGE_LOOP('',(#273,#282,#283,#284));
#273 = ORIENTED_EDGE('',*,*,#274,.T.);
#274 = EDGE_CURVE('',#275,#226,#277,.T.);
#275 = VERTEX_POINT('',#276);
#276 = CARTESIAN_POINT('',(8.,55.000000000043,2.6));
#277 = CIRCLE('',#278,4.);
#278 = AXIS2_PLACEMENT_3D('',#279,#280,#281);
#279 = CARTESIAN_POINT('',(8.,51.000000000043,2.6));
#280 = DIRECTION('',(-0.,0.,1.));
#281 = DIRECTION('',(0.,-1.,0.));
#282 = ORIENTED_EDGE('',*,*,#233,.T.);
#283 = ORIENTED_EDGE('',*,*,#64,.F.);
#284 = ORIENTED_EDGE('',*,*,#285,.F.);
#285 = EDGE_CURVE('',#275,#57,#286,.T.);
#286 = LINE('',#287,#288);
#287 = CARTESIAN_POINT('',(8.,55.000000000043,2.6));
#288 = VECTOR('',#289,1.);
#289 = DIRECTION('',(0.,0.,1.));
#290 = CYLINDRICAL_SURFACE('',#291,4.);
#291 = AXIS2_PLACEMENT_3D('',#292,#293,#294);
#292 = CARTESIAN_POINT('',(8.,51.000000000043,2.6));
#293 = DIRECTION('',(0.,0.,1.));
#294 = DIRECTION('',(0.,1.,0.));
#295 = ADVANCED_FACE('',(#296),#363,.F.);
#296 = FACE_BOUND('',#297,.F.);
#297 = EDGE_LOOP('',(#298,#308,#316,#324,#330,#331,#332,#340,#348,#357)
  );
#298 = ORIENTED_EDGE('',*,*,#299,.F.);
#299 = EDGE_CURVE('',#300,#302,#304,.T.);
#300 = VERTEX_POINT('',#301);
#301 = CARTESIAN_POINT('',(34.,53.9,0.));
#302 = VERTEX_POINT('',#303);
#303 = CARTESIAN_POINT('',(34.,60.,0.));
#304 = LINE('',#305,#306);
#305 = CARTESIAN_POINT('',(34.,0.,0.));
#306 = VECTOR('',#307,1.);
#307 = DIRECTION('',(0.,1.,0.));
#308 = ORIENTED_EDGE('',*,*,#309,.F.);
#309 = EDGE_CURVE('',#310,#300,#312,.T.);
#310 = VERTEX_POINT('',#311);
#311 = CARTESIAN_POINT('',(34.,53.9,2.6));
#312 = LINE('',#313,#314);
#313 = CARTESIAN_POINT('',(34.,53.9,-165.2750301226));
#314 = VECTOR('',#315,1.);
#315 = DIRECTION('',(-0.,-0.,-1.));
#316 = ORIENTED_EDGE('',*,*,#317,.T.);
#317 = EDGE_CURVE('',#310,#318,#320,.T.);
#318 = VERTEX_POINT('',#319);
#319 = CARTESIAN_POINT('',(34.,55.000000000043,2.6));
#320 = LINE('',#321,#322);
#321 = CARTESIAN_POINT('',(34.,10.000000000043,2.6));
#322 = VECTOR('',#323,1.);
#323 = DIRECTION('',(0.,1.,0.));
#324 = ORIENTED_EDGE('',*,*,#325,.T.);
#325 = EDGE_CURVE('',#318,#49,#326,.T.);
#326 = LINE('',#327,#328);
#327 = CARTESIAN_POINT('',(34.,55.000000000043,2.6));
#328 = VECTOR('',#329,1.);
#329 = DIRECTION('',(0.,0.,1.));
#330 = ORIENTED_EDGE('',*,*,#48,.F.);
#331 = ORIENTED_EDGE('',*,*,#260,.F.);
#332 = ORIENTED_EDGE('',*,*,#333,.T.);
#333 = EDGE_CURVE('',#250,#334,#336,.T.);
#334 = VERTEX_POINT('',#335);
#335 = CARTESIAN_POINT('',(34.,60.,8.));
#336 = LINE('',#337,#338);
#337 = CARTESIAN_POINT('',(34.,0.,8.));
#338 = VECTOR('',#339,1.);
#339 = DIRECTION('',(0.,1.,0.));
#340 = ORIENTED_EDGE('',*,*,#341,.F.);
#341 = EDGE_CURVE('',#342,#334,#344,.T.);
#342 = VERTEX_POINT('',#343);
#343 = CARTESIAN_POINT('',(34.,60.,6.65));
#344 = LINE('',#345,#346);
#345 = CARTESIAN_POINT('',(34.,60.,8.));
#346 = VECTOR('',#347,1.);
#347 = DIRECTION('',(0.,0.,1.));
#348 = ORIENTED_EDGE('',*,*,#349,.T.);
#349 = EDGE_CURVE('',#342,#350,#352,.T.);
#350 = VERTEX_POINT('',#351);
#351 = CARTESIAN_POINT('',(34.,60.,1.35));
#352 = CIRCLE('',#353,2.65);
#353 = AXIS2_PLACEMENT_3D('',#354,#355,#356);
#354 = CARTESIAN_POINT('',(34.,60.,4.));
#355 = DIRECTION('',(1.,0.,-0.));
#356 = DIRECTION('',(0.,0.,1.));
#357 = ORIENTED_EDGE('',*,*,#358,.F.);
#358 = EDGE_CURVE('',#302,#350,#359,.T.);
#359 = LINE('',#360,#361);
#360 = CARTESIAN_POINT('',(34.,60.,8.));
#361 = VECTOR('',#362,1.);
#362 = DIRECTION('',(0.,0.,1.));
#363 = PLANE('',#364);
#364 = AXIS2_PLACEMENT_3D('',#365,#366,#367);
#365 = CARTESIAN_POINT('',(34.,0.,0.));
#366 = DIRECTION('',(-1.,0.,0.));
#367 = DIRECTION('',(0.,1.,0.));
#368 = ADVANCED_FACE('',(#369),#380,.T.);
#369 = FACE_BOUND('',#370,.T.);
#370 = EDGE_LOOP('',(#371,#377,#378,#379));
#371 = ORIENTED_EDGE('',*,*,#372,.F.);
#372 = EDGE_CURVE('',#318,#275,#373,.T.);
#373 = LINE('',#374,#375);
#374 = CARTESIAN_POINT('',(34.,55.000000000043,2.6));
#375 = VECTOR('',#376,1.);
#376 = DIRECTION('',(-1.,0.,0.));
#377 = ORIENTED_EDGE('',*,*,#325,.T.);
#378 = ORIENTED_EDGE('',*,*,#56,.T.);
#379 = ORIENTED_EDGE('',*,*,#285,.F.);
#380 = PLANE('',#381);
#381 = AXIS2_PLACEMENT_3D('',#382,#383,#384);
#382 = CARTESIAN_POINT('',(34.,55.000000000043,2.6));
#383 = DIRECTION('',(0.,-1.,0.));
#384 = DIRECTION('',(-1.,0.,0.));
#385 = ADVANCED_FACE('',(#386),#402,.T.);
#386 = FACE_BOUND('',#387,.T.);
#387 = EDGE_LOOP('',(#388,#389,#390,#397,#398,#399,#400,#401));
#388 = ORIENTED_EDGE('',*,*,#96,.T.);
#389 = ORIENTED_EDGE('',*,*,#203,.T.);
#390 = ORIENTED_EDGE('',*,*,#391,.T.);
#391 = EDGE_CURVE('',#204,#310,#392,.T.);
#392 = CIRCLE('',#393,21.4);
#393 = AXIS2_PLACEMENT_3D('',#394,#395,#396);
#394 = CARTESIAN_POINT('',(34.,32.5,2.6));
#395 = DIRECTION('',(0.,0.,-1.));
#396 = DIRECTION('',(1.,0.,0.));
#397 = ORIENTED_EDGE('',*,*,#317,.T.);
#398 = ORIENTED_EDGE('',*,*,#372,.T.);
#399 = ORIENTED_EDGE('',*,*,#274,.T.);
#400 = ORIENTED_EDGE('',*,*,#225,.T.);
#401 = ORIENTED_EDGE('',*,*,#127,.F.);
#402 = PLANE('',#403);
#403 = AXIS2_PLACEMENT_3D('',#404,#405,#406);
#404 = CARTESIAN_POINT('',(19.,32.500000000043,2.6));
#405 = DIRECTION('',(0.,0.,1.));
#406 = DIRECTION('',(1.,0.,0.));
#407 = ADVANCED_FACE('',(#408),#459,.F.);
#408 = FACE_BOUND('',#409,.F.);
#409 = EDGE_LOOP('',(#410,#420,#428,#436,#443,#444,#451,#452));
#410 = ORIENTED_EDGE('',*,*,#411,.T.);
#411 = EDGE_CURVE('',#412,#414,#416,.T.);
#412 = VERTEX_POINT('',#413);
#413 = CARTESIAN_POINT('',(29.,65.,0.));
#414 = VERTEX_POINT('',#415);
#415 = CARTESIAN_POINT('',(0.,65.,0.));
#416 = LINE('',#417,#418);
#417 = CARTESIAN_POINT('',(34.,65.,0.));
#418 = VECTOR('',#419,1.);
#419 = DIRECTION('',(-1.,0.,0.));
#420 = ORIENTED_EDGE('',*,*,#421,.T.);
#421 = EDGE_CURVE('',#414,#422,#424,.T.);
#422 = VERTEX_POINT('',#423);
#423 = CARTESIAN_POINT('',(0.,0.,0.));
#424 = LINE('',#425,#426);
#425 = CARTESIAN_POINT('',(0.,65.,0.));
#426 = VECTOR('',#427,1.);
#427 = DIRECTION('',(0.,-1.,0.));
#428 = ORIENTED_EDGE('',*,*,#429,.T.);
#429 = EDGE_CURVE('',#422,#430,#432,.T.);
#430 = VERTEX_POINT('',#431);
#431 = CARTESIAN_POINT('',(29.,0.,0.));
#432 = LINE('',#433,#434);
#433 = CARTESIAN_POINT('',(0.,0.,0.));
#434 = VECTOR('',#435,1.);
#435 = DIRECTION('',(1.,0.,0.));
#436 = ORIENTED_EDGE('',*,*,#437,.F.);
#437 = EDGE_CURVE('',#153,#430,#438,.T.);
#438 = CIRCLE('',#439,5.);
#439 = AXIS2_PLACEMENT_3D('',#440,#441,#442);
#440 = CARTESIAN_POINT('',(34.,0.,0.));
#441 = DIRECTION('',(0.,0.,1.));
#442 = DIRECTION('',(1.,0.,0.));
#443 = ORIENTED_EDGE('',*,*,#152,.T.);
#444 = ORIENTED_EDGE('',*,*,#445,.T.);
#445 = EDGE_CURVE('',#155,#300,#446,.T.);
#446 = CIRCLE('',#447,21.4);
#447 = AXIS2_PLACEMENT_3D('',#448,#449,#450);
#448 = CARTESIAN_POINT('',(34.,32.5,0.));
#449 = DIRECTION('',(0.,0.,-1.));
#450 = DIRECTION('',(1.,0.,0.));
#451 = ORIENTED_EDGE('',*,*,#299,.T.);
#452 = ORIENTED_EDGE('',*,*,#453,.F.);
#453 = EDGE_CURVE('',#412,#302,#454,.T.);
#454 = CIRCLE('',#455,5.);
#455 = AXIS2_PLACEMENT_3D('',#456,#457,#458);
#456 = CARTESIAN_POINT('',(34.,65.,0.));
#457 = DIRECTION('',(0.,0.,1.));
#458 = DIRECTION('',(1.,0.,0.));
#459 = PLANE('',#460);
#460 = AXIS2_PLACEMENT_3D('',#461,#462,#463);
#461 = CARTESIAN_POINT('',(17.,32.5,0.));
#462 = DIRECTION('',(0.,0.,1.));
#463 = DIRECTION('',(1.,0.,0.));
#464 = ADVANCED_FACE('',(#465),#471,.F.);
#465 = FACE_BOUND('',#466,.T.);
#466 = EDGE_LOOP('',(#467,#468,#469,#470));
#467 = ORIENTED_EDGE('',*,*,#391,.F.);
#468 = ORIENTED_EDGE('',*,*,#211,.T.);
#469 = ORIENTED_EDGE('',*,*,#445,.T.);
#470 = ORIENTED_EDGE('',*,*,#309,.F.);
#471 = CYLINDRICAL_SURFACE('',#472,21.4);
#472 = AXIS2_PLACEMENT_3D('',#473,#474,#475);
#473 = CARTESIAN_POINT('',(34.,32.5,-165.2750301226));
#474 = DIRECTION('',(-0.,-0.,-1.));
#475 = DIRECTION('',(1.,0.,0.));
#476 = ADVANCED_FACE('',(#477),#522,.T.);
#477 = FACE_BOUND('',#478,.T.);
#478 = EDGE_LOOP('',(#479,#489,#497,#505,#512,#513,#514,#515));
#479 = ORIENTED_EDGE('',*,*,#480,.T.);
#480 = EDGE_CURVE('',#481,#483,#485,.T.);
#481 = VERTEX_POINT('',#482);
#482 = CARTESIAN_POINT('',(29.,65.,8.));
#483 = VERTEX_POINT('',#484);
#484 = CARTESIAN_POINT('',(0.,65.,8.));
#485 = LINE('',#486,#487);
#486 = CARTESIAN_POINT('',(34.,65.,8.));
#487 = VECTOR('',#488,1.);
#488 = DIRECTION('',(-1.,0.,0.));
#489 = ORIENTED_EDGE('',*,*,#490,.T.);
#490 = EDGE_CURVE('',#483,#491,#493,.T.);
#491 = VERTEX_POINT('',#492);
#492 = CARTESIAN_POINT('',(0.,0.,8.));
#493 = LINE('',#494,#495);
#494 = CARTESIAN_POINT('',(0.,65.,8.));
#495 = VECTOR('',#496,1.);
#496 = DIRECTION('',(0.,-1.,0.));
#497 = ORIENTED_EDGE('',*,*,#498,.T.);
#498 = EDGE_CURVE('',#491,#499,#501,.T.);
#499 = VERTEX_POINT('',#500);
#500 = CARTESIAN_POINT('',(29.,-1.595659538462E-13,8.));
#501 = LINE('',#502,#503);
#502 = CARTESIAN_POINT('',(0.,0.,8.));
#503 = VECTOR('',#504,1.);
#504 = DIRECTION('',(1.,0.,0.));
#505 = ORIENTED_EDGE('',*,*,#506,.F.);
#506 = EDGE_CURVE('',#180,#499,#507,.T.);
#507 = CIRCLE('',#508,5.);
#508 = AXIS2_PLACEMENT_3D('',#509,#510,#511);
#509 = CARTESIAN_POINT('',(34.,0.,8.));
#510 = DIRECTION('',(0.,0.,1.));
#511 = DIRECTION('',(1.,0.,0.));
#512 = ORIENTED_EDGE('',*,*,#187,.T.);
#513 = ORIENTED_EDGE('',*,*,#249,.T.);
#514 = ORIENTED_EDGE('',*,*,#333,.T.);
#515 = ORIENTED_EDGE('',*,*,#516,.F.);
#516 = EDGE_CURVE('',#481,#334,#517,.T.);
#517 = CIRCLE('',#518,5.);
#518 = AXIS2_PLACEMENT_3D('',#519,#520,#521);
#519 = CARTESIAN_POINT('',(34.,65.,8.));
#520 = DIRECTION('',(0.,0.,1.));
#521 = DIRECTION('',(1.,0.,0.));
#522 = PLANE('',#523);
#523 = AXIS2_PLACEMENT_3D('',#524,#525,#526);
#524 = CARTESIAN_POINT('',(17.,32.5,8.));
#525 = DIRECTION('',(0.,0.,1.));
#526 = DIRECTION('',(1.,0.,0.));
#527 = ADVANCED_FACE('',(#528),#657,.F.);
#528 = FACE_BOUND('',#529,.F.);
#529 = EDGE_LOOP('',(#530,#531,#532,#649,#650,#651));
#530 = ORIENTED_EDGE('',*,*,#506,.F.);
#531 = ORIENTED_EDGE('',*,*,#179,.F.);
#532 = ORIENTED_EDGE('',*,*,#533,.T.);
#533 = EDGE_CURVE('',#171,#163,#534,.T.);
#534 = B_SPLINE_CURVE_WITH_KNOTS('',8,(#535,#536,#537,#538,#539,#540,
    #541,#542,#543,#544,#545,#546,#547,#548,#549,#550,#551,#552,#553,
    #554,#555,#556,#557,#558,#559,#560,#561,#562,#563,#564,#565,#566,
    #567,#568,#569,#570,#571,#572,#573,#574,#575,#576,#577,#578,#579,
    #580,#581,#582,#583,#584,#585,#586,#587,#588,#589,#590,#591,#592,
    #593,#594,#595,#596,#597,#598,#599,#600,#601,#602,#603,#604,#605,
    #606,#607,#608,#609,#610,#611,#612,#613,#614,#615,#616,#617,#618,
    #619,#620,#621,#622,#623,#624,#625,#626,#627,#628,#629,#630,#631,
    #632,#633,#634,#635,#636,#637,#638,#639,#640,#641,#642,#643,#644,
    #645,#646,#647,#648),.UNSPECIFIED.,.F.,.F.,(9,7,7,7,7,7,7,7,7,7,7,7,
    7,7,7,7,9),(0.,0.230890018254,0.268481298912,0.289173591028,
    0.334288303521,0.379192552597,0.40520454385,0.433978052059,
    0.499989447326,0.565789917715,0.594683317528,0.62086931329,
    0.666365873825,0.710666257487,0.730981206948,0.769130417465,1.),
  .UNSPECIFIED.);
#535 = CARTESIAN_POINT('',(34.,5.,6.65));
#536 = CARTESIAN_POINT('',(33.622585288016,5.,6.65));
#537 = CARTESIAN_POINT('',(33.244575101676,4.967442800082,6.650000009087
    ));
#538 = CARTESIAN_POINT('',(32.868027814746,4.902141412867,6.649999853653
    ));
#539 = CARTESIAN_POINT('',(32.495036710215,4.803749077262,6.647760706554
    ));
#540 = CARTESIAN_POINT('',(32.128124991928,4.671638422608,6.638735317163
    ));
#541 = CARTESIAN_POINT('',(31.770452926501,4.505496601996,6.615866370679
    ));
#542 = CARTESIAN_POINT('',(31.426377858224,4.305225565793,6.569130747963
    ));
#543 = CARTESIAN_POINT('',(31.049133888365,4.036903582297,6.469119843476
    ));
#544 = CARTESIAN_POINT('',(30.996889590259,3.998565384173,6.454090318639
    ));
#545 = CARTESIAN_POINT('',(30.945278950133,3.959500906774,6.437980480093
    ));
#546 = CARTESIAN_POINT('',(30.894356535906,3.919756530725,6.420736458403
    ));
#547 = CARTESIAN_POINT('',(30.844173208472,3.879381931511,6.402304375803
    ));
#548 = CARTESIAN_POINT('',(30.794776168828,3.838429938364,6.382630439461
    ));
#549 = CARTESIAN_POINT('',(30.746209005202,3.796956393159,6.36166103476)
  );
#550 = CARTESIAN_POINT('',(30.672256562817,3.731935935288,6.327057654532
    ));
#551 = CARTESIAN_POINT('',(30.646270050341,3.708716126466,6.314366292281
    ));
#552 = CARTESIAN_POINT('',(30.620561301502,3.685372689297,6.301261084352
    ));
#553 = CARTESIAN_POINT('',(30.595139355006,3.661918496712,6.287735056718
    ));
#554 = CARTESIAN_POINT('',(30.570013189509,3.638367188113,6.273781908785
    ));
#555 = CARTESIAN_POINT('',(30.545191723619,3.614733169371,6.259396013387
    ));
#556 = CARTESIAN_POINT('',(30.520683815898,3.591031612827,6.244572416791
    ));
#557 = CARTESIAN_POINT('',(30.443767316754,3.515490246646,6.196023809298
    ));
#558 = CARTESIAN_POINT('',(30.392546264012,3.463434976191,6.160626429468
    ));
#559 = CARTESIAN_POINT('',(30.342948647823,3.411297611955,6.123082106027
    ));
#560 = CARTESIAN_POINT('',(30.295067728044,3.359268008561,6.083375062706
    ));
#561 = CARTESIAN_POINT('',(30.248977607419,3.307538075773,6.041507075571
    ));
#562 = CARTESIAN_POINT('',(30.204734355785,3.256298945037,5.997498208448
    ));
#563 = CARTESIAN_POINT('',(30.162377134292,3.205738136022,5.951387548343
    ));
#564 = CARTESIAN_POINT('',(30.081670196942,3.106567171013,5.85530497348)
  );
#565 = CARTESIAN_POINT('',(30.043330897405,3.057983580116,5.805385464143
    ));
#566 = CARTESIAN_POINT('',(30.006922480539,3.01045293975,5.753528710968)
  );
#567 = CARTESIAN_POINT('',(29.972444516325,2.964138059418,5.699806556753
    ));
#568 = CARTESIAN_POINT('',(29.939886271711,2.919195097953,5.644309671996
    ));
#569 = CARTESIAN_POINT('',(29.909227897133,2.875771092627,5.587147837906
    ));
#570 = CARTESIAN_POINT('',(29.880441613023,2.834001488252,5.528450229413
    ));
#571 = CARTESIAN_POINT('',(29.837882129043,2.770840171703,5.433560121134
    ));
#572 = CARTESIAN_POINT('',(29.82288457189,2.74826338054,5.398281449218)
  );
#573 = CARTESIAN_POINT('',(29.808489700596,2.726295210057,5.362548847863
    ));
#574 = CARTESIAN_POINT('',(29.794687022236,2.704952501521,5.326382558907
    ));
#575 = CARTESIAN_POINT('',(29.78146607524,2.684251020198,5.289803900594)
  );
#576 = CARTESIAN_POINT('',(29.768816429389,2.664205455362,5.252835267573
    ));
#577 = CARTESIAN_POINT('',(29.75672768582,2.644829420287,5.215500130901)
  );
#578 = CARTESIAN_POINT('',(29.732426334736,2.605456872224,5.136146023382
    ));
#579 = CARTESIAN_POINT('',(29.720336642574,2.585612385526,5.094049805451
    ));
#580 = CARTESIAN_POINT('',(29.708903802706,2.566614542713,5.051558878274
    ));
#581 = CARTESIAN_POINT('',(29.698112002684,2.548474750658,5.008698268606
    ));
#582 = CARTESIAN_POINT('',(29.687946215449,2.531203272557,4.96549353593)
  );
#583 = CARTESIAN_POINT('',(29.678392199323,2.514809227923,4.921970772457
    ));
#584 = CARTESIAN_POINT('',(29.669436498014,2.499300592586,4.878156603129
    ));
#585 = CARTESIAN_POINT('',(29.641864083947,2.451151667755,4.732954686173
    ));
#586 = CARTESIAN_POINT('',(29.625748764539,2.422323465286,4.630465432879
    ));
#587 = CARTESIAN_POINT('',(29.612548113735,2.398246931542,4.526847926076
    ));
#588 = CARTESIAN_POINT('',(29.602125148556,2.3789573253,4.4223375366));
#589 = CARTESIAN_POINT('',(29.594377538524,2.364478707803,4.317167505136
    ));
#590 = CARTESIAN_POINT('',(29.589236872493,2.354824826701,4.211568941583
    ));
#591 = CARTESIAN_POINT('',(29.586667925479,2.35,4.105770824407));
#592 = CARTESIAN_POINT('',(29.586667925479,2.35,3.894567142971));
#593 = CARTESIAN_POINT('',(29.589220482654,2.354794041417,3.789107464667
    ));
#594 = CARTESIAN_POINT('',(29.594328315833,2.364386267519,3.683845512897
    ));
#595 = CARTESIAN_POINT('',(29.602026201723,2.378772413045,3.579007945265
    ));
#596 = CARTESIAN_POINT('',(29.612381695908,2.397938935253,3.474823529293
    ));
#597 = CARTESIAN_POINT('',(29.625495853862,2.421862144958,3.371523142537
    ));
#598 = CARTESIAN_POINT('',(29.641503951945,2.450507337583,3.269339772716
    ));
#599 = CARTESIAN_POINT('',(29.668950956011,2.498459203045,3.124232880528
    ));
#600 = CARTESIAN_POINT('',(29.677915648154,2.513990423797,3.080222639912
    ));
#601 = CARTESIAN_POINT('',(29.687483088969,2.530414721559,3.036505256755
    ));
#602 = CARTESIAN_POINT('',(29.697666883372,2.547724070664,2.993107657023
    ));
#603 = CARTESIAN_POINT('',(29.708481437069,2.565909284667,2.950056231866
    ));
#604 = CARTESIAN_POINT('',(29.719941956552,2.584960016346,2.907376837622
    ));
#605 = CARTESIAN_POINT('',(29.732064449103,2.604864757703,2.865094795815
    ));
#606 = CARTESIAN_POINT('',(29.756467476155,2.644412947899,2.785297397375
    ));
#607 = CARTESIAN_POINT('',(29.768626925535,2.663906531776,2.747705941846
    ));
#608 = CARTESIAN_POINT('',(29.781354646626,2.684078820777,2.710485586413
    ));
#609 = CARTESIAN_POINT('',(29.794661247402,2.704915939108,2.673660285578
    ));
#610 = CARTESIAN_POINT('',(29.808557368115,2.726402905985,2.63725288851)
  );
#611 = CARTESIAN_POINT('',(29.823053681294,2.748523635644,2.601285139044
    ));
#612 = CARTESIAN_POINT('',(29.838160891747,2.77126093733,2.565777675679)
  );
#613 = CARTESIAN_POINT('',(29.881217639094,2.835140649879,2.46989164969)
  );
#614 = CARTESIAN_POINT('',(29.910432753487,2.877507045696,2.410457574029
    ));
#615 = CARTESIAN_POINT('',(29.941570831232,2.921569122592,2.352603003259
    ));
#616 = CARTESIAN_POINT('',(29.974660447686,2.967185430451,2.296462312328
    ));
#617 = CARTESIAN_POINT('',(30.009721730745,3.014202301011,2.242149359845
    ));
#618 = CARTESIAN_POINT('',(30.046765089532,3.062456499687,2.189757795458
    ));
#619 = CARTESIAN_POINT('',(30.085789943073,3.111777877376,2.13936136723)
  );
#620 = CARTESIAN_POINT('',(30.16669917048,3.210885957509,2.043938213894)
  );
#621 = CARTESIAN_POINT('',(30.208453591438,3.260592347559,1.998837782398
    ));
#622 = CARTESIAN_POINT('',(30.252023547899,3.310939425032,1.955767033722
    ));
#623 = CARTESIAN_POINT('',(30.297371137075,3.361749588216,1.914761775696
    ));
#624 = CARTESIAN_POINT('',(30.344442695559,3.412841984067,1.875840195941
    ));
#625 = CARTESIAN_POINT('',(30.393167777525,3.464035091191,1.839003533022
    ));
#626 = CARTESIAN_POINT('',(30.443458132941,3.515149302837,1.804236747601
    ));
#627 = CARTESIAN_POINT('',(30.518937162769,3.589332615689,1.756501228634
    ));
#628 = CARTESIAN_POINT('',(30.542978698654,3.612606597295,1.741919452675
    ));
#629 = CARTESIAN_POINT('',(30.567322977417,3.635816349724,1.727759848085
    ));
#630 = CARTESIAN_POINT('',(30.59196162309,3.658947478471,1.714017766379)
  );
#631 = CARTESIAN_POINT('',(30.616886199747,3.681986299501,1.70068792822)
  );
#632 = CARTESIAN_POINT('',(30.642088211508,3.704919839243,1.687764423413
    ));
#633 = CARTESIAN_POINT('',(30.667559102531,3.727735834598,1.675240710915
    ));
#634 = CARTESIAN_POINT('',(30.741610496819,3.793026199021,1.640328780172
    ));
#635 = CARTESIAN_POINT('',(30.790830705881,3.835158570507,1.618941275347
    ));
#636 = CARTESIAN_POINT('',(30.840909178774,3.876758098788,1.59889151523)
  );
#637 = CARTESIAN_POINT('',(30.891800403084,3.917766071341,1.580123590614
    ));
#638 = CARTESIAN_POINT('',(30.943455007425,3.958126966555,1.562581373866
    ));
#639 = CARTESIAN_POINT('',(30.995819709434,3.997788608579,1.546208620608
    ));
#640 = CARTESIAN_POINT('',(31.048837263785,4.036702322156,1.530949071378
    ));
#641 = CARTESIAN_POINT('',(31.426875699317,4.305520526641,1.430796428164
    ));
#642 = CARTESIAN_POINT('',(31.770949807006,4.505738412658,1.384095043089
    ));
#643 = CARTESIAN_POINT('',(32.128610268023,4.671826048727,1.36124820666)
  );
#644 = CARTESIAN_POINT('',(32.495502392056,4.803890163918,1.352232750117
    ));
#645 = CARTESIAN_POINT('',(32.868476445316,4.902239077056,1.349998915376
    ));
#646 = CARTESIAN_POINT('',(33.244995674002,4.967503813743,1.349999950077
    ));
#647 = CARTESIAN_POINT('',(33.622987247911,5.000028885668,1.35));
#648 = CARTESIAN_POINT('',(34.000382891652,4.999999985339,1.35));
#649 = ORIENTED_EDGE('',*,*,#162,.F.);
#650 = ORIENTED_EDGE('',*,*,#437,.T.);
#651 = ORIENTED_EDGE('',*,*,#652,.T.);
#652 = EDGE_CURVE('',#430,#499,#653,.T.);
#653 = LINE('',#654,#655);
#654 = CARTESIAN_POINT('',(29.,0.,8.));
#655 = VECTOR('',#656,1.);
#656 = DIRECTION('',(0.,0.,1.));
#657 = CYLINDRICAL_SURFACE('',#658,5.);
#658 = AXIS2_PLACEMENT_3D('',#659,#660,#661);
#659 = CARTESIAN_POINT('',(34.,0.,8.));
#660 = DIRECTION('',(0.,0.,1.));
#661 = DIRECTION('',(1.,0.,0.));
#662 = ADVANCED_FACE('',(#663),#683,.F.);
#663 = FACE_BOUND('',#664,.T.);
#664 = EDGE_LOOP('',(#665,#674,#680,#681,#682));
#665 = ORIENTED_EDGE('',*,*,#666,.T.);
#666 = EDGE_CURVE('',#667,#667,#669,.T.);
#667 = VERTEX_POINT('',#668);
#668 = CARTESIAN_POINT('',(0.,5.,6.65));
#669 = CIRCLE('',#670,2.65);
#670 = AXIS2_PLACEMENT_3D('',#671,#672,#673);
#671 = CARTESIAN_POINT('',(0.,5.,4.));
#672 = DIRECTION('',(-1.,0.,0.));
#673 = DIRECTION('',(0.,0.,1.));
#674 = ORIENTED_EDGE('',*,*,#675,.T.);
#675 = EDGE_CURVE('',#667,#171,#676,.T.);
#676 = LINE('',#677,#678);
#677 = CARTESIAN_POINT('',(0.,5.,6.65));
#678 = VECTOR('',#679,1.);
#679 = DIRECTION('',(1.,0.,-6.256611727356E-17));
#680 = ORIENTED_EDGE('',*,*,#533,.T.);
#681 = ORIENTED_EDGE('',*,*,#170,.T.);
#682 = ORIENTED_EDGE('',*,*,#675,.F.);
#683 = CYLINDRICAL_SURFACE('',#684,2.65);
#684 = AXIS2_PLACEMENT_3D('',#685,#686,#687);
#685 = CARTESIAN_POINT('',(0.,5.,4.));
#686 = DIRECTION('',(1.,0.,0.));
#687 = DIRECTION('',(0.,0.,1.));
#688 = ADVANCED_FACE('',(#689),#818,.F.);
#689 = FACE_BOUND('',#690,.F.);
#690 = EDGE_LOOP('',(#691,#692,#698,#699,#700,#817));
#691 = ORIENTED_EDGE('',*,*,#516,.F.);
#692 = ORIENTED_EDGE('',*,*,#693,.F.);
#693 = EDGE_CURVE('',#412,#481,#694,.T.);
#694 = LINE('',#695,#696);
#695 = CARTESIAN_POINT('',(29.,65.,8.));
#696 = VECTOR('',#697,1.);
#697 = DIRECTION('',(0.,0.,1.));
#698 = ORIENTED_EDGE('',*,*,#453,.T.);
#699 = ORIENTED_EDGE('',*,*,#358,.T.);
#700 = ORIENTED_EDGE('',*,*,#701,.F.);
#701 = EDGE_CURVE('',#342,#350,#702,.T.);
#702 = B_SPLINE_CURVE_WITH_KNOTS('',8,(#703,#704,#705,#706,#707,#708,
    #709,#710,#711,#712,#713,#714,#715,#716,#717,#718,#719,#720,#721,
    #722,#723,#724,#725,#726,#727,#728,#729,#730,#731,#732,#733,#734,
    #735,#736,#737,#738,#739,#740,#741,#742,#743,#744,#745,#746,#747,
    #748,#749,#750,#751,#752,#753,#754,#755,#756,#757,#758,#759,#760,
    #761,#762,#763,#764,#765,#766,#767,#768,#769,#770,#771,#772,#773,
    #774,#775,#776,#777,#778,#779,#780,#781,#782,#783,#784,#785,#786,
    #787,#788,#789,#790,#791,#792,#793,#794,#795,#796,#797,#798,#799,
    #800,#801,#802,#803,#804,#805,#806,#807,#808,#809,#810,#811,#812,
    #813,#814,#815,#816),.UNSPECIFIED.,.F.,.F.,(9,7,7,7,7,7,7,7,7,7,7,7,
    7,7,7,7,9),(0.,0.230840355848,0.268989558278,0.289304503433,
    0.333604877705,0.379101428596,0.4052874169,0.434180809468,
    0.499981270097,0.565992655569,0.594766159524,0.620778148748,
    0.665682397527,0.71079710972,0.731489401699,0.769080682107,1.),
  .UNSPECIFIED.);
#703 = CARTESIAN_POINT('',(34.,60.,6.65));
#704 = CARTESIAN_POINT('',(33.622651865905,60.,6.65));
#705 = CARTESIAN_POINT('',(33.244709687698,60.03254582112,6.650000049694
    ));
#706 = CARTESIAN_POINT('',(32.868240625971,60.097823162182,
    6.649999669899));
#707 = CARTESIAN_POINT('',(32.495316939603,60.196176592408,
    6.647762671664));
#708 = CARTESIAN_POINT('',(32.128474580011,60.32823693326,6.638743151335
    ));
#709 = CARTESIAN_POINT('',(31.77086274112,60.494312264976,6.615893126868
    ));
#710 = CARTESIAN_POINT('',(31.426834697302,60.694508629358,6.56919270929
    ));
#711 = CARTESIAN_POINT('',(31.048837263785,60.963297677844,
    6.469050928622));
#712 = CARTESIAN_POINT('',(30.995819709434,61.002211391421,
    6.453791379392));
#713 = CARTESIAN_POINT('',(30.943455007424,61.041873033445,
    6.437418626134));
#714 = CARTESIAN_POINT('',(30.891800403084,61.082233928659,
    6.419876409386));
#715 = CARTESIAN_POINT('',(30.840909178774,61.123241901212,6.40110848477
    ));
#716 = CARTESIAN_POINT('',(30.790830705881,61.164841429493,
    6.381058724653));
#717 = CARTESIAN_POINT('',(30.741610496819,61.206973800979,
    6.359671219828));
#718 = CARTESIAN_POINT('',(30.667559102531,61.272264165402,
    6.324759289085));
#719 = CARTESIAN_POINT('',(30.642088211508,61.295080160757,
    6.312235576586));
#720 = CARTESIAN_POINT('',(30.616886199747,61.3180137005,6.29931207178)
  );
#721 = CARTESIAN_POINT('',(30.59196162309,61.341052521529,6.285982233621
    ));
#722 = CARTESIAN_POINT('',(30.567322977417,61.364183650276,
    6.272240151915));
#723 = CARTESIAN_POINT('',(30.542978698654,61.387393402705,
    6.258080547325));
#724 = CARTESIAN_POINT('',(30.518937162769,61.410667384311,
    6.243498771366));
#725 = CARTESIAN_POINT('',(30.443458132941,61.484850697163,
    6.195763252399));
#726 = CARTESIAN_POINT('',(30.393167777525,61.535964908809,
    6.160996466978));
#727 = CARTESIAN_POINT('',(30.344442695559,61.587158015933,
    6.124159804059));
#728 = CARTESIAN_POINT('',(30.297371137075,61.638250411784,
    6.085238224304));
#729 = CARTESIAN_POINT('',(30.252023547899,61.689060574968,
    6.044232966278));
#730 = CARTESIAN_POINT('',(30.208453591438,61.739407652441,
    6.001162217602));
#731 = CARTESIAN_POINT('',(30.16669917048,61.789114042491,5.956061786106
    ));
#732 = CARTESIAN_POINT('',(30.085789943073,61.888222122624,5.86063863277
    ));
#733 = CARTESIAN_POINT('',(30.046765089532,61.937543500313,
    5.810242204542));
#734 = CARTESIAN_POINT('',(30.009721730745,61.985797698989,
    5.757850640154));
#735 = CARTESIAN_POINT('',(29.974660447686,62.03281456955,5.703537687672
    ));
#736 = CARTESIAN_POINT('',(29.941570831232,62.078430877408,
    5.647396996741));
#737 = CARTESIAN_POINT('',(29.910432753487,62.122492954304,
    5.589542425971));
#738 = CARTESIAN_POINT('',(29.881217639094,62.164859350121,
    5.530108350309));
#739 = CARTESIAN_POINT('',(29.838160892892,62.22873906097,5.434222326872
    ));
#740 = CARTESIAN_POINT('',(29.823053681856,62.251476363568,
    5.398714861875));
#741 = CARTESIAN_POINT('',(29.808557367718,62.273597094675,
    5.362747110067));
#742 = CARTESIAN_POINT('',(29.794661246505,62.295084062277,
    5.326339712023));
#743 = CARTESIAN_POINT('',(29.781354645997,62.315921180148,
    5.289514412258));
#744 = CARTESIAN_POINT('',(29.768626925725,62.336093467859,
    5.252294059223));
#745 = CARTESIAN_POINT('',(29.756467476976,62.355587050771,
    5.214702605308));
#746 = CARTESIAN_POINT('',(29.732064447761,62.395135244472,
    5.134905199797));
#747 = CARTESIAN_POINT('',(29.719941955855,62.415039984741,
    5.092623160765));
#748 = CARTESIAN_POINT('',(29.708481437469,62.434090714614,
    5.049943770529));
#749 = CARTESIAN_POINT('',(29.697666884374,62.452275927659,
    5.006892347064));
#750 = CARTESIAN_POINT('',(29.687483089715,62.469585277239,
    4.963494745537));
#751 = CARTESIAN_POINT('',(29.677915648011,62.486009576516,4.91977735831
    ));
#752 = CARTESIAN_POINT('',(29.668950955154,62.501540798453,4.87576711494
    ));
#753 = CARTESIAN_POINT('',(29.641503951945,62.549492662417,
    4.730660227284));
#754 = CARTESIAN_POINT('',(29.625495853862,62.578137855042,
    4.628476857463));
#755 = CARTESIAN_POINT('',(29.612381695908,62.602061064747,
    4.525176470707));
#756 = CARTESIAN_POINT('',(29.602026201723,62.621227586955,
    4.420992054735));
#757 = CARTESIAN_POINT('',(29.594328315833,62.635613732481,
    4.316154487103));
#758 = CARTESIAN_POINT('',(29.589220482654,62.645205958583,
    4.210892535333));
#759 = CARTESIAN_POINT('',(29.586667925479,62.65,4.105432857029));
#760 = CARTESIAN_POINT('',(29.586667925479,62.65,3.894229175596));
#761 = CARTESIAN_POINT('',(29.589236872493,62.645175173299,
    3.788431058418));
#762 = CARTESIAN_POINT('',(29.594377538524,62.635521292197,
    3.682832494863));
#763 = CARTESIAN_POINT('',(29.602125148556,62.621042674699,
    3.577662463398));
#764 = CARTESIAN_POINT('',(29.612548113735,62.601753068458,
    3.473152073923));
#765 = CARTESIAN_POINT('',(29.625748764539,62.577676534714,
    3.369534567122));
#766 = CARTESIAN_POINT('',(29.641864083946,62.548848332246,
    3.267045313829));
#767 = CARTESIAN_POINT('',(29.669436498019,62.500699407406,
    3.121843396847));
#768 = CARTESIAN_POINT('',(29.678392199324,62.485190772076,
    3.078029227533));
#769 = CARTESIAN_POINT('',(29.687946215445,62.468796727449,
    3.034506464082));
#770 = CARTESIAN_POINT('',(29.698112002679,62.45152524935,2.991301731415
    ));
#771 = CARTESIAN_POINT('',(29.708903802704,62.433385457291,
    2.948441121739));
#772 = CARTESIAN_POINT('',(29.720336642578,62.414387614468,
    2.905950194541));
#773 = CARTESIAN_POINT('',(29.732426334743,62.394543127764,
    2.863853976596));
#774 = CARTESIAN_POINT('',(29.756727686619,62.355170578418,
    2.784499866488));
#775 = CARTESIAN_POINT('',(29.768816429575,62.33579454428,2.747164731386
    ));
#776 = CARTESIAN_POINT('',(29.781466074628,62.315748980701,2.7101961007)
  );
#777 = CARTESIAN_POINT('',(29.794687021364,62.295047499827,
    2.673617443428));
#778 = CARTESIAN_POINT('',(29.808489700209,62.273704790587,
    2.637451153522));
#779 = CARTESIAN_POINT('',(29.822884572435,62.251736618694,
    2.601718549887));
#780 = CARTESIAN_POINT('',(29.837882130157,62.229159826644,
    2.566439876383));
#781 = CARTESIAN_POINT('',(29.880441613023,62.165998511748,
    2.471549770587));
#782 = CARTESIAN_POINT('',(29.909227897133,62.124228907373,
    2.412852162094));
#783 = CARTESIAN_POINT('',(29.939886271711,62.080804902047,
    2.355690328004));
#784 = CARTESIAN_POINT('',(29.972444516325,62.035861940582,
    2.300193443247));
#785 = CARTESIAN_POINT('',(30.006922480539,61.98954706025,2.246471289032
    ));
#786 = CARTESIAN_POINT('',(30.043330897405,61.942016419884,
    2.194614535857));
#787 = CARTESIAN_POINT('',(30.081670196942,61.893432828987,2.14469502652
    ));
#788 = CARTESIAN_POINT('',(30.162377134292,61.794261863978,
    2.048612451657));
#789 = CARTESIAN_POINT('',(30.204734355785,61.743701054963,
    2.002501791552));
#790 = CARTESIAN_POINT('',(30.248977607419,61.692461924227,
    1.958492924429));
#791 = CARTESIAN_POINT('',(30.295067728044,61.640731991439,
    1.916624937294));
#792 = CARTESIAN_POINT('',(30.342948647823,61.588702388045,
    1.876917893973));
#793 = CARTESIAN_POINT('',(30.392546264012,61.536565023809,
    1.839373570532));
#794 = CARTESIAN_POINT('',(30.443767316754,61.484509753354,
    1.803976190702));
#795 = CARTESIAN_POINT('',(30.520683815898,61.408968387173,
    1.755427583209));
#796 = CARTESIAN_POINT('',(30.545191723619,61.385266830629,
    1.740603986613));
#797 = CARTESIAN_POINT('',(30.570013189509,61.361632811887,
    1.726218091215));
#798 = CARTESIAN_POINT('',(30.595139355006,61.338081503288,
    1.712264943282));
#799 = CARTESIAN_POINT('',(30.620561301502,61.314627310703,
    1.698738915648));
#800 = CARTESIAN_POINT('',(30.646270050341,61.291283873534,
    1.685633707719));
#801 = CARTESIAN_POINT('',(30.672256562817,61.268064064712,
    1.672942345468));
#802 = CARTESIAN_POINT('',(30.746209005202,61.203043606841,1.63833896524
    ));
#803 = CARTESIAN_POINT('',(30.794776168828,61.161570061636,
    1.617369560539));
#804 = CARTESIAN_POINT('',(30.844173208472,61.120618068489,
    1.597695624198));
#805 = CARTESIAN_POINT('',(30.894356535906,61.080243469275,
    1.579263541597));
#806 = CARTESIAN_POINT('',(30.945278950133,61.040499093226,
    1.562019519907));
#807 = CARTESIAN_POINT('',(30.996889590259,61.001434615827,
    1.545909681361));
#808 = CARTESIAN_POINT('',(31.049133888365,60.963096417703,
    1.530880156524));
#809 = CARTESIAN_POINT('',(31.426419029399,60.694745150422,
    1.430858337173));
#810 = CARTESIAN_POINT('',(31.770540084508,60.494452689299,
    1.384121814662));
#811 = CARTESIAN_POINT('',(32.128260644008,60.328298618448,
    1.361256027422));
#812 = CARTESIAN_POINT('',(32.495222146411,60.196184125279,
    1.352234714348));
#813 = CARTESIAN_POINT('',(32.868263690105,60.097796344888,
    1.349998731359));
#814 = CARTESIAN_POINT('',(33.244861035719,60.03250756488,1.349999990519
    ));
#815 = CARTESIAN_POINT('',(33.622920622317,59.999971109231,1.35));
#816 = CARTESIAN_POINT('',(34.000382891641,60.000000014661,1.35));
#817 = ORIENTED_EDGE('',*,*,#341,.T.);
#818 = CYLINDRICAL_SURFACE('',#819,5.);
#819 = AXIS2_PLACEMENT_3D('',#820,#821,#822);
#820 = CARTESIAN_POINT('',(34.,65.,8.));
#821 = DIRECTION('',(0.,0.,1.));
#822 = DIRECTION('',(1.,0.,0.));
#823 = ADVANCED_FACE('',(#824),#844,.F.);
#824 = FACE_BOUND('',#825,.T.);
#825 = EDGE_LOOP('',(#826,#835,#841,#842,#843));
#826 = ORIENTED_EDGE('',*,*,#827,.T.);
#827 = EDGE_CURVE('',#828,#828,#830,.T.);
#828 = VERTEX_POINT('',#829);
#829 = CARTESIAN_POINT('',(0.,60.,6.65));
#830 = CIRCLE('',#831,2.65);
#831 = AXIS2_PLACEMENT_3D('',#832,#833,#834);
#832 = CARTESIAN_POINT('',(0.,60.,4.));
#833 = DIRECTION('',(-1.,0.,0.));
#834 = DIRECTION('',(0.,0.,1.));
#835 = ORIENTED_EDGE('',*,*,#836,.T.);
#836 = EDGE_CURVE('',#828,#342,#837,.T.);
#837 = LINE('',#838,#839);
#838 = CARTESIAN_POINT('',(0.,60.,6.65));
#839 = VECTOR('',#840,1.);
#840 = DIRECTION('',(1.,0.,-6.256611727356E-17));
#841 = ORIENTED_EDGE('',*,*,#349,.T.);
#842 = ORIENTED_EDGE('',*,*,#701,.F.);
#843 = ORIENTED_EDGE('',*,*,#836,.F.);
#844 = CYLINDRICAL_SURFACE('',#845,2.65);
#845 = AXIS2_PLACEMENT_3D('',#846,#847,#848);
#846 = CARTESIAN_POINT('',(0.,60.,4.));
#847 = DIRECTION('',(1.,0.,0.));
#848 = DIRECTION('',(0.,0.,1.));
#849 = ADVANCED_FACE('',(#850),#861,.F.);
#850 = FACE_BOUND('',#851,.F.);
#851 = EDGE_LOOP('',(#852,#853,#854,#855));
#852 = ORIENTED_EDGE('',*,*,#411,.F.);
#853 = ORIENTED_EDGE('',*,*,#693,.T.);
#854 = ORIENTED_EDGE('',*,*,#480,.T.);
#855 = ORIENTED_EDGE('',*,*,#856,.F.);
#856 = EDGE_CURVE('',#414,#483,#857,.T.);
#857 = LINE('',#858,#859);
#858 = CARTESIAN_POINT('',(0.,65.,0.));
#859 = VECTOR('',#860,1.);
#860 = DIRECTION('',(0.,0.,1.));
#861 = PLANE('',#862);
#862 = AXIS2_PLACEMENT_3D('',#863,#864,#865);
#863 = CARTESIAN_POINT('',(34.,65.,0.));
#864 = DIRECTION('',(0.,-1.,0.));
#865 = DIRECTION('',(-1.,0.,0.));
#866 = ADVANCED_FACE('',(#867),#878,.F.);
#867 = FACE_BOUND('',#868,.F.);
#868 = EDGE_LOOP('',(#869,#870,#876,#877));
#869 = ORIENTED_EDGE('',*,*,#429,.F.);
#870 = ORIENTED_EDGE('',*,*,#871,.T.);
#871 = EDGE_CURVE('',#422,#491,#872,.T.);
#872 = LINE('',#873,#874);
#873 = CARTESIAN_POINT('',(0.,0.,0.));
#874 = VECTOR('',#875,1.);
#875 = DIRECTION('',(0.,0.,1.));
#876 = ORIENTED_EDGE('',*,*,#498,.T.);
#877 = ORIENTED_EDGE('',*,*,#652,.F.);
#878 = PLANE('',#879);
#879 = AXIS2_PLACEMENT_3D('',#880,#881,#882);
#880 = CARTESIAN_POINT('',(0.,0.,0.));
#881 = DIRECTION('',(0.,1.,0.));
#882 = DIRECTION('',(1.,0.,0.));
#883 = ADVANCED_FACE('',(#884,#890,#893),#896,.F.);
#884 = FACE_BOUND('',#885,.F.);
#885 = EDGE_LOOP('',(#886,#887,#888,#889));
#886 = ORIENTED_EDGE('',*,*,#856,.T.);
#887 = ORIENTED_EDGE('',*,*,#490,.T.);
#888 = ORIENTED_EDGE('',*,*,#871,.F.);
#889 = ORIENTED_EDGE('',*,*,#421,.F.);
#890 = FACE_BOUND('',#891,.F.);
#891 = EDGE_LOOP('',(#892));
#892 = ORIENTED_EDGE('',*,*,#827,.T.);
#893 = FACE_BOUND('',#894,.F.);
#894 = EDGE_LOOP('',(#895));
#895 = ORIENTED_EDGE('',*,*,#666,.T.);
#896 = PLANE('',#897);
#897 = AXIS2_PLACEMENT_3D('',#898,#899,#900);
#898 = CARTESIAN_POINT('',(0.,65.,0.));
#899 = DIRECTION('',(1.,0.,0.));
#900 = DIRECTION('',(0.,-1.,0.));
#901 = ( GEOMETRIC_REPRESENTATION_CONTEXT(3) 
GLOBAL_UNCERTAINTY_ASSIGNED_CONTEXT((#905)) GLOBAL_UNIT_ASSIGNED_CONTEXT
((#902,#903,#904)) REPRESENTATION_CONTEXT('Context #1',
  '3D Context with UNIT and UNCERTAINTY') );
#902 = ( LENGTH_UNIT() NAMED_UNIT(*) SI_UNIT(.MILLI.,.METRE.) );
#903 = ( NAMED_UNIT(*) PLANE_ANGLE_UNIT() SI_UNIT($,.RADIAN.) );
#904 = ( NAMED_UNIT(*) SI_UNIT($,.STERADIAN.) SOLID_ANGLE_UNIT() );
#905 = UNCERTAINTY_MEASURE_WITH_UNIT(LENGTH_MEASURE(1.E-07),#902,
  'distance_accuracy_value','confusion accuracy');
#906 = PRODUCT_RELATED_PRODUCT_CATEGORY('part',$,(#7));
#907 = MECHANICAL_DESIGN_GEOMETRIC_PRESENTATION_REPRESENTATION('',(#908)
  ,#901);
#908 = STYLED_ITEM('color',(#909),#15);
#909 = PRESENTATION_STYLE_ASSIGNMENT((#910,#916));
#910 = SURFACE_STYLE_USAGE(.BOTH.,#911);
#911 = SURFACE_SIDE_STYLE('',(#912));
#912 = SURFACE_STYLE_FILL_AREA(#913);
#913 = FILL_AREA_STYLE('',(#914));
#914 = FILL_AREA_STYLE_COLOUR('',#915);
#915 = COLOUR_RGB('',0.678431390124,0.709803936702,0.741176476869);
#916 = CURVE_STYLE('',#917,POSITIVE_LENGTH_MEASURE(0.1),#918);
#917 = DRAUGHTING_PRE_DEFINED_CURVE_FONT('continuous');
#918 = COLOUR_RGB('',9.803921802644E-02,9.803921802644E-02,
  9.803921802644E-02);
ENDSEC;
END-ISO-10303-21;
