ISO-10303-21;
HEADER;
FILE_DESCRIPTION(('FreeCAD Model'),'2;1');
FILE_NAME('Open CASCADE Shape Model','2026-09-09T11:38:57',(''),(''),
  'Open CASCADE STEP processor 7.8','FreeCAD','Unknown');
FILE_SCHEMA(('AUTOMOTIVE_DESIGN { 1 0 10303 214 1 1 1 1 }'));
ENDSEC;
DATA;
#1 = APPLICATION_PROTOCOL_DEFINITION('international standard',
  'automotive_design',2000,#2);
#2 = APPLICATION_CONTEXT(
  'core data for automotive mechanical design processes');
#3 = SHAPE_DEFINITION_REPRESENTATION(#4,#10);
#4 = PRODUCT_DEFINITION_SHAPE('','',#5);
#5 = PRODUCT_DEFINITION('design','',#6,#9);
#6 = PRODUCT_DEFINITION_FORMATION('','',#7);
#7 = PRODUCT('00_LowerDisk','00_LowerDisk','',(#8));
#8 = PRODUCT_CONTEXT('',#2,'mechanical');
#9 = PRODUCT_DEFINITION_CONTEXT('part definition',#2,'design');
#10 = ADVANCED_BREP_SHAPE_REPRESENTATION('',(#11,#15),#287);
#11 = AXIS2_PLACEMENT_3D('',#12,#13,#14);
#12 = CARTESIAN_POINT('',(0.,0.,0.));
#13 = DIRECTION('',(0.,0.,1.));
#14 = DIRECTION('',(1.,0.,-0.));
#15 = MANIFOLD_SOLID_BREP('',#16);
#16 = CLOSED_SHELL('',(#17,#50,#70,#134,#151,#176,#201,#226,#251,#260,
    #269,#278));
#17 = ADVANCED_FACE('',(#18),#45,.T.);
#18 = FACE_BOUND('',#19,.F.);
#19 = EDGE_LOOP('',(#20,#30,#37,#38));
#20 = ORIENTED_EDGE('',*,*,#21,.T.);
#21 = EDGE_CURVE('',#22,#24,#26,.T.);
#22 = VERTEX_POINT('',#23);
#23 = CARTESIAN_POINT('',(50.,0.,0.));
#24 = VERTEX_POINT('',#25);
#25 = CARTESIAN_POINT('',(50.,0.,8.));
#26 = LINE('',#27,#28);
#27 = CARTESIAN_POINT('',(50.,0.,0.));
#28 = VECTOR('',#29,1.);
#29 = DIRECTION('',(0.,0.,1.));
#30 = ORIENTED_EDGE('',*,*,#31,.T.);
#31 = EDGE_CURVE('',#24,#24,#32,.T.);
#32 = CIRCLE('',#33,50.);
#33 = AXIS2_PLACEMENT_3D('',#34,#35,#36);
#34 = CARTESIAN_POINT('',(0.,0.,8.));
#35 = DIRECTION('',(0.,0.,1.));
#36 = DIRECTION('',(1.,0.,0.));
#37 = ORIENTED_EDGE('',*,*,#21,.F.);
#38 = ORIENTED_EDGE('',*,*,#39,.F.);
#39 = EDGE_CURVE('',#22,#22,#40,.T.);
#40 = CIRCLE('',#41,50.);
#41 = AXIS2_PLACEMENT_3D('',#42,#43,#44);
#42 = CARTESIAN_POINT('',(0.,0.,0.));
#43 = DIRECTION('',(0.,0.,1.));
#44 = DIRECTION('',(1.,0.,0.));
#45 = CYLINDRICAL_SURFACE('',#46,50.);
#46 = AXIS2_PLACEMENT_3D('',#47,#48,#49);
#47 = CARTESIAN_POINT('',(0.,0.,0.));
#48 = DIRECTION('',(-0.,-0.,-1.));
#49 = DIRECTION('',(1.,0.,0.));
#50 = ADVANCED_FACE('',(#51,#54),#65,.F.);
#51 = FACE_BOUND('',#52,.F.);
#52 = EDGE_LOOP('',(#53));
#53 = ORIENTED_EDGE('',*,*,#39,.T.);
#54 = FACE_BOUND('',#55,.T.);
#55 = EDGE_LOOP('',(#56));
#56 = ORIENTED_EDGE('',*,*,#57,.T.);
#57 = EDGE_CURVE('',#58,#58,#60,.T.);
#58 = VERTEX_POINT('',#59);
#59 = CARTESIAN_POINT('',(39.,0.,0.));
#60 = CIRCLE('',#61,39.);
#61 = AXIS2_PLACEMENT_3D('',#62,#63,#64);
#62 = CARTESIAN_POINT('',(0.,0.,0.));
#63 = DIRECTION('',(0.,0.,1.));
#64 = DIRECTION('',(1.,0.,0.));
#65 = PLANE('',#66);
#66 = AXIS2_PLACEMENT_3D('',#67,#68,#69);
#67 = CARTESIAN_POINT('',(-3.933310943035E-15,-1.14667303291E-15,0.));
#68 = DIRECTION('',(0.,0.,1.));
#69 = DIRECTION('',(1.,0.,0.));
#70 = ADVANCED_FACE('',(#71,#74,#85,#96,#107,#118),#129,.T.);
#71 = FACE_BOUND('',#72,.T.);
#72 = EDGE_LOOP('',(#73));
#73 = ORIENTED_EDGE('',*,*,#31,.T.);
#74 = FACE_BOUND('',#75,.T.);
#75 = EDGE_LOOP('',(#76));
#76 = ORIENTED_EDGE('',*,*,#77,.F.);
#77 = EDGE_CURVE('',#78,#78,#80,.T.);
#78 = VERTEX_POINT('',#79);
#79 = CARTESIAN_POINT('',(-44.5,3.1,8.));
#80 = CIRCLE('',#81,3.1);
#81 = AXIS2_PLACEMENT_3D('',#82,#83,#84);
#82 = CARTESIAN_POINT('',(-44.5,-2.127595075404E-13,8.));
#83 = DIRECTION('',(2.22044604925E-16,-1.232595164408E-32,1.));
#84 = DIRECTION('',(1.110223024625E-16,1.,-1.232595164408E-32));
#85 = FACE_BOUND('',#86,.T.);
#86 = EDGE_LOOP('',(#87));
#87 = ORIENTED_EDGE('',*,*,#88,.F.);
#88 = EDGE_CURVE('',#89,#89,#91,.T.);
#89 = VERTEX_POINT('',#90);
#90 = CARTESIAN_POINT('',(-3.1,-44.5,8.));
#91 = CIRCLE('',#92,3.1);
#92 = AXIS2_PLACEMENT_3D('',#93,#94,#95);
#93 = CARTESIAN_POINT('',(2.140266785832E-13,-44.5,8.));
#94 = DIRECTION('',(2.22044604925E-16,2.22044604925E-16,1.));
#95 = DIRECTION('',(-1.,1.224646799147E-16,2.22044604925E-16));
#96 = FACE_BOUND('',#97,.T.);
#97 = EDGE_LOOP('',(#98));
#98 = ORIENTED_EDGE('',*,*,#99,.F.);
#99 = EDGE_CURVE('',#100,#100,#102,.T.);
#100 = VERTEX_POINT('',#101);
#101 = CARTESIAN_POINT('',(3.1,44.500000000002,8.));
#102 = CIRCLE('',#103,3.1);
#103 = AXIS2_PLACEMENT_3D('',#104,#105,#106);
#104 = CARTESIAN_POINT('',(-2.177E-13,44.500000000002,8.));
#105 = DIRECTION('',(0.,0.,1.));
#106 = DIRECTION('',(1.,0.,0.));
#107 = FACE_BOUND('',#108,.T.);
#108 = EDGE_LOOP('',(#109));
#109 = ORIENTED_EDGE('',*,*,#110,.F.);
#110 = EDGE_CURVE('',#111,#111,#113,.T.);
#111 = VERTEX_POINT('',#112);
#112 = CARTESIAN_POINT('',(39.,0.,8.));
#113 = CIRCLE('',#114,39.);
#114 = AXIS2_PLACEMENT_3D('',#115,#116,#117);
#115 = CARTESIAN_POINT('',(0.,0.,8.));
#116 = DIRECTION('',(0.,0.,1.));
#117 = DIRECTION('',(1.,0.,0.));
#118 = FACE_BOUND('',#119,.T.);
#119 = EDGE_LOOP('',(#120));
#120 = ORIENTED_EDGE('',*,*,#121,.F.);
#121 = EDGE_CURVE('',#122,#122,#124,.T.);
#122 = VERTEX_POINT('',#123);
#123 = CARTESIAN_POINT('',(44.500000000002,-3.1,8.));
#124 = CIRCLE('',#125,3.1);
#125 = AXIS2_PLACEMENT_3D('',#126,#127,#128);
#126 = CARTESIAN_POINT('',(44.500000000002,2.095953719202E-13,8.));
#127 = DIRECTION('',(2.465190328816E-32,2.22044604925E-16,1.));
#128 = DIRECTION('',(-2.22044604925E-16,-1.,2.22044604925E-16));
#129 = PLANE('',#130);
#130 = AXIS2_PLACEMENT_3D('',#131,#132,#133);
#131 = CARTESIAN_POINT('',(-3.933310943035E-15,-1.14667303291E-15,8.));
#132 = DIRECTION('',(0.,0.,1.));
#133 = DIRECTION('',(1.,0.,0.));
#134 = ADVANCED_FACE('',(#135),#146,.F.);
#135 = FACE_BOUND('',#136,.T.);
#136 = EDGE_LOOP('',(#137,#143,#144,#145));
#137 = ORIENTED_EDGE('',*,*,#138,.T.);
#138 = EDGE_CURVE('',#58,#111,#139,.T.);
#139 = LINE('',#140,#141);
#140 = CARTESIAN_POINT('',(39.,0.,0.));
#141 = VECTOR('',#142,1.);
#142 = DIRECTION('',(0.,0.,1.));
#143 = ORIENTED_EDGE('',*,*,#110,.T.);
#144 = ORIENTED_EDGE('',*,*,#138,.F.);
#145 = ORIENTED_EDGE('',*,*,#57,.F.);
#146 = CYLINDRICAL_SURFACE('',#147,39.);
#147 = AXIS2_PLACEMENT_3D('',#148,#149,#150);
#148 = CARTESIAN_POINT('',(0.,0.,0.));
#149 = DIRECTION('',(-0.,-0.,-1.));
#150 = DIRECTION('',(1.,0.,0.));
#151 = ADVANCED_FACE('',(#152),#171,.F.);
#152 = FACE_BOUND('',#153,.T.);
#153 = EDGE_LOOP('',(#154,#162,#163,#164));
#154 = ORIENTED_EDGE('',*,*,#155,.F.);
#155 = EDGE_CURVE('',#78,#156,#158,.T.);
#156 = VERTEX_POINT('',#157);
#157 = CARTESIAN_POINT('',(-44.5,3.1,5.95));
#158 = LINE('',#159,#160);
#159 = CARTESIAN_POINT('',(-44.5,3.1,8.));
#160 = VECTOR('',#161,1.);
#161 = DIRECTION('',(-2.22044604925E-16,1.232595164408E-32,-1.));
#162 = ORIENTED_EDGE('',*,*,#77,.T.);
#163 = ORIENTED_EDGE('',*,*,#155,.T.);
#164 = ORIENTED_EDGE('',*,*,#165,.F.);
#165 = EDGE_CURVE('',#156,#156,#166,.T.);
#166 = CIRCLE('',#167,3.1);
#167 = AXIS2_PLACEMENT_3D('',#168,#169,#170);
#168 = CARTESIAN_POINT('',(-44.5,-2.127595075404E-13,5.95));
#169 = DIRECTION('',(2.22044604925E-16,-1.232595164408E-32,1.));
#170 = DIRECTION('',(1.110223024625E-16,1.,-1.232595164408E-32));
#171 = CYLINDRICAL_SURFACE('',#172,3.1);
#172 = AXIS2_PLACEMENT_3D('',#173,#174,#175);
#173 = CARTESIAN_POINT('',(-44.5,-2.127595075404E-13,8.));
#174 = DIRECTION('',(-2.22044604925E-16,1.232595164408E-32,-1.));
#175 = DIRECTION('',(1.110223024625E-16,1.,-1.232595164408E-32));
#176 = ADVANCED_FACE('',(#177),#196,.F.);
#177 = FACE_BOUND('',#178,.T.);
#178 = EDGE_LOOP('',(#179,#187,#188,#189));
#179 = ORIENTED_EDGE('',*,*,#180,.F.);
#180 = EDGE_CURVE('',#89,#181,#183,.T.);
#181 = VERTEX_POINT('',#182);
#182 = CARTESIAN_POINT('',(-3.1,-44.5,5.95));
#183 = LINE('',#184,#185);
#184 = CARTESIAN_POINT('',(-3.1,-44.5,8.));
#185 = VECTOR('',#186,1.);
#186 = DIRECTION('',(-2.22044604925E-16,-2.22044604925E-16,-1.));
#187 = ORIENTED_EDGE('',*,*,#88,.T.);
#188 = ORIENTED_EDGE('',*,*,#180,.T.);
#189 = ORIENTED_EDGE('',*,*,#190,.F.);
#190 = EDGE_CURVE('',#181,#181,#191,.T.);
#191 = CIRCLE('',#192,3.1);
#192 = AXIS2_PLACEMENT_3D('',#193,#194,#195);
#193 = CARTESIAN_POINT('',(2.135714871431E-13,-44.5,5.95));
#194 = DIRECTION('',(2.22044604925E-16,2.22044604925E-16,1.));
#195 = DIRECTION('',(-1.,1.224646799147E-16,2.22044604925E-16));
#196 = CYLINDRICAL_SURFACE('',#197,3.1);
#197 = AXIS2_PLACEMENT_3D('',#198,#199,#200);
#198 = CARTESIAN_POINT('',(2.140266785832E-13,-44.5,8.));
#199 = DIRECTION('',(-2.22044604925E-16,-2.22044604925E-16,-1.));
#200 = DIRECTION('',(-1.,1.224646799147E-16,2.22044604925E-16));
#201 = ADVANCED_FACE('',(#202),#221,.F.);
#202 = FACE_BOUND('',#203,.T.);
#203 = EDGE_LOOP('',(#204,#212,#213,#214));
#204 = ORIENTED_EDGE('',*,*,#205,.F.);
#205 = EDGE_CURVE('',#100,#206,#208,.T.);
#206 = VERTEX_POINT('',#207);
#207 = CARTESIAN_POINT('',(3.1,44.500000000002,5.95));
#208 = LINE('',#209,#210);
#209 = CARTESIAN_POINT('',(3.1,44.500000000002,8.));
#210 = VECTOR('',#211,1.);
#211 = DIRECTION('',(0.,0.,-1.));
#212 = ORIENTED_EDGE('',*,*,#99,.T.);
#213 = ORIENTED_EDGE('',*,*,#205,.T.);
#214 = ORIENTED_EDGE('',*,*,#215,.F.);
#215 = EDGE_CURVE('',#206,#206,#216,.T.);
#216 = CIRCLE('',#217,3.1);
#217 = AXIS2_PLACEMENT_3D('',#218,#219,#220);
#218 = CARTESIAN_POINT('',(-2.177E-13,44.500000000002,5.95));
#219 = DIRECTION('',(0.,0.,1.));
#220 = DIRECTION('',(1.,0.,0.));
#221 = CYLINDRICAL_SURFACE('',#222,3.1);
#222 = AXIS2_PLACEMENT_3D('',#223,#224,#225);
#223 = CARTESIAN_POINT('',(-2.177E-13,44.500000000002,8.));
#224 = DIRECTION('',(-0.,-0.,-1.));
#225 = DIRECTION('',(1.,0.,0.));
#226 = ADVANCED_FACE('',(#227),#246,.F.);
#227 = FACE_BOUND('',#228,.T.);
#228 = EDGE_LOOP('',(#229,#237,#238,#239));
#229 = ORIENTED_EDGE('',*,*,#230,.F.);
#230 = EDGE_CURVE('',#122,#231,#233,.T.);
#231 = VERTEX_POINT('',#232);
#232 = CARTESIAN_POINT('',(44.500000000002,-3.1,5.95));
#233 = LINE('',#234,#235);
#234 = CARTESIAN_POINT('',(44.500000000002,-3.1,8.));
#235 = VECTOR('',#236,1.);
#236 = DIRECTION('',(-2.465190328816E-32,-2.22044604925E-16,-1.));
#237 = ORIENTED_EDGE('',*,*,#121,.T.);
#238 = ORIENTED_EDGE('',*,*,#230,.T.);
#239 = ORIENTED_EDGE('',*,*,#240,.F.);
#240 = EDGE_CURVE('',#231,#231,#241,.T.);
#241 = CIRCLE('',#242,3.1);
#242 = AXIS2_PLACEMENT_3D('',#243,#244,#245);
#243 = CARTESIAN_POINT('',(44.500000000002,2.091401804801E-13,5.95));
#244 = DIRECTION('',(2.465190328816E-32,2.22044604925E-16,1.));
#245 = DIRECTION('',(-2.22044604925E-16,-1.,2.22044604925E-16));
#246 = CYLINDRICAL_SURFACE('',#247,3.1);
#247 = AXIS2_PLACEMENT_3D('',#248,#249,#250);
#248 = CARTESIAN_POINT('',(44.500000000002,2.095953719202E-13,8.));
#249 = DIRECTION('',(-2.465190328816E-32,-2.22044604925E-16,-1.));
#250 = DIRECTION('',(-2.22044604925E-16,-1.,2.22044604925E-16));
#251 = ADVANCED_FACE('',(#252),#255,.T.);
#252 = FACE_BOUND('',#253,.T.);
#253 = EDGE_LOOP('',(#254));
#254 = ORIENTED_EDGE('',*,*,#165,.T.);
#255 = PLANE('',#256);
#256 = AXIS2_PLACEMENT_3D('',#257,#258,#259);
#257 = CARTESIAN_POINT('',(-44.5,-2.127595075404E-13,5.95));
#258 = DIRECTION('',(2.22044604925E-16,-1.232595164408E-32,1.));
#259 = DIRECTION('',(1.110223024625E-16,1.,-1.232595164408E-32));
#260 = ADVANCED_FACE('',(#261),#264,.T.);
#261 = FACE_BOUND('',#262,.T.);
#262 = EDGE_LOOP('',(#263));
#263 = ORIENTED_EDGE('',*,*,#190,.T.);
#264 = PLANE('',#265);
#265 = AXIS2_PLACEMENT_3D('',#266,#267,#268);
#266 = CARTESIAN_POINT('',(2.135714871431E-13,-44.5,5.95));
#267 = DIRECTION('',(2.22044604925E-16,2.22044604925E-16,1.));
#268 = DIRECTION('',(-1.,1.224646799147E-16,2.22044604925E-16));
#269 = ADVANCED_FACE('',(#270),#273,.T.);
#270 = FACE_BOUND('',#271,.T.);
#271 = EDGE_LOOP('',(#272));
#272 = ORIENTED_EDGE('',*,*,#215,.T.);
#273 = PLANE('',#274);
#274 = AXIS2_PLACEMENT_3D('',#275,#276,#277);
#275 = CARTESIAN_POINT('',(-2.177E-13,44.500000000002,5.95));
#276 = DIRECTION('',(0.,0.,1.));
#277 = DIRECTION('',(1.,0.,0.));
#278 = ADVANCED_FACE('',(#279),#282,.T.);
#279 = FACE_BOUND('',#280,.T.);
#280 = EDGE_LOOP('',(#281));
#281 = ORIENTED_EDGE('',*,*,#240,.T.);
#282 = PLANE('',#283);
#283 = AXIS2_PLACEMENT_3D('',#284,#285,#286);
#284 = CARTESIAN_POINT('',(44.500000000002,2.091401804801E-13,5.95));
#285 = DIRECTION('',(2.465190328816E-32,2.22044604925E-16,1.));
#286 = DIRECTION('',(-2.22044604925E-16,-1.,2.22044604925E-16));
#287 = ( GEOMETRIC_REPRESENTATION_CONTEXT(3) 
GLOBAL_UNCERTAINTY_ASSIGNED_CONTEXT((#291)) GLOBAL_UNIT_ASSIGNED_CONTEXT
((#288,#289,#290)) REPRESENTATION_CONTEXT('Context #1',
  '3D Context with UNIT and UNCERTAINTY') );
#288 = ( LENGTH_UNIT() NAMED_UNIT(*) SI_UNIT(.MILLI.,.METRE.) );
#289 = ( NAMED_UNIT(*) PLANE_ANGLE_UNIT() SI_UNIT($,.RADIAN.) );
#290 = ( NAMED_UNIT(*) SI_UNIT($,.STERADIAN.) SOLID_ANGLE_UNIT() );
#291 = UNCERTAINTY_MEASURE_WITH_UNIT(LENGTH_MEASURE(1.E-07),#288,
  'distance_accuracy_value','confusion accuracy');
#292 = PRODUCT_RELATED_PRODUCT_CATEGORY('part',$,(#7));
#293 = MECHANICAL_DESIGN_GEOMETRIC_PRESENTATION_REPRESENTATION('',(#294)
  ,#287);
#294 = STYLED_ITEM('color',(#295),#15);
#295 = PRESENTATION_STYLE_ASSIGNMENT((#296,#302));
#296 = SURFACE_STYLE_USAGE(.BOTH.,#297);
#297 = SURFACE_SIDE_STYLE('',(#298));
#298 = SURFACE_STYLE_FILL_AREA(#299);
#299 = FILL_AREA_STYLE('',(#300));
#300 = FILL_AREA_STYLE_COLOUR('',#301);
#301 = COLOUR_RGB('',0.678431390124,0.709803936702,0.741176476869);
#302 = CURVE_STYLE('',#303,POSITIVE_LENGTH_MEASURE(0.1),#304);
#303 = DRAUGHTING_PRE_DEFINED_CURVE_FONT('continuous');
#304 = COLOUR_RGB('',9.803921802644E-02,9.803921802644E-02,
  9.803921802644E-02);
ENDSEC;
END-ISO-10303-21;
