ISO-10303-21;
HEADER;
FILE_DESCRIPTION(('FreeCAD Model'),'2;1');
FILE_NAME('Open CASCADE Shape Model','2026-09-09T16:52:58',(''),(''),
  'Open CASCADE STEP processor 7.8','FreeCAD','Unknown');
FILE_SCHEMA(('AUTOMOTIVE_DESIGN { 1 0 10303 214 1 1 1 1 }'));
ENDSEC;
DATA;
#1 = APPLICATION_PROTOCOL_DEFINITION('international standard',
  'automotive_design',2000,#2);
#2 = APPLICATION_CONTEXT(
  'core data for automotive mechanical design processes');
#3 = SHAPE_DEFINITION_REPRESENTATION(#4,#10);
#4 = PRODUCT_DEFINITION_SHAPE('','',#5);
#5 = PRODUCT_DEFINITION('design','',#6,#9);
#6 = PRODUCT_DEFINITION_FORMATION('','',#7);
#7 = PRODUCT('01_UpperDisk','01_UpperDisk','',(#8));
#8 = PRODUCT_CONTEXT('',#2,'mechanical');
#9 = PRODUCT_DEFINITION_CONTEXT('part definition',#2,'design');
#10 = ADVANCED_BREP_SHAPE_REPRESENTATION('',(#11,#15),#680);
#11 = AXIS2_PLACEMENT_3D('',#12,#13,#14);
#12 = CARTESIAN_POINT('',(0.,0.,0.));
#13 = DIRECTION('',(0.,0.,1.));
#14 = DIRECTION('',(1.,0.,-0.));
#15 = MANIFOLD_SOLID_BREP('',#16);
#16 = CLOSED_SHELL('',(#17,#57,#222,#247,#271,#377,#401,#418,#435,#452,
    #469,#481,#498,#515,#527,#544,#569,#594,#619,#644,#653,#662,#671));
#17 = ADVANCED_FACE('',(#18),#52,.T.);
#18 = FACE_BOUND('',#19,.T.);
#19 = EDGE_LOOP('',(#20,#30,#38,#46));
#20 = ORIENTED_EDGE('',*,*,#21,.F.);
#21 = EDGE_CURVE('',#22,#24,#26,.T.);
#22 = VERTEX_POINT('',#23);
#23 = CARTESIAN_POINT('',(-1.9,-50.91748226297,4.));
#24 = VERTEX_POINT('',#25);
#25 = CARTESIAN_POINT('',(-1.9,-55.,4.));
#26 = LINE('',#27,#28);
#27 = CARTESIAN_POINT('',(-1.9,-49.96388695848,4.));
#28 = VECTOR('',#29,1.);
#29 = DIRECTION('',(-5.290856732432E-16,-1.,0.));
#30 = ORIENTED_EDGE('',*,*,#31,.T.);
#31 = EDGE_CURVE('',#22,#32,#34,.T.);
#32 = VERTEX_POINT('',#33);
#33 = CARTESIAN_POINT('',(-1.9,-50.91748226297,0.));
#34 = LINE('',#35,#36);
#35 = CARTESIAN_POINT('',(-1.9,-50.91748226297,4.));
#36 = VECTOR('',#37,1.);
#37 = DIRECTION('',(-0.,-0.,-1.));
#38 = ORIENTED_EDGE('',*,*,#39,.T.);
#39 = EDGE_CURVE('',#32,#40,#42,.T.);
#40 = VERTEX_POINT('',#41);
#41 = CARTESIAN_POINT('',(-1.9,-55.,0.));
#42 = LINE('',#43,#44);
#43 = CARTESIAN_POINT('',(-1.9,-49.96388695848,0.));
#44 = VECTOR('',#45,1.);
#45 = DIRECTION('',(-5.290856732432E-16,-1.,0.));
#46 = ORIENTED_EDGE('',*,*,#47,.F.);
#47 = EDGE_CURVE('',#24,#40,#48,.T.);
#48 = LINE('',#49,#50);
#49 = CARTESIAN_POINT('',(-1.9,-55.,4.));
#50 = VECTOR('',#51,1.);
#51 = DIRECTION('',(-0.,-0.,-1.));
#52 = PLANE('',#53);
#53 = AXIS2_PLACEMENT_3D('',#54,#55,#56);
#54 = CARTESIAN_POINT('',(-1.9,-49.96388695848,4.));
#55 = DIRECTION('',(-1.,5.290856732432E-16,0.));
#56 = DIRECTION('',(-5.290856732432E-16,-1.,0.));
#57 = ADVANCED_FACE('',(#58,#162,#173,#184,#195,#206),#217,.T.);
#58 = FACE_BOUND('',#59,.T.);
#59 = EDGE_LOOP('',(#60,#71,#80,#88,#96,#104,#113,#122,#129,#130,#138,
    #146,#155));
#60 = ORIENTED_EDGE('',*,*,#61,.T.);
#61 = EDGE_CURVE('',#62,#64,#66,.T.);
#62 = VERTEX_POINT('',#63);
#63 = CARTESIAN_POINT('',(50.,0.,4.));
#64 = VERTEX_POINT('',#65);
#65 = CARTESIAN_POINT('',(2.843137254902,49.919100257815,4.));
#66 = CIRCLE('',#67,50.);
#67 = AXIS2_PLACEMENT_3D('',#68,#69,#70);
#68 = CARTESIAN_POINT('',(0.,0.,4.));
#69 = DIRECTION('',(0.,0.,1.));
#70 = DIRECTION('',(1.,0.,0.));
#71 = ORIENTED_EDGE('',*,*,#72,.T.);
#72 = EDGE_CURVE('',#64,#73,#75,.T.);
#73 = VERTEX_POINT('',#74);
#74 = CARTESIAN_POINT('',(1.9,50.917482262971,4.));
#75 = CIRCLE('',#76,1.);
#76 = AXIS2_PLACEMENT_3D('',#77,#78,#79);
#77 = CARTESIAN_POINT('',(2.9,50.917482262971,4.));
#78 = DIRECTION('',(0.,0.,-1.));
#79 = DIRECTION('',(0.,1.,0.));
#80 = ORIENTED_EDGE('',*,*,#81,.T.);
#81 = EDGE_CURVE('',#73,#82,#84,.T.);
#82 = VERTEX_POINT('',#83);
#83 = CARTESIAN_POINT('',(1.9,55.,4.));
#84 = LINE('',#85,#86);
#85 = CARTESIAN_POINT('',(1.9,49.963886958482,4.));
#86 = VECTOR('',#87,1.);
#87 = DIRECTION('',(6.51550353158E-16,1.,0.));
#88 = ORIENTED_EDGE('',*,*,#89,.T.);
#89 = EDGE_CURVE('',#82,#90,#92,.T.);
#90 = VERTEX_POINT('',#91);
#91 = CARTESIAN_POINT('',(-1.9,55.,4.));
#92 = LINE('',#93,#94);
#93 = CARTESIAN_POINT('',(1.9,55.,4.));
#94 = VECTOR('',#95,1.);
#95 = DIRECTION('',(-1.,1.224646799147E-16,0.));
#96 = ORIENTED_EDGE('',*,*,#97,.T.);
#97 = EDGE_CURVE('',#90,#98,#100,.T.);
#98 = VERTEX_POINT('',#99);
#99 = CARTESIAN_POINT('',(-1.9,50.917482262971,4.));
#100 = LINE('',#101,#102);
#101 = CARTESIAN_POINT('',(-1.9,55.,4.));
#102 = VECTOR('',#103,1.);
#103 = DIRECTION('',(-2.67971210059E-15,-1.,0.));
#104 = ORIENTED_EDGE('',*,*,#105,.F.);
#105 = EDGE_CURVE('',#106,#98,#108,.T.);
#106 = VERTEX_POINT('',#107);
#107 = CARTESIAN_POINT('',(-2.843137254902,49.919100257815,4.));
#108 = CIRCLE('',#109,1.);
#109 = AXIS2_PLACEMENT_3D('',#110,#111,#112);
#110 = CARTESIAN_POINT('',(-2.9,50.917482262971,4.));
#111 = DIRECTION('',(0.,-0.,1.));
#112 = DIRECTION('',(0.,1.,0.));
#113 = ORIENTED_EDGE('',*,*,#114,.T.);
#114 = EDGE_CURVE('',#106,#115,#117,.T.);
#115 = VERTEX_POINT('',#116);
#116 = CARTESIAN_POINT('',(-2.843137254902,-49.91910025781,4.));
#117 = CIRCLE('',#118,50.);
#118 = AXIS2_PLACEMENT_3D('',#119,#120,#121);
#119 = CARTESIAN_POINT('',(0.,0.,4.));
#120 = DIRECTION('',(0.,0.,1.));
#121 = DIRECTION('',(1.,0.,0.));
#122 = ORIENTED_EDGE('',*,*,#123,.F.);
#123 = EDGE_CURVE('',#22,#115,#124,.T.);
#124 = CIRCLE('',#125,1.);
#125 = AXIS2_PLACEMENT_3D('',#126,#127,#128);
#126 = CARTESIAN_POINT('',(-2.9,-50.91748226297,4.));
#127 = DIRECTION('',(0.,-0.,1.));
#128 = DIRECTION('',(0.,1.,0.));
#129 = ORIENTED_EDGE('',*,*,#21,.T.);
#130 = ORIENTED_EDGE('',*,*,#131,.T.);
#131 = EDGE_CURVE('',#24,#132,#134,.T.);
#132 = VERTEX_POINT('',#133);
#133 = CARTESIAN_POINT('',(1.9,-55.,4.));
#134 = LINE('',#135,#136);
#135 = CARTESIAN_POINT('',(-1.9,-55.,4.));
#136 = VECTOR('',#137,1.);
#137 = DIRECTION('',(1.,0.,0.));
#138 = ORIENTED_EDGE('',*,*,#139,.T.);
#139 = EDGE_CURVE('',#132,#140,#142,.T.);
#140 = VERTEX_POINT('',#141);
#141 = CARTESIAN_POINT('',(1.9,-50.91748226297,4.));
#142 = LINE('',#143,#144);
#143 = CARTESIAN_POINT('',(1.9,-55.,4.));
#144 = VECTOR('',#145,1.);
#145 = DIRECTION('',(2.557247420676E-15,1.,0.));
#146 = ORIENTED_EDGE('',*,*,#147,.T.);
#147 = EDGE_CURVE('',#140,#148,#150,.T.);
#148 = VERTEX_POINT('',#149);
#149 = CARTESIAN_POINT('',(2.843137254902,-49.91910025781,4.));
#150 = CIRCLE('',#151,1.);
#151 = AXIS2_PLACEMENT_3D('',#152,#153,#154);
#152 = CARTESIAN_POINT('',(2.9,-50.91748226297,4.));
#153 = DIRECTION('',(0.,0.,-1.));
#154 = DIRECTION('',(0.,1.,0.));
#155 = ORIENTED_EDGE('',*,*,#156,.T.);
#156 = EDGE_CURVE('',#148,#62,#157,.T.);
#157 = CIRCLE('',#158,50.);
#158 = AXIS2_PLACEMENT_3D('',#159,#160,#161);
#159 = CARTESIAN_POINT('',(0.,0.,4.));
#160 = DIRECTION('',(0.,0.,1.));
#161 = DIRECTION('',(1.,0.,0.));
#162 = FACE_BOUND('',#163,.T.);
#163 = EDGE_LOOP('',(#164));
#164 = ORIENTED_EDGE('',*,*,#165,.F.);
#165 = EDGE_CURVE('',#166,#166,#168,.T.);
#166 = VERTEX_POINT('',#167);
#167 = CARTESIAN_POINT('',(39.,0.,4.));
#168 = CIRCLE('',#169,39.);
#169 = AXIS2_PLACEMENT_3D('',#170,#171,#172);
#170 = CARTESIAN_POINT('',(0.,0.,4.));
#171 = DIRECTION('',(0.,0.,1.));
#172 = DIRECTION('',(1.,0.,0.));
#173 = FACE_BOUND('',#174,.T.);
#174 = EDGE_LOOP('',(#175));
#175 = ORIENTED_EDGE('',*,*,#176,.F.);
#176 = EDGE_CURVE('',#177,#177,#179,.T.);
#177 = VERTEX_POINT('',#178);
#178 = CARTESIAN_POINT('',(-34.6412517628,-31.4662517628,4.));
#179 = CIRCLE('',#180,3.175);
#180 = AXIS2_PLACEMENT_3D('',#181,#182,#183);
#181 = CARTESIAN_POINT('',(-31.4662517628,-31.4662517628,4.));
#182 = DIRECTION('',(0.,0.,1.));
#183 = DIRECTION('',(-1.,1.224646799147E-16,0.));
#184 = FACE_BOUND('',#185,.T.);
#185 = EDGE_LOOP('',(#186));
#186 = ORIENTED_EDGE('',*,*,#187,.F.);
#187 = EDGE_CURVE('',#188,#188,#190,.T.);
#188 = VERTEX_POINT('',#189);
#189 = CARTESIAN_POINT('',(-31.4662517628,34.641251762804,4.));
#190 = CIRCLE('',#191,3.175);
#191 = AXIS2_PLACEMENT_3D('',#192,#193,#194);
#192 = CARTESIAN_POINT('',(-31.4662517628,31.466251762804,4.));
#193 = DIRECTION('',(0.,-0.,1.));
#194 = DIRECTION('',(1.110223024625E-16,1.,0.));
#195 = FACE_BOUND('',#196,.T.);
#196 = EDGE_LOOP('',(#197));
#197 = ORIENTED_EDGE('',*,*,#198,.F.);
#198 = EDGE_CURVE('',#199,#199,#201,.T.);
#199 = VERTEX_POINT('',#200);
#200 = CARTESIAN_POINT('',(31.466251762804,-34.6412517628,4.));
#201 = CIRCLE('',#202,3.175);
#202 = AXIS2_PLACEMENT_3D('',#203,#204,#205);
#203 = CARTESIAN_POINT('',(31.466251762804,-31.4662517628,4.));
#204 = DIRECTION('',(0.,0.,1.));
#205 = DIRECTION('',(-2.22044604925E-16,-1.,0.));
#206 = FACE_BOUND('',#207,.T.);
#207 = EDGE_LOOP('',(#208));
#208 = ORIENTED_EDGE('',*,*,#209,.F.);
#209 = EDGE_CURVE('',#210,#210,#212,.T.);
#210 = VERTEX_POINT('',#211);
#211 = CARTESIAN_POINT('',(34.641251762804,31.466251762804,4.));
#212 = CIRCLE('',#213,3.175);
#213 = AXIS2_PLACEMENT_3D('',#214,#215,#216);
#214 = CARTESIAN_POINT('',(31.466251762804,31.466251762804,4.));
#215 = DIRECTION('',(0.,0.,1.));
#216 = DIRECTION('',(1.,0.,0.));
#217 = PLANE('',#218);
#218 = AXIS2_PLACEMENT_3D('',#219,#220,#221);
#219 = CARTESIAN_POINT('',(1.459659094852,5.714617177311E-16,4.));
#220 = DIRECTION('',(0.,0.,1.));
#221 = DIRECTION('',(1.,0.,0.));
#222 = ADVANCED_FACE('',(#223),#242,.F.);
#223 = FACE_BOUND('',#224,.T.);
#224 = EDGE_LOOP('',(#225,#226,#234,#241));
#225 = ORIENTED_EDGE('',*,*,#123,.T.);
#226 = ORIENTED_EDGE('',*,*,#227,.T.);
#227 = EDGE_CURVE('',#115,#228,#230,.T.);
#228 = VERTEX_POINT('',#229);
#229 = CARTESIAN_POINT('',(-2.843137254902,-49.91910025781,0.));
#230 = LINE('',#231,#232);
#231 = CARTESIAN_POINT('',(-2.843137254902,-49.91910025781,4.));
#232 = VECTOR('',#233,1.);
#233 = DIRECTION('',(-0.,-0.,-1.));
#234 = ORIENTED_EDGE('',*,*,#235,.F.);
#235 = EDGE_CURVE('',#32,#228,#236,.T.);
#236 = CIRCLE('',#237,1.);
#237 = AXIS2_PLACEMENT_3D('',#238,#239,#240);
#238 = CARTESIAN_POINT('',(-2.9,-50.91748226297,0.));
#239 = DIRECTION('',(0.,-0.,1.));
#240 = DIRECTION('',(0.,1.,0.));
#241 = ORIENTED_EDGE('',*,*,#31,.F.);
#242 = CYLINDRICAL_SURFACE('',#243,1.);
#243 = AXIS2_PLACEMENT_3D('',#244,#245,#246);
#244 = CARTESIAN_POINT('',(-2.9,-50.91748226297,4.));
#245 = DIRECTION('',(-0.,-0.,-1.));
#246 = DIRECTION('',(1.,-5.290856732432E-16,0.));
#247 = ADVANCED_FACE('',(#248),#266,.T.);
#248 = FACE_BOUND('',#249,.T.);
#249 = EDGE_LOOP('',(#250,#251,#259,#265));
#250 = ORIENTED_EDGE('',*,*,#47,.T.);
#251 = ORIENTED_EDGE('',*,*,#252,.T.);
#252 = EDGE_CURVE('',#40,#253,#255,.T.);
#253 = VERTEX_POINT('',#254);
#254 = CARTESIAN_POINT('',(1.9,-55.,0.));
#255 = LINE('',#256,#257);
#256 = CARTESIAN_POINT('',(-1.9,-55.,0.));
#257 = VECTOR('',#258,1.);
#258 = DIRECTION('',(1.,0.,0.));
#259 = ORIENTED_EDGE('',*,*,#260,.F.);
#260 = EDGE_CURVE('',#132,#253,#261,.T.);
#261 = LINE('',#262,#263);
#262 = CARTESIAN_POINT('',(1.9,-55.,4.));
#263 = VECTOR('',#264,1.);
#264 = DIRECTION('',(-0.,-0.,-1.));
#265 = ORIENTED_EDGE('',*,*,#131,.F.);
#266 = PLANE('',#267);
#267 = AXIS2_PLACEMENT_3D('',#268,#269,#270);
#268 = CARTESIAN_POINT('',(-1.9,-55.,4.));
#269 = DIRECTION('',(0.,-1.,0.));
#270 = DIRECTION('',(1.,0.,0.));
#271 = ADVANCED_FACE('',(#272,#361),#372,.T.);
#272 = FACE_BOUND('',#273,.T.);
#273 = EDGE_LOOP('',(#274,#285,#294,#303,#309,#310,#311,#312,#321,#330,
    #338,#346,#354));
#274 = ORIENTED_EDGE('',*,*,#275,.F.);
#275 = EDGE_CURVE('',#276,#278,#280,.T.);
#276 = VERTEX_POINT('',#277);
#277 = CARTESIAN_POINT('',(50.,0.,0.));
#278 = VERTEX_POINT('',#279);
#279 = CARTESIAN_POINT('',(2.843137254902,49.919100257815,0.));
#280 = CIRCLE('',#281,50.);
#281 = AXIS2_PLACEMENT_3D('',#282,#283,#284);
#282 = CARTESIAN_POINT('',(0.,0.,0.));
#283 = DIRECTION('',(0.,0.,1.));
#284 = DIRECTION('',(1.,0.,0.));
#285 = ORIENTED_EDGE('',*,*,#286,.F.);
#286 = EDGE_CURVE('',#287,#276,#289,.T.);
#287 = VERTEX_POINT('',#288);
#288 = CARTESIAN_POINT('',(2.843137254902,-49.91910025781,0.));
#289 = CIRCLE('',#290,50.);
#290 = AXIS2_PLACEMENT_3D('',#291,#292,#293);
#291 = CARTESIAN_POINT('',(0.,0.,0.));
#292 = DIRECTION('',(0.,0.,1.));
#293 = DIRECTION('',(1.,0.,0.));
#294 = ORIENTED_EDGE('',*,*,#295,.F.);
#295 = EDGE_CURVE('',#296,#287,#298,.T.);
#296 = VERTEX_POINT('',#297);
#297 = CARTESIAN_POINT('',(1.9,-50.91748226297,0.));
#298 = CIRCLE('',#299,1.);
#299 = AXIS2_PLACEMENT_3D('',#300,#301,#302);
#300 = CARTESIAN_POINT('',(2.9,-50.91748226297,0.));
#301 = DIRECTION('',(0.,0.,-1.));
#302 = DIRECTION('',(0.,1.,0.));
#303 = ORIENTED_EDGE('',*,*,#304,.F.);
#304 = EDGE_CURVE('',#253,#296,#305,.T.);
#305 = LINE('',#306,#307);
#306 = CARTESIAN_POINT('',(1.9,-55.,0.));
#307 = VECTOR('',#308,1.);
#308 = DIRECTION('',(2.557247420676E-15,1.,0.));
#309 = ORIENTED_EDGE('',*,*,#252,.F.);
#310 = ORIENTED_EDGE('',*,*,#39,.F.);
#311 = ORIENTED_EDGE('',*,*,#235,.T.);
#312 = ORIENTED_EDGE('',*,*,#313,.F.);
#313 = EDGE_CURVE('',#314,#228,#316,.T.);
#314 = VERTEX_POINT('',#315);
#315 = CARTESIAN_POINT('',(-2.843137254902,49.919100257815,0.));
#316 = CIRCLE('',#317,50.);
#317 = AXIS2_PLACEMENT_3D('',#318,#319,#320);
#318 = CARTESIAN_POINT('',(0.,0.,0.));
#319 = DIRECTION('',(0.,0.,1.));
#320 = DIRECTION('',(1.,0.,0.));
#321 = ORIENTED_EDGE('',*,*,#322,.T.);
#322 = EDGE_CURVE('',#314,#323,#325,.T.);
#323 = VERTEX_POINT('',#324);
#324 = CARTESIAN_POINT('',(-1.9,50.917482262971,0.));
#325 = CIRCLE('',#326,1.);
#326 = AXIS2_PLACEMENT_3D('',#327,#328,#329);
#327 = CARTESIAN_POINT('',(-2.9,50.917482262971,0.));
#328 = DIRECTION('',(0.,-0.,1.));
#329 = DIRECTION('',(0.,1.,0.));
#330 = ORIENTED_EDGE('',*,*,#331,.F.);
#331 = EDGE_CURVE('',#332,#323,#334,.T.);
#332 = VERTEX_POINT('',#333);
#333 = CARTESIAN_POINT('',(-1.9,55.,0.));
#334 = LINE('',#335,#336);
#335 = CARTESIAN_POINT('',(-1.9,55.,0.));
#336 = VECTOR('',#337,1.);
#337 = DIRECTION('',(-2.67971210059E-15,-1.,0.));
#338 = ORIENTED_EDGE('',*,*,#339,.F.);
#339 = EDGE_CURVE('',#340,#332,#342,.T.);
#340 = VERTEX_POINT('',#341);
#341 = CARTESIAN_POINT('',(1.9,55.,0.));
#342 = LINE('',#343,#344);
#343 = CARTESIAN_POINT('',(1.9,55.,0.));
#344 = VECTOR('',#345,1.);
#345 = DIRECTION('',(-1.,1.224646799147E-16,0.));
#346 = ORIENTED_EDGE('',*,*,#347,.F.);
#347 = EDGE_CURVE('',#348,#340,#350,.T.);
#348 = VERTEX_POINT('',#349);
#349 = CARTESIAN_POINT('',(1.9,50.917482262971,0.));
#350 = LINE('',#351,#352);
#351 = CARTESIAN_POINT('',(1.9,49.963886958482,0.));
#352 = VECTOR('',#353,1.);
#353 = DIRECTION('',(6.51550353158E-16,1.,0.));
#354 = ORIENTED_EDGE('',*,*,#355,.F.);
#355 = EDGE_CURVE('',#278,#348,#356,.T.);
#356 = CIRCLE('',#357,1.);
#357 = AXIS2_PLACEMENT_3D('',#358,#359,#360);
#358 = CARTESIAN_POINT('',(2.9,50.917482262971,0.));
#359 = DIRECTION('',(0.,0.,-1.));
#360 = DIRECTION('',(0.,1.,0.));
#361 = FACE_BOUND('',#362,.T.);
#362 = EDGE_LOOP('',(#363));
#363 = ORIENTED_EDGE('',*,*,#364,.T.);
#364 = EDGE_CURVE('',#365,#365,#367,.T.);
#365 = VERTEX_POINT('',#366);
#366 = CARTESIAN_POINT('',(39.,0.,0.));
#367 = CIRCLE('',#368,39.);
#368 = AXIS2_PLACEMENT_3D('',#369,#370,#371);
#369 = CARTESIAN_POINT('',(0.,0.,0.));
#370 = DIRECTION('',(0.,0.,1.));
#371 = DIRECTION('',(1.,0.,0.));
#372 = PLANE('',#373);
#373 = AXIS2_PLACEMENT_3D('',#374,#375,#376);
#374 = CARTESIAN_POINT('',(1.459659094852,1.394683477882E-15,0.));
#375 = DIRECTION('',(-0.,-0.,-1.));
#376 = DIRECTION('',(-1.,0.,0.));
#377 = ADVANCED_FACE('',(#378),#396,.T.);
#378 = FACE_BOUND('',#379,.F.);
#379 = EDGE_LOOP('',(#380,#381,#387,#388,#389,#395));
#380 = ORIENTED_EDGE('',*,*,#286,.F.);
#381 = ORIENTED_EDGE('',*,*,#382,.F.);
#382 = EDGE_CURVE('',#148,#287,#383,.T.);
#383 = LINE('',#384,#385);
#384 = CARTESIAN_POINT('',(2.843137254902,-49.91910025781,4.));
#385 = VECTOR('',#386,1.);
#386 = DIRECTION('',(-0.,-0.,-1.));
#387 = ORIENTED_EDGE('',*,*,#156,.T.);
#388 = ORIENTED_EDGE('',*,*,#61,.T.);
#389 = ORIENTED_EDGE('',*,*,#390,.T.);
#390 = EDGE_CURVE('',#64,#278,#391,.T.);
#391 = LINE('',#392,#393);
#392 = CARTESIAN_POINT('',(2.843137254902,49.919100257815,4.));
#393 = VECTOR('',#394,1.);
#394 = DIRECTION('',(-0.,-0.,-1.));
#395 = ORIENTED_EDGE('',*,*,#275,.F.);
#396 = CYLINDRICAL_SURFACE('',#397,50.);
#397 = AXIS2_PLACEMENT_3D('',#398,#399,#400);
#398 = CARTESIAN_POINT('',(0.,0.,0.));
#399 = DIRECTION('',(-0.,-0.,-1.));
#400 = DIRECTION('',(1.,0.,0.));
#401 = ADVANCED_FACE('',(#402),#413,.F.);
#402 = FACE_BOUND('',#403,.F.);
#403 = EDGE_LOOP('',(#404,#405,#411,#412));
#404 = ORIENTED_EDGE('',*,*,#72,.T.);
#405 = ORIENTED_EDGE('',*,*,#406,.T.);
#406 = EDGE_CURVE('',#73,#348,#407,.T.);
#407 = LINE('',#408,#409);
#408 = CARTESIAN_POINT('',(1.9,50.917482262971,4.));
#409 = VECTOR('',#410,1.);
#410 = DIRECTION('',(-0.,-0.,-1.));
#411 = ORIENTED_EDGE('',*,*,#355,.F.);
#412 = ORIENTED_EDGE('',*,*,#390,.F.);
#413 = CYLINDRICAL_SURFACE('',#414,1.);
#414 = AXIS2_PLACEMENT_3D('',#415,#416,#417);
#415 = CARTESIAN_POINT('',(2.9,50.917482262971,4.));
#416 = DIRECTION('',(-0.,-0.,-1.));
#417 = DIRECTION('',(-5.686274509803E-02,-0.998382005156,0.));
#418 = ADVANCED_FACE('',(#419),#430,.T.);
#419 = FACE_BOUND('',#420,.T.);
#420 = EDGE_LOOP('',(#421,#422,#423,#424));
#421 = ORIENTED_EDGE('',*,*,#81,.F.);
#422 = ORIENTED_EDGE('',*,*,#406,.T.);
#423 = ORIENTED_EDGE('',*,*,#347,.T.);
#424 = ORIENTED_EDGE('',*,*,#425,.F.);
#425 = EDGE_CURVE('',#82,#340,#426,.T.);
#426 = LINE('',#427,#428);
#427 = CARTESIAN_POINT('',(1.9,55.,4.));
#428 = VECTOR('',#429,1.);
#429 = DIRECTION('',(0.,0.,-1.));
#430 = PLANE('',#431);
#431 = AXIS2_PLACEMENT_3D('',#432,#433,#434);
#432 = CARTESIAN_POINT('',(1.9,49.963886958482,4.));
#433 = DIRECTION('',(1.,-6.51550353158E-16,0.));
#434 = DIRECTION('',(6.51550353158E-16,1.,0.));
#435 = ADVANCED_FACE('',(#436),#447,.F.);
#436 = FACE_BOUND('',#437,.F.);
#437 = EDGE_LOOP('',(#438,#439,#440,#441));
#438 = ORIENTED_EDGE('',*,*,#147,.T.);
#439 = ORIENTED_EDGE('',*,*,#382,.T.);
#440 = ORIENTED_EDGE('',*,*,#295,.F.);
#441 = ORIENTED_EDGE('',*,*,#442,.F.);
#442 = EDGE_CURVE('',#140,#296,#443,.T.);
#443 = LINE('',#444,#445);
#444 = CARTESIAN_POINT('',(1.9,-50.91748226297,4.));
#445 = VECTOR('',#446,1.);
#446 = DIRECTION('',(-0.,-0.,-1.));
#447 = CYLINDRICAL_SURFACE('',#448,1.);
#448 = AXIS2_PLACEMENT_3D('',#449,#450,#451);
#449 = CARTESIAN_POINT('',(2.9,-50.91748226297,4.));
#450 = DIRECTION('',(-0.,-0.,-1.));
#451 = DIRECTION('',(-1.,2.557247420676E-15,0.));
#452 = ADVANCED_FACE('',(#453),#464,.T.);
#453 = FACE_BOUND('',#454,.T.);
#454 = EDGE_LOOP('',(#455,#456,#457,#463));
#455 = ORIENTED_EDGE('',*,*,#425,.T.);
#456 = ORIENTED_EDGE('',*,*,#339,.T.);
#457 = ORIENTED_EDGE('',*,*,#458,.F.);
#458 = EDGE_CURVE('',#90,#332,#459,.T.);
#459 = LINE('',#460,#461);
#460 = CARTESIAN_POINT('',(-1.9,55.,4.));
#461 = VECTOR('',#462,1.);
#462 = DIRECTION('',(0.,0.,-1.));
#463 = ORIENTED_EDGE('',*,*,#89,.F.);
#464 = PLANE('',#465);
#465 = AXIS2_PLACEMENT_3D('',#466,#467,#468);
#466 = CARTESIAN_POINT('',(1.9,55.,4.));
#467 = DIRECTION('',(1.224646799147E-16,1.,0.));
#468 = DIRECTION('',(-1.,1.224646799147E-16,0.));
#469 = ADVANCED_FACE('',(#470),#476,.T.);
#470 = FACE_BOUND('',#471,.T.);
#471 = EDGE_LOOP('',(#472,#473,#474,#475));
#472 = ORIENTED_EDGE('',*,*,#139,.F.);
#473 = ORIENTED_EDGE('',*,*,#260,.T.);
#474 = ORIENTED_EDGE('',*,*,#304,.T.);
#475 = ORIENTED_EDGE('',*,*,#442,.F.);
#476 = PLANE('',#477);
#477 = AXIS2_PLACEMENT_3D('',#478,#479,#480);
#478 = CARTESIAN_POINT('',(1.9,-55.,4.));
#479 = DIRECTION('',(1.,-2.557247420676E-15,0.));
#480 = DIRECTION('',(2.557247420676E-15,1.,0.));
#481 = ADVANCED_FACE('',(#482),#493,.T.);
#482 = FACE_BOUND('',#483,.T.);
#483 = EDGE_LOOP('',(#484,#485,#486,#487));
#484 = ORIENTED_EDGE('',*,*,#97,.F.);
#485 = ORIENTED_EDGE('',*,*,#458,.T.);
#486 = ORIENTED_EDGE('',*,*,#331,.T.);
#487 = ORIENTED_EDGE('',*,*,#488,.F.);
#488 = EDGE_CURVE('',#98,#323,#489,.T.);
#489 = LINE('',#490,#491);
#490 = CARTESIAN_POINT('',(-1.9,50.917482262971,4.));
#491 = VECTOR('',#492,1.);
#492 = DIRECTION('',(-0.,-0.,-1.));
#493 = PLANE('',#494);
#494 = AXIS2_PLACEMENT_3D('',#495,#496,#497);
#495 = CARTESIAN_POINT('',(-1.9,55.,4.));
#496 = DIRECTION('',(-1.,2.67971210059E-15,0.));
#497 = DIRECTION('',(-2.67971210059E-15,-1.,0.));
#498 = ADVANCED_FACE('',(#499),#510,.F.);
#499 = FACE_BOUND('',#500,.T.);
#500 = EDGE_LOOP('',(#501,#502,#503,#504));
#501 = ORIENTED_EDGE('',*,*,#105,.T.);
#502 = ORIENTED_EDGE('',*,*,#488,.T.);
#503 = ORIENTED_EDGE('',*,*,#322,.F.);
#504 = ORIENTED_EDGE('',*,*,#505,.F.);
#505 = EDGE_CURVE('',#106,#314,#506,.T.);
#506 = LINE('',#507,#508);
#507 = CARTESIAN_POINT('',(-2.843137254902,49.919100257815,4.));
#508 = VECTOR('',#509,1.);
#509 = DIRECTION('',(-0.,-0.,-1.));
#510 = CYLINDRICAL_SURFACE('',#511,1.);
#511 = AXIS2_PLACEMENT_3D('',#512,#513,#514);
#512 = CARTESIAN_POINT('',(-2.9,50.917482262971,4.));
#513 = DIRECTION('',(-0.,-0.,-1.));
#514 = DIRECTION('',(5.686274509804E-02,-0.998382005156,0.));
#515 = ADVANCED_FACE('',(#516),#522,.T.);
#516 = FACE_BOUND('',#517,.F.);
#517 = EDGE_LOOP('',(#518,#519,#520,#521));
#518 = ORIENTED_EDGE('',*,*,#313,.F.);
#519 = ORIENTED_EDGE('',*,*,#505,.F.);
#520 = ORIENTED_EDGE('',*,*,#114,.T.);
#521 = ORIENTED_EDGE('',*,*,#227,.T.);
#522 = CYLINDRICAL_SURFACE('',#523,50.);
#523 = AXIS2_PLACEMENT_3D('',#524,#525,#526);
#524 = CARTESIAN_POINT('',(0.,0.,0.));
#525 = DIRECTION('',(-0.,-0.,-1.));
#526 = DIRECTION('',(1.,0.,0.));
#527 = ADVANCED_FACE('',(#528),#539,.F.);
#528 = FACE_BOUND('',#529,.T.);
#529 = EDGE_LOOP('',(#530,#536,#537,#538));
#530 = ORIENTED_EDGE('',*,*,#531,.T.);
#531 = EDGE_CURVE('',#365,#166,#532,.T.);
#532 = LINE('',#533,#534);
#533 = CARTESIAN_POINT('',(39.,0.,0.));
#534 = VECTOR('',#535,1.);
#535 = DIRECTION('',(0.,0.,1.));
#536 = ORIENTED_EDGE('',*,*,#165,.T.);
#537 = ORIENTED_EDGE('',*,*,#531,.F.);
#538 = ORIENTED_EDGE('',*,*,#364,.F.);
#539 = CYLINDRICAL_SURFACE('',#540,39.);
#540 = AXIS2_PLACEMENT_3D('',#541,#542,#543);
#541 = CARTESIAN_POINT('',(0.,0.,0.));
#542 = DIRECTION('',(-0.,-0.,-1.));
#543 = DIRECTION('',(1.,0.,0.));
#544 = ADVANCED_FACE('',(#545),#564,.F.);
#545 = FACE_BOUND('',#546,.T.);
#546 = EDGE_LOOP('',(#547,#555,#556,#557));
#547 = ORIENTED_EDGE('',*,*,#548,.F.);
#548 = EDGE_CURVE('',#177,#549,#551,.T.);
#549 = VERTEX_POINT('',#550);
#550 = CARTESIAN_POINT('',(-34.6412517628,-31.4662517628,1.95));
#551 = LINE('',#552,#553);
#552 = CARTESIAN_POINT('',(-34.6412517628,-31.4662517628,4.));
#553 = VECTOR('',#554,1.);
#554 = DIRECTION('',(-0.,0.,-1.));
#555 = ORIENTED_EDGE('',*,*,#176,.T.);
#556 = ORIENTED_EDGE('',*,*,#548,.T.);
#557 = ORIENTED_EDGE('',*,*,#558,.F.);
#558 = EDGE_CURVE('',#549,#549,#559,.T.);
#559 = CIRCLE('',#560,3.175);
#560 = AXIS2_PLACEMENT_3D('',#561,#562,#563);
#561 = CARTESIAN_POINT('',(-31.4662517628,-31.4662517628,1.95));
#562 = DIRECTION('',(0.,0.,1.));
#563 = DIRECTION('',(-1.,1.224646799147E-16,0.));
#564 = CYLINDRICAL_SURFACE('',#565,3.175);
#565 = AXIS2_PLACEMENT_3D('',#566,#567,#568);
#566 = CARTESIAN_POINT('',(-31.4662517628,-31.4662517628,4.));
#567 = DIRECTION('',(0.,0.,-1.));
#568 = DIRECTION('',(-1.,1.224646799147E-16,0.));
#569 = ADVANCED_FACE('',(#570),#589,.F.);
#570 = FACE_BOUND('',#571,.T.);
#571 = EDGE_LOOP('',(#572,#580,#581,#582));
#572 = ORIENTED_EDGE('',*,*,#573,.F.);
#573 = EDGE_CURVE('',#188,#574,#576,.T.);
#574 = VERTEX_POINT('',#575);
#575 = CARTESIAN_POINT('',(-31.4662517628,34.641251762804,1.95));
#576 = LINE('',#577,#578);
#577 = CARTESIAN_POINT('',(-31.4662517628,34.641251762804,4.));
#578 = VECTOR('',#579,1.);
#579 = DIRECTION('',(0.,0.,-1.));
#580 = ORIENTED_EDGE('',*,*,#187,.T.);
#581 = ORIENTED_EDGE('',*,*,#573,.T.);
#582 = ORIENTED_EDGE('',*,*,#583,.F.);
#583 = EDGE_CURVE('',#574,#574,#584,.T.);
#584 = CIRCLE('',#585,3.175);
#585 = AXIS2_PLACEMENT_3D('',#586,#587,#588);
#586 = CARTESIAN_POINT('',(-31.4662517628,31.466251762804,1.95));
#587 = DIRECTION('',(0.,-0.,1.));
#588 = DIRECTION('',(1.110223024625E-16,1.,0.));
#589 = CYLINDRICAL_SURFACE('',#590,3.175);
#590 = AXIS2_PLACEMENT_3D('',#591,#592,#593);
#591 = CARTESIAN_POINT('',(-31.4662517628,31.466251762804,4.));
#592 = DIRECTION('',(0.,-0.,-1.));
#593 = DIRECTION('',(1.110223024625E-16,1.,0.));
#594 = ADVANCED_FACE('',(#595),#614,.F.);
#595 = FACE_BOUND('',#596,.T.);
#596 = EDGE_LOOP('',(#597,#605,#606,#607));
#597 = ORIENTED_EDGE('',*,*,#598,.F.);
#598 = EDGE_CURVE('',#199,#599,#601,.T.);
#599 = VERTEX_POINT('',#600);
#600 = CARTESIAN_POINT('',(31.466251762804,-34.6412517628,1.95));
#601 = LINE('',#602,#603);
#602 = CARTESIAN_POINT('',(31.466251762804,-34.6412517628,4.));
#603 = VECTOR('',#604,1.);
#604 = DIRECTION('',(0.,-0.,-1.));
#605 = ORIENTED_EDGE('',*,*,#198,.T.);
#606 = ORIENTED_EDGE('',*,*,#598,.T.);
#607 = ORIENTED_EDGE('',*,*,#608,.F.);
#608 = EDGE_CURVE('',#599,#599,#609,.T.);
#609 = CIRCLE('',#610,3.175);
#610 = AXIS2_PLACEMENT_3D('',#611,#612,#613);
#611 = CARTESIAN_POINT('',(31.466251762804,-31.4662517628,1.95));
#612 = DIRECTION('',(0.,0.,1.));
#613 = DIRECTION('',(-2.22044604925E-16,-1.,0.));
#614 = CYLINDRICAL_SURFACE('',#615,3.175);
#615 = AXIS2_PLACEMENT_3D('',#616,#617,#618);
#616 = CARTESIAN_POINT('',(31.466251762804,-31.4662517628,4.));
#617 = DIRECTION('',(0.,0.,-1.));
#618 = DIRECTION('',(-2.22044604925E-16,-1.,0.));
#619 = ADVANCED_FACE('',(#620),#639,.F.);
#620 = FACE_BOUND('',#621,.T.);
#621 = EDGE_LOOP('',(#622,#630,#631,#632));
#622 = ORIENTED_EDGE('',*,*,#623,.F.);
#623 = EDGE_CURVE('',#210,#624,#626,.T.);
#624 = VERTEX_POINT('',#625);
#625 = CARTESIAN_POINT('',(34.641251762804,31.466251762804,1.95));
#626 = LINE('',#627,#628);
#627 = CARTESIAN_POINT('',(34.641251762804,31.466251762804,4.));
#628 = VECTOR('',#629,1.);
#629 = DIRECTION('',(0.,0.,-1.));
#630 = ORIENTED_EDGE('',*,*,#209,.T.);
#631 = ORIENTED_EDGE('',*,*,#623,.T.);
#632 = ORIENTED_EDGE('',*,*,#633,.F.);
#633 = EDGE_CURVE('',#624,#624,#634,.T.);
#634 = CIRCLE('',#635,3.175);
#635 = AXIS2_PLACEMENT_3D('',#636,#637,#638);
#636 = CARTESIAN_POINT('',(31.466251762804,31.466251762804,1.95));
#637 = DIRECTION('',(0.,0.,1.));
#638 = DIRECTION('',(1.,0.,0.));
#639 = CYLINDRICAL_SURFACE('',#640,3.175);
#640 = AXIS2_PLACEMENT_3D('',#641,#642,#643);
#641 = CARTESIAN_POINT('',(31.466251762804,31.466251762804,4.));
#642 = DIRECTION('',(-0.,-0.,-1.));
#643 = DIRECTION('',(1.,0.,0.));
#644 = ADVANCED_FACE('',(#645),#648,.T.);
#645 = FACE_BOUND('',#646,.T.);
#646 = EDGE_LOOP('',(#647));
#647 = ORIENTED_EDGE('',*,*,#558,.T.);
#648 = PLANE('',#649);
#649 = AXIS2_PLACEMENT_3D('',#650,#651,#652);
#650 = CARTESIAN_POINT('',(-31.4662517628,-31.4662517628,1.95));
#651 = DIRECTION('',(0.,0.,1.));
#652 = DIRECTION('',(-1.,1.224646799147E-16,0.));
#653 = ADVANCED_FACE('',(#654),#657,.T.);
#654 = FACE_BOUND('',#655,.T.);
#655 = EDGE_LOOP('',(#656));
#656 = ORIENTED_EDGE('',*,*,#583,.T.);
#657 = PLANE('',#658);
#658 = AXIS2_PLACEMENT_3D('',#659,#660,#661);
#659 = CARTESIAN_POINT('',(-31.4662517628,31.466251762804,1.95));
#660 = DIRECTION('',(0.,0.,1.));
#661 = DIRECTION('',(1.110223024625E-16,1.,0.));
#662 = ADVANCED_FACE('',(#663),#666,.T.);
#663 = FACE_BOUND('',#664,.T.);
#664 = EDGE_LOOP('',(#665));
#665 = ORIENTED_EDGE('',*,*,#608,.T.);
#666 = PLANE('',#667);
#667 = AXIS2_PLACEMENT_3D('',#668,#669,#670);
#668 = CARTESIAN_POINT('',(31.466251762804,-31.4662517628,1.95));
#669 = DIRECTION('',(0.,0.,1.));
#670 = DIRECTION('',(-2.22044604925E-16,-1.,0.));
#671 = ADVANCED_FACE('',(#672),#675,.T.);
#672 = FACE_BOUND('',#673,.T.);
#673 = EDGE_LOOP('',(#674));
#674 = ORIENTED_EDGE('',*,*,#633,.T.);
#675 = PLANE('',#676);
#676 = AXIS2_PLACEMENT_3D('',#677,#678,#679);
#677 = CARTESIAN_POINT('',(31.466251762804,31.466251762804,1.95));
#678 = DIRECTION('',(0.,0.,1.));
#679 = DIRECTION('',(1.,0.,0.));
#680 = ( GEOMETRIC_REPRESENTATION_CONTEXT(3) 
GLOBAL_UNCERTAINTY_ASSIGNED_CONTEXT((#684)) GLOBAL_UNIT_ASSIGNED_CONTEXT
((#681,#682,#683)) REPRESENTATION_CONTEXT('Context #1',
  '3D Context with UNIT and UNCERTAINTY') );
#681 = ( LENGTH_UNIT() NAMED_UNIT(*) SI_UNIT(.MILLI.,.METRE.) );
#682 = ( NAMED_UNIT(*) PLANE_ANGLE_UNIT() SI_UNIT($,.RADIAN.) );
#683 = ( NAMED_UNIT(*) SI_UNIT($,.STERADIAN.) SOLID_ANGLE_UNIT() );
#684 = UNCERTAINTY_MEASURE_WITH_UNIT(LENGTH_MEASURE(1.E-07),#681,
  'distance_accuracy_value','confusion accuracy');
#685 = PRODUCT_RELATED_PRODUCT_CATEGORY('part',$,(#7));
#686 = MECHANICAL_DESIGN_GEOMETRIC_PRESENTATION_REPRESENTATION('',(#687)
  ,#680);
#687 = STYLED_ITEM('color',(#688),#15);
#688 = PRESENTATION_STYLE_ASSIGNMENT((#689,#695));
#689 = SURFACE_STYLE_USAGE(.BOTH.,#690);
#690 = SURFACE_SIDE_STYLE('',(#691));
#691 = SURFACE_STYLE_FILL_AREA(#692);
#692 = FILL_AREA_STYLE('',(#693));
#693 = FILL_AREA_STYLE_COLOUR('',#694);
#694 = COLOUR_RGB('',0.678431390124,0.709803936702,0.741176476869);
#695 = CURVE_STYLE('',#696,POSITIVE_LENGTH_MEASURE(0.1),#697);
#696 = DRAUGHTING_PRE_DEFINED_CURVE_FONT('continuous');
#697 = COLOUR_RGB('',9.803921802644E-02,9.803921802644E-02,
  9.803921802644E-02);
ENDSEC;
END-ISO-10303-21;
