ISO-10303-21;
HEADER;
FILE_DESCRIPTION(('FreeCAD Model'),'2;1');
FILE_NAME('Open CASCADE Shape Model','2026-09-08T21:07:43',(''),(''),
  'Open CASCADE STEP processor 7.8','FreeCAD','Unknown');
FILE_SCHEMA(('AUTOMOTIVE_DESIGN { 1 0 10303 214 1 1 1 1 }'));
ENDSEC;
DATA;
#1 = APPLICATION_PROTOCOL_DEFINITION('international standard',
  'automotive_design',2000,#2);
#2 = APPLICATION_CONTEXT(
  'core data for automotive mechanical design processes');
#3 = SHAPE_DEFINITION_REPRESENTATION(#4,#10);
#4 = PRODUCT_DEFINITION_SHAPE('','',#5);
#5 = PRODUCT_DEFINITION('design','',#6,#9);
#6 = PRODUCT_DEFINITION_FORMATION('','',#7);
#7 = PRODUCT('00_LowerDisk','00_LowerDisk','',(#8));
#8 = PRODUCT_CONTEXT('',#2,'mechanical');
#9 = PRODUCT_DEFINITION_CONTEXT('part definition',#2,'design');
#10 = ADVANCED_BREP_SHAPE_REPRESENTATION('',(#11,#15),#332);
#11 = AXIS2_PLACEMENT_3D('',#12,#13,#14);
#12 = CARTESIAN_POINT('',(0.,0.,0.));
#13 = DIRECTION('',(0.,0.,1.));
#14 = DIRECTION('',(1.,0.,-0.));
#15 = MANIFOLD_SOLID_BREP('',#16);
#16 = CLOSED_SHELL('',(#17,#50,#70,#145,#162,#187,#212,#237,#262,#287,
    #296,#305,#314,#323));
#17 = ADVANCED_FACE('',(#18),#45,.T.);
#18 = FACE_BOUND('',#19,.F.);
#19 = EDGE_LOOP('',(#20,#30,#37,#38));
#20 = ORIENTED_EDGE('',*,*,#21,.T.);
#21 = EDGE_CURVE('',#22,#24,#26,.T.);
#22 = VERTEX_POINT('',#23);
#23 = CARTESIAN_POINT('',(50.,0.,0.));
#24 = VERTEX_POINT('',#25);
#25 = CARTESIAN_POINT('',(50.,0.,8.));
#26 = LINE('',#27,#28);
#27 = CARTESIAN_POINT('',(50.,0.,0.));
#28 = VECTOR('',#29,1.);
#29 = DIRECTION('',(0.,0.,1.));
#30 = ORIENTED_EDGE('',*,*,#31,.T.);
#31 = EDGE_CURVE('',#24,#24,#32,.T.);
#32 = CIRCLE('',#33,50.);
#33 = AXIS2_PLACEMENT_3D('',#34,#35,#36);
#34 = CARTESIAN_POINT('',(0.,0.,8.));
#35 = DIRECTION('',(0.,0.,1.));
#36 = DIRECTION('',(1.,0.,0.));
#37 = ORIENTED_EDGE('',*,*,#21,.F.);
#38 = ORIENTED_EDGE('',*,*,#39,.F.);
#39 = EDGE_CURVE('',#22,#22,#40,.T.);
#40 = CIRCLE('',#41,50.);
#41 = AXIS2_PLACEMENT_3D('',#42,#43,#44);
#42 = CARTESIAN_POINT('',(0.,0.,0.));
#43 = DIRECTION('',(0.,0.,1.));
#44 = DIRECTION('',(1.,0.,0.));
#45 = CYLINDRICAL_SURFACE('',#46,50.);
#46 = AXIS2_PLACEMENT_3D('',#47,#48,#49);
#47 = CARTESIAN_POINT('',(0.,0.,0.));
#48 = DIRECTION('',(-0.,-0.,-1.));
#49 = DIRECTION('',(1.,0.,0.));
#50 = ADVANCED_FACE('',(#51,#54),#65,.F.);
#51 = FACE_BOUND('',#52,.F.);
#52 = EDGE_LOOP('',(#53));
#53 = ORIENTED_EDGE('',*,*,#39,.T.);
#54 = FACE_BOUND('',#55,.T.);
#55 = EDGE_LOOP('',(#56));
#56 = ORIENTED_EDGE('',*,*,#57,.T.);
#57 = EDGE_CURVE('',#58,#58,#60,.T.);
#58 = VERTEX_POINT('',#59);
#59 = CARTESIAN_POINT('',(39.,0.,0.));
#60 = CIRCLE('',#61,39.);
#61 = AXIS2_PLACEMENT_3D('',#62,#63,#64);
#62 = CARTESIAN_POINT('',(0.,0.,0.));
#63 = DIRECTION('',(0.,0.,1.));
#64 = DIRECTION('',(1.,0.,0.));
#65 = PLANE('',#66);
#66 = AXIS2_PLACEMENT_3D('',#67,#68,#69);
#67 = CARTESIAN_POINT('',(-3.933310943035E-15,-1.14667303291E-15,0.));
#68 = DIRECTION('',(0.,0.,1.));
#69 = DIRECTION('',(1.,0.,0.));
#70 = ADVANCED_FACE('',(#71,#74,#85,#96,#107,#118,#129),#140,.T.);
#71 = FACE_BOUND('',#72,.T.);
#72 = EDGE_LOOP('',(#73));
#73 = ORIENTED_EDGE('',*,*,#31,.T.);
#74 = FACE_BOUND('',#75,.T.);
#75 = EDGE_LOOP('',(#76));
#76 = ORIENTED_EDGE('',*,*,#77,.F.);
#77 = EDGE_CURVE('',#78,#78,#80,.T.);
#78 = VERTEX_POINT('',#79);
#79 = CARTESIAN_POINT('',(-23.375,-38.53813046841,8.));
#80 = CIRCLE('',#81,1.125);
#81 = AXIS2_PLACEMENT_3D('',#82,#83,#84);
#82 = CARTESIAN_POINT('',(-22.25,-38.53813046841,8.));
#83 = DIRECTION('',(2.22044604925E-16,2.22044604925E-16,1.));
#84 = DIRECTION('',(-1.,1.224646799147E-16,2.22044604925E-16));
#85 = FACE_BOUND('',#86,.T.);
#86 = EDGE_LOOP('',(#87));
#87 = ORIENTED_EDGE('',*,*,#88,.F.);
#88 = EDGE_CURVE('',#89,#89,#91,.T.);
#89 = VERTEX_POINT('',#90);
#90 = CARTESIAN_POINT('',(-40.0881304684,-19.56532124826,8.));
#91 = CIRCLE('',#92,3.1);
#92 = AXIS2_PLACEMENT_3D('',#93,#94,#95);
#93 = CARTESIAN_POINT('',(-38.5381304684,-22.25,8.));
#94 = DIRECTION('',(2.62681588013E-16,7.03853193746E-17,1.));
#95 = DIRECTION('',(-0.5,0.866025403784,7.03853193746E-17));
#96 = FACE_BOUND('',#97,.T.);
#97 = EDGE_LOOP('',(#98));
#98 = ORIENTED_EDGE('',*,*,#99,.F.);
#99 = EDGE_CURVE('',#100,#100,#102,.T.);
#100 = VERTEX_POINT('',#101);
#101 = CARTESIAN_POINT('',(39.,0.,8.));
#102 = CIRCLE('',#103,39.);
#103 = AXIS2_PLACEMENT_3D('',#104,#105,#106);
#104 = CARTESIAN_POINT('',(0.,0.,8.));
#105 = DIRECTION('',(0.,0.,1.));
#106 = DIRECTION('',(1.,0.,0.));
#107 = FACE_BOUND('',#108,.T.);
#108 = EDGE_LOOP('',(#109));
#109 = ORIENTED_EDGE('',*,*,#110,.F.);
#110 = EDGE_CURVE('',#111,#111,#113,.T.);
#111 = VERTEX_POINT('',#112);
#112 = CARTESIAN_POINT('',(36.988130468409,-24.93467875173,8.));
#113 = CIRCLE('',#114,3.1);
#114 = AXIS2_PLACEMENT_3D('',#115,#116,#117);
#115 = CARTESIAN_POINT('',(38.538130468409,-22.25,8.));
#116 = DIRECTION('',(7.03853193746E-17,2.62681588013E-16,1.));
#117 = DIRECTION('',(-0.5,-0.866025403784,2.62681588013E-16));
#118 = FACE_BOUND('',#119,.T.);
#119 = EDGE_LOOP('',(#120));
#120 = ORIENTED_EDGE('',*,*,#121,.F.);
#121 = EDGE_CURVE('',#122,#122,#124,.T.);
#122 = VERTEX_POINT('',#123);
#123 = CARTESIAN_POINT('',(3.1,44.500000000002,8.));
#124 = CIRCLE('',#125,3.1);
#125 = AXIS2_PLACEMENT_3D('',#126,#127,#128);
#126 = CARTESIAN_POINT('',(-2.177E-13,44.500000000002,8.));
#127 = DIRECTION('',(0.,0.,1.));
#128 = DIRECTION('',(1.,0.,0.));
#129 = FACE_BOUND('',#130,.T.);
#130 = EDGE_LOOP('',(#131));
#131 = ORIENTED_EDGE('',*,*,#132,.F.);
#132 = EDGE_CURVE('',#133,#133,#135,.T.);
#133 = VERTEX_POINT('',#134);
#134 = CARTESIAN_POINT('',(23.375000000003,38.538130468413,8.));
#135 = CIRCLE('',#136,1.125);
#136 = AXIS2_PLACEMENT_3D('',#137,#138,#139);
#137 = CARTESIAN_POINT('',(22.250000000003,38.538130468413,8.));
#138 = DIRECTION('',(0.,0.,1.));
#139 = DIRECTION('',(1.,0.,0.));
#140 = PLANE('',#141);
#141 = AXIS2_PLACEMENT_3D('',#142,#143,#144);
#142 = CARTESIAN_POINT('',(-3.933310943035E-15,-1.14667303291E-15,8.));
#143 = DIRECTION('',(0.,0.,1.));
#144 = DIRECTION('',(1.,0.,0.));
#145 = ADVANCED_FACE('',(#146),#157,.F.);
#146 = FACE_BOUND('',#147,.T.);
#147 = EDGE_LOOP('',(#148,#154,#155,#156));
#148 = ORIENTED_EDGE('',*,*,#149,.T.);
#149 = EDGE_CURVE('',#58,#100,#150,.T.);
#150 = LINE('',#151,#152);
#151 = CARTESIAN_POINT('',(39.,0.,0.));
#152 = VECTOR('',#153,1.);
#153 = DIRECTION('',(0.,0.,1.));
#154 = ORIENTED_EDGE('',*,*,#99,.T.);
#155 = ORIENTED_EDGE('',*,*,#149,.F.);
#156 = ORIENTED_EDGE('',*,*,#57,.F.);
#157 = CYLINDRICAL_SURFACE('',#158,39.);
#158 = AXIS2_PLACEMENT_3D('',#159,#160,#161);
#159 = CARTESIAN_POINT('',(0.,0.,0.));
#160 = DIRECTION('',(-0.,-0.,-1.));
#161 = DIRECTION('',(1.,0.,0.));
#162 = ADVANCED_FACE('',(#163),#182,.T.);
#163 = FACE_BOUND('',#164,.F.);
#164 = EDGE_LOOP('',(#165,#173,#180,#181));
#165 = ORIENTED_EDGE('',*,*,#166,.T.);
#166 = EDGE_CURVE('',#78,#167,#169,.T.);
#167 = VERTEX_POINT('',#168);
#168 = CARTESIAN_POINT('',(-23.375,-38.53813046841,8.2));
#169 = LINE('',#170,#171);
#170 = CARTESIAN_POINT('',(-23.375,-38.53813046841,8.));
#171 = VECTOR('',#172,1.);
#172 = DIRECTION('',(2.22044604925E-16,2.22044604925E-16,1.));
#173 = ORIENTED_EDGE('',*,*,#174,.T.);
#174 = EDGE_CURVE('',#167,#167,#175,.T.);
#175 = CIRCLE('',#176,1.125);
#176 = AXIS2_PLACEMENT_3D('',#177,#178,#179);
#177 = CARTESIAN_POINT('',(-22.25,-38.53813046841,8.2));
#178 = DIRECTION('',(2.22044604925E-16,2.22044604925E-16,1.));
#179 = DIRECTION('',(-1.,1.224646799147E-16,2.22044604925E-16));
#180 = ORIENTED_EDGE('',*,*,#166,.F.);
#181 = ORIENTED_EDGE('',*,*,#77,.F.);
#182 = CYLINDRICAL_SURFACE('',#183,1.125);
#183 = AXIS2_PLACEMENT_3D('',#184,#185,#186);
#184 = CARTESIAN_POINT('',(-22.25,-38.53813046841,8.));
#185 = DIRECTION('',(-2.22044604925E-16,-2.22044604925E-16,-1.));
#186 = DIRECTION('',(-1.,1.224646799147E-16,2.22044604925E-16));
#187 = ADVANCED_FACE('',(#188),#207,.F.);
#188 = FACE_BOUND('',#189,.T.);
#189 = EDGE_LOOP('',(#190,#198,#199,#200));
#190 = ORIENTED_EDGE('',*,*,#191,.F.);
#191 = EDGE_CURVE('',#89,#192,#194,.T.);
#192 = VERTEX_POINT('',#193);
#193 = CARTESIAN_POINT('',(-40.0881304684,-19.56532124826,5.875));
#194 = LINE('',#195,#196);
#195 = CARTESIAN_POINT('',(-40.0881304684,-19.56532124826,8.));
#196 = VECTOR('',#197,1.);
#197 = DIRECTION('',(-2.62681588013E-16,-7.03853193746E-17,-1.));
#198 = ORIENTED_EDGE('',*,*,#88,.T.);
#199 = ORIENTED_EDGE('',*,*,#191,.T.);
#200 = ORIENTED_EDGE('',*,*,#201,.F.);
#201 = EDGE_CURVE('',#192,#192,#202,.T.);
#202 = CIRCLE('',#203,3.1);
#203 = AXIS2_PLACEMENT_3D('',#204,#205,#206);
#204 = CARTESIAN_POINT('',(-38.5381304684,-22.25,5.875));
#205 = DIRECTION('',(2.62681588013E-16,7.03853193746E-17,1.));
#206 = DIRECTION('',(-0.5,0.866025403784,7.03853193746E-17));
#207 = CYLINDRICAL_SURFACE('',#208,3.1);
#208 = AXIS2_PLACEMENT_3D('',#209,#210,#211);
#209 = CARTESIAN_POINT('',(-38.5381304684,-22.25,8.));
#210 = DIRECTION('',(-2.62681588013E-16,-7.03853193746E-17,-1.));
#211 = DIRECTION('',(-0.5,0.866025403784,7.03853193746E-17));
#212 = ADVANCED_FACE('',(#213),#232,.F.);
#213 = FACE_BOUND('',#214,.T.);
#214 = EDGE_LOOP('',(#215,#223,#224,#225));
#215 = ORIENTED_EDGE('',*,*,#216,.F.);
#216 = EDGE_CURVE('',#111,#217,#219,.T.);
#217 = VERTEX_POINT('',#218);
#218 = CARTESIAN_POINT('',(36.988130468409,-24.93467875173,5.875));
#219 = LINE('',#220,#221);
#220 = CARTESIAN_POINT('',(36.988130468409,-24.93467875173,8.));
#221 = VECTOR('',#222,1.);
#222 = DIRECTION('',(-7.03853193746E-17,-2.62681588013E-16,-1.));
#223 = ORIENTED_EDGE('',*,*,#110,.T.);
#224 = ORIENTED_EDGE('',*,*,#216,.T.);
#225 = ORIENTED_EDGE('',*,*,#226,.F.);
#226 = EDGE_CURVE('',#217,#217,#227,.T.);
#227 = CIRCLE('',#228,3.1);
#228 = AXIS2_PLACEMENT_3D('',#229,#230,#231);
#229 = CARTESIAN_POINT('',(38.538130468409,-22.25,5.875));
#230 = DIRECTION('',(7.03853193746E-17,2.62681588013E-16,1.));
#231 = DIRECTION('',(-0.5,-0.866025403784,2.62681588013E-16));
#232 = CYLINDRICAL_SURFACE('',#233,3.1);
#233 = AXIS2_PLACEMENT_3D('',#234,#235,#236);
#234 = CARTESIAN_POINT('',(38.538130468409,-22.25,8.));
#235 = DIRECTION('',(-7.03853193746E-17,-2.62681588013E-16,-1.));
#236 = DIRECTION('',(-0.5,-0.866025403784,2.62681588013E-16));
#237 = ADVANCED_FACE('',(#238),#257,.F.);
#238 = FACE_BOUND('',#239,.T.);
#239 = EDGE_LOOP('',(#240,#248,#249,#250));
#240 = ORIENTED_EDGE('',*,*,#241,.F.);
#241 = EDGE_CURVE('',#122,#242,#244,.T.);
#242 = VERTEX_POINT('',#243);
#243 = CARTESIAN_POINT('',(3.1,44.500000000002,5.875));
#244 = LINE('',#245,#246);
#245 = CARTESIAN_POINT('',(3.1,44.500000000002,8.));
#246 = VECTOR('',#247,1.);
#247 = DIRECTION('',(0.,0.,-1.));
#248 = ORIENTED_EDGE('',*,*,#121,.T.);
#249 = ORIENTED_EDGE('',*,*,#241,.T.);
#250 = ORIENTED_EDGE('',*,*,#251,.F.);
#251 = EDGE_CURVE('',#242,#242,#252,.T.);
#252 = CIRCLE('',#253,3.1);
#253 = AXIS2_PLACEMENT_3D('',#254,#255,#256);
#254 = CARTESIAN_POINT('',(-2.177E-13,44.500000000002,5.875));
#255 = DIRECTION('',(0.,0.,1.));
#256 = DIRECTION('',(1.,0.,0.));
#257 = CYLINDRICAL_SURFACE('',#258,3.1);
#258 = AXIS2_PLACEMENT_3D('',#259,#260,#261);
#259 = CARTESIAN_POINT('',(-2.177E-13,44.500000000002,8.));
#260 = DIRECTION('',(-0.,-0.,-1.));
#261 = DIRECTION('',(1.,0.,0.));
#262 = ADVANCED_FACE('',(#263),#282,.T.);
#263 = FACE_BOUND('',#264,.F.);
#264 = EDGE_LOOP('',(#265,#273,#280,#281));
#265 = ORIENTED_EDGE('',*,*,#266,.T.);
#266 = EDGE_CURVE('',#133,#267,#269,.T.);
#267 = VERTEX_POINT('',#268);
#268 = CARTESIAN_POINT('',(23.375000000003,38.538130468413,8.2));
#269 = LINE('',#270,#271);
#270 = CARTESIAN_POINT('',(23.375000000003,38.538130468413,8.));
#271 = VECTOR('',#272,1.);
#272 = DIRECTION('',(0.,0.,1.));
#273 = ORIENTED_EDGE('',*,*,#274,.T.);
#274 = EDGE_CURVE('',#267,#267,#275,.T.);
#275 = CIRCLE('',#276,1.125);
#276 = AXIS2_PLACEMENT_3D('',#277,#278,#279);
#277 = CARTESIAN_POINT('',(22.250000000003,38.538130468413,8.2));
#278 = DIRECTION('',(0.,0.,1.));
#279 = DIRECTION('',(1.,0.,0.));
#280 = ORIENTED_EDGE('',*,*,#266,.F.);
#281 = ORIENTED_EDGE('',*,*,#132,.F.);
#282 = CYLINDRICAL_SURFACE('',#283,1.125);
#283 = AXIS2_PLACEMENT_3D('',#284,#285,#286);
#284 = CARTESIAN_POINT('',(22.250000000003,38.538130468413,8.));
#285 = DIRECTION('',(-0.,-0.,-1.));
#286 = DIRECTION('',(1.,0.,0.));
#287 = ADVANCED_FACE('',(#288),#291,.T.);
#288 = FACE_BOUND('',#289,.T.);
#289 = EDGE_LOOP('',(#290));
#290 = ORIENTED_EDGE('',*,*,#174,.T.);
#291 = PLANE('',#292);
#292 = AXIS2_PLACEMENT_3D('',#293,#294,#295);
#293 = CARTESIAN_POINT('',(-22.25,-38.53813046841,8.2));
#294 = DIRECTION('',(2.22044604925E-16,2.22044604925E-16,1.));
#295 = DIRECTION('',(-1.,1.224646799147E-16,2.22044604925E-16));
#296 = ADVANCED_FACE('',(#297),#300,.T.);
#297 = FACE_BOUND('',#298,.T.);
#298 = EDGE_LOOP('',(#299));
#299 = ORIENTED_EDGE('',*,*,#201,.T.);
#300 = PLANE('',#301);
#301 = AXIS2_PLACEMENT_3D('',#302,#303,#304);
#302 = CARTESIAN_POINT('',(-38.5381304684,-22.25,5.875));
#303 = DIRECTION('',(2.62681588013E-16,7.03853193746E-17,1.));
#304 = DIRECTION('',(-0.5,0.866025403784,7.03853193746E-17));
#305 = ADVANCED_FACE('',(#306),#309,.T.);
#306 = FACE_BOUND('',#307,.T.);
#307 = EDGE_LOOP('',(#308));
#308 = ORIENTED_EDGE('',*,*,#226,.T.);
#309 = PLANE('',#310);
#310 = AXIS2_PLACEMENT_3D('',#311,#312,#313);
#311 = CARTESIAN_POINT('',(38.538130468409,-22.25,5.875));
#312 = DIRECTION('',(7.03853193746E-17,2.62681588013E-16,1.));
#313 = DIRECTION('',(-0.5,-0.866025403784,2.62681588013E-16));
#314 = ADVANCED_FACE('',(#315),#318,.T.);
#315 = FACE_BOUND('',#316,.T.);
#316 = EDGE_LOOP('',(#317));
#317 = ORIENTED_EDGE('',*,*,#251,.T.);
#318 = PLANE('',#319);
#319 = AXIS2_PLACEMENT_3D('',#320,#321,#322);
#320 = CARTESIAN_POINT('',(-2.177E-13,44.500000000002,5.875));
#321 = DIRECTION('',(0.,0.,1.));
#322 = DIRECTION('',(1.,0.,0.));
#323 = ADVANCED_FACE('',(#324),#327,.T.);
#324 = FACE_BOUND('',#325,.T.);
#325 = EDGE_LOOP('',(#326));
#326 = ORIENTED_EDGE('',*,*,#274,.T.);
#327 = PLANE('',#328);
#328 = AXIS2_PLACEMENT_3D('',#329,#330,#331);
#329 = CARTESIAN_POINT('',(22.250000000003,38.538130468413,8.2));
#330 = DIRECTION('',(0.,0.,1.));
#331 = DIRECTION('',(1.,0.,0.));
#332 = ( GEOMETRIC_REPRESENTATION_CONTEXT(3) 
GLOBAL_UNCERTAINTY_ASSIGNED_CONTEXT((#336)) GLOBAL_UNIT_ASSIGNED_CONTEXT
((#333,#334,#335)) REPRESENTATION_CONTEXT('Context #1',
  '3D Context with UNIT and UNCERTAINTY') );
#333 = ( LENGTH_UNIT() NAMED_UNIT(*) SI_UNIT(.MILLI.,.METRE.) );
#334 = ( NAMED_UNIT(*) PLANE_ANGLE_UNIT() SI_UNIT($,.RADIAN.) );
#335 = ( NAMED_UNIT(*) SI_UNIT($,.STERADIAN.) SOLID_ANGLE_UNIT() );
#336 = UNCERTAINTY_MEASURE_WITH_UNIT(LENGTH_MEASURE(1.E-07),#333,
  'distance_accuracy_value','confusion accuracy');
#337 = PRODUCT_RELATED_PRODUCT_CATEGORY('part',$,(#7));
#338 = MECHANICAL_DESIGN_GEOMETRIC_PRESENTATION_REPRESENTATION('',(#339)
  ,#332);
#339 = STYLED_ITEM('color',(#340),#15);
#340 = PRESENTATION_STYLE_ASSIGNMENT((#341,#347));
#341 = SURFACE_STYLE_USAGE(.BOTH.,#342);
#342 = SURFACE_SIDE_STYLE('',(#343));
#343 = SURFACE_STYLE_FILL_AREA(#344);
#344 = FILL_AREA_STYLE('',(#345));
#345 = FILL_AREA_STYLE_COLOUR('',#346);
#346 = COLOUR_RGB('',0.678431390124,0.709803936702,0.741176476869);
#347 = CURVE_STYLE('',#348,POSITIVE_LENGTH_MEASURE(0.1),#349);
#348 = DRAUGHTING_PRE_DEFINED_CURVE_FONT('continuous');
#349 = COLOUR_RGB('',9.803921802644E-02,9.803921802644E-02,
  9.803921802644E-02);
ENDSEC;
END-ISO-10303-21;
